<svg width="222" height="209" viewBox="0 0 222 209" fill="none" xmlns="http://www.w3.org/2000/svg">
    <path fill-rule="evenodd" clip-rule="evenodd" d="M90.7949 138.092C90.4922 138.005 69.3415 136.188 57.7064 135.15C44.6873 133.982 10.0417 132.944 4.50529 143.716C-16.2129 183.863 40.1025 171.231 60.3881 167.467C81.3658 163.573 77.2568 168.332 84.9125 163.487C92.6116 158.641 96.0285 160.372 101.132 157.646C105.544 155.267 109.696 147.48 106.106 144.451C102.56 141.337 94.9472 139.39 90.7949 138.092Z" class="secondary_color"/>
    <path fill-rule="evenodd" clip-rule="evenodd" d="M168.001 68.8296C167.742 68.6998 147.586 69.7813 136.47 70.2572C124.056 70.8196 90.622 76.2706 82.9663 98.0313C54.2464 179.45 111.686 143.153 132.188 131.602C153.425 119.619 148.365 129.656 156.885 118.667C165.406 107.679 168.347 110.318 173.884 103.958C178.685 98.5072 184.351 82.5868 181.54 77.5685C178.728 72.5068 171.764 70.387 168.001 68.8296Z" class="main_color"/>
    <path d="M179.982 162.145C179.939 162.145 179.896 162.145 179.853 162.145L112.811 150.508C112.551 150.465 112.335 150.335 112.205 150.075C112.075 149.859 112.032 149.599 112.119 149.34L118.823 129.915L118.606 102.92L102.17 133.29L100.657 132.468L118.693 99.1561C118.866 98.81 119.298 98.6369 119.645 98.7234C120.034 98.81 120.293 99.1561 120.293 99.5454L120.51 130.045C120.51 130.132 120.51 130.261 120.466 130.348L114.065 148.95L179.161 160.242L181.972 108.284V108.241L186.816 67.6182C187.335 63.0325 184.74 58.6198 180.458 56.9325L162.249 49.7511L136.556 54.4666L126.176 58.4034C121.98 60.0041 118.174 62.6431 115.189 66.0175L85.5612 116.807L84.0474 115.942L113.719 65.109C113.762 65.0658 113.762 65.0225 113.805 64.9792C117.006 61.3452 121.029 58.5332 125.527 56.8028L135.994 52.8227C136.037 52.8227 136.081 52.7794 136.167 52.7794L162.162 48.0206C162.335 47.9773 162.465 48.0206 162.638 48.0639L181.107 55.3319C186.124 57.3219 189.195 62.4268 188.546 67.8345L183.745 108.457L180.891 161.367C180.891 161.626 180.761 161.842 180.545 162.015C180.372 162.102 180.155 162.145 179.982 162.145Z" class="fill_black"/>
    <path d="M121.504 136.535L162.032 120.225C165.276 118.927 167.526 115.855 167.785 112.351C181.193 79.0828 171.894 82.9764 170.77 73.502C170.77 73.502 170.424 56.976 180.718 56.1541L186.6 58.4469C194.169 62.4703 200.528 75.319 199.49 83.8416C198.019 95.9549 192.958 111.356 191.315 121.869C189.974 130.478 185.043 138.049 176.609 140.255L126.695 151.071L121.504 136.535Z" class="fill_white"/>
    <path d="M126.738 151.935C126.392 151.935 126.046 151.719 125.916 151.373L120.683 136.837C120.51 136.404 120.726 135.929 121.159 135.756L161.687 119.446C164.628 118.278 166.661 115.466 166.92 112.308C166.92 112.221 166.963 112.135 166.963 112.048C176.695 87.9512 174.316 83.6683 172.024 79.5585C171.116 77.9578 170.207 76.2706 169.861 73.5883C169.861 73.5451 169.861 73.5451 169.861 73.5018C169.861 72.8096 169.602 56.1538 180.631 55.2886C180.761 55.2886 180.891 55.2886 181.021 55.3318L186.903 57.6247C186.946 57.6247 186.946 57.668 186.99 57.668C194.818 61.8211 201.436 74.8429 200.311 83.9279C199.49 90.72 197.586 98.4639 195.727 105.905C194.256 111.789 192.872 117.326 192.18 121.955C190.623 131.775 184.913 138.914 176.868 141.034L126.954 151.849C126.868 151.935 126.781 151.935 126.738 151.935ZM122.629 137.053L127.3 150.075L176.436 139.433C183.789 137.486 189.022 130.867 190.45 121.739C191.185 117.023 192.569 111.442 194.04 105.516C195.9 98.1178 197.803 90.4172 198.625 83.7116C199.619 75.4053 193.391 63.0324 186.254 59.2254L180.631 57.019C171.678 57.9275 171.635 72.55 171.678 73.4153C171.981 75.7082 172.759 77.1791 173.624 78.6932C176.09 83.1492 178.685 87.7782 168.694 112.524C168.347 116.288 165.882 119.619 162.379 121.003L122.629 137.053Z" class="fill_black"/>
    <path d="M62.7667 189.011C62.7667 189.011 28.8564 198.399 27.5156 198.875C25.4827 199.61 25.8288 207.094 28.9862 206.965C30.5001 206.921 55.0245 207.873 58.1387 207.7C61.2529 207.484 70.5956 203.807 70.5956 203.807L62.7667 189.011Z" class="fill_white"/>
    <path d="M56.7982 208.565C53.2082 208.565 44.7306 208.306 37.7236 208.046C33.3118 207.916 29.5056 207.787 28.9865 207.787C27.2997 207.83 25.9588 206.402 25.5263 203.979C25.137 201.903 25.3965 198.702 27.2132 198.053C28.5973 197.577 61.1234 188.578 62.5075 188.189C62.8968 188.059 63.3294 188.275 63.5024 188.622L71.3311 203.417C71.4609 203.633 71.4609 203.893 71.3744 204.109C71.2879 204.326 71.1149 204.542 70.8986 204.628C70.5093 204.801 61.383 208.392 58.1822 208.565C57.8795 208.565 57.4037 208.565 56.7982 208.565ZM29.1163 206.099C29.9814 206.099 32.9225 206.186 37.8101 206.359C45.5524 206.618 56.1494 206.965 58.0958 206.835C60.4747 206.705 67.0058 204.282 69.3848 203.374L62.3345 190.049C50.44 193.337 28.8568 199.35 27.8187 199.697C27.3862 199.826 26.8671 201.643 27.2564 203.677C27.4727 204.888 28.0782 206.143 28.9865 206.099C28.9865 206.099 29.0298 206.099 29.1163 206.099Z" class="fill_black"/>
    <path d="M98.7537 179.667C98.7537 179.667 130.847 200.648 131.972 201.557C133.702 202.855 131.712 209.085 128.728 208.003C127.301 207.484 100.397 200 97.4994 198.875C94.6014 197.75 86.8159 191.39 86.8159 191.39L98.7537 179.667Z" class="fill_white"/>
    <path d="M129.42 208.955C129.074 208.955 128.771 208.911 128.425 208.782C127.949 208.608 123.754 207.397 118.909 206.056C110.042 203.547 99.0129 200.389 97.153 199.697C94.1685 198.528 86.5561 192.342 86.21 192.082C86.037 191.909 85.9072 191.693 85.9072 191.434C85.9072 191.174 85.9938 190.958 86.1668 190.785L98.1046 179.061C98.4073 178.758 98.8399 178.715 99.1859 178.974C100.483 179.839 131.28 199.999 132.447 200.865C133.875 201.946 133.615 204.715 132.534 206.662C131.799 208.176 130.631 208.955 129.42 208.955ZM88.1132 191.304C90.1028 192.904 95.5959 197.187 97.8018 198.053C99.5751 198.745 111.037 201.989 119.385 204.369C125.181 206.013 128.468 206.965 128.987 207.138C129.982 207.484 130.761 206.316 131.02 205.796C131.842 204.282 131.842 202.509 131.409 202.206C130.544 201.557 110.042 188.102 98.7966 180.748L88.1132 191.304Z" class="fill_black"/>
    <path d="M105.371 193.683C105.241 193.64 105.847 192.039 107.317 190.525C108.788 189.011 110.388 188.362 110.432 188.492C110.518 188.622 109.091 189.487 107.707 190.914C106.366 192.342 105.544 193.77 105.371 193.683Z" fill="#1A2E35"/>
    <path d="M102.517 191.823C102.387 191.823 102.517 190.006 103.901 188.275C105.285 186.588 107.015 186.026 107.058 186.156C107.145 186.329 105.588 187.021 104.333 188.622C103.036 190.222 102.646 191.866 102.517 191.823Z" fill="#1A2E35"/>
    <path d="M104.419 187.843C104.333 187.8 104.765 186.934 105.155 185.463C105.328 184.728 105.501 183.819 105.544 182.781C105.587 182.262 105.544 181.743 105.501 181.18C105.501 180.921 105.414 180.661 105.328 180.488C105.241 180.358 105.068 180.315 104.895 180.402C104.549 180.532 104.333 181.18 104.16 181.656C103.987 182.175 103.9 182.695 103.857 183.171C103.771 184.166 103.814 185.074 103.944 185.853C104.16 187.367 104.463 188.319 104.376 188.319C104.333 188.362 103.9 187.453 103.554 185.896C103.381 185.117 103.295 184.166 103.338 183.127C103.381 182.608 103.468 182.046 103.641 181.483C103.727 181.18 103.814 180.921 103.944 180.661C104.073 180.402 104.29 180.056 104.679 179.883C105.025 179.71 105.587 179.796 105.803 180.185C106.02 180.532 106.063 180.834 106.063 181.137C106.106 181.7 106.106 182.262 106.063 182.781C105.976 183.819 105.803 184.771 105.544 185.507C105.025 187.064 104.463 187.886 104.419 187.843Z" fill="#1A2E35"/>
    <path d="M104.463 187.497C104.42 187.583 103.684 187.194 102.387 186.891C101.738 186.718 100.959 186.588 100.094 186.588C99.6618 186.588 99.186 186.588 98.7968 186.675C98.3642 186.761 98.0615 187.021 98.0182 187.41C97.975 187.8 98.2345 188.189 98.5373 188.449C98.8833 188.665 99.3158 188.795 99.7483 188.838C100.57 188.924 101.349 188.795 101.997 188.622C103.295 188.276 104.074 187.929 104.074 188.016C104.117 188.059 103.381 188.535 102.084 189.011C101.435 189.227 100.613 189.444 99.6618 189.357C99.186 189.314 98.667 189.184 98.2345 188.881C97.7587 188.578 97.3695 188.016 97.456 187.367C97.4992 186.675 98.148 186.199 98.667 186.112C99.186 185.983 99.7051 186.026 100.138 186.026C101.046 186.069 101.868 186.286 102.516 186.459C103.814 186.934 104.506 187.454 104.463 187.497Z" fill="#1A2E35"/>
    <path d="M90.103 192.515C90.1463 192.472 90.622 192.861 91.5303 193.467C92.4387 194.116 93.7795 194.981 95.4664 195.89C97.1965 196.841 99.3159 197.793 101.738 198.702C104.16 199.61 106.885 200.475 109.783 201.297C115.536 202.941 120.769 204.499 124.532 205.624C126.349 206.186 127.82 206.619 128.987 207.008C130.026 207.354 130.631 207.527 130.588 207.57C130.588 207.614 129.982 207.484 128.901 207.224C127.733 206.921 126.219 206.489 124.403 206.013C120.596 204.975 115.363 203.504 109.61 201.86C106.712 201.038 103.987 200.129 101.565 199.221C100.873 198.961 96.5045 196.971 95.2934 196.279C93.5633 195.284 92.2657 194.375 91.4006 193.683C90.5356 192.948 90.103 192.558 90.103 192.515Z" fill="#1A2E35"/>
    <path d="M64.151 186.978C64.0212 186.978 63.8482 186.935 63.7184 186.891C61.9883 185.939 21.4171 163.616 21.5036 142.678C21.5468 131.905 30.7597 128.012 31.668 127.666C48.0609 118.797 120.553 145.879 123.624 147.004C123.97 147.134 124.186 147.436 124.186 147.783C124.186 148.129 123.97 148.475 123.624 148.605L120.207 149.989L64.5835 186.848C64.497 186.935 64.324 186.978 64.151 186.978ZM32.36 129.223C31.9708 129.353 23.3202 132.598 23.2769 142.634C23.1904 161.41 59.6094 182.565 64.151 185.074L119.385 148.475C119.428 148.432 119.472 148.431 119.558 148.388L120.985 147.826C108.745 143.37 46.6335 121.436 32.5331 129.18C32.4466 129.223 32.4033 129.223 32.36 129.223Z" class="fill_black"/>
    <path d="M91.9193 166.688C89.8864 166.688 87.2912 165.087 84.177 161.886C82.4902 160.155 81.2791 158.511 80.241 157.084C77.0836 152.758 75.1804 150.119 64.6267 151.936C49.5314 154.488 40.4051 137.962 40.3186 137.789C40.1023 137.356 40.232 136.837 40.6646 136.621C41.0971 136.405 41.6162 136.534 41.8324 136.967C41.9189 137.14 50.4398 152.584 64.324 150.248C75.9158 148.258 78.3379 151.546 81.6251 156.089C82.6632 157.516 83.831 159.074 85.3881 160.718C89.1079 164.525 91.1408 165.044 92.0059 165.001C92.5681 165.001 92.7844 164.741 92.7844 164.741L93.4764 165.26L94.2118 165.736C94.1685 165.823 93.563 166.601 92.2654 166.731C92.1356 166.688 92.0058 166.688 91.9193 166.688Z" class="fill_black"/>
    <path d="M44.8604 94.657L64.7134 144.927L150.095 146.312L151.695 141.726L121.764 140.601L107.361 95.9981L44.8604 94.657Z" class="fill_black"/>
    <path d="M84.7827 116.418C83.7013 115.682 81.6685 115.985 80.6737 116.85C79.6788 117.715 79.3761 119.273 79.8951 120.484C80.4142 121.696 81.6685 122.561 82.9661 122.647C84.3502 122.734 85.8208 121.825 86.21 120.484C86.5993 119.143 86.1668 117.11 84.7827 116.418Z" class="fill_white"/>
    <path d="M58.9174 188.622C48.0176 190.655 69.9036 159.593 102.992 151.07C145.553 140.125 106.971 139.779 147.889 133.852C151.262 133.376 165.406 131.819 173.192 133.982C180.977 136.145 174.36 141.034 177.82 151.244C179.809 157.084 187.249 158.382 187.725 165.823C188.244 174.735 178.988 192.299 173.148 199.048C170.51 202.119 167.223 204.802 163.33 206.013C162.508 206.273 161.643 206.489 160.778 206.662C153.512 208.219 146.202 205.97 139.584 203.287C132.62 200.475 126.522 197.014 122.24 190.482L120.423 187.67C120.423 187.67 68.952 206.575 68.1302 206.316L58.9174 188.622Z" class="fill_white"/>
    <path d="M155.804 208.089C149.965 208.089 144.256 206.186 139.281 204.153C133.14 201.643 126.219 198.139 121.548 191.001L120.077 188.795C117.309 189.79 106.063 193.943 94.9039 197.966C68.6927 207.44 68.3466 207.354 67.9141 207.181C67.6978 207.094 67.5248 206.965 67.4383 206.748L58.4417 189.573C56.0628 189.79 55.4573 188.362 55.2843 187.67C53.8137 181.007 75.0941 157.387 102.776 150.248C123.581 144.884 124.575 142.115 125.267 140.298C126.176 137.746 126.781 136.058 147.802 133.03C147.975 132.987 164.455 130.694 173.451 133.16C178.598 134.588 178.296 137.356 177.906 140.904C177.604 143.499 177.257 146.744 178.685 150.984C179.463 153.277 181.194 154.834 183.053 156.478C185.649 158.814 188.33 161.194 188.633 165.779C189.152 174.691 180.026 192.472 173.841 199.61C170.683 203.287 167.266 205.71 163.633 206.835C162.768 207.094 161.903 207.311 160.994 207.527C159.264 207.916 157.534 208.089 155.804 208.089ZM120.466 186.848C120.769 186.848 121.029 186.978 121.202 187.237L123.018 190.049C127.43 196.755 133.745 199.999 139.973 202.552C146.159 205.061 153.468 207.44 160.648 205.883C161.513 205.71 162.335 205.494 163.114 205.234C166.401 204.196 169.558 201.946 172.5 198.528C178.512 191.563 187.379 174.432 186.86 165.909C186.643 162.016 184.308 159.982 181.886 157.776C179.939 156.045 177.95 154.272 177.041 151.546C175.484 146.96 175.873 143.37 176.176 140.731C176.565 137.313 176.695 135.885 173.019 134.847C165.839 132.857 152.56 134.112 148.062 134.761C128.079 137.659 127.56 139.173 126.911 140.904C126.003 143.456 124.965 146.355 103.252 151.936C86.9887 156.132 74.9211 165.39 69.1684 170.538C60.1286 178.628 56.5818 185.334 57.0144 187.324C57.0576 187.54 57.1874 188.102 58.7877 187.8C59.177 187.713 59.523 187.929 59.696 188.232L68.6494 205.364C73.018 204.109 101.262 193.856 120.164 186.891C120.25 186.891 120.337 186.848 120.466 186.848Z" class="fill_black"/>
    <path d="M166.055 40.8826C165.925 40.7528 165.839 40.6662 165.709 40.5365C164.065 38.7627 162.465 37.1188 161.903 34.7826C161.081 31.4947 159.74 28.5529 162.205 22.5395C162.076 20.5928 159.956 19.7708 158.096 19.0786C156.28 18.3864 154.247 17.9971 152.733 16.7425C152.344 16.4396 151.998 16.0503 151.868 15.5311C151.565 14.3631 152.733 13.368 153.814 12.7624C158.399 10.3397 165.449 14.7957 170.121 12.4595C171.635 11.6808 172.846 10.4695 174.23 9.47448C178.469 6.48941 184.394 6.22984 188.979 8.69577C193.521 11.1617 196.591 16.1368 196.808 21.3282C197.024 25.5679 195.51 29.721 193.564 33.4848C191.661 37.162 189.238 40.796 185.605 42.7861C184.221 43.5648 182.707 44.0407 181.15 44.3435C181.064 45.1222 180.977 45.8577 180.891 46.6364C180.458 52.3469 185.129 54.337 185.173 54.8129C185.216 55.159 184.567 60.2206 173.97 62.9893C169.731 64.1142 163.114 62.8596 160.562 59.6149C157.923 56.2838 155.847 52.3902 154.16 48.5399C158.875 48.1505 164.628 45.252 166.055 40.8826Z" class="fill_white"/>
    <path d="M170.51 64.2872C166.487 64.2872 161.989 62.9028 159.826 60.1774C157.491 57.2356 155.328 53.5583 153.295 48.9293C153.165 48.6697 153.209 48.3669 153.338 48.1506C153.468 47.891 153.728 47.7612 153.987 47.718C158.313 47.3286 163.46 44.7761 164.973 41.0989L164.8 40.9258C163.2 39.2386 161.556 37.4649 160.951 34.9557C160.864 34.5664 160.735 34.177 160.648 33.7877C159.87 30.8458 159.005 27.8175 161.21 22.3665C160.994 21.1985 159.653 20.5928 157.75 19.8574L157.707 19.8141C157.231 19.641 156.712 19.468 156.193 19.2949C154.766 18.8191 153.295 18.3432 152.084 17.3482C151.479 16.829 151.089 16.2666 150.96 15.7042C150.614 14.3198 151.479 12.9787 153.338 11.9837C155.934 10.5993 159.048 11.1617 162.076 11.7241C164.93 12.2433 167.612 12.7192 169.645 11.6809C170.51 11.2483 171.288 10.5993 172.11 9.9504C172.586 9.56104 173.105 9.17168 173.624 8.78233C178.079 5.62422 184.351 5.27812 189.282 7.91709C194.039 10.4695 197.327 15.7042 197.586 21.2417C197.759 25.0055 196.721 29.0289 194.256 33.8309C192.698 36.8592 190.147 41.1854 185.951 43.5216C184.697 44.2137 183.313 44.7329 181.885 45.0357C181.799 45.5981 181.756 46.1173 181.712 46.6797C181.41 50.703 183.918 52.6498 185.086 53.5583C185.605 53.9477 185.951 54.2072 185.994 54.6831C185.994 54.7696 185.994 60.6532 174.186 63.7681C173.062 64.1574 171.807 64.2872 170.51 64.2872ZM155.371 49.2754C157.231 53.2555 159.134 56.5001 161.21 59.0958C163.546 62.0376 169.861 63.1624 173.754 62.1674C182.404 59.8745 183.961 56.154 184.264 55.1157C184.221 55.0725 184.134 55.0292 184.091 54.9859C182.794 53.9477 179.679 51.5683 180.025 46.5931C180.069 45.8144 180.155 44.9925 180.285 44.2137C180.328 43.8244 180.631 43.5648 180.977 43.4783C182.491 43.2187 183.875 42.6996 185.129 42.0074C188.027 40.4067 190.449 37.5514 192.742 33.0522C195.077 28.5097 196.072 24.7892 195.899 21.3283C195.683 16.3964 192.785 11.7241 188.503 9.43126C184.178 7.09512 178.598 7.39795 174.662 10.1667C174.186 10.5128 173.711 10.8589 173.235 11.2483C172.37 11.9404 171.505 12.6759 170.467 13.195C167.871 14.4929 164.8 13.9305 161.816 13.4113C158.961 12.8922 156.236 12.4163 154.204 13.4979C153.425 13.9305 152.517 14.6227 152.69 15.2716C152.733 15.4879 152.949 15.7475 153.252 16.007C154.204 16.829 155.458 17.2184 156.799 17.651C157.318 17.824 157.88 17.9971 158.399 18.2134L158.442 18.2567C160.389 18.9921 162.811 19.9439 163.027 22.4531C163.027 22.5828 163.027 22.7126 162.984 22.8424C160.908 27.8608 161.643 30.543 162.422 33.355C162.551 33.7444 162.638 34.1337 162.724 34.5664C163.243 36.5997 164.584 38.0706 166.141 39.7578L166.314 39.9741C166.401 40.0606 166.531 40.1904 166.617 40.2769C166.833 40.4932 166.92 40.8393 166.833 41.1422C165.449 45.5981 160.086 48.4967 155.371 49.2754Z" class="fill_black"/>
    <path d="M181.67 0.822028C184.87 -0.259517 188.374 -0.129732 191.748 0.38941C199.144 1.60074 206.108 4.9319 211.255 9.86375C212.639 11.2049 213.936 12.6325 214.888 14.2332C215.969 16.0069 218.218 20.2898 218.867 22.2366C221.549 30.4996 221.549 32.8358 221.073 38.1137C220.64 34.6528 217.742 30.1103 215.666 27.2117C213.374 24.0536 210.995 20.809 207.535 18.6459C209.351 21.3281 210.779 22.6692 212.033 25.0919C213.114 27.1252 214.499 29.9372 215.364 32.0571C216.748 35.518 217.223 39.2818 217.44 42.959C216.921 41.2286 215.45 39.5413 214.282 38.0704C213.244 36.7293 211.99 35.6045 210.736 34.4365C209.005 32.8358 207.319 31.2783 205.588 29.6777C207.275 31.9273 209.135 34.2201 210.433 36.34C213.158 40.6662 214.109 43.1753 215.623 49.9674C212.293 45.598 208.573 38.5896 202.734 34.8258C207.751 40.5364 209.308 44.9491 210.303 50.7029C207.448 45.9874 204.464 42.6995 199.706 39.4116C203.123 45.2952 207.751 51.5249 208.746 58.1007C206.454 54.683 200.009 48.9292 196.376 46.6363C192.569 44.2136 187.639 42.4832 187.293 41.0123C186.99 39.5846 190.407 37.5946 190.234 36.1237C189.369 29.8074 190.623 23.2749 188.547 17.175C187.293 13.541 184.87 10.2531 181.626 7.83044C180.113 6.70563 178.296 5.40778 178.512 3.67731C178.685 2.24967 180.199 1.29791 181.67 0.822028Z" class="fill_black"/>
    <path d="M158.399 29.5046C158.183 29.6344 157.923 29.6777 157.75 29.8507C159.567 33.8741 173.538 33.4847 175.614 29.894L158.399 29.5046Z" class="fill_black"/>
    <path d="M177.474 18.7755C177.474 17.4777 179.68 16.5259 180.761 16.3961C182.837 16.1366 181.669 19.1216 181.323 20.1166C180.804 21.7173 183.227 22.6258 183.746 21.0684C184.697 18.2564 185.216 14.2763 181.237 13.8437C178.858 13.5841 174.836 15.8337 174.879 18.516C174.922 20.1599 177.474 20.4627 177.474 18.7755Z" class="fill_black"/>
    <path d="M171.678 83.1924C171.116 83.1924 170.554 82.9328 170.035 82.4569C169.386 81.8512 169.04 81.0725 168.737 80.3803C168.564 80.0343 168.434 79.7314 168.261 79.4286L168.131 79.2123C167.699 78.4768 167.396 78.0875 167.223 78.0442C165.969 78.5201 164.887 78.7797 163.936 78.7797C161.86 78.7797 159.913 77.9144 158.486 76.4435C158.443 76.4868 158.356 76.53 158.313 76.5733C158.27 76.6166 158.227 76.6166 158.183 76.6598C157.145 77.1357 156.064 77.3953 154.939 77.3953C153.555 77.3953 152.171 77.0059 151.003 76.2705C150.528 75.9676 150.182 75.6648 149.835 75.2322C149.792 75.1889 149.749 75.1024 149.706 75.0591C149.576 74.8861 149.36 74.54 149.143 74.1506C149.1 74.1506 149.057 74.1506 149.057 74.1074C148.97 74.0641 148.754 74.1074 148.581 74.1506C148.365 74.1939 148.105 74.2372 147.803 74.2372C142.915 74.2372 138.979 70.2571 138.979 65.3685C138.979 63.465 139.628 61.5615 140.752 60.0906C141.142 59.6147 141.574 59.1388 142.136 58.7494C142.18 58.7062 142.223 58.7062 142.266 58.6629C142.482 58.4899 143.304 57.8409 144.472 57.3218C144.472 57.2785 144.515 57.2353 144.515 57.1488C144.515 57.1055 144.559 57.0622 144.559 57.0622C144.732 56.4133 144.948 55.8509 145.251 55.3318C146.505 53.0821 148.884 51.6978 151.436 51.6978C151.782 51.6978 152.085 51.6978 152.387 51.741C153.901 49.6645 156.28 48.4531 158.875 48.4531C158.875 48.4531 158.875 48.4531 158.919 48.4531C160.735 48.4531 162.552 49.1021 163.936 50.2269C164.628 49.9673 165.363 49.8375 166.099 49.8375C167.223 49.8375 168.304 50.1403 169.256 50.7027C169.732 51.0056 170.164 51.3517 170.51 51.741C170.683 51.9141 170.813 52.1304 170.9 52.3034C170.943 52.39 170.986 52.4765 171.029 52.563C171.159 52.563 171.375 52.5197 171.505 52.5197C171.721 52.4765 171.938 52.4765 172.154 52.4765C173.971 52.4765 175.701 53.2119 176.998 54.5098C178.166 55.6778 178.858 57.192 178.988 58.836C180.891 59.9175 182.059 61.9508 182.059 64.1572C182.059 66.3203 180.891 68.3103 179.031 69.3918C179.204 69.9542 179.247 70.5599 179.247 71.1656C179.247 73.1124 178.339 74.9726 176.825 76.184C176.09 76.7896 175.225 77.179 174.273 77.4385C174.144 77.4818 174.014 77.4818 173.884 77.5251C173.841 77.5251 173.841 77.5251 173.798 77.5251C173.798 77.6548 173.798 77.8712 173.841 78.0442V78.174C173.927 78.996 173.971 79.8612 173.884 80.7264C173.754 81.8512 173.106 82.803 172.197 83.1491C172.111 83.1491 171.894 83.1924 171.678 83.1924ZM167.266 76.3137C168.478 76.3137 169.299 77.6981 169.645 78.347L169.732 78.5201C169.948 78.8662 170.121 79.2555 170.294 79.6449C170.554 80.2506 170.856 80.813 171.246 81.2456C171.462 81.4186 171.635 81.5052 171.765 81.4619C171.981 81.3754 172.241 81.0293 172.284 80.5101C172.37 79.8179 172.327 79.0825 172.241 78.347V78.2173C172.197 77.7846 172.111 77.2222 172.413 76.7031C172.76 75.9676 173.452 75.8811 173.798 75.7946C173.884 75.7946 173.927 75.7946 174.014 75.7513C174.706 75.5783 175.355 75.2754 175.874 74.8428C176.955 73.9776 177.647 72.5932 177.647 71.1656C177.647 70.906 177.647 70.6464 177.604 70.4301C177.344 70.4734 177.042 70.5599 176.696 70.5599C176.566 70.5599 176.393 70.5599 176.263 70.5599C174.749 70.5599 173.279 70.0408 171.851 69.0458C171.375 68.6564 171.289 68.0507 171.592 67.5748C171.765 67.3585 172.024 67.1855 172.284 67.1422C172.543 67.099 172.846 67.1422 173.062 67.3153C175.657 69.1755 177.69 68.1805 177.82 68.1373H177.863C177.907 68.1373 177.95 68.094 177.993 68.094C179.464 67.3585 180.459 65.8444 180.459 64.1572C180.459 62.47 179.464 60.8693 177.907 60.1771C177.604 60.0473 177.388 59.7445 177.388 59.3984C177.388 58.014 176.869 56.7161 175.874 55.7644C174.922 54.7693 173.625 54.2502 172.241 54.2502C172.154 54.2502 171.981 54.2502 171.851 54.2935C171.419 54.3367 170.813 54.4233 170.251 54.1204C169.818 53.8609 169.602 53.5148 169.472 53.2552C169.429 53.1687 169.343 53.0389 169.299 52.9956C169.04 52.6928 168.737 52.4765 168.391 52.2602C167.699 51.8708 166.92 51.6545 166.142 51.6112C165.536 51.6112 164.931 51.741 164.325 52.0006C164.325 52.0006 164.282 52.0006 164.282 52.0439C164.239 52.0871 164.152 52.1304 164.066 52.1304C163.633 52.3467 162.638 52.9091 162.206 53.9906C162.984 54.1204 163.72 54.4665 164.325 54.9424C165.32 54.2935 166.531 54.0339 167.699 54.2935C168.867 54.553 169.862 55.202 170.51 56.197C171.159 57.192 171.375 58.3601 171.159 59.5282C171.073 60.0906 170.51 60.4799 169.905 60.3501C169.645 60.3069 169.429 60.1338 169.256 59.9175C169.083 59.6579 169.04 59.3551 169.126 59.0955C169.256 58.5331 169.126 57.8842 168.78 57.3651C168.434 56.8459 167.915 56.4566 167.266 56.3268C166.445 56.1537 165.623 56.4566 165.06 57.0622C164.671 57.4948 164.022 57.5381 163.59 57.1488L163.547 57.1055C163.503 57.0622 163.503 57.0622 163.46 57.019C162.422 55.8509 160.605 55.6779 159.394 56.7161C159.178 56.8892 158.919 56.9757 158.616 56.9757C158.356 56.9324 158.097 56.8027 157.924 56.5863C157.751 56.37 157.664 56.1105 157.664 55.8076C157.707 55.5048 157.837 55.2452 158.054 55.0722C158.616 54.5963 159.265 54.2502 159.957 54.0772C160.216 52.6495 161.081 51.6545 161.903 51.0056C160.995 50.4864 159.957 50.2269 158.875 50.2269C156.669 50.2269 154.68 51.3517 153.512 53.2119C153.296 53.5148 152.95 53.6878 152.604 53.6013C152.214 53.5148 151.825 53.4715 151.436 53.4715C149.533 53.4715 147.673 54.553 146.721 56.2403C146.721 56.2403 146.721 56.2835 146.678 56.2835C147.803 56.0672 149.143 56.0672 150.571 56.4566C150.83 56.4998 151.09 56.7161 151.22 56.9757C151.349 57.2353 151.393 57.4948 151.306 57.7977C151.133 58.3168 150.571 58.6629 150.052 58.4899C146.548 57.5381 143.564 59.8742 143.261 60.1338L143.218 60.1771C143.175 60.2203 143.131 60.2636 143.045 60.2636C142.656 60.5664 142.353 60.8693 142.093 61.2154C141.185 62.4267 140.666 63.9409 140.666 65.455C140.666 69.3918 143.823 72.55 147.759 72.5932C147.846 72.5932 148.019 72.55 148.149 72.55C148.062 71.8578 148.105 71.2088 148.278 70.5599C148.365 70.3003 148.538 70.084 148.754 69.9542C149.014 69.8245 149.273 69.7812 149.576 69.8677C150.138 70.0408 150.441 70.6032 150.311 71.1223V71.1656C149.879 72.5932 151.003 74.0641 151.047 74.1074C151.09 74.1506 151.09 74.1506 151.133 74.1939C151.133 74.1939 151.176 74.2372 151.176 74.2804C151.349 74.4967 151.566 74.6698 151.825 74.8428C152.733 75.4052 153.771 75.7081 154.853 75.7081C155.718 75.7081 156.54 75.535 157.318 75.1889C157.362 75.1889 157.361 75.1457 157.405 75.1457C159.611 73.8911 160 71.4251 160 71.3386V71.2954C160.086 70.733 160.605 70.3436 161.168 70.4301C161.73 70.4734 162.119 70.9925 162.076 71.5549V71.5982C162.033 72.0308 161.644 74.0209 160.043 75.7081C161.124 76.6166 162.465 77.1357 163.893 77.1357C164.628 77.1357 165.493 76.9627 166.531 76.53C166.834 76.357 167.05 76.3137 167.266 76.3137ZM149.619 74.6698C149.619 74.6698 149.619 74.713 149.619 74.6698C149.619 74.713 149.619 74.6698 149.619 74.6698ZM161.73 71.4684C161.73 71.5117 161.73 71.5117 161.73 71.5549C161.73 71.5549 161.73 71.5117 161.73 71.4684ZM170.813 59.3984V59.4416C170.813 59.3984 170.813 59.3984 170.813 59.3984ZM169.472 59.1388C169.472 59.1388 169.472 59.1821 169.472 59.1388C169.472 59.1821 169.472 59.1388 169.472 59.1388ZM150.138 58.0572C150.138 58.0572 150.181 58.0572 150.138 58.0572C150.181 58.0572 150.138 58.0572 150.138 58.0572ZM159.221 56.3268C159.178 56.37 159.178 56.37 159.221 56.3268C159.178 56.37 159.178 56.37 159.221 56.3268ZM165.926 69.3918C165.407 69.3918 164.974 69.0457 164.888 68.5266C164.888 68.4833 164.888 68.4833 164.888 68.4401C164.758 66.9692 165.147 65.5415 166.099 64.4167C167.007 63.2919 168.348 62.5565 169.775 62.4267C171.246 62.2536 172.673 62.6863 173.798 63.5948C174.23 63.9409 174.317 64.5898 173.971 65.0657L173.927 65.1089C173.538 65.5415 172.889 65.5848 172.457 65.1954C171.765 64.6763 170.9 64.3735 169.991 64.5033C169.083 64.5898 168.261 65.0224 167.742 65.7579C167.18 66.45 166.92 67.3585 167.007 68.2238C167.05 68.5266 166.964 68.7862 166.747 69.0025C166.574 69.2188 166.315 69.3486 166.012 69.3486C165.969 69.3918 165.969 69.3918 165.926 69.3918ZM173.495 63.8543L173.538 63.8976C173.495 63.8976 173.495 63.8543 173.495 63.8543ZM158.27 69.3053C157.837 69.3053 157.405 69.0025 157.275 68.5699C156.756 67.0557 155.069 66.2337 153.555 66.7529C153.512 66.7529 153.512 66.7529 153.469 66.7961C153.209 66.8827 152.95 66.8394 152.733 66.7529C152.474 66.6231 152.301 66.4068 152.214 66.1472C152.171 66.0174 152.171 65.8876 152.171 65.7579C151.825 64.5465 150.917 63.5948 149.749 63.2054C148.797 62.8593 147.759 62.9458 146.851 63.3785C145.943 63.8111 145.251 64.5898 144.905 65.5415C144.818 65.8011 144.602 66.0174 144.386 66.1472C144.126 66.277 143.823 66.277 143.564 66.1905C143.304 66.1039 143.088 65.9309 143.001 65.6713C142.872 65.4118 142.872 65.1522 142.958 64.8926C144.04 61.821 147.37 60.1771 150.441 61.2154C152.041 61.7778 153.339 63.0324 153.988 64.5898C156.28 64.3302 158.529 65.7146 159.308 67.9642C159.481 68.4833 159.221 69.089 158.659 69.3053C158.659 69.3053 158.659 69.3053 158.616 69.3053C158.443 69.3053 158.313 69.3053 158.27 69.3053ZM158.875 68.0075C158.919 68.0075 158.919 68.0507 158.875 68.0075C158.919 68.0507 158.919 68.0075 158.875 68.0075ZM143.218 64.9359C143.218 64.9359 143.218 64.9791 143.218 64.9359C143.218 64.9791 143.218 64.9359 143.218 64.9359Z" class="fill_black"/>
</svg>
