<svg width="186" height="223" viewBox="0 0 186 223" fill="none" xmlns="http://www.w3.org/2000/svg">
    <path d="M98.3149 51.5683C102.677 46.9762 106.426 40.088 106.426 32.358C106.426 18.5816 98.3914 7.40747 88.4821 7.40747C78.5728 7.40747 70.5383 18.5816 70.5383 32.358C70.5383 39.9732 74.1347 46.8231 78.3815 51.377C78.3815 54.4001 78.3815 57.6911 78.4963 59.9872C78.7259 65.3447 69.5052 68.6357 69.5052 68.6357C69.5052 68.6357 73.9051 75.7152 83.5466 78.1261C84.3883 78.6236 85.4213 78.9297 86.6839 78.9297C87.2578 78.9297 87.8317 78.8914 88.3673 78.8532C88.9412 78.8914 89.4769 78.9297 90.0508 78.9297C91.3133 78.9297 92.3464 78.6236 93.1881 78.1261C102.83 75.7152 107.229 68.6357 107.229 68.6357C107.229 68.6357 97.9705 65.3447 98.2384 59.9872C98.3149 57.7294 98.3532 54.5149 98.3149 51.5683Z" class="fill_white"/>
    <path d="M90.0508 79.7332C89.5534 79.7332 89.0943 79.6949 88.6352 79.6949H88.3674H88.0995C87.6404 79.7332 87.1813 79.7332 86.6839 79.7332C85.3831 79.7332 84.197 79.4653 83.2405 78.8913C73.4843 76.4039 69.0462 69.3627 68.8549 69.0948C68.7401 68.9035 68.7018 68.6739 68.7783 68.4443C68.8549 68.2147 69.0079 68.0616 69.2375 67.985C69.314 67.9468 77.9607 64.8088 77.7311 60.1019C77.6164 57.691 77.6163 54.2852 77.6163 51.7595C72.6426 46.2873 69.7731 39.246 69.7731 32.4344C69.7731 18.2371 78.152 6.71851 88.4821 6.71851C98.8123 6.71851 107.191 18.2753 107.191 32.4344C107.191 39.3225 104.245 46.4021 99.0801 51.9509C99.0801 54.4383 99.0801 57.7676 98.9653 60.1019C98.774 64.8088 107.382 67.9468 107.459 67.985C107.689 68.0616 107.842 68.2529 107.918 68.4443C107.995 68.6739 107.956 68.9035 107.842 69.0948C107.65 69.401 103.212 76.4422 93.4559 78.8913C92.5377 79.4271 91.3899 79.7332 90.0508 79.7332ZM88.3674 78.126H88.4056L88.75 78.1642C89.1708 78.2025 89.6299 78.2025 90.0891 78.2025C91.1603 78.2025 92.0786 77.9729 92.8438 77.5137C92.9203 77.4754 92.9968 77.4372 93.0733 77.4372C100.419 75.6003 104.666 70.8934 106.082 69.0183C103.633 67.9851 97.2819 64.8088 97.5115 59.9871C97.6262 57.5762 97.6262 54.0939 97.6262 51.6065C97.6262 51.4152 97.7028 51.2238 97.8558 51.0708C100.228 48.5834 105.776 41.7334 105.776 32.3961C105.776 19.0407 98.0854 8.21095 88.5969 8.21095C79.1085 8.21095 71.4183 19.079 71.4183 32.3961C71.4183 38.9399 74.2112 45.675 79.0702 50.9177C79.185 51.0707 79.2615 51.2621 79.2615 51.4534C79.2615 53.9791 79.2615 57.538 79.3763 60.0254C79.6059 64.8471 73.2547 68.0233 70.8061 69.0566C72.2217 70.8934 76.4686 75.6386 83.8144 77.4754C83.891 77.4754 83.9675 77.5137 84.044 77.552C84.8092 78.0112 85.6892 78.2408 86.7987 78.2408C87.2578 78.2408 87.7169 78.2025 88.1378 78.2025H88.4439C88.3291 78.126 88.3674 78.126 88.3674 78.126Z" class="fill_black"/>
    <path d="M59.1369 158.526L73.5226 158.679C68.0897 159.215 62.9246 159.866 58.2952 160.478C58.7925 159.177 59.1369 158.526 59.1369 158.526Z" class="secondary_color"/>
    <path d="M115.379 158.526L115.417 158.565C115.34 158.565 115.264 158.526 115.187 158.526H115.379Z" class="secondary_color"/>
    <path d="M37.8262 101.967C37.8262 101.967 46.932 80.5751 51.2171 76.4422C57.9508 69.8984 73.1782 66.9136 73.1782 66.9136C73.1782 66.9136 87.4874 83.407 103.557 66.9136C103.557 66.9136 118.134 75.2942 125.479 76.5953C140.209 79.1592 178.814 96.8772 147.632 101.967C147.632 101.967 144.303 102.426 132.672 105.487C131.754 104.186 113.887 104.99 110.596 102.235C108.569 113.409 111.668 127.683 112.433 135.987C113.236 144.674 112.356 143.946 113.657 148.73C108.492 152.748 83.7762 158.641 67.4775 158.641C54.4692 158.641 64.9141 169.548 56.1909 166.486C56.7265 164.267 59.6343 155.121 62.0446 139.699C64.1872 126.19 59.9021 105.487 59.9021 105.487C59.9021 105.487 55.9231 108.97 52.7858 112.682C45.8607 109.161 37.8262 101.967 37.8262 101.967Z" class="fill_white"/>
    <path d="M58.6395 167.749C57.9508 167.749 57.0708 167.558 55.9613 167.175C55.5787 167.06 55.3874 166.639 55.4639 166.257C55.5787 165.836 55.7317 165.223 55.9613 164.381C57.0708 160.402 59.3281 152.136 61.3177 139.507C63.0776 128.218 60.3229 111.649 59.4429 106.865C58.0656 108.128 55.5022 110.539 53.3979 113.103C53.1683 113.371 52.7857 113.447 52.4796 113.294C45.5164 109.812 37.6348 102.809 37.3287 102.503C37.0992 102.273 37.0227 101.929 37.1375 101.622C37.52 100.742 46.3198 80.0394 50.7197 75.83C57.5682 69.2097 72.4513 66.2248 73.0634 66.11C73.3312 66.0717 73.5991 66.1483 73.7904 66.3779C73.8669 66.4544 79.8354 73.1895 88.1378 73.4574C93.3029 73.6105 98.3149 71.1996 103.059 66.3779C103.289 66.11 103.671 66.0717 103.977 66.2631C104.13 66.3396 118.516 74.6054 125.671 75.83C131.371 76.8249 139.903 79.8481 146.905 83.3687C153.026 86.4302 160.334 91.0605 160.296 95.5378C160.296 99.0202 156.202 101.355 147.823 102.732C147.785 102.732 144.341 103.23 132.94 106.253C132.672 106.329 132.366 106.253 132.175 106.023C131.524 105.679 128.005 105.487 125.173 105.334C118.899 104.99 113.81 104.607 111.208 103.459C109.984 111.61 111.323 121.177 112.395 128.946C112.739 131.471 113.083 133.882 113.275 135.91C113.619 139.622 113.657 141.612 113.695 143.066C113.734 144.98 113.734 145.86 114.461 148.5C114.537 148.806 114.422 149.113 114.193 149.304C108.836 153.475 83.8527 159.368 67.5923 159.368C67.554 159.368 67.554 159.368 67.5158 159.368C61.1646 159.368 61.0881 161.894 61.0116 164.343C60.9733 165.529 60.9351 166.716 60.0168 167.366C59.6725 167.634 59.2134 167.749 58.6395 167.749ZM57.1473 165.95C58.563 166.371 59.0221 166.218 59.1751 166.103C59.4429 165.912 59.4812 165.07 59.5195 164.305C59.596 161.894 59.6725 157.838 67.554 157.838C67.5923 157.838 67.5923 157.838 67.6305 157.838C83.2405 157.838 106.923 152.404 112.892 148.385C112.241 145.936 112.241 144.941 112.203 143.066C112.165 141.65 112.127 139.66 111.782 136.025C111.591 134.035 111.285 131.663 110.902 129.137C109.755 120.909 108.339 110.692 109.908 102.082C109.946 101.814 110.137 101.584 110.405 101.508C110.673 101.431 110.941 101.469 111.17 101.661C112.93 103.115 120.085 103.536 125.288 103.804C130.071 104.072 132.022 104.225 132.902 104.684C144.188 101.699 147.479 101.24 147.594 101.24C154.901 100.053 158.765 98.1018 158.765 95.5761C158.804 89.0323 136.116 79.2358 125.403 77.3989C118.669 76.2509 106.426 69.4393 103.71 67.9468C98.774 72.8451 93.5324 75.256 88.0613 75.0646C80.1032 74.835 74.326 69.2862 72.9486 67.7938C70.4618 68.3295 57.683 71.3144 51.791 77.0163C48.0032 80.69 40.1982 98.5227 38.7826 101.775C40.4661 103.23 46.8937 108.702 52.6709 111.725C55.7317 108.166 59.3281 105.028 59.4812 104.913C59.6725 104.722 59.9786 104.684 60.2464 104.76C60.5142 104.837 60.7055 105.066 60.7438 105.334C60.9351 106.176 65.0289 126.343 62.8863 139.852C60.8968 152.557 58.6012 160.899 57.4917 164.879C57.3386 165.262 57.2239 165.644 57.1473 165.95Z" class="fill_black"/>
    <path d="M37.8258 101.967L52.8237 112.643L45.8604 122.555C45.8604 122.555 64.6842 140.77 69.505 142.148C74.2874 143.487 91.9635 140.885 91.9635 140.885C91.9635 140.885 83.8907 152.978 73.5222 154.279C63.1538 155.58 49.4951 145.63 42.8379 140.885C39.5093 138.512 34.612 135.757 31.8573 131.433C30.0973 128.678 28.2609 124.43 28.9495 121.866C30.6712 115.399 37.8258 101.967 37.8258 101.967Z" class="fill_white"/>
    <path d="M71.571 155.121C61.5086 155.121 49.495 146.549 42.8378 141.804L42.3787 141.459C41.7666 141.038 41.1161 140.579 40.3892 140.081C37.3284 138.015 33.5024 135.413 31.1686 131.816C29.2939 128.907 27.4191 124.507 28.1843 121.636C29.906 115.169 36.831 102.12 37.1371 101.546C37.2519 101.355 37.4049 101.202 37.6345 101.163C37.8641 101.125 38.0554 101.163 38.2467 101.278L53.2445 111.955C53.5888 112.184 53.6654 112.682 53.4358 113.026L46.8551 122.402C52.4028 127.721 66.0233 140.311 69.6962 141.344C74.2874 142.645 91.6574 140.081 91.8487 140.043C92.1548 140.005 92.4608 140.12 92.6139 140.388C92.7669 140.655 92.7669 140.962 92.6139 141.229C92.2695 141.727 84.235 153.628 73.637 154.968C72.9483 155.082 72.2596 155.121 71.571 155.121ZM38.0936 103.077C36.5632 106.023 31.1303 116.623 29.6765 122.057C29.0643 124.239 30.7095 128.219 32.4694 131.012C34.612 134.38 38.1319 136.752 41.2309 138.857C41.9579 139.354 42.6083 139.814 43.2587 140.235L43.7178 140.579C49.7629 144.903 62.006 153.59 71.6092 153.59C72.2214 153.59 72.8335 153.552 73.4074 153.475C81.2124 152.48 87.7931 145.056 90.2418 141.842C85.5741 142.492 73.2927 143.985 69.2754 142.837C64.3399 141.459 46.0899 123.818 45.3247 123.091C45.0569 122.823 45.0186 122.402 45.2482 122.096L51.7524 112.797L38.0936 103.077Z" class="fill_black"/>
    <path fill-rule="evenodd" clip-rule="evenodd" d="M46.1285 205.06C46.1285 205.06 60.5525 205.06 65.9853 209.882C71.4182 214.742 85.0387 220.558 64.3402 221.974C43.6416 223.39 23.0578 223.696 23.0196 218.224C22.9813 212.713 26.8838 211.489 26.8838 211.489L32.0489 207.203L46.1285 205.06Z" class="secondary_color"/>
    <path fill-rule="evenodd" clip-rule="evenodd" d="M123.069 129.787C123.069 129.787 153.983 129.749 165.614 143.143C177.245 156.536 206.437 172.647 162.056 176.512C117.713 180.377 73.6372 181.296 73.5224 166.142C73.4076 150.988 81.7865 147.582 81.7865 147.582L92.8436 135.719L123.069 129.787Z" class="secondary_color"/>
    <path d="M20.4559 111.916C20.4559 111.916 12.3065 106.98 9.62836 105.947C6.91191 104.913 8.4423 107.975 9.62836 109.008C10.8144 110.041 10.6614 110.96 8.09796 110.96C6.87365 110.96 2.16769 110.539 0.981635 113.256C-0.20442 115.973 3.65982 117.465 8.4423 117.963C13.1865 118.46 17.6629 117.542 17.6629 117.542L20.4559 111.916Z" class="fill_white"/>
    <path d="M11.465 118.843C10.4702 118.843 9.39897 118.805 8.3277 118.69C5.34343 118.384 1.55571 117.542 0.369653 115.514C-0.0894649 114.748 -0.127725 113.83 0.293133 112.911C1.55571 110.003 5.87907 110.08 7.71554 110.156C7.86858 110.156 8.02162 110.156 8.1364 110.156C8.97811 110.156 9.36071 110.041 9.55201 109.965C9.47549 109.888 9.36071 109.735 9.16941 109.544C8.25118 108.779 6.91208 106.712 7.5625 105.564C7.83032 105.105 8.48074 104.646 9.93461 105.181C12.6893 106.215 20.5708 110.998 20.9152 111.228C21.2595 111.419 21.3743 111.878 21.183 112.223L18.39 117.848C18.2752 118.039 18.084 118.192 17.8544 118.269C17.6631 118.307 14.9084 118.843 11.465 118.843ZM6.83556 111.687C5.15213 111.687 2.39742 111.878 1.67049 113.562C1.40267 114.174 1.55571 114.557 1.67049 114.787C2.3209 115.935 4.88431 116.815 8.48074 117.197C12.3067 117.618 15.9797 117.083 17.1275 116.853L19.4613 112.223C17.5483 111.075 11.5415 107.516 9.36071 106.674C9.16941 106.597 9.01637 106.559 8.90159 106.521C9.01637 106.98 9.55201 107.898 10.1259 108.396C11.1972 109.314 11.1972 110.041 11.0059 110.501C10.585 111.687 8.71029 111.687 8.09814 111.687C7.98336 111.687 7.83032 111.687 7.63902 111.687C7.40946 111.687 7.14164 111.687 6.83556 111.687Z" class="fill_black"/>
    <path d="M79.4529 85.0142C79.4529 85.0142 81.0598 81.7997 81.2511 78.9296C81.4806 76.0978 82.2841 73.113 83.5467 73.4574C84.8093 73.8018 84.6945 75.9065 84.8858 76.7867C85.0771 77.6285 85.1153 79.0062 87.2961 77.9729C89.4769 76.9397 92.0021 74.4906 94.4125 77.4372C96.5168 79.9629 92.7673 82.2589 89.9361 85.0525C87.1048 87.846 85.6127 89.1854 85.6127 89.1854L79.4529 85.0142Z" class="fill_white"/>
    <path d="M85.5741 89.9125C85.421 89.9125 85.268 89.8742 85.1532 89.7976L78.9934 85.6647C78.6873 85.4351 78.5725 85.0142 78.7256 84.6697C78.7256 84.6315 80.256 81.5318 80.4473 78.8913C80.5238 77.7815 80.9446 74.0313 82.3985 72.9598C82.7811 72.6919 83.2402 72.5771 83.6993 72.7302C85.1915 73.1511 85.3828 74.9497 85.4976 76.0595C85.5358 76.2891 85.5358 76.5187 85.5741 76.6335L85.6123 76.8248C85.6506 77.0162 85.7271 77.4754 85.8419 77.5519C85.8419 77.5519 86.0715 77.6667 86.9132 77.2841C87.2958 77.0927 87.6784 76.8631 88.1375 76.6335C90.0122 75.562 92.6139 74.0696 94.9477 76.9396C97.0903 79.5419 94.4121 81.9527 92.04 84.0575C91.5043 84.5549 90.9305 85.0524 90.3948 85.5499C87.5636 88.3052 86.0715 89.6829 86.0715 89.6829C85.9567 89.8359 85.7654 89.9125 85.5741 89.9125ZM80.409 84.7463L85.4976 88.1904C86.1097 87.6164 87.4106 86.3535 89.3618 84.4784C89.8974 83.9427 90.5096 83.4069 91.0452 82.9094C93.7999 80.4603 94.9095 79.2357 93.7999 77.8963C92.3461 76.0978 90.9687 76.7483 88.9027 77.9346C88.4818 78.2025 88.0227 78.4321 87.5636 78.6617C86.5306 79.1592 85.7654 79.2357 85.1532 78.9296C84.388 78.5469 84.235 77.705 84.1202 77.131L84.0819 76.9396C84.0437 76.71 84.0054 76.4804 84.0054 76.2126C83.9289 75.562 83.8141 74.3374 83.3167 74.2226C83.0107 74.3374 82.2455 75.9064 82.0159 79.0061C81.8629 81.2639 80.9064 83.6365 80.409 84.7463Z" class="fill_black"/>
    <path d="M17.5864 110.003C17.5864 110.003 35.9511 108.74 39.0502 107.401C41.4606 106.368 45.4396 105.64 45.4396 105.64C45.4396 105.64 49.916 110.347 55.3489 108.013C57.4532 107.095 59.7105 104.684 58.5627 101.508C60.1696 100.819 63.0008 99.0967 63.9573 98.5609C66.6355 97.0685 79.4526 85.0142 79.4526 85.0142C79.4526 85.0142 83.2403 86.4301 85.6124 89.1471C81.8247 98.4079 73.9814 107.286 71.7241 109.773C76.43 114.327 80.6004 118.69 81.2125 119.225C81.2125 119.225 93.8 115.399 99.8833 120.412C103.059 123.052 107.153 128.639 110.29 133.346C118.439 132.734 119.97 135.03 119.587 137.556C119.09 141.229 115.226 143.411 106.464 142.645C104.168 142.454 95.1008 134.992 92.9966 135.03C95.3304 139.201 94.9861 136.829 96.1721 141.421C103.862 141.918 106.464 149.38 101.146 151.179C98.3529 152.136 90.1653 154.049 86.0715 150.414C83.7759 148.385 84.6942 146.013 82.6281 143.105C74.8997 146.931 67.0181 145.822 63.0774 142.416C59.5575 139.431 50.6812 130.974 44.1005 122.784C38.4763 122.478 27.2662 120.412 17.6247 117.542C16.0943 115.169 17.5864 110.003 17.5864 110.003Z" class="fill_white"/>
    <path d="M92.9965 153.284C90.3183 153.284 87.5254 152.748 85.5359 150.988C84.1202 149.725 83.7759 148.347 83.4316 147.008C83.202 146.051 82.9342 145.094 82.322 144.061C74.0579 147.888 66.3294 146.204 62.5417 142.99C59.2131 140.158 50.2985 131.701 43.6796 123.55C38.285 123.205 27.4192 121.292 17.3951 118.307C17.2421 118.269 17.089 118.154 16.9742 118.001C15.2525 115.399 16.6682 110.386 16.8212 109.85C16.8977 109.544 17.1655 109.314 17.5099 109.314C22.5602 108.97 36.2572 107.86 38.7441 106.789C41.1927 105.717 45.1335 104.99 45.2865 104.99C45.5543 104.952 45.7839 105.028 45.9752 105.22C46.1282 105.411 50.1838 109.505 55.0428 107.439C56.4966 106.827 58.907 104.875 57.8357 101.89C57.6827 101.508 57.874 101.087 58.2566 100.934C59.4809 100.398 61.5087 99.2115 62.733 98.5227C63.0773 98.3314 63.3834 98.14 63.5747 98.0252C65.6407 96.8772 74.517 88.7262 78.9169 84.5932C79.1465 84.4019 79.4525 84.3254 79.7204 84.4402C79.8734 84.5167 83.6994 85.9709 86.1863 88.7644C86.3776 88.994 86.4158 89.3002 86.3393 89.568C82.7429 98.3313 75.5883 106.75 72.7953 109.85C75.3587 112.337 77.7691 114.786 79.4143 116.432C80.2943 117.312 81.0212 118.077 81.442 118.46C83.7759 117.81 94.6417 115.169 100.381 119.914C103.633 122.593 107.727 128.218 110.711 132.619C115.225 132.351 118.095 132.925 119.511 134.418C120.314 135.26 120.62 136.369 120.429 137.709C120.008 140.847 117.215 144.406 106.464 143.449C105.24 143.334 102.982 141.88 99.4624 139.507C98.0468 138.551 96.2869 137.403 94.9478 136.637C95.1391 136.905 95.2921 137.097 95.4069 137.25C96.019 138.015 96.2103 138.321 96.8225 140.694C101.528 141.191 104.321 144.214 104.704 147.008C105.01 149.227 103.748 151.102 101.414 151.906C101.108 151.944 97.1668 153.284 92.9965 153.284ZM82.6281 142.301C82.8577 142.301 83.0872 142.416 83.2403 142.607C84.2733 144.099 84.6176 145.439 84.9237 146.587C85.268 147.85 85.4976 148.845 86.5689 149.801C90.0888 152.939 97.4729 151.562 100.878 150.414C102.523 149.84 103.327 148.653 103.135 147.161C102.829 144.865 100.342 142.416 96.1338 142.148C95.7895 142.11 95.5217 141.88 95.4451 141.574C94.7565 138.895 94.6417 138.78 94.1443 138.168C93.8 137.709 93.2643 137.058 92.3461 135.413C92.2313 135.183 92.2313 134.877 92.3461 134.647C92.4991 134.418 92.7287 134.265 92.9965 134.265C94.2208 134.265 96.5547 135.757 100.228 138.206C102.638 139.814 105.584 141.803 106.502 141.88C111.782 142.339 118.171 141.918 118.784 137.441C118.898 136.561 118.745 135.91 118.286 135.413C117.521 134.609 115.532 133.729 110.29 134.112C110.022 134.15 109.754 133.997 109.601 133.767C106.694 129.405 102.523 123.665 99.3476 121.024C93.6469 116.317 81.5186 119.914 81.4038 119.953C81.1742 120.029 80.9064 119.991 80.6768 119.8C80.409 119.57 79.7204 118.881 78.2665 117.389C76.5448 115.628 73.9049 112.988 71.1502 110.309C70.8441 110.003 70.8441 109.544 71.1119 109.238C73.3692 106.789 80.8681 98.2548 84.6941 89.3002C82.9342 87.5016 80.5621 86.3153 79.6056 85.8944C77.463 87.8843 66.8268 97.7956 64.3399 99.2115C64.1486 99.3263 63.8425 99.4794 63.5365 99.6707C62.4269 100.321 60.7817 101.278 59.5192 101.89C60.2461 104.952 58.2566 107.592 55.6932 108.702C50.6046 110.883 46.396 107.516 45.2483 106.444C44.2152 106.635 41.2692 107.286 39.4328 108.09C36.4868 109.352 21.3741 110.5 18.2368 110.692C17.8542 112.261 17.3568 115.246 18.1986 116.853C28.2609 119.838 39.0884 121.713 44.177 121.981C44.4065 121.981 44.5978 122.096 44.7509 122.249C51.3316 130.438 60.2844 138.933 63.613 141.765C67.2094 144.865 74.8231 146.051 82.322 142.339C82.3985 142.339 82.5133 142.301 82.6281 142.301Z" class="fill_black"/>
    <path d="M36.9461 99.6324C40.6956 107.516 48.9214 111.457 55.3491 108.434C61.7767 105.373 63.9958 96.5327 60.2463 88.6113C56.4969 80.7282 48.271 76.7866 41.8434 79.8097C35.4157 82.8711 33.2349 91.7493 36.9461 99.6324Z" class="fill_white"/>
    <path d="M50.7195 110.233C48.7683 110.233 46.7788 109.773 44.8275 108.817C41.1928 107.095 38.1703 103.918 36.2573 99.9386C32.3548 91.6728 34.7269 82.3354 41.5372 79.1209C48.3474 75.9064 57.0707 80.0011 60.9732 88.2669C62.8479 92.2468 63.3453 96.6093 62.3888 100.513C61.394 104.492 59.0219 107.516 55.6933 109.123C54.1247 109.85 52.4412 110.233 50.7195 110.233ZM37.6347 99.3263C39.3564 103 42.1493 105.87 45.4779 107.477C48.73 109.046 52.1351 109.123 55.0429 107.784C57.9506 106.406 60.0167 103.727 60.8967 100.207C61.7766 96.6476 61.3175 92.6677 59.5958 88.994C56.0377 81.4935 48.2326 77.705 42.1876 80.5751C36.1425 83.3687 34.1148 91.8259 37.6347 99.3263Z" class="fill_black"/>
    <path d="M133.093 105.487C127.737 104.799 111.744 102.694 101.299 100.819C93.9151 99.4793 99.6158 101.125 96.2489 99.5941C94.3742 98.7522 83.3553 97.5659 84.5414 100.857C85.4979 103.574 94.6037 103.268 93.8768 103.689C92.8438 104.263 82.9345 101.852 79.9502 104.875C71.0357 113.791 79.2615 109.62 86.6457 111.419C96.555 113.791 98.2384 111.381 103.595 113.524C107.038 114.901 131.831 130.208 142.008 126.803C147.441 126.114 155.896 129.137 160.678 128.18C179.961 124.277 173.228 99.6324 155.896 98.867C154.174 101.201 135.657 103.536 133.093 105.487Z" class="fill_white"/>
    <path d="M158.421 129.137C156.279 129.137 153.753 128.716 151.152 128.295C147.938 127.759 144.648 127.223 142.122 127.53C133.514 130.285 115.723 120.756 107.153 116.202C105.316 115.207 103.863 114.442 103.25 114.212C100.802 113.256 99.2332 113.256 97.0141 113.294C94.6037 113.332 91.6195 113.371 86.4161 112.146C84.197 111.61 81.8249 111.649 79.9119 111.649C77.4633 111.687 75.8181 111.687 75.3208 110.539C74.8234 109.391 75.8181 107.822 79.2998 104.339C80.5624 103.077 82.7049 102.656 85.0388 102.579C84.4266 102.196 83.9675 101.737 83.7379 101.125C83.4701 100.321 83.6231 99.5942 84.2353 99.0585C86.4544 96.992 94.9481 98.2166 96.5167 98.9054C96.9758 99.0967 97.3967 99.2881 97.7028 99.5177C97.8175 99.5177 97.9323 99.5559 98.0471 99.5559C98.774 99.6325 99.8836 99.8238 101.376 100.092C111.744 101.967 127.737 104.072 132.864 104.722C134.317 103.842 137.837 103.038 143.27 101.852C147.708 100.895 154.404 99.4411 155.131 98.4079C155.284 98.1783 155.513 98.0635 155.781 98.1018C165.767 98.5227 172.348 106.635 172.922 114.251C173.381 120.067 170.396 126.956 160.678 128.907C160.066 129.06 159.263 129.137 158.421 129.137ZM143.729 125.922C146.101 125.922 148.78 126.343 151.381 126.764C154.71 127.3 158.153 127.874 160.449 127.377C167.871 125.884 171.965 121.024 171.468 114.327C170.932 107.477 165.04 100.168 156.126 99.5942C154.672 100.857 150.348 101.852 143.653 103.306C139.406 104.225 134.585 105.258 133.59 106.061C133.437 106.176 133.208 106.253 133.017 106.215C128.234 105.602 111.744 103.459 101.184 101.546C98.9653 101.163 98.0088 101.048 97.6262 101.01C97.4732 101.048 97.2819 101.048 97.0906 101.01C96.861 100.934 96.708 100.781 96.5932 100.589C96.4402 100.513 96.2489 100.398 95.9428 100.283C94.4507 99.5942 86.7987 98.8288 85.3448 100.168C85.2301 100.245 85.1918 100.36 85.2683 100.589C85.7657 102.005 90.6247 102.464 92.4229 102.617C94.0681 102.77 94.5272 102.809 94.642 103.459C94.7185 103.804 94.5655 104.148 94.2211 104.339C93.7237 104.607 92.8438 104.569 90.7012 104.339C87.5257 104.033 82.2458 103.536 80.4476 105.373C77.1572 108.664 76.8129 109.62 76.8129 109.888C77.1955 110.118 78.7642 110.118 79.9502 110.08C81.9397 110.041 84.3883 110.041 86.7987 110.615C91.8107 111.84 94.7185 111.763 97.0141 111.725C99.3097 111.687 101.108 111.649 103.824 112.758C104.513 113.026 105.929 113.792 107.88 114.825C115.608 118.958 133.782 128.678 141.702 126.037C141.74 126.037 141.816 125.999 141.893 125.999C142.467 125.961 143.079 125.922 143.729 125.922Z" class="fill_black"/>
    <path fill-rule="evenodd" clip-rule="evenodd" d="M69.5053 36.4525C69.5053 36.4525 89.4769 8.09624 97.282 21.4134C103.901 32.7023 102.753 37.6771 102.256 43.1494C102.141 44.1443 98.8889 53.6348 98.4297 54.7062C95.5603 61.7092 102.715 64.0818 102.715 64.0818L107.191 70.8169L156.585 90.1421C156.585 90.1421 164.39 83.1391 163.242 78.9296C161.673 73.2278 151.152 79.0827 147.173 55.9308C143.232 32.7789 155.858 29.7174 142.926 22.6379C130.415 15.7498 160.564 20.3036 116.527 13.8746C93.2264 10.4688 88.2909 0.940186 88.2909 0.940186C27.8786 7.63703 27.2665 44.2591 69.5053 36.4525Z" class="fill_white"/>
    <path d="M156.623 90.9456C156.546 90.9456 156.432 90.9456 156.355 90.9073L106.962 71.5822C106.809 71.5439 106.694 71.4291 106.617 71.276L102.256 64.7705C101.414 64.4261 98.774 63.2016 97.588 60.5994C96.7462 58.8008 96.8228 56.696 97.741 54.4382C98.2001 53.2902 101.414 43.9912 101.529 43.111C101.567 42.6901 101.605 42.2692 101.644 41.8482C102.141 36.7969 102.638 32.0517 96.6315 21.8342C95.4072 19.7678 93.8768 18.7345 91.9638 18.658C83.3553 18.3136 70.2704 36.7586 70.1174 36.9117C70.0026 37.0648 69.8113 37.1795 69.62 37.2178C56.3439 39.6669 45.7842 37.8683 41.346 32.4343C39.0887 29.6408 38.6678 26.0819 40.16 22.4465C43.6799 13.8745 58.1421 3.54228 88.2526 0.174725C88.5586 0.136457 88.8647 0.289518 89.0178 0.59566C89.056 0.672195 94.1828 9.81815 116.68 13.1092L119.74 13.5684C142.275 16.8594 142.275 16.8594 142.39 17.8926C142.505 18.5814 141.855 18.8876 141.357 19.1172C141.128 19.232 140.477 19.4999 140.439 19.6912C140.439 19.6912 140.477 20.3801 143.347 21.9873C150.999 26.1967 150.233 29.2964 148.856 34.96C147.747 39.4756 146.254 45.5984 147.976 55.8159C150.578 71.0082 155.858 73.266 159.722 74.9498C161.711 75.7916 163.395 76.5187 164.007 78.7382C165.231 83.2538 157.962 89.9889 157.12 90.716C157.005 90.8691 156.814 90.9456 156.623 90.9456ZM107.727 70.2046L156.47 89.2618C158.727 87.1571 163.357 82.0292 162.553 79.1209C162.171 77.6667 161.099 77.1693 159.148 76.3274C155.207 74.6436 149.239 72.0414 146.484 56.0455C144.686 45.5219 146.254 39.1694 147.364 34.5391C148.703 29.1433 149.239 26.9238 142.62 23.2501C140.018 21.7959 138.87 20.6862 138.909 19.5382C138.947 18.8493 139.368 18.3901 139.865 18.084C137.34 17.5865 131.065 16.6681 119.549 14.9843L116.488 14.5251C95.7132 11.502 89.2856 3.65709 87.9465 1.66717C58.7925 4.99646 44.7511 15.1756 41.5756 22.944C40.2747 26.1202 40.6191 29.0285 42.5321 31.4011C46.5494 36.3759 56.4586 37.9831 69.0079 35.6871C70.7296 33.3145 83.011 16.6681 91.9638 17.0125C94.4124 17.1273 96.4019 18.4284 97.894 20.954C104.13 31.5924 103.595 36.8351 103.097 41.8865C103.059 42.3074 103.021 42.7283 102.983 43.1493C102.868 44.3738 99.4244 54.1321 99.1184 54.9357C98.3532 56.7726 98.2766 58.4564 98.9271 59.8723C100.037 62.3214 102.906 63.3164 102.944 63.3164C103.097 63.3546 103.25 63.4694 103.327 63.6225L107.727 70.2046Z" class="fill_black"/>
    <path d="M133.858 198.21C133.858 198.21 164.772 206.782 165.997 207.203C167.871 207.853 167.527 214.665 164.658 214.588C163.28 214.55 140.898 215.43 138.105 215.239C135.274 215.048 126.742 211.718 126.742 211.718L133.858 198.21Z" class="fill_white"/>
    <path d="M139.329 216.005C138.756 216.005 138.335 216.005 138.029 215.966C135.121 215.775 126.78 212.522 126.436 212.369C126.245 212.293 126.092 212.139 126.015 211.91C125.938 211.719 125.938 211.489 126.053 211.298L133.17 197.827C133.323 197.521 133.705 197.368 134.05 197.445C135.312 197.789 165.002 206.017 166.226 206.438C167.871 207.012 168.101 209.92 167.756 211.833C167.336 214.053 166.15 215.354 164.619 215.316C164.122 215.277 160.602 215.431 156.47 215.545C150.157 215.775 142.582 216.005 139.329 216.005ZM127.813 211.259C129.994 212.101 135.963 214.282 138.143 214.436C139.865 214.55 149.468 214.244 156.432 214.015C161.367 213.862 164.16 213.785 164.657 213.785H164.696C165.537 213.785 166.035 212.637 166.264 211.565C166.609 209.652 166.15 208.045 165.729 207.93C164.772 207.586 145.068 202.113 134.241 199.128L127.813 211.259Z" class="fill_black"/>
    <path d="M132.557 196.297C132.404 196.297 132.251 196.258 132.136 196.182L81.4421 162.583L78.3431 161.32C78.037 161.205 77.8457 160.899 77.8457 160.593C77.8457 160.287 78.037 159.98 78.3431 159.904C81.136 158.832 147.211 134.188 162.132 142.263C162.974 142.569 171.353 146.128 171.391 155.924C171.467 175.02 134.508 195.378 132.902 196.22C132.787 196.296 132.672 196.297 132.557 196.297ZM80.7152 160.669L82.0543 161.205C82.0925 161.243 82.1308 161.243 82.2073 161.282L132.557 194.651C136.613 192.355 169.899 173.068 169.822 155.924C169.784 146.74 161.596 143.717 161.52 143.678C161.482 143.678 161.443 143.64 161.405 143.64C148.55 136.561 91.7723 156.651 80.7152 160.669Z" class="fill_black"/>
    <path d="M107.268 177.813C107.153 177.813 107.076 177.813 106.961 177.813C105.775 177.698 105.278 177.01 105.202 176.933L106.464 176.053C106.464 176.053 106.655 176.283 107.153 176.283C107.956 176.321 109.793 175.862 113.198 172.379C114.652 170.887 115.723 169.433 116.641 168.17C119.664 164.037 121.845 161.052 132.404 162.851C145.03 165.032 152.835 150.911 152.912 150.758C153.103 150.375 153.562 150.261 153.945 150.452C154.327 150.643 154.442 151.103 154.251 151.485C154.174 151.638 145.872 166.716 132.136 164.381C122.495 162.736 120.773 165.147 117.866 169.088C116.909 170.428 115.8 171.92 114.269 173.489C111.476 176.359 109.104 177.813 107.268 177.813Z" class="fill_black"/>
    <path d="M137.34 197.827C147.287 199.703 127.316 171.346 97.1287 163.616C58.3332 153.628 95.9044 159.751 58.601 154.394C55.5402 153.934 45.7457 155.082 28.8731 163.769C23.8994 166.333 20.2647 170.275 19.8821 177.048C19.3847 185.161 27.8401 201.157 33.1582 207.318C35.5686 210.111 38.5529 212.56 42.111 213.67C42.8762 213.9 43.6414 214.091 44.4066 214.283C51.0256 215.698 57.721 213.67 63.7278 211.221C70.0407 208.657 75.6266 205.481 79.5291 199.549L81.2126 196.985C81.2126 196.985 128.119 214.206 128.846 213.976L137.34 197.827Z" class="fill_white"/>
    <path d="M48.9981 215.545C47.4294 215.545 45.8608 215.392 44.2921 215.048C43.4504 214.856 42.6469 214.665 41.92 214.435C38.6297 213.402 35.4924 211.183 32.6229 207.853C26.9987 201.31 18.658 185.122 19.1554 177.01C19.538 170.734 22.5988 166.18 28.5673 163.08C45.0956 154.547 55.311 153.131 58.7543 153.628C64.7229 154.508 68.8167 155.082 71.5331 155.427C77.693 156.307 77.846 156.307 78.0373 156.996C78.4964 157.417 81.3276 158.756 97.3202 162.851C122.572 169.356 141.969 190.863 140.592 196.947C140.439 197.559 139.903 198.86 137.761 198.669L129.535 214.359C129.459 214.55 129.305 214.665 129.114 214.742C128.732 214.856 128.387 214.971 104.513 206.323C94.2977 202.611 84.0058 198.86 81.5189 197.942L80.1798 199.97C75.933 206.438 69.8879 209.537 64.0342 211.948C59.5195 213.785 54.3545 215.545 48.9981 215.545ZM57.2622 155.044C53.0919 155.044 43.7182 156.996 29.2943 164.42C23.7849 167.29 21.0301 171.308 20.6858 177.086C20.2267 184.855 28.2995 200.468 33.7707 206.82C36.4489 209.958 39.3566 211.986 42.3409 212.943C43.0295 213.173 43.7947 213.364 44.5982 213.517C51.1789 214.933 57.7978 212.79 63.4603 210.494C69.1227 208.198 74.9 205.213 78.9173 199.09L80.6007 196.526C80.792 196.22 81.1746 196.105 81.5189 196.22C98.7741 202.572 124.561 211.91 128.502 213.058L136.69 197.406C136.843 197.1 137.187 196.947 137.493 197.024C138.985 197.292 139.1 196.756 139.138 196.564C139.636 194.383 135.504 187.916 128.043 181.257C122.801 176.55 111.782 168.132 96.9759 164.305C79.1851 159.713 77.1191 158.488 76.6982 157.684C76.1626 157.57 74.4791 157.34 71.3036 156.881C68.5871 156.498 64.4933 155.924 58.5248 155.082C58.1804 155.082 57.7596 155.044 57.2622 155.044Z" class="fill_black"/>
    <path d="M58.9454 83.4835C58.1802 80.7282 56.6498 77.973 55.0428 75.5238C51.4464 70.0516 46.97 65.4977 42.4554 62.7042C41.2311 61.9388 40.0067 61.3266 38.8589 60.9822C37.5581 60.5995 34.5356 59.9106 33.3495 59.9106C28.2227 59.9106 27.1132 60.4847 24.7411 62.2067C26.5775 61.671 29.9827 62.7807 32.24 63.6609C34.7269 64.6558 37.252 65.689 39.7007 67.832C37.6729 67.1049 36.4486 66.3396 34.7269 65.9569C33.273 65.6508 31.3983 65.2681 30.0209 65.1533C27.7636 64.9237 25.7358 65.536 23.8611 66.3013C24.9324 66.263 26.348 66.9902 27.534 67.5259C28.6053 67.9851 29.6766 68.6739 30.7479 69.3627C32.2017 70.2811 33.6939 71.2379 35.1477 72.1563C33.3495 71.4292 31.4748 70.549 29.9061 70.0516C26.6923 69.0183 25.0854 68.9035 21.1829 69.4393C24.6645 70.97 29.6001 72.0415 33.8086 75.6386C28.9879 73.1895 26.1949 73.113 22.9811 73.7635C26.4628 74.7967 29.2557 76.2892 32.8139 79.1975C28.567 78.0112 23.6315 75.983 20.0734 76.9015C22.675 77.8199 28.1079 81.417 30.7096 83.6748C33.426 86.0091 36.2955 89.4532 37.1372 89.3384C37.979 89.2236 37.5198 86.0091 38.3233 85.8178C41.7284 84.8994 44.4066 82.2206 48.1943 82.3355C50.4517 82.3737 53.0533 83.4452 55.5785 85.3586C56.7263 86.2388 58.1036 87.3485 58.8688 86.7362C59.481 86.2005 59.328 84.7846 58.9454 83.4835Z" class="fill_black"/>
    <path d="M92.3846 37.3708C92.9202 36.3759 91.5429 34.6156 90.7394 34.0416C89.209 32.8936 88.9795 35.7636 88.8264 36.6437C88.6351 38.0979 86.3395 37.7152 86.5308 36.2611C86.8752 33.6589 88.023 30.3296 91.3133 31.8221C93.3028 32.7022 95.5601 36.2611 94.4889 38.3275C93.8767 39.5904 91.7342 38.6719 92.3846 37.3708Z" class="fill_black"/>
    <path d="M81.5186 36.6438C82.0543 35.6488 80.6769 33.8885 79.8735 33.3145C78.3431 32.1665 78.1135 35.0366 77.9605 35.9167C77.7692 37.3709 75.4736 36.9882 75.6649 35.5341C76.0092 32.9319 77.157 29.6026 80.4474 31.095C82.4369 31.9752 84.6942 35.534 83.6229 37.6005C83.0108 38.8633 80.8682 37.9449 81.5186 36.6438Z" class="fill_black"/>
</svg>
