<svg width="108" height="217" viewBox="0 0 108 217" fill="none" xmlns="http://www.w3.org/2000/svg">
    <path fill-rule="evenodd" clip-rule="evenodd" d="M17.9565 167.098C18.1003 166.991 24.5314 154.305 28.5912 148.304C33.1181 141.548 40.0522 121.137 33.5133 111.902C9.01055 77.3324 7.17825 119.484 4.33995 133.176C1.39387 147.334 -1.04923 142.267 0.459732 149.418C1.9687 156.569 -0.294716 157.504 0.316056 161.96C0.854973 165.805 5.59741 172.596 8.90276 172.273C12.2081 171.95 15.8368 168.715 17.9565 167.098Z" class="secondary_color"/>
    <path d="M27.1903 28.2448C27.837 35.1803 23.9927 41.2174 18.6754 41.7205C13.3221 42.2236 8.47189 36.977 7.86111 30.0056C7.21441 23.0701 11.0227 17.033 16.376 16.5299C21.6933 16.0269 26.5435 21.2734 27.1903 28.2448Z" class="secondary_color"/>
    <path fill-rule="evenodd" clip-rule="evenodd" d="M62.7949 109.962C62.9027 109.782 67.0703 95.9108 69.4056 88.2567C72.0284 79.7041 82.8426 71.2952 70.4835 58.2867C60.8548 48.1889 63.9446 48.1889 45.1185 52.1059C34.1246 54.3698 41.9209 95.0484 44.5795 101.157C47.2023 107.266 45.4418 109.243 46.843 113.196C48.0286 116.61 53.3459 120.922 56.1123 119.089C58.8428 117.22 61.3219 112.477 62.7949 109.962Z" class="main_color"/>
    <path d="M47.5251 179.747C46.2317 179.496 44.8664 179.101 43.5371 178.49C43.5371 178.49 42.136 181.4 42.9982 186.395C42.9982 186.395 45.118 186.97 47.5969 187.33C47.4173 184.814 47.4892 182.263 47.5251 179.747Z" class="main_color"/>
    <path d="M43.6092 188.659C43.6092 187.545 43.6451 186.144 43.7888 184.383C44.3277 177.34 44.5074 168.787 49.178 164.439L59.7048 167.745C59.3455 172.92 56.1479 189.594 56.1479 189.594L55.9683 189.629C56.0761 189.594 56.1479 189.594 56.1479 189.594C56.5791 190.528 55.5372 194.05 54.9264 195.667C54.8546 195.918 54.7467 196.098 54.6749 196.277C54.8186 196.134 54.9264 195.954 54.9264 195.774C54.9264 195.774 55.7168 194.912 54.8186 200.518C54.136 204.83 52.9504 211.945 52.9504 211.945C52.9504 211.945 59.0581 211.873 59.3455 215.826H42.1721C42.1721 215.826 41.669 196.349 42.8187 195.379C42.3516 191.103 43.5373 188.623 43.5373 188.623C43.5732 188.659 43.6092 188.659 43.6092 188.659Z" class="fill_white"/>
    <path d="M59.3454 216.545H42.172C41.7768 216.545 41.4534 216.222 41.4534 215.862C41.4534 215.826 41.3097 210.939 41.3456 205.98C41.3815 197.967 41.7408 195.882 42.0642 195.2C41.633 190.923 42.8186 188.444 42.8546 188.336C42.8546 187.15 42.9264 185.821 43.0342 184.347C43.0701 183.772 43.106 183.161 43.1779 182.55C43.6449 175.795 44.1839 168.104 48.639 163.9C48.8186 163.72 49.106 163.649 49.3575 163.72L59.8843 167.026C60.2076 167.134 60.4232 167.422 60.3873 167.745C60.028 172.668 57.2257 187.581 56.8664 189.486C57.2257 190.923 56.1837 194.157 55.7526 195.379C56.04 195.882 56.0759 197.104 55.5011 200.59C54.9622 204.004 54.0999 209.25 53.7766 211.227C55.6089 211.37 59.7765 212.125 60.0639 215.719C60.0639 215.934 60.028 216.114 59.8843 216.258C59.7406 216.473 59.5609 216.545 59.3454 216.545ZM42.8905 215.108H58.4472C57.4771 212.628 52.9862 212.664 52.9503 212.664C52.7347 212.664 52.5192 212.556 52.4114 212.413C52.2677 212.269 52.1958 212.053 52.2317 211.838C52.2317 211.766 53.4173 204.686 54.1 200.41C54.3874 198.649 54.4951 197.607 54.4951 196.996C54.3873 196.96 54.3155 196.924 54.2436 196.889C53.9562 196.673 53.8484 196.314 53.9922 195.99C54.064 195.846 54.1359 195.631 54.2078 195.415C54.9263 193.475 55.5011 191.175 55.5011 190.241C55.3574 190.133 55.2855 190.025 55.2137 189.845C55.1418 189.558 55.2497 189.27 55.4652 189.091C55.9323 186.683 58.4113 173.387 58.8784 168.284L49.2856 165.266C45.5132 169.147 45.0102 176.334 44.5431 182.658C44.5072 183.269 44.4713 183.88 44.3995 184.455C44.2917 186.036 44.2198 187.438 44.2557 188.659C44.2557 188.875 44.1479 189.091 44.0042 189.198C43.7527 189.917 43.106 192.073 43.4653 195.271C43.5012 195.487 43.4294 195.703 43.2857 195.846C42.8186 196.996 42.7109 206.375 42.8905 215.108Z" class="fill_black"/>
    <path d="M6.17262 188.408C6.20854 186.791 6.2804 185.353 6.35225 184.203C6.89117 177.196 8.32831 168.571 13.0348 164.187L27.1185 161.636C26.9388 164.151 21.6575 179.532 18.6396 189.378C18.7474 189.342 18.8192 189.342 18.8192 189.342C18.9629 192.576 17.8851 194.948 17.0947 196.242C17.3821 196.062 17.5617 195.846 17.5976 195.559C17.5976 195.559 18.6396 195.451 17.0947 199.763C15.6217 203.896 14.0408 211.837 14.0408 211.837C14.0408 211.837 20.1845 211.262 20.5078 215.826H3.22656C3.22656 215.826 4.26848 196.062 5.49002 195.235C4.95111 190.887 6.17262 188.372 6.17262 188.372V188.408Z" class="fill_white"/>
    <path d="M20.4712 216.545H3.19011C3.01047 216.545 2.79491 216.473 2.6512 216.329C2.50749 216.186 2.43563 216.006 2.47156 215.79C2.47156 215.754 2.72302 210.795 3.15415 205.8C3.80084 197.931 4.30384 195.739 4.69905 195.02C4.26792 190.923 5.34572 188.408 5.48943 188.084C5.52536 186.395 5.59722 185.138 5.66907 184.131C6.42355 173.962 8.68697 167.278 12.5671 163.648C12.6749 163.541 12.7827 163.505 12.9264 163.469L27.01 160.917C27.2255 160.881 27.4412 160.953 27.6208 161.097C27.8005 161.241 27.8723 161.456 27.8723 161.672C27.7645 163.433 25.5011 170.368 22.9143 178.418C21.7287 182.083 20.5072 185.856 19.5371 189.055C19.5731 189.126 19.573 189.198 19.573 189.27C19.6808 191.786 19.0701 193.834 18.4593 195.235C18.7826 195.703 18.9623 196.745 17.8126 199.943C16.6629 203.177 15.4054 208.855 14.9384 211.047C16.1599 211.083 18.2437 211.298 19.6808 212.556C20.6149 213.347 21.1538 214.425 21.2257 215.754C21.2257 215.97 21.1538 216.15 21.0461 216.293C20.8664 216.473 20.6868 216.545 20.4712 216.545ZM3.94453 215.108H19.6448C19.5011 214.533 19.1778 214.065 18.7467 213.67C17.1299 212.269 14.148 212.52 14.112 212.52C13.8965 212.556 13.6809 212.448 13.5013 212.269C13.3576 212.089 13.2857 211.873 13.3217 211.658C13.3935 211.334 14.9383 203.608 16.4114 199.476C16.8425 198.254 17.0581 197.463 17.1299 196.924C16.9503 196.924 16.7347 196.852 16.591 196.709C16.3395 196.493 16.3037 196.098 16.4833 195.81C17.0941 194.768 18.1 192.648 18.1 189.809C17.9204 189.63 17.8844 189.378 17.9563 189.126C18.9622 185.784 20.2557 181.796 21.5131 177.951C23.561 171.626 25.6448 165.158 26.2556 162.498L13.3935 164.834C9.87259 168.248 7.82472 174.609 7.10617 184.239C7.03432 185.245 6.96246 186.611 6.92653 188.408C6.92653 188.587 6.85464 188.767 6.71093 188.911C6.45944 189.594 5.77682 191.786 6.17202 195.164C6.20795 195.379 6.10022 195.631 5.95651 195.774C5.27389 196.888 4.41159 206.303 3.94453 215.108Z" class="fill_black"/>
    <path d="M67.896 169.722C66.4589 169.722 64.6984 169.542 62.5786 169.218C54.7105 167.925 44.2197 164.511 42.531 161.995C41.561 160.558 42.2795 154.018 44.004 140.398C44.7944 134.218 45.5849 127.857 45.8364 123.832L44.9022 123.904C44.04 130.768 40.6269 157.791 39.0101 159.732C37.4652 161.564 20.687 165.876 10.8069 164.511C6.49553 163.936 3.72908 162.391 2.61532 159.947C2.22011 159.085 3.04643 154.952 6.27993 140.111C6.96255 136.913 7.71709 133.607 8.39971 130.372C9.5494 125.018 11.238 120.526 13.0344 115.747C14.6511 111.471 16.3037 107.051 17.8486 101.445C18.8187 97.8871 29.3455 97.7793 31.4293 97.7793H31.4653L63.4768 99.6839C63.6924 99.6839 63.908 99.7917 64.0158 100.007C69.3331 107.661 71.6325 129.294 72.3511 138.242C72.9259 145.393 73.2492 152.832 73.2133 158.618C73.1414 167.889 72.2791 168.572 71.9199 168.823C71.0935 169.434 69.8001 169.722 67.896 169.722ZM43.7166 161.205C44.9741 163.073 54.998 166.523 62.8302 167.817C68.8301 168.787 70.5546 168.068 70.9498 167.781C72.8899 164.906 71.381 113.95 63.0098 101.193L31.3575 99.3245C26.5791 99.2886 19.681 100.079 19.178 101.912C17.5972 107.59 15.9445 112.046 14.3278 116.358C12.5673 121.101 10.8787 125.557 9.7649 130.768C9.08227 134.002 8.36375 137.308 7.6452 140.506C5.74103 149.238 3.76504 158.258 3.90875 159.48C4.77101 161.313 6.92666 162.499 10.2679 163.074C20.1481 164.727 36.6748 160.163 37.9323 158.869C39.046 157.324 41.9921 136.194 43.5729 123.221C43.6088 122.898 43.8963 122.61 44.2196 122.61L46.5549 122.395C46.7705 122.395 46.9501 122.431 47.1297 122.575C47.2734 122.718 47.3453 122.934 47.3453 123.114C47.2016 127.102 46.3394 133.966 45.4771 140.614C44.3993 148.771 42.9621 159.947 43.7166 161.205Z" class="fill_black"/>
    <path d="M21.3339 40.6784C16.8429 40.6784 12.8549 35.8631 12.28 29.6464C11.6693 23.1421 15.0105 17.5003 19.753 17.0691C22.0883 16.8535 24.3877 17.9315 26.1841 20.0517C27.9445 22.1359 29.0942 24.9748 29.3456 28.1012C29.7049 31.8744 28.699 35.5757 26.687 37.9833C25.3577 39.5645 23.7051 40.4988 21.8728 40.6784C21.6931 40.6425 21.5135 40.6784 21.3339 40.6784ZM20.2919 18.4346C20.1482 18.4346 20.0045 18.4346 19.8608 18.4706C15.9447 18.8299 13.1782 23.789 13.7171 29.5026C14.2201 35.2163 17.8489 39.5645 21.765 39.2051C23.2021 39.0614 24.5314 38.3067 25.6092 37.0131C27.3697 34.8929 28.2319 31.5869 27.9445 28.173C27.693 25.3701 26.6871 22.7828 25.1063 20.9501C23.7051 19.333 22.0164 18.4346 20.2919 18.4346Z" class="fill_black"/>
    <path d="M23.0585 39.6723C24.5674 39.277 31.5733 34.6773 41.0224 31.0478C44.7589 29.6104 66.4234 23.5015 70.6988 22.6749C70.6988 22.6749 72.4952 20.1236 71.4173 13.7271C70.3395 7.33064 66.1718 3.12622 66.1718 3.12622C66.1718 3.12622 29.0225 15.8473 18.9268 16.2785C18.9268 16.2785 24.4597 17.6081 26.759 22.5312C28.771 26.8434 28.9147 31.2275 27.6932 34.1742C25.825 38.6661 23.0585 39.6723 23.0585 39.6723Z" class="fill_white"/>
    <path d="M23.0584 40.3911C22.7351 40.3911 22.4836 40.1755 22.3758 39.888C22.268 39.5286 22.4477 39.1333 22.8069 38.9896C22.8429 38.9896 25.3219 37.9834 27.0464 33.8509C28.268 30.8683 27.9446 26.6638 26.1483 22.7828C24.0285 18.255 18.8549 16.9613 18.783 16.9254C18.4238 16.8535 18.2082 16.5301 18.2441 16.1708C18.2801 15.8114 18.5674 15.5239 18.9267 15.5239C28.8069 15.1287 65.5971 2.58729 65.9563 2.44355C66.2078 2.37168 66.4952 2.40762 66.7108 2.62323C66.8904 2.8029 71.094 7.04324 72.1719 13.6194C73.2856 20.2314 71.3814 22.9625 71.3096 23.1063C71.2018 23.25 71.0221 23.3578 70.8425 23.3937C66.5671 24.2202 45.0104 30.2574 41.2739 31.7307C35.2021 34.0665 30.2081 36.7975 26.9028 38.5943C24.9986 39.6364 23.8488 40.2473 23.2381 40.3911C23.1662 40.3911 23.1303 40.3911 23.0584 40.3911ZM21.9087 16.6739C23.777 17.6441 26.1124 19.3331 27.4417 22.2079C29.4177 26.4123 29.7769 31.0839 28.3758 34.4258C27.9806 35.3601 27.5854 36.1148 27.1543 36.7975C30.4596 35.0008 35.1661 32.5572 40.7709 30.3652C44.4714 28.9278 65.2737 23.0703 70.2677 22.0282C70.627 21.3095 71.597 18.794 70.7706 13.835C69.9084 8.7322 66.9623 5.03087 65.9922 3.95282C61.8964 5.35429 33.9805 14.7693 21.9087 16.6739Z" class="fill_black"/>
    <path d="M29.813 14.23C29.813 14.23 29.8848 13.7988 30.9626 14.1222C30.9626 14.1222 34.3758 15.4159 35.741 23.3216C37.1063 31.0836 34.4117 33.8147 34.4117 33.8506L33.4417 34.3178C33.4417 34.3178 36.244 31.5148 34.771 22.9982C33.5854 15.883 29.813 14.23 29.813 14.23Z" class="fill_black"/>
    <path d="M37.4288 109.027C31.5367 109.027 25.0338 108.057 18.6746 105.218C18.2434 105.434 17.9201 105.326 17.7405 105.146C16.9142 104.571 17.2734 103.349 19.6806 96.8451C21.3332 92.3532 23.417 86.7832 23.8123 83.4053C24.2793 79.5962 25.0697 74.3856 25.6805 70.3968C23.0218 76.3261 20.435 80.6742 20.3991 80.7102C20.2195 80.9976 19.8602 81.1414 19.5369 80.9976L11.8483 78.0869C11.5609 77.9791 11.3812 77.7276 11.3812 77.4401C11.3094 75.7871 11.022 74.9606 10.7705 74.2059C10.2315 72.5888 9.98007 71.4389 11.4172 66.947C11.5968 66.372 12.5669 64.5034 13.8243 62.1317C14.3273 61.1974 14.8663 60.1193 14.9381 59.9397C15.3692 58.8975 15.7285 55.7712 16.0878 52.7886C16.6626 47.9014 17.0937 44.6313 17.8482 43.4095C19.3931 40.894 22.447 39.816 25.6805 38.666C27.1535 38.127 28.6984 37.588 30.1714 36.8693C38.1833 33.0602 47.9557 31.6946 48.3509 31.6587C48.4228 31.6587 48.4946 31.6587 48.5664 31.6587L61.716 33.7429C61.9675 33.7789 62.1831 33.9585 62.2909 34.2101L72.0632 60.1553C72.0992 60.299 72.135 60.4427 72.0991 60.5865L65.704 84.4115C65.704 84.4474 65.704 84.4474 65.6681 84.4834C63.728 89.7299 63.728 96.7013 65.6681 101.373C65.8118 101.696 65.6681 102.092 65.3448 102.271C65.0933 102.415 59.1292 105.577 50.291 107.518C46.6982 108.38 42.2791 109.027 37.4288 109.027ZM18.8902 103.709C18.9261 103.709 18.9261 103.709 18.962 103.745C38.7582 112.836 60.3867 103.17 64.1591 101.337C62.3268 96.306 62.3986 89.4783 64.3747 84.0521L70.698 60.4787L61.1771 35.1444L48.5664 33.132C47.4886 33.2758 38.2552 34.7132 30.89 38.1989C29.3451 38.9535 27.7643 39.4925 26.2554 40.0316C23.1296 41.1456 20.435 42.1158 19.1416 44.1641C18.4949 45.2062 17.9919 49.4825 17.5967 52.9323C17.2015 56.3102 16.8423 59.2209 16.3393 60.4427C16.2315 60.6583 15.8722 61.413 15.1536 62.7785C14.2914 64.3956 12.998 66.8751 12.8543 67.3782C11.489 71.6545 11.7765 72.481 12.1717 73.7387C12.4232 74.4574 12.7105 75.3558 12.8183 76.901L19.5009 79.4524C20.5428 77.6557 23.956 71.403 26.6865 64.2878C26.8302 63.9284 27.1894 63.7488 27.5487 63.8566C27.908 63.9644 28.1236 64.2878 28.0876 64.6831C28.0517 64.7909 26.1476 76.5776 25.2853 83.585C24.8542 87.1426 22.7344 92.7844 21.0458 97.3481C20.1476 99.7917 19.1417 102.487 18.8902 103.709Z" class="fill_black"/>
    <path d="M89.417 53.2197C89.8122 52.9682 90.1715 52.9322 90.4589 52.9682C85.9679 45.7452 87.6925 31.3712 87.441 28.8557C84.5668 27.2386 90.7822 24.6513 90.7822 24.6513L97.7881 24.1482C98.2192 27.7058 98.327 29.8978 98.327 29.8978C109.824 51.7104 109.752 63.1019 98.6863 69.0312C97.6085 70.6482 86.5428 65.7251 86.5428 65.7251C86.5428 65.7251 78.459 60.6942 71.4172 59.7239C72.6028 56.2742 63.2257 59.0771 54.6389 59.0771C39.3337 59.0771 60.8903 35.0006 60.8903 35.0006V34.1741C60.8903 34.1382 80.974 41.2174 89.417 53.2197Z" class="fill_white"/>
    <path d="M97.7159 70.0733C96.674 70.0733 94.9135 69.7139 91.9675 68.6718C89.0573 67.6297 86.2549 66.4079 86.219 66.372C86.1831 66.372 86.1472 66.336 86.1472 66.336C86.0753 66.3001 78.1353 61.3411 71.309 60.4427C71.0934 60.4067 70.9138 60.299 70.806 60.1193C70.6982 59.9396 70.6623 59.724 70.7342 59.5084C70.7701 59.4365 70.8419 59.185 70.7701 59.0771C70.2311 58.3944 66.4946 58.8256 63.4767 59.149C60.7462 59.4365 57.6564 59.7958 54.6385 59.7958C51.5846 59.7958 49.6445 58.8615 48.8541 57.0648C46.1595 50.9918 58.0876 37.1208 60.2073 34.7131V34.1741C60.2073 33.9585 60.3151 33.7069 60.4948 33.5991C60.6744 33.4554 60.9258 33.4195 61.1414 33.4913C61.9318 33.7788 79.7161 40.1393 88.734 51.1355C86.2549 45.1343 86.5424 36.6177 86.7221 31.7664C86.758 30.6884 86.7939 29.826 86.7579 29.251C86.0753 28.7479 85.9675 28.1729 85.9675 27.7777C86.0753 25.9809 89.4526 24.4357 90.4945 24.0045C90.5663 23.9685 90.6381 23.9685 90.71 23.9685L97.7159 23.4654C98.1111 23.4295 98.4345 23.717 98.4704 24.0763C98.8656 27.1308 98.9734 29.1432 99.0093 29.7182C104.866 40.858 107.632 49.0513 107.668 55.4477C107.704 61.8442 104.901 66.4798 99.153 69.6061C98.9015 69.8577 98.5063 70.0733 97.7159 70.0733ZM86.8657 65.0783C92.1471 67.4141 97.2489 69.0312 98.1112 68.6C98.183 68.5281 98.2548 68.4562 98.3267 68.4203C109.105 62.6707 108.925 51.6026 97.68 30.2572C97.6441 30.1494 97.6081 30.0775 97.6081 29.9697C97.6081 29.9338 97.5004 28.0292 97.1411 24.9388L90.9615 25.37C89.1292 26.1606 87.4406 27.3464 87.4046 27.8495C87.4046 27.9214 87.5125 28.0651 87.7999 28.2089C88.0155 28.3167 88.1592 28.5323 88.1592 28.7838C88.1951 29.3588 88.1951 30.4009 88.1232 31.8024C87.9436 37.1208 87.5843 47.0389 91.0693 52.6088C91.213 52.8604 91.213 53.1479 91.0693 53.3635C90.9256 53.5791 90.6741 53.7228 90.3867 53.6869C90.1711 53.6509 89.9915 53.7228 89.7759 53.8306C89.4526 54.0103 89.0214 53.9384 88.8058 53.615C81.6202 43.4094 65.5965 36.7255 61.5726 35.1803C61.5367 35.2881 61.5007 35.36 61.4288 35.4678C57.5846 39.7441 48.0997 51.8901 50.1475 56.4539C50.7224 57.7116 52.2313 58.3225 54.6385 58.3225C57.5846 58.3225 60.6384 57.9991 63.333 57.6757C68.2911 57.1367 70.9138 56.921 71.9197 58.1428C72.0994 58.3585 72.2431 58.6459 72.2431 59.0771C78.9616 60.263 86.1831 64.6471 86.8657 65.0783Z" class="fill_black"/>
    <path d="M58.375 35.8271C58.375 35.8271 60.8181 35.1084 60.8899 33.3835L61.6444 34.4616C61.6444 34.4616 63.2611 36.2583 60.8899 39.9237C60.8899 39.9597 61.1055 36.5458 58.375 35.8271Z" class="fill_white"/>
    <path d="M61.0695 32.593L60.854 33.8867C60.854 33.8867 60.9258 35.396 58.375 35.8631C54.7103 36.5459 49.0697 30.7603 49.0697 30.7603C43.6087 15.8113 47.8841 4.45581 60.1713 8.91177C72.4227 13.3318 68.7581 27.4543 68.0755 29.5386C67.2491 32.0181 61.2492 31.6947 61.2492 31.6947L61.1414 32.4134L61.0695 32.593Z" class="fill_white"/>
    <path d="M57.8002 36.6178C53.884 36.6178 48.8181 31.4791 48.5666 31.2276C48.4948 31.1557 48.423 31.0838 48.423 30.976C45.0098 21.6329 45.2973 13.4397 49.1775 9.55869C50.9739 7.72599 54.4229 6.03705 60.4229 8.19315C65.7761 10.1337 69.0096 14.1943 69.6923 19.9799C70.2671 24.8671 68.9019 29.2152 68.7582 29.7183C67.9678 32.1978 63.5845 32.4134 61.86 32.4134L61.6085 33.9586C61.5726 34.3899 61.2851 36.0429 58.5546 36.546C58.2672 36.5819 58.0517 36.6178 57.8002 36.6178ZM49.7164 30.3292C51.2972 31.9103 55.6444 35.6117 58.2672 35.1086C60.0995 34.7492 60.1355 33.8868 60.1355 33.8508C60.1355 33.8149 60.1355 33.779 60.1355 33.7071L60.351 32.4134L60.4948 31.5151C60.5666 31.1557 60.8899 30.9042 61.2492 30.9042C63.0456 30.976 66.8899 30.6886 67.357 29.2152C67.5725 28.6043 72.2072 13.9428 59.8839 9.48681C55.6804 7.97753 52.3032 8.30096 50.1116 10.493C46.7343 14.0146 46.5548 21.597 49.7164 30.3292Z" class="fill_black"/>
    <path d="M61.1416 9.34302C60.1356 7.76187 58.4111 6.71975 56.6147 6.25259C54.8183 5.7495 52.8782 5.7495 50.9741 5.82137C47.7046 6.00105 44.3993 6.43227 41.1658 7.18691C42.4592 7.97748 44.1119 9.01961 45.4053 9.77425C43.034 11.571 41.2736 10.1695 36.8544 12.5412C38.2916 12.9725 41.561 15.1286 43.3933 15.2005C40.5909 16.7816 39.2975 17.3925 36.6748 20.5548C38.2556 19.9439 41.1657 20.0517 42.8184 20.0517C41.4531 22.4234 39.1538 25.3342 37.7885 27.7059C39.4771 27.1669 42.0999 26.9513 43.7526 26.4122C41.8484 28.5324 40.519 30.2932 39.9442 33.0602C42.4591 31.4791 45.2615 30.4729 48.1357 30.1495C49.2495 30.0417 50.507 30.976 51.3692 30.2214C52.3752 29.3589 52.5549 26.9153 52.7705 25.6217C53.2016 22.9984 53.8482 20.3392 55.1416 17.9675C56.435 15.5957 58.447 13.5115 60.926 12.5772C61.3572 12.3975 61.896 12.2178 62.0398 11.7866C62.1475 11.4991 62.0757 11.1757 61.9679 10.8882C61.7524 10.0977 61.6086 10.0617 61.1416 9.34302Z" class="fill_black"/>
    <path d="M45.549 13.763C45.549 13.763 38.9023 19.3689 38.9023 22.2796C38.9023 25.6935 74.3632 7.18692 74.0398 6.00106C73.7524 4.8152 69.0099 4.02463 60.7105 6.037C60.7465 6.037 53.0939 7.94156 45.549 13.763Z" class="fill_white"/>
    <path d="M39.6209 23.3936C39.1897 23.3936 39.0101 23.2858 38.8664 23.2498C38.4712 23.0702 38.2197 22.7108 38.2197 22.2796C38.2197 19.1532 44.3993 13.8348 45.1178 13.2239C45.1178 13.2239 45.1178 13.2239 45.1537 13.188C52.6985 7.3665 60.2793 5.42599 60.6026 5.35412C68.1834 3.52143 74.2911 3.70111 74.7941 5.82129C74.9378 6.36031 74.4708 6.75559 74.2193 6.9712C72.4229 8.44455 64.4829 12.8286 56.5429 16.7096C44.7586 22.4952 40.9861 23.3936 39.6209 23.3936ZM39.6568 21.9921C39.6928 21.9921 39.6928 21.9921 39.6568 21.9921C40.9143 21.9921 45.5849 20.5188 56.9021 14.9129C64.6266 11.0678 71.4169 7.25869 73.1055 6.00096C72.0276 5.49787 68.2193 4.95884 60.926 6.7556C60.8542 6.7556 53.3093 8.69609 46.016 14.3379C43.6448 16.3143 40.0161 20.0157 39.6568 21.9921Z" class="fill_black"/>
    <path d="M43.7529 12.4334C43.7889 9.2711 44.5793 4.41986 48.8906 1.86847C52.8786 -0.503254 57.2976 1.1857 60.2437 2.98246C62.2557 4.20425 63.585 5.46198 63.585 5.46198C63.585 5.46198 55.1061 13.188 43.9685 15.3801C43.9685 15.3801 43.7529 14.1583 43.7529 12.4334Z" class="fill_white"/>
    <path d="M43.9685 16.0988C43.8248 16.0988 43.681 16.0628 43.5733 15.991C43.4296 15.8832 43.3218 15.7035 43.2858 15.5238C43.2858 15.4879 43.0703 14.2302 43.0703 12.4334C43.1062 8.80394 44.0762 3.91675 48.5672 1.25754C52.8426 -1.25792 57.4773 0.466968 60.639 2.37153C62.6868 3.62927 64.0521 4.887 64.0881 4.95887C64.2318 5.10261 64.3036 5.28229 64.3036 5.4979C64.3036 5.71351 64.2317 5.89319 64.0521 6.03693C63.6928 6.36035 55.2857 13.9067 44.0762 16.1347C44.0762 16.0988 44.0044 16.0988 43.9685 16.0988ZM44.4715 12.4334C44.4715 13.2958 44.5074 14.0145 44.5793 14.5176C53.3456 12.5412 60.4234 7.15092 62.4713 5.42603C61.8965 4.95887 60.9983 4.2761 59.8486 3.55739C57.0462 1.86844 52.9145 0.287297 49.2499 2.44341C45.3697 4.81513 44.5074 9.16329 44.4715 12.4334Z" class="fill_black"/>
    <path d="M62.4711 20.447C62.4352 21.4532 61.6807 22.2437 60.7825 22.2437C59.8843 22.2078 59.2018 21.3813 59.2377 20.3751C59.2736 19.3689 60.028 18.5784 60.8903 18.5784C61.7885 18.5784 62.5071 19.4408 62.4711 20.447Z" class="fill_black"/>
    <path d="M69.0455 16.9612C69.0096 17.9673 68.2552 18.7579 67.3929 18.7579C66.4947 18.722 65.8121 17.8955 65.848 16.8893C65.884 15.8831 66.6385 15.0925 67.5007 15.0925C68.363 15.1285 69.0814 15.955 69.0455 16.9612Z" class="fill_black"/>
    <path d="M107.776 21.525L67.6088 18.1471C66.998 18.0753 66.5669 17.5722 66.5669 16.9613C66.5669 16.3504 66.9621 15.8473 67.5729 15.7395C70.8423 14.5896 72.2794 11.9663 77.0578 11.0679C83.1655 9.91802 93.5127 10.3852 107.489 7.79785L107.776 21.525Z" class="fill_black"/>
    <path d="M68.1116 16.6378C67.7883 16.7456 67.465 16.8175 67.1416 16.8893C66.926 16.9612 66.7463 16.9612 66.5308 16.9612C66.5667 17.5362 66.9979 18.0393 67.5727 18.1111L107.74 21.489L107.488 9.95386C103.429 10.7085 74.0756 16.3144 68.1116 16.6378Z" fill="#1C1E00"/>
    <path d="M99.8721 28.8197L60.9984 21.6686C60.3876 21.5608 59.9206 20.9858 59.9565 20.3749C59.9565 19.7281 60.4595 19.1891 61.0702 19.1172L100.267 14.1941L99.8721 28.8197Z" class="fill_white"/>
    <path d="M60.1716 19.6922C60.0638 19.8719 59.9561 20.0875 59.9561 20.339C59.9561 20.9858 60.3872 21.5249 60.9979 21.6686L71.4888 24.9387L79.0696 25.9808C95.5964 32.5929 95.6324 29.4665 99.8359 28.8197L100.195 16.6377C95.2372 19.0454 93.2971 21.5608 88.339 20.5187C80.1115 18.7938 68.5787 19.261 60.1716 19.6922Z" class="fill_black"/>
</svg>
