<svg width="157" height="255" viewBox="0 0 157 255" fill="none" xmlns="http://www.w3.org/2000/svg">
    <path fill-rule="evenodd" clip-rule="evenodd" d="M49.1446 147.133C49.2256 147.376 51.6155 167.391 49.1446 175.332C45.9851 185.379 47.8888 202.963 53.3167 210.215C93.7829 264.343 22.1671 210.701 27.433 193.969C32.9014 176.628 16.1721 161.84 22.0455 155.115C27.919 148.43 26.4608 136.073 29.7824 131.656C32.6583 127.848 38.8963 126.065 42.0964 128.658C45.3369 131.211 47.9294 143.932 49.1446 147.133Z" class="main_color"/>
    <path fill-rule="evenodd" clip-rule="evenodd" d="M62.3504 6.86996C62.8769 4.277 58.7453 1.56249 56.1123 1.92713C52.9528 2.37279 47.4034 6.66738 43.2717 9.42241C39.14 12.1774 30.7145 21.5769 30.8765 23.9673C31.0385 26.3172 32.5373 36.527 38.4513 30.8143C44.3653 25.1017 49.9148 22.7924 52.1426 22.2657C54.2895 21.739 61.6617 10.2732 62.3504 6.86996Z" class="main_color"/>
    <path fill-rule="evenodd" clip-rule="evenodd" d="M115.211 34.9873C117.237 34.9063 118.331 30.9763 117.48 28.8696C116.467 26.3171 112.093 22.5492 109.176 19.5916C106.26 16.6745 97.51 11.4481 95.8493 12.0153C94.148 12.5825 86.9784 15.7832 92.4873 19.6321C97.9557 23.4405 100.872 27.6541 101.723 29.3962C102.533 31.1384 112.579 35.0683 115.211 34.9873Z" class="secondary_color"/>
    <path fill-rule="evenodd" clip-rule="evenodd" d="M135.506 110.953C138.544 110.832 140.123 104.957 138.908 101.797C137.409 97.9884 130.888 92.3567 126.553 87.9811C122.219 83.6055 109.176 75.8266 106.665 76.7179C104.153 77.6093 93.4594 82.3495 101.642 88.0622C109.824 93.7748 114.118 100.014 115.414 102.607C116.67 105.2 131.617 111.075 135.506 110.953Z" class="secondary_color"/>
    <path d="M55.95 239.467C55.869 239.467 55.788 239.467 55.707 239.427C55.464 239.346 55.2614 239.143 55.1804 238.9C55.0994 238.576 45.9449 207.825 43.7575 192.632C43.2715 189.188 40.8006 184.083 38.2081 178.694C34.9271 171.888 31.2409 164.19 30.2688 157.505C28.932 148.065 33.8333 140.813 35.4131 138.463C35.5346 138.26 35.6967 138.058 35.7777 137.896C35.2916 135.667 34.8866 132.953 34.6435 129.874C34.6435 129.671 34.684 129.509 34.8055 129.347C35.4941 128.415 35.8992 127.443 36.1017 126.471C35.8182 126.106 35.2511 125.336 34.4004 124.121C34.3194 123.999 34.2789 123.837 34.2789 123.716C34.1574 121.204 34.1169 118.53 34.1575 115.734C34.1575 115.369 34.4005 115.045 34.7245 114.964C35.0486 114.843 35.4536 115.005 35.6156 115.288C38.4511 119.583 39.9903 121.366 40.5574 121.892C41.1245 121.406 42.4208 120.15 43.474 119.097C44.5272 118.084 45.5803 117.031 46.4715 116.22C47.7272 115.086 48.4158 114.438 49.1044 114.964C49.2664 115.086 49.5095 115.369 50.7652 116.747C51.8184 117.922 53.2766 119.502 54.5323 120.839C55.3019 121.649 55.869 122.176 56.2741 122.541C56.3956 122.257 56.6387 122.014 57.0032 122.014C57.4083 121.973 57.7324 122.257 57.8539 122.622L62.4311 141.421C62.5121 141.745 62.3907 142.069 62.1071 142.271C62.0261 142.352 52.7095 149.321 52.831 159.207C52.9525 169.052 60.4463 193.564 61.0133 195.427C61.5399 196.238 64.9426 201.586 65.5502 206.812C66.1983 212.484 62.6742 227.88 61.0539 232.377C60.8919 232.782 60.7703 233.187 60.6083 233.592C58.8665 237.522 56.5577 239.305 56.4362 239.386C56.2741 239.427 56.112 239.467 55.95 239.467ZM36.3042 130.036C36.5878 133.034 36.9524 135.667 37.4384 137.815C37.5195 138.22 37.3574 138.504 36.7498 139.395C35.0486 141.907 30.5928 148.511 31.8485 157.303C32.7801 163.704 36.4258 171.321 39.6259 178.006C42.3803 183.759 44.7702 188.742 45.2968 192.429C47.2006 205.759 54.5728 231.243 56.3146 237.198C57.0843 236.388 58.178 234.97 59.0691 232.904C59.2311 232.58 59.3526 232.215 59.4742 231.81C61.216 226.907 64.4565 212.038 63.8894 206.974C63.3223 201.829 59.5957 196.278 59.5552 196.238C59.5147 196.157 59.4741 196.116 59.4336 196.035C59.1096 194.982 51.2918 169.66 51.1297 159.247C51.0082 149.686 58.664 142.879 60.6488 141.34L56.6387 124.809C56.1931 124.728 55.5449 124.283 53.3171 121.973C52.0208 120.636 50.5626 119.016 49.5095 117.841C49.1044 117.395 48.6994 116.95 48.4158 116.625C47.6057 117.314 45.8234 119.056 44.5677 120.272C42.4208 122.379 41.4892 123.27 41.0436 123.513C40.193 123.959 39.3423 123.31 37.3574 120.677C36.7904 119.948 36.2232 119.137 35.6966 118.327C35.6966 120.069 35.7372 121.771 35.8182 123.391C36.9119 124.971 37.479 125.66 37.479 125.66C37.641 125.822 37.722 126.065 37.6815 126.309C37.6005 127.564 37.1144 128.82 36.3042 130.036ZM35.8587 138.139C35.8587 138.139 35.8587 138.179 35.8587 138.139C35.8587 138.179 35.8587 138.139 35.8587 138.139Z" class="fill_black"/>
    <path d="M61.2158 229.257H61.1753C61.0943 229.217 61.0538 229.136 61.0538 229.055C61.7829 226.745 65.4286 212.849 64.6184 206.852C63.8083 201.14 60.3247 195.994 60.2842 195.954C60.2437 195.873 60.2436 195.792 60.3246 195.751C60.4056 195.711 60.4866 195.711 60.5272 195.792C60.5677 195.832 64.1323 201.059 64.902 206.812C65.7526 212.849 62.0664 226.826 61.3373 229.136C61.3373 229.217 61.2563 229.257 61.2158 229.257Z" fill="#350502"/>
    <path d="M120.356 231.567C120.356 231.688 120.356 231.81 120.396 231.972C120.396 231.972 117.561 231.04 114.766 231.08C108.204 225.449 98.2796 216.333 92.8922 208.23C85.682 197.412 81.7529 171.888 75.8794 160.179C71.9098 152.238 65.1046 153.737 63.4033 148.389C62.5932 145.837 61.9856 143.446 61.5805 141.218C60.4869 135.465 56.9627 123.999 56.9627 123.999C56.9627 123.999 66.7654 115.774 67.2109 115.936C67.6565 116.098 73.6516 121.528 73.6516 121.528L78.5528 115.653C78.5528 115.653 75.1907 139.03 86.6541 149.28C102.735 163.704 108.852 185.42 109.338 200.289C109.54 206.245 123.232 212.2 120.963 225.449C120.477 227.029 120.113 229.136 120.356 231.567Z" class="fill_white"/>
    <path d="M120.397 232.782C120.316 232.782 120.234 232.782 120.153 232.742C120.113 232.742 117.399 231.891 114.766 231.891C114.564 231.891 114.361 231.81 114.24 231.688C103.829 222.694 96.4165 214.955 92.2038 208.676C88.0721 202.517 85.0747 191.781 82.1582 181.409C79.8493 173.265 77.7024 165.608 75.1505 160.544C73.1656 156.533 70.3707 155.074 67.9402 153.778C65.6719 152.562 63.525 151.428 62.6338 148.632C61.8237 146.08 61.2161 143.689 60.7706 141.34C59.6769 135.667 56.2338 124.323 56.1933 124.202C56.1123 123.877 56.1933 123.553 56.4364 123.351C66.5631 114.843 66.9681 114.964 67.4542 115.126C67.6162 115.167 68.0617 115.329 73.5707 120.312L77.9454 115.086C78.1884 114.802 78.553 114.721 78.8771 114.883C79.2011 115.045 79.4037 115.369 79.3631 115.734C79.3226 115.977 76.2037 138.787 87.2215 148.673C103.384 163.137 109.662 184.812 110.189 200.248C110.27 202.193 112.174 204.34 114.361 206.852C118.331 211.35 123.272 216.941 121.774 225.57C121.774 225.611 121.774 225.651 121.733 225.692C121.126 227.596 120.923 229.541 121.126 231.526C121.126 231.526 121.126 231.526 121.126 231.567C121.126 231.688 121.126 231.769 121.166 231.891C121.207 232.174 121.085 232.458 120.883 232.62C120.761 232.701 120.559 232.782 120.397 232.782ZM115.05 230.27C116.751 230.27 118.412 230.635 119.465 230.878C119.384 228.974 119.627 227.069 120.194 225.246C121.531 217.386 116.872 212.16 113.146 207.906C110.715 205.191 108.65 202.841 108.569 200.289C108.083 185.177 101.925 163.987 86.1278 149.848C76.6897 141.38 76.9733 124.688 77.4593 118.165L74.2593 122.014C74.1378 122.176 73.8947 122.297 73.6922 122.297C73.4897 122.297 73.2466 122.257 73.0846 122.095C70.6947 119.907 68.0212 117.557 67.0896 116.828C65.7528 117.719 61.1757 121.447 57.8541 124.242C58.5427 126.551 61.3377 135.91 62.3098 141.015C62.7554 143.325 63.3225 145.634 64.1326 148.106C64.8213 150.293 66.5225 151.185 68.6694 152.319C71.2213 153.656 74.3403 155.317 76.5682 159.774C79.1607 165 81.348 172.739 83.6569 180.923C86.5329 191.173 89.5304 201.788 93.5001 207.744C97.5508 213.821 105.004 221.6 115.05 230.27Z" class="fill_black"/>
    <path d="M56.9629 124.769C56.8414 124.769 56.7199 124.728 56.5984 124.688C56.3148 124.526 56.1123 124.202 56.1528 123.877C56.1528 123.756 57.368 111.358 59.6364 96.003C59.8794 94.2609 60.2035 92.4377 60.5275 90.6145C60.6086 90.2903 60.8516 90.0068 61.2161 89.9662C61.3377 89.9662 61.4592 89.9662 61.5808 90.0067C62.1073 87.7784 63.0795 83.97 64.4567 79.878C66.563 73.5576 69.3175 68.8984 69.4391 68.6958C69.5606 68.4932 69.7632 68.3717 70.0062 68.3311C70.2493 68.2906 70.4922 68.3312 70.6543 68.4932C70.8973 68.6958 76.6088 73.2335 80.619 79.1892C82.1988 81.5391 83.738 84.0105 85.2367 86.644C85.1962 86.1983 85.1152 85.7122 85.0342 85.226C84.6696 82.714 84.2646 80.3642 83.738 78.2169C82.9684 74.9351 82.2392 72.3827 81.7937 70.8431C81.1455 68.5743 80.619 67.1968 80.619 67.1968C80.4975 66.8726 80.5784 66.5485 80.862 66.3054C81.105 66.1028 81.4697 66.0218 81.7532 66.1839C81.8342 66.2244 89.7735 70.3569 94.4723 73.5171C96.5787 74.9756 98.8066 76.6368 100.589 78.0548C99.6978 76.7178 98.6445 75.1377 97.4698 73.4766C97.2268 73.112 97.3078 72.6258 97.6319 72.3827C97.9559 72.0991 98.442 72.1801 98.7256 72.4637C99.5357 73.3956 100.508 74.4084 101.561 75.5024C101.642 75.5834 101.683 75.6644 101.723 75.7859C102.088 76.5962 102.331 77.3255 102.493 78.0548C102.898 78.6625 103.222 79.1892 103.546 79.6754C104.234 80.7288 104.64 81.4175 104.68 81.4986C104.883 81.8632 104.802 82.3089 104.478 82.552C104.153 82.7951 103.708 82.7545 103.424 82.4709C103.384 82.4304 103.181 82.2684 102.898 82.0658C102.817 82.0253 102.736 81.9037 102.614 81.8227C102.614 81.9037 102.614 81.9848 102.574 82.0658C102.493 83.1192 102.412 83.7674 102.736 84.051C103.546 84.8613 107.273 84.5372 109.986 84.2131C116.67 83.4433 124.285 91.992 128.417 96.5702C129.47 97.7452 130.321 98.7175 130.807 99.1226C132.225 100.298 133.075 101.229 133.845 102.08C134.979 103.336 135.951 104.43 138.422 105.929C138.544 106.01 138.584 106.051 138.665 106.091C140.286 107.064 141.298 107.712 141.298 107.712C141.582 107.874 141.744 108.198 141.703 108.522C141.258 111.885 139.313 114.356 137.774 115.815C136.437 117.071 135.263 117.719 135.222 117.76C135.101 117.841 134.979 117.841 134.817 117.881C134.088 117.881 133.278 117.841 132.387 117.719H132.265C132.184 117.719 132.063 117.679 131.982 117.679C129.875 117.354 128.417 116.22 126.594 114.762C123.961 112.695 120.68 110.102 113.713 108.279C111.161 107.631 109.176 106.091 107.394 104.754C106.381 103.944 105.369 103.215 104.478 102.81C97.7939 99.8114 89.5305 97.5426 87.1811 96.9349C85.1557 101.432 79.8899 115.045 79.8089 115.167C79.7683 115.248 79.7278 115.329 79.6873 115.369L79.0392 116.139L74.0973 122.014C73.9758 122.176 73.7328 122.297 73.5303 122.297C73.3278 122.297 73.0847 122.257 72.9227 122.095C70.4923 119.907 67.6973 117.476 66.8467 116.787C65.5909 117.476 61.1756 121.122 57.287 124.566C57.3275 124.728 57.1654 124.769 56.9629 124.769ZM61.7833 92.9239C61.5808 94.0583 61.4187 95.1522 61.2567 96.2461C59.5149 107.914 58.4212 117.841 57.9756 121.973C66.3605 114.599 67.0492 114.924 67.5352 115.167C67.6568 115.207 68.0618 115.41 73.5707 120.353L78.5127 114.437C79.1203 112.898 84.4266 99.2037 86.1684 95.5979C86.3304 95.2332 86.7355 95.0712 87.1001 95.1522C87.1811 95.1927 97.3078 97.7451 105.288 101.31C106.341 101.797 107.394 102.607 108.528 103.458C110.148 104.714 112.012 106.132 114.28 106.699C121.571 108.603 125.136 111.399 127.769 113.465C129.511 114.843 130.726 115.815 132.427 116.058C132.508 116.058 132.589 116.058 132.63 116.098H132.751C133.48 116.18 134.129 116.22 134.736 116.22C135.06 116.017 135.911 115.45 136.802 114.64C138.098 113.425 139.678 111.48 140.164 108.846C139.719 108.563 138.949 108.117 137.977 107.509C137.896 107.469 137.774 107.388 137.693 107.307C135.06 105.686 133.967 104.471 132.792 103.174C132.022 102.323 131.253 101.473 129.916 100.379C129.349 99.8925 128.498 98.9606 127.364 97.6641C123.475 93.2885 116.184 85.1855 110.351 85.8742C105.085 86.4819 102.857 86.3199 101.764 85.2665C100.913 84.4157 101.034 83.2408 101.156 81.9443C101.196 81.5391 101.237 81.0529 101.237 80.5667C99.3736 79.0677 96.4572 76.7583 93.7027 74.8946C90.4217 72.6663 85.5203 69.9923 82.9279 68.5743C83.0899 69.101 83.2924 69.7087 83.4949 70.3975C83.981 71.937 84.7102 74.53 85.4798 77.8522C85.9659 80.04 86.4115 82.4305 86.776 84.9829C87.1406 87.5759 87.3026 89.3585 87.3431 89.8447C87.3836 90.2904 87.3836 90.574 87.3836 90.574C87.4241 90.9791 87.1811 91.3032 86.776 91.4248C86.4115 91.5058 86.0064 91.3438 85.8443 90.9791C85.8443 90.9791 85.1962 89.6826 84.1025 87.7379C82.6038 85.0234 81.0241 82.4709 79.4038 80.0805C76.3253 75.5834 72.1531 71.7749 70.4923 70.3569C69.6011 71.9775 67.6568 75.7454 66.1175 80.3642C64.2542 85.9958 63.12 91.0602 62.877 92.1136C62.877 92.1136 62.877 92.1136 62.877 92.1541L62.8364 92.2756C62.7554 92.5998 62.5124 92.8833 62.1478 92.9239C61.9858 92.9644 61.8643 92.9644 61.7833 92.9239Z" class="fill_black"/>
    <path d="M102.938 80.1617C101.885 78.5005 100.183 75.9076 98.1984 73.0715C99.0086 74.0034 99.9807 75.0162 101.034 76.1507C101.804 77.6092 102.411 78.9867 102.938 80.1617Z" class="main_color"/>
    <path d="M61.3374 90.7765C61.2969 90.898 61.2969 91.0601 61.2564 91.1816C60.9728 92.7212 60.6893 94.3823 60.4463 96.1245C58.5829 108.765 57.4082 119.299 57.0842 122.743C57.0032 123.513 56.9626 123.958 56.9626 123.958C55.95 123.837 49.0638 115.855 48.6587 115.531C48.2537 115.248 41.651 122.216 40.7599 122.743C40.4763 122.905 39.8283 122.257 38.9776 121.244C37.6004 119.583 35.8586 116.99 34.9675 115.653C34.6434 115.126 34.4409 114.842 34.4409 114.842C34.4409 114.842 34.2383 112.655 35.251 103.417C36.2637 94.2203 36.9928 88.9128 36.9928 88.9128C34.1168 90.6954 26.704 95.4357 26.704 95.4357C0.577106 102.04 24.9217 106.172 30.6737 111.237C35.3725 115.369 33.4686 121.163 34.8864 123.229C34.9674 123.351 35.0485 123.472 35.1295 123.594C36.3447 125.417 36.9928 126.146 36.9928 126.146C36.7903 127.524 36.2232 128.699 35.5751 129.63C35.5751 129.671 35.5345 129.711 35.494 129.752C34.5218 131.089 33.4686 131.859 33.4686 131.859C30.3496 131.089 24.1926 122.257 16.8608 118.529C-4.28374 107.793 1.2657 104.633 2.07584 101.999C2.48091 100.662 9.52912 92.3971 10.5013 89.9257C11.514 87.2112 19.1698 83.5243 21.3977 80.121C25.5294 73.9222 21.1951 78.5814 26.9471 72.3016C27.1901 72.018 27.4737 71.7344 27.7167 71.4508C27.5142 71.7344 27.2712 72.018 27.0686 72.3421L26.8256 72.9093L25.9749 74.9351C25.9749 74.9351 26.1775 74.773 26.623 74.4894C27.9193 73.5576 31.0788 71.2482 35.3726 67.9665C41.084 63.5504 48.6587 60.5522 48.6587 60.5522C48.6587 60.5522 44.7701 64.2391 41.7726 72.2611C41.1244 74.0033 40.5979 75.6643 40.1928 77.2444C39.8688 78.5004 39.6258 79.7159 39.4232 80.8098C38.6941 84.6587 38.6941 87.2517 38.6941 87.2517C38.6941 87.2517 39.0182 86.887 39.6258 86.2388C40.4359 85.3475 41.7321 83.9294 43.3524 82.1062C44.0815 81.2554 44.8512 80.3641 45.7018 79.3512C49.793 74.4489 58.0968 67.3588 58.0968 67.3588C58.0968 67.3588 58.0968 73.7601 58.7854 80.4856C59.231 85.0638 60.5678 88.8723 61.3374 90.7765Z" class="fill_white"/>
    <path d="M33.4283 132.71C33.3472 132.71 33.3067 132.71 33.2257 132.669C31.6054 132.264 29.5801 130.279 27.0282 127.767C24.0712 124.89 20.4255 121.284 16.4559 119.259C6.41017 114.154 1.26587 110.224 0.212689 106.902C-0.354406 105.038 0.33415 103.701 0.860738 102.688C1.02277 102.364 1.18479 102.04 1.26581 101.797C1.46834 101.108 2.60257 99.6089 4.74943 96.7728C6.73426 94.1799 9.20516 90.9387 9.69124 89.6422C10.2988 88.0216 12.5672 86.4009 15.1597 84.4967C17.3875 82.8761 19.6559 81.215 20.6686 79.6754C22.3699 77.0825 22.5724 76.4747 22.694 76.1506C22.937 75.4619 22.9775 75.3808 26.299 71.7345C26.5016 71.5319 26.6636 71.3293 26.8256 71.1267L27.0687 70.8432C27.3523 70.519 27.8383 70.4785 28.1624 70.7621C28.4864 71.0457 28.5674 71.5319 28.3244 71.856C28.2028 72.0586 28.0408 72.2207 27.9193 72.4233C29.6206 71.1673 32.0105 69.4251 34.846 67.1968C40.598 62.7806 48.0512 59.8231 48.3348 59.661C48.6993 59.4989 49.1044 59.661 49.3069 59.9851C49.5094 60.3092 49.4689 60.7549 49.1854 60.998C49.1448 61.0385 45.3778 64.6849 42.4613 72.4233C41.8537 74.0033 41.3676 75.6645 40.922 77.3256C40.922 77.3661 40.922 77.4066 40.8815 77.4066C40.5979 78.46 40.3549 79.5944 40.1523 80.8099C39.8688 82.4305 39.6663 83.8485 39.5853 84.9019C40.3549 84.0511 41.4081 82.8761 42.6638 81.4581C43.3524 80.6478 44.122 79.7565 45.0131 78.7031C49.1043 73.8008 57.1652 66.8727 57.5298 66.5891C57.7728 66.3865 58.0968 66.346 58.3804 66.4675C58.6639 66.589 58.8665 66.8727 58.8665 67.1968C58.8665 67.2778 58.8665 73.6387 59.5551 80.2426C60.0412 84.8614 61.378 88.5482 62.1071 90.3714C62.1881 90.5335 62.188 90.6956 62.1475 90.8576V90.8981C62.107 91.0197 62.1071 91.1007 62.1071 91.2222V91.2628C61.783 93.0049 61.4995 94.6255 61.2969 96.1651C59.4741 108.563 58.3399 118.894 57.9349 122.743C57.8538 123.513 57.8133 123.918 57.8133 123.918C57.8133 124.121 57.6918 124.323 57.5298 124.485C57.3678 124.607 57.1652 124.688 56.9222 124.647C56.1931 124.566 55.0183 123.594 49.6714 117.679C49.2663 117.233 48.8613 116.787 48.5778 116.463C47.7676 117.152 45.9853 118.894 44.7296 120.11C42.5827 122.216 41.6511 123.108 41.2055 123.351C40.3954 123.796 39.5853 123.067 38.4106 121.649C38.4106 121.609 38.3701 121.609 38.3701 121.568C37.3979 120.393 36.1827 118.691 34.6029 116.301C34.8865 117.517 34.9675 118.691 35.0485 119.745C35.1295 121.001 35.2106 122.095 35.5751 122.662L35.6966 122.824C35.7371 122.905 35.8182 122.986 35.8587 123.067C37.0334 124.809 37.6409 125.539 37.6409 125.539C37.8029 125.701 37.884 125.944 37.8435 126.187C37.6409 127.524 37.1548 128.78 36.3042 129.995C36.2637 130.036 36.2232 130.076 36.2232 130.157C35.2105 131.575 34.0763 132.426 33.9953 132.426C33.7523 132.669 33.5903 132.71 33.4283 132.71ZM25.2459 75.3403C24.3548 76.3127 24.3142 76.4748 24.2332 76.6773C24.0712 77.123 23.8686 77.8117 22.0458 80.6073C20.8711 82.39 18.4813 84.1321 16.1319 85.8337C13.9445 87.4138 11.6761 89.075 11.2305 90.2499C10.6634 91.749 8.31405 94.7876 6.08617 97.7857C4.70894 99.5684 3.00766 101.837 2.84563 102.323C2.72411 102.729 2.52156 103.093 2.31902 103.498C1.83294 104.39 1.38741 105.281 1.75197 106.456C2.64312 109.251 7.82793 113.1 17.185 117.881C21.3572 119.988 25.1244 123.675 28.1624 126.673C30.1472 128.618 32.051 130.481 33.2662 131.049C33.6307 130.724 34.2383 130.157 34.8054 129.387L34.846 129.347C34.846 129.306 34.8459 129.306 34.8864 129.266C35.5345 128.375 35.9396 127.443 36.1016 126.47C35.8181 126.106 35.2511 125.336 34.4409 124.161C34.4004 124.08 34.3599 124.039 34.3194 123.958L34.1978 123.796C33.5902 122.905 33.5092 121.609 33.3877 120.11C33.1852 117.557 32.9421 114.437 30.1472 111.925C28.6889 110.629 25.813 109.373 23.018 108.117C18.0762 105.889 13.8229 103.985 14.066 101.27C14.2685 98.8796 18.0762 96.8944 26.4206 94.7876C27.3522 94.1799 33.9548 90.0068 36.6283 88.3457C36.9118 88.1836 37.2359 88.1836 37.4789 88.3457C37.7625 88.5077 37.884 88.8318 37.8435 89.156C37.8435 89.1965 37.1143 94.5445 36.1016 103.66C35.2915 111.237 35.2915 114.032 35.2915 114.721C35.3725 114.883 35.5345 115.086 35.6966 115.369C37.3574 117.841 38.6942 119.704 39.6258 120.879C39.6258 120.879 39.6663 120.92 39.6663 120.96C40.1523 121.528 40.4359 121.852 40.6385 122.014C41.2056 121.528 42.5018 120.272 43.555 119.218C44.6081 118.205 45.6613 117.152 46.5524 116.342C47.8081 115.207 48.4967 114.559 49.1854 115.086C49.3474 115.207 49.5905 115.491 50.8462 116.868C52.0614 118.205 54.8158 121.244 56.3146 122.662C56.7197 118.651 57.8539 108.441 59.6767 96.2056C59.8792 94.6255 60.1628 93.0049 60.4868 91.2628C60.4868 91.1818 60.4867 91.1412 60.5273 91.0602C59.7576 89.1155 58.4614 85.3476 57.9753 80.7289C57.4892 76.1506 57.3272 71.6534 57.2867 69.3036C54.7753 71.4914 49.3474 76.4342 46.2689 80.0806C45.3777 81.134 44.6081 82.0658 43.9195 82.8356C42.2587 84.7398 41.003 86.1579 40.1929 87.0087C39.5853 87.6569 39.2612 88.0216 39.2612 88.0216C39.0182 88.2647 38.6941 88.3457 38.3701 88.2242C38.046 88.1026 37.8435 87.7785 37.884 87.4544C37.884 87.3328 37.9245 84.7398 38.6536 80.8504C38.8966 79.5539 39.1397 78.3789 39.4233 77.2445C39.4233 77.204 39.4232 77.204 39.4637 77.1635C39.9093 75.4619 40.4359 73.7602 41.0435 72.1801C42.6638 67.926 44.4866 64.8469 45.9044 62.9022C43.1904 64.1987 39.2207 66.2649 35.8991 68.8174C31.7674 72.0181 28.6484 74.2869 27.1092 75.3808C26.6636 75.705 26.4611 75.867 26.4611 75.867C26.1776 76.0696 25.7724 76.0696 25.4889 75.8265C25.3674 75.5024 25.2864 75.4214 25.2459 75.3403ZM35.9397 90.5335C32.5776 92.6403 27.1497 96.0841 27.1092 96.1246C27.0281 96.1651 26.9472 96.2056 26.8662 96.2461C17.2661 98.677 15.6863 100.5 15.6053 101.351C15.4837 102.931 20.1826 105.038 23.6256 106.577C26.6636 107.955 29.5396 109.211 31.1598 110.669C32.294 111.682 33.0637 112.736 33.6308 113.83C33.6308 112.371 33.7928 109.332 34.4409 103.377C35.089 97.2185 35.6561 92.8023 35.9397 90.5335Z" class="fill_black"/>
    <path d="M27.0282 72.3423L26.7851 72.9095C26.8256 72.7069 26.8661 72.5449 26.9066 72.3423C27.1497 72.0587 27.4333 71.7751 27.6763 71.4915C27.4738 71.7345 27.2307 72.0181 27.0282 72.3423Z" class="main_color"/>
    <path d="M85.358 33.6908C85.196 33.6908 85.0339 33.6503 84.9124 33.5288C84.7099 33.3667 84.5479 33.1236 84.5479 32.8805V32.6374C84.5479 30.5306 84.3858 28.6669 84.1022 26.9653C83.6162 24.0887 82.644 21.7794 81.3073 20.0372C81.1858 19.8752 81.1453 19.7131 81.1453 19.5511C81.1453 19.2269 81.1453 18.8623 85.277 16.2693C88.1125 14.4867 90.2998 13.5143 91.7176 13.3523C97.1455 12.8256 100.913 14.8108 102.938 19.1864C104.842 23.3595 106.381 26.6007 106.948 27.8161L107.191 28.3428C107.232 28.4239 107.232 28.4644 107.232 28.4644C107.353 28.7885 107.232 29.1531 106.989 29.3557C106.746 29.5583 106.381 29.5988 106.057 29.4367C98.6848 25.1421 95.9708 23.481 94.9177 22.8328C94.1885 23.481 92.5682 24.9396 90.948 26.7627C89.6517 28.2213 87.91 30.5307 86.0871 33.1641C85.9656 33.3667 85.8441 33.4883 85.6415 33.5693C85.52 33.6908 85.439 33.6908 85.358 33.6908ZM83.0491 19.7131C84.3048 21.5768 85.196 23.9267 85.6821 26.7222C85.8846 27.8972 86.0466 29.1126 86.0871 30.4496C87.4644 28.5454 88.72 26.9248 89.7732 25.7904C92.0821 23.1569 94.2695 21.3742 94.3505 21.2932C94.6746 21.0501 95.1202 21.0501 95.4037 21.2932C95.8898 21.6578 100.67 24.4534 104.639 26.8032C103.87 25.1826 102.735 22.7518 101.439 19.9157C99.6974 16.1478 96.5784 14.5677 91.8391 15.0134C89.6112 15.2159 84.7504 18.4572 83.0491 19.7131ZM95.4037 21.2932L95.4442 21.3337C95.4442 21.3337 95.4442 21.2932 95.4037 21.2932Z" class="fill_black"/>
    <path d="M59.9195 25.7093C59.5954 25.7093 59.3119 25.5068 59.1904 25.2232C58.2182 22.8328 55.1802 19.47 51.8182 17.971C48.2131 16.3504 40.3953 20.9691 38.0865 22.4276C37.3979 22.8733 35.2509 24.2103 34.2788 22.8733C33.8737 22.3466 33.9548 21.7389 33.9548 21.6173C33.9548 21.4958 33.9952 21.3742 34.0763 21.2932C36.5472 17.4848 46.3903 9.2602 49.9954 7.31547C53.0739 5.65436 56.76 4.1553 61.2157 7.9232C65.0638 11.1644 68.5879 15.9857 68.75 16.1883C68.8715 16.3503 68.912 16.5934 68.8715 16.796C68.831 16.9986 68.7094 17.2012 68.5069 17.3227C68.5069 17.3227 68.4664 17.3632 68.3449 17.4037C66.3196 18.2546 63.6056 19.8752 61.8638 22.8733L61.7828 23.0353C61.7423 23.1569 61.6613 23.2379 61.6207 23.3594C61.3372 23.9266 61.0132 24.5749 60.7296 25.3042C60.5271 25.5068 60.2435 25.7093 59.9195 25.7093ZM50.0359 15.9857C50.9271 15.9857 51.7777 16.1073 52.4663 16.4719C55.3018 17.7279 58.2182 20.4019 59.8385 23.0759C59.9195 22.9138 60.0006 22.7112 60.0816 22.5491C60.1626 22.4276 60.2436 22.3061 60.2841 22.144L60.3651 21.9819C62.1069 19.0649 64.6588 17.2822 66.7246 16.2693C65.5499 14.7703 62.836 11.448 60.0816 9.09815C56.76 6.26209 54.208 6.78879 50.684 8.693C47.4434 10.4351 38.3295 18.0115 35.6155 21.7389C35.8586 21.6578 36.3446 21.4958 37.1142 21.0096C40.4763 18.9433 45.9447 15.9857 50.0359 15.9857Z" class="fill_black"/>
    <path d="M104.113 81.9442C104.113 81.9442 98.8062 77.447 94.1074 74.2463C92.2035 72.9498 89.7731 71.4913 87.5452 70.2353C84.3857 68.4526 81.6312 67.0346 81.4692 66.9536C81.5097 67.1157 82.3604 69.506 83.3731 73.1929C83.7781 74.6514 88.7199 76.8392 89.125 78.6219C90.6238 85.1043 86.4921 90.6549 86.4921 90.6549C86.4921 90.6549 83.9807 85.55 80.011 79.6348C78.8768 77.9737 77.5805 76.3936 76.3248 74.9756C73.1653 71.4913 70.2084 69.1414 70.2084 69.1414C70.2084 69.1414 68.7501 71.5723 67.1704 75.2997C66.5628 76.7582 69.0337 80.3641 68.4666 82.1468C66.3602 88.4671 62.0259 92.154 62.0259 92.154C62.0259 92.154 61.8639 91.8298 61.6209 91.2221C61.5803 91.1005 61.4994 90.979 61.4589 90.8169C60.6487 88.8722 59.3526 85.0638 58.8665 80.4451C58.6234 78.1762 54.7752 76.4746 54.6537 74.4894C54.4512 70.681 58.1373 67.3182 58.1373 67.3182C58.1373 67.3182 55.7879 69.344 52.9524 71.9774C50.4815 74.2868 49.8334 79.0271 47.8891 81.3364C43.7979 86.2388 38.6941 87.2516 38.6941 87.2516C38.6941 87.2516 38.7751 80.2425 41.8131 72.2206C42.8663 69.425 44.041 67.1562 45.0942 65.3735C46.998 62.2133 48.5778 60.6332 48.7398 60.5117C48.6183 60.5522 46.5118 61.403 43.7169 62.821C41.165 64.1175 38.0864 65.8597 35.413 67.9259C29.7015 72.3421 26.0154 74.9351 26.0154 74.9351L27.1091 72.3421C27.3521 72.018 27.7167 71.8154 27.7977 71.4508C29.7015 61.5651 33.2661 56.1766 42.3801 57.1084C44.77 57.3515 46.2688 55.1232 47.8891 54.7585C48.3752 54.637 47.8486 54.718 49.3068 54.556C61.2968 53.0974 63.4842 53.9077 60.3652 55.2852C60.4057 55.2852 60.4462 55.2852 60.4462 55.2852C60.4462 55.2852 59.0285 49.5321 58.2589 43.2523C57.5297 37.5802 57.5702 30.8952 60.0411 24.9394C60.3247 24.2507 60.6488 23.6024 60.9728 22.9542C62.35 20.3612 64.4564 18.5381 66.7247 17.3226C67.1703 17.0795 67.6564 16.877 68.1019 16.6744C68.3855 16.5528 68.6691 16.4313 68.9526 16.3503C71.5045 15.4184 73.9349 15.2564 75.3932 15.54C77.297 15.9451 78.8363 16.6744 80.092 17.6467C80.8211 18.2139 81.4692 18.9027 82.0363 19.5915C84.7908 23.1163 85.4794 28.2212 85.4389 32.9209C85.4389 34.339 85.3579 35.7165 85.2769 37.013C84.6693 44.9134 80.7806 51.4363 78.4717 53.7456C76.1628 56.055 74.6641 57.8377 74.6641 57.8377C80.6186 53.3405 88.6389 49.1675 92.325 65.1709C92.3655 65.2925 96.1732 68.5742 96.2947 68.6147C102.614 70.1948 92.082 69.8707 98.32 73.1119C103.302 75.7048 104.113 81.9442 104.113 81.9442Z" class="fill_white"/>
    <path d="M61.9858 92.9645C61.9453 92.9645 61.8643 92.9645 61.8238 92.9645C61.5807 92.924 61.3782 92.762 61.2567 92.5189C61.2567 92.5189 61.0946 92.1542 60.8111 91.506C60.7706 91.425 60.7301 91.3439 60.6896 91.2629L60.6085 91.1008C59.8389 89.1966 58.4617 85.3072 57.9352 80.5264C57.8541 79.6351 56.8819 78.7437 55.9503 77.8929C54.8971 76.88 53.8034 75.8266 53.7224 74.5707C53.6819 73.6793 53.8035 72.788 54.087 71.9777C53.8845 72.1802 53.6415 72.3828 53.3984 72.5854C52.1832 73.7198 51.4136 75.6646 50.6439 77.5283C49.9958 79.1894 49.3477 80.729 48.4161 81.8634C44.1628 86.9278 38.978 88.0217 38.7754 88.0622C38.5324 88.1027 38.2894 88.0622 38.0868 87.9001C37.8843 87.7381 37.8033 87.495 37.8033 87.2519C37.8033 86.9683 37.9247 79.9997 40.9627 71.9777C41.8944 69.4657 43.0287 67.1159 44.2844 65.0091C44.811 64.1178 45.3375 63.348 45.8236 62.6998C45.2565 62.9834 44.6489 63.2669 43.9603 63.5911C40.8008 65.1712 37.9653 66.9133 35.778 68.6149C30.1475 72.9906 26.3804 75.624 26.3398 75.624C26.0563 75.8266 25.6512 75.8266 25.3676 75.5835C25.0841 75.3404 25.0031 74.9758 25.1246 74.6517L26.2183 72.0587C26.2588 71.9777 26.2588 71.9372 26.2993 71.8967C26.4208 71.7346 26.5424 71.613 26.6234 71.532C26.7044 71.451 26.8259 71.3295 26.8259 71.2889C28.4462 62.8618 31.4437 55.2044 42.259 56.2983C43.3932 56.4199 44.3248 55.7716 45.3375 55.1234C46.0261 54.6372 46.7552 54.1511 47.5654 53.989C47.6464 53.9485 47.7274 53.9484 47.7679 53.9484C47.9299 53.9079 47.93 53.908 48.4971 53.8269L49.1047 53.7459C54.006 53.1381 57.044 52.9761 58.9478 52.9761C58.4617 50.7073 57.7731 47.1014 57.287 43.3335C56.3554 36.0408 56.963 29.7204 59.1098 24.575C59.4339 23.7647 59.758 23.1164 60.082 22.5087C61.4188 19.9968 63.4441 18.0116 66.1581 16.553C66.6036 16.3099 67.0897 16.0668 67.6162 15.8643C67.8593 15.7427 68.1428 15.6617 68.4264 15.5401L68.5074 15.4996C71.0188 14.6083 73.6517 14.2842 75.3935 14.6893C77.2974 15.0945 78.9987 15.8643 80.4164 16.9582C81.1861 17.5659 81.8747 18.2546 82.5228 19.0649C84.9532 22.1846 86.1278 26.8439 86.1278 32.9211C86.1278 34.1771 86.0874 35.5546 85.9658 37.0942C85.3988 44.7515 81.7936 51.1934 79.2822 53.9484C81.4291 53.0166 83.657 52.5709 85.8039 53.3407C89.0849 54.5562 91.4343 58.2836 92.9735 64.7255C93.5811 65.2927 95.9711 67.359 96.5382 67.8046C98.1989 68.2503 99.009 68.5744 99.09 69.3847C99.171 70.1545 98.4419 70.5192 97.7938 70.8028C97.5913 70.9243 97.1457 71.0864 96.9837 71.2484C97.1052 71.4105 97.4698 71.7751 98.5635 72.3423C103.951 75.1379 104.842 81.5798 104.883 81.8229C104.923 82.147 104.761 82.4711 104.477 82.6332C104.194 82.7952 103.829 82.7547 103.586 82.5522C103.546 82.5116 98.2799 78.055 93.6621 74.8948C91.5558 73.4362 88.9633 71.9372 87.1405 70.9243C85.5202 69.9924 83.981 69.1822 82.8468 68.5744C83.3734 70.2356 83.819 71.8156 84.143 72.95C84.2646 73.3552 85.6418 74.3276 86.4519 74.8948C88.0722 76.0697 89.6114 77.1636 89.895 78.4196C91.4748 85.2261 87.3025 90.8983 87.1405 91.1413C86.9785 91.3844 86.695 91.506 86.4115 91.4655C86.1279 91.425 85.8848 91.2629 85.7633 91.0198C85.7228 90.9793 83.2519 85.8744 79.3228 80.1213C78.3101 78.6222 77.0948 77.0826 75.7176 75.543C73.5707 73.1526 71.5049 71.289 70.4517 70.3976C69.8846 71.4105 68.9124 73.2742 67.8998 75.624C67.7377 76.0292 68.1833 77.3257 68.5074 78.2575C69.034 79.7161 69.6011 81.2151 69.1961 82.3901C67.0492 88.832 62.715 92.5999 62.5124 92.762C62.3504 92.8835 62.1479 92.9645 61.9858 92.9645ZM58.0567 66.5081C58.2997 66.5081 58.5023 66.5892 58.6643 66.7918C58.9478 67.1159 58.9478 67.6426 58.5832 67.9262C58.5427 67.9667 55.1806 71.0864 55.3427 74.4491C55.3832 75.0974 56.2338 75.9077 57.0845 76.6775C58.1782 77.6903 59.3934 78.8653 59.5554 80.3238C60.0415 84.9426 61.3783 88.6294 62.1074 90.4526L62.1884 90.6146C62.1884 90.6551 62.2288 90.6957 62.2288 90.7362C63.525 89.3587 66.158 86.239 67.6162 81.8634C67.8188 81.2151 67.3327 79.8781 66.9277 78.7842C66.4011 77.3257 65.915 75.9482 66.32 74.9758C67.9403 71.2484 69.358 68.8175 69.4391 68.696C69.5606 68.4934 69.7632 68.3718 70.0062 68.3313C70.2492 68.2908 70.4922 68.3313 70.6543 68.4934C70.7758 68.5744 73.6923 70.9243 76.8518 74.4491C78.3101 76.0292 79.5658 77.6498 80.619 79.1894C83.4139 83.3219 85.5202 87.1304 86.5329 89.0346C87.5861 87.1304 89.2874 83.2004 88.2747 78.8247C88.1127 78.1765 86.5735 77.0826 85.4798 76.2723C83.819 75.0974 82.8064 74.3276 82.5633 73.4363C82.1582 71.9372 81.5101 69.6684 80.7 67.359L80.6594 67.2374C80.5784 66.9133 80.6595 66.5892 80.9025 66.3866C81.1455 66.184 81.5101 66.1435 81.7936 66.2651C81.9962 66.3461 84.7507 67.8047 87.9102 69.5873C89.733 70.6002 92.366 72.1398 94.5128 73.6388C97.4698 75.6646 100.67 78.1765 102.655 79.7971C101.966 77.8929 100.548 75.2999 97.8344 73.8819C96.0521 72.9501 95.323 72.1803 95.323 71.2889C95.323 70.4381 96.052 69.9519 96.7001 69.6278C96.4976 69.5873 96.2546 69.5063 95.971 69.4253C95.7685 69.3847 95.6874 69.3442 93.6216 67.5616C91.5152 65.7384 91.4748 65.6979 91.4343 65.3737C90.057 59.418 87.9912 55.9337 85.2772 54.9208C82.0367 53.7459 78.1076 56.2173 75.0696 58.5267C74.7455 58.7698 74.2593 58.7293 73.9758 58.4457C73.6922 58.1621 73.6923 57.6758 73.9353 57.3517C74.0164 57.2707 75.4746 55.5691 77.7835 53.2192C80.0114 50.9504 83.7785 44.549 84.3456 36.9726C84.4671 35.4736 84.5076 34.1771 84.5076 32.9211C84.5481 27.2085 83.4544 22.8734 81.267 20.0778C80.7404 19.3891 80.1328 18.7813 79.4442 18.2546C78.229 17.3228 76.7303 16.634 75.0696 16.2694C73.9759 16.0263 71.748 16.0668 69.0745 17.0392L69.034 17.0797C68.7909 17.1607 68.5479 17.2823 68.3048 17.3633C67.8188 17.5659 67.4138 17.7685 66.9682 18.0115C64.5378 19.308 62.7149 21.0907 61.5402 23.2785C61.2567 23.8457 60.9731 24.4535 60.6491 25.2233C58.6238 30.0851 58.0567 36.1218 58.9478 43.1309C59.4339 47.1014 60.2036 50.8288 60.6896 53.0571C62.1479 53.2597 62.2693 53.6649 62.3504 54.07C62.5934 55.0019 61.5808 55.5691 60.8922 55.8932C60.6896 56.0553 60.4465 56.1363 60.2035 56.0958H60.1225C59.7984 56.0147 59.5149 55.7311 59.4744 55.3665C59.4744 55.2854 59.4744 55.2449 59.4744 55.1639C59.4339 55.0018 59.3934 54.8398 59.3529 54.5967C57.8136 54.5562 54.8972 54.6777 49.3477 55.3665L48.7401 55.4475C48.2946 55.4881 48.254 55.488 48.2135 55.5285C48.173 55.5285 48.092 55.569 47.9704 55.569C47.4844 55.6906 46.9173 56.0553 46.3502 56.4604C45.297 57.1897 43.9603 58.1215 42.2185 57.9189C34.4007 57.1086 30.5525 60.9576 28.5272 71.6131C28.4462 71.9372 28.2841 72.2208 28.1221 72.3828C29.7424 71.1674 32.0918 69.4657 34.8463 67.3184C37.1552 65.5358 39.9907 63.7937 43.2717 62.1325C46.0262 60.7145 48.1325 59.8637 48.3755 59.7826C48.7401 59.6611 49.1452 59.7827 49.3477 60.1068C49.5503 60.4309 49.5097 60.8766 49.2262 61.1197C49.2262 61.1197 47.6464 62.6187 45.7426 65.8194C44.5274 67.8452 43.4337 70.114 42.5426 72.5449C40.3147 78.5006 39.707 83.9297 39.545 86.1985C41.1653 85.6313 44.4463 84.1727 47.2413 80.8505C48.0109 79.9186 48.578 78.5006 49.1856 76.9611C49.9958 74.9353 50.8464 72.8285 52.3452 71.4105C55.1402 68.8175 57.53 66.7513 57.5705 66.7513C57.6921 66.5892 57.8947 66.5081 58.0567 66.5081Z" class="fill_black"/>
    <path d="M81.0236 47.466C78.6337 54.9613 70.9778 56.2578 66.2791 54.6777C66.0765 54.5967 65.874 54.5157 65.712 54.4346C61.3373 52.3278 58.6638 43.6981 59.798 35.1495C60.4461 30.1661 62.9576 27.4111 65.8335 26.0336C68.1424 24.9397 70.6943 24.7776 72.8007 25.1422C83.94 27.1275 83.4135 39.9302 81.0236 47.466Z" class="fill_white"/>
    <path d="M70.0464 56.055C68.6692 56.055 67.2919 55.8525 65.9957 55.4068C65.7527 55.3258 65.5097 55.2447 65.3071 55.1231C60.6488 52.8948 57.7729 43.86 58.9476 35.0277C59.7172 29.1125 62.9172 26.479 65.4287 25.3041C67.6565 24.2507 70.2894 23.9266 72.8819 24.3722C76.568 25.0205 79.3225 26.8032 81.0642 29.7203C84.1833 34.8657 83.4542 42.4015 81.7529 47.7089C80.7403 50.8691 78.7149 53.3 75.9199 54.718C74.1781 55.6093 72.1123 56.055 70.0464 56.055ZM70.6946 25.7903C69.0743 25.7903 67.4945 26.1144 66.1578 26.7626C63.0793 28.2212 61.1349 31.1383 60.6083 35.2303C59.5146 43.2928 62.026 51.7199 66.0767 53.6646C66.2387 53.7456 66.4008 53.8267 66.5629 53.8672C68.7502 54.5965 72.1528 54.799 75.2718 53.2595C77.6618 52.044 79.4035 49.9372 80.2947 47.2227C81.8339 42.4825 82.6035 35.2708 79.768 30.5711C78.2693 28.0996 75.8794 26.5195 72.6793 25.9928C71.9907 25.8308 71.3427 25.7903 70.6946 25.7903Z" class="fill_black"/>
    <path d="M147.819 116.301C148.103 116.382 152.235 117.719 152.235 118.732C152.235 118.773 152.235 118.813 152.235 118.813C152.032 119.542 149.318 119.056 147.576 118.651C146.888 118.489 146.361 118.367 146.159 118.327C146.24 118.367 146.361 118.408 146.523 118.448C147.414 118.813 149.318 119.664 148.873 120.474C148.265 121.528 142.878 121.082 134.898 117.03C134.898 117.03 136.396 115.977 137.774 114.6C138.381 113.951 139.029 113.222 139.394 112.533C140.65 110.305 140.974 108.401 140.974 108.401C141.217 108.401 151.87 107.104 151.789 108.401C151.708 109.697 146.402 110.507 146.402 110.507C146.402 110.507 147.617 111.034 150.898 111.48C154.26 111.925 155.678 112.493 155.192 113.141C154.706 113.83 152.032 114.032 148.549 113.668C149.116 113.749 153.531 114.316 155.07 115.086C156.61 115.815 156.731 118.165 147.819 116.301Z" class="fill_white"/>
    <path d="M147.09 121.771C144.295 121.771 139.556 120.312 134.533 117.76C134.29 117.638 134.128 117.395 134.088 117.112C134.088 116.828 134.209 116.544 134.452 116.382C134.452 116.382 135.911 115.369 137.207 114.073C137.895 113.344 138.422 112.736 138.705 112.169C139.88 110.102 140.204 108.32 140.204 108.32C140.285 107.915 140.609 107.631 141.014 107.631C141.014 107.631 141.176 107.631 141.419 107.59C150.412 106.659 151.749 107.145 152.275 107.672C152.518 107.874 152.64 108.198 152.599 108.482C152.559 109.414 151.425 110.062 149.966 110.548C150.29 110.589 150.614 110.67 150.979 110.71C154.706 111.196 155.678 111.764 156.002 112.493C156.164 112.857 156.123 113.303 155.84 113.668C155.678 113.911 155.394 114.073 155.07 114.235C155.192 114.275 155.313 114.316 155.394 114.397C156.366 114.883 156.853 115.734 156.569 116.504C156.245 117.517 154.949 117.962 152.64 117.841C153.045 118.286 153.045 118.611 153.045 118.773C153.045 118.854 153.045 118.975 153.004 119.137C152.802 119.867 152.113 120.272 149.683 119.948C149.764 120.272 149.723 120.636 149.561 120.96C149.197 121.487 148.346 121.771 147.09 121.771ZM136.437 116.909C142.918 120.029 146.807 120.353 147.941 120.15C147.657 119.948 147.131 119.623 146.24 119.259C146.199 119.259 146.199 119.259 146.159 119.218L145.875 119.137C145.47 118.975 145.227 118.57 145.349 118.124C145.47 117.719 145.916 117.476 146.321 117.557L146.523 117.598C146.766 117.638 147.171 117.76 147.658 117.881C147.698 117.881 147.698 117.881 147.739 117.881C149.156 118.205 150.128 118.327 150.736 118.367C150.007 117.962 148.792 117.436 147.577 117.071C147.171 116.949 146.928 116.504 147.05 116.099C147.171 115.693 147.577 115.41 147.982 115.491C152.964 116.544 154.544 116.139 154.949 115.937C154.908 115.896 154.827 115.815 154.706 115.775C153.855 115.369 151.506 114.843 148.468 114.438H148.427C147.982 114.397 147.698 113.992 147.739 113.546C147.779 113.101 148.184 112.776 148.63 112.817C151.303 113.101 153.004 113.019 153.855 112.857C153.328 112.695 152.397 112.493 150.777 112.25C147.414 111.804 146.118 111.237 146.078 111.196C145.754 111.034 145.551 110.71 145.592 110.345C145.632 109.981 145.916 109.697 146.28 109.657C147.86 109.414 149.399 109.008 150.29 108.644C149.156 108.563 146.766 108.603 141.663 109.13C141.46 109.9 141.014 111.318 140.123 112.898C139.759 113.587 139.151 114.316 138.341 115.126C137.693 115.856 136.964 116.463 136.437 116.909Z" class="fill_black"/>
    <path d="M152.234 118.732C152.234 118.773 152.234 118.813 152.234 118.813C152.032 119.542 149.318 119.056 147.576 118.651C149.156 118.935 150.736 118.975 152.234 118.732Z" class="main_color"/>
    <path d="M92.8113 18.9028C92.7708 18.9028 92.6899 18.9028 92.6493 18.9028C92.2848 18.8218 84.9125 17.2012 80.9834 15.6616C81.0644 16.3098 81.0239 17.0796 80.7808 17.8899C80.6998 18.133 80.4973 18.3356 80.2542 18.4166C80.0112 18.4976 79.7277 18.4571 79.5252 18.2951C78.31 17.3632 76.8112 16.6745 75.1504 16.3098C74.0567 16.0667 71.8288 16.1478 69.1554 17.0796C69.0339 17.1201 68.8718 17.1201 68.7503 17.1201C68.3858 17.0796 68.1022 16.796 68.0617 16.4314C68.0212 16.1478 68.1427 15.8642 68.3452 15.6616C68.5883 15.297 69.2769 13.6358 69.925 12.2178C70.8971 9.94898 72.1124 7.11294 73.3276 4.80358C74.9479 1.68392 76.2846 0.225365 77.7024 0.0227895C78.5935 -0.0987556 79.4847 0.265884 80.3353 1.1167C80.6189 1.4003 81.3885 2.00802 82.2391 2.65627C86.6138 6.01901 94.7152 12.2178 93.662 18.2545C93.6215 18.4571 93.5 18.6597 93.2975 18.7813C93.095 18.8623 92.9734 18.9028 92.8113 18.9028ZM79.6466 13.2712C79.8086 13.2712 79.9302 13.3117 80.0922 13.3927C82.0366 14.6082 88.7202 16.3098 92.0823 17.0796C92.0418 12.2178 84.791 6.66727 81.1859 3.91225C80.2137 3.14246 79.4847 2.61576 79.1201 2.21061C78.4315 1.52185 78.0264 1.56237 77.9049 1.60288C77.0948 1.72443 76.0416 3.06143 74.7453 5.53285C73.5706 7.76117 72.3555 10.5567 71.4238 12.8255C71.0592 13.7169 70.7352 14.4056 70.4921 14.9323C72.3554 14.4867 74.1782 14.3651 75.5149 14.6487C76.9732 14.9728 78.2694 15.459 79.4441 16.1883C79.4441 15.2159 79.039 14.4867 79.039 14.4461C78.877 14.122 78.9175 13.7169 79.2011 13.4738C79.2416 13.3522 79.4441 13.2712 79.6466 13.2712Z" class="fill_black"/>
    <path d="M56.9628 234.889C56.9628 234.889 49.0236 235.821 49.1451 236.712C49.1451 236.712 48.3754 245.382 46.1475 247.084C43.9601 248.786 38.6133 251.581 34.9677 250.001C31.322 248.38 30.0257 244.613 31.4435 242.182C32.8612 239.791 34.1575 242.587 33.6309 243.802C33.6309 243.802 35.2512 242.992 35.4537 241.533C35.6563 240.075 33.0638 237.401 29.9447 240.48C26.8257 243.6 29.5397 248.299 31.7676 250.892C33.9549 253.485 40.193 255.309 47.8893 253.08C55.5856 250.892 62.7959 246.679 62.7959 246.679C62.7959 246.679 68.5478 243.397 67.3326 240.926C67.3326 240.926 65.1047 230.27 62.6743 234.322" class="fill_black"/>
    <path d="M117.358 224.071C117.358 224.071 125.176 222.532 125.379 223.423C125.379 223.423 128.741 231.445 131.374 232.377C134.007 233.309 139.921 234.362 142.918 231.729C145.875 229.095 145.956 225.084 143.931 223.22C141.865 221.357 141.5 224.436 142.311 225.408C142.311 225.408 140.528 225.125 139.921 223.788C139.313 222.491 140.933 219.128 144.862 221.114C148.751 223.139 147.617 228.447 146.321 231.567C144.984 234.727 139.637 238.333 131.617 238.576C123.596 238.819 115.454 236.996 115.454 236.996C115.454 236.996 108.973 235.618 109.378 232.863C109.378 232.863 108.285 222.046 111.809 225.165" class="fill_black"/>
    <path d="M49.0638 134.979C48.4562 135.586 46.0664 132.831 45.7828 132.507C46.0259 132.791 48.0107 134.816 47.4031 135.505C46.8765 136.113 44.365 134.452 43.7169 134.047C44.203 134.411 45.7423 135.667 45.2157 136.437C45.0941 136.599 44.8916 136.68 44.6081 136.64C43.8789 136.599 42.7042 136.072 41.8941 135.667C41.408 135.424 41.0434 135.222 40.9624 135.181C41.0434 135.262 41.4485 135.586 41.7726 135.991C42.1776 136.478 42.4208 137.004 41.8537 137.207C40.7195 137.571 34.9674 134.047 33.4686 131.94C33.4686 131.94 34.1572 131.13 35.0889 129.712C35.2509 129.509 35.413 129.266 35.5345 129.023C36.7497 127.159 36.9523 126.227 36.9523 126.227C40.4764 125.012 43.636 123.877 44.8917 126.227C46.1879 128.537 49.7119 134.29 49.0638 134.979Z" class="fill_white"/>
    <path d="M41.6918 137.977C39.5854 137.977 34.117 134.29 32.7803 132.386C32.5777 132.102 32.5778 131.656 32.8208 131.373C32.8208 131.373 33.4689 130.603 34.4006 129.226L34.4815 129.104C34.6031 128.942 34.7246 128.739 34.8462 128.577C35.9398 126.876 36.1829 126.025 36.1829 126.025C36.2639 125.782 36.4664 125.539 36.7094 125.458L36.912 125.377C40.3955 124.202 44.0411 122.946 45.6209 125.822C45.8639 126.227 46.1475 126.754 46.4716 127.362C49.7931 133.237 50.4007 134.736 49.5906 135.546C49.3881 135.748 49.0641 135.87 48.74 135.87C48.578 135.87 48.3754 135.829 48.1728 135.748C48.1323 135.87 48.0513 135.951 47.9703 136.032C47.5652 136.478 46.9982 136.559 46.1071 136.235C46.0666 136.478 45.9855 136.68 45.864 136.842C45.702 137.085 45.3374 137.45 44.5272 137.41C44.0817 137.369 43.5146 137.207 42.9475 137.004C42.9475 137.045 42.9475 137.045 42.9475 137.085C42.8665 137.329 42.6639 137.734 42.0968 137.936C41.9753 137.977 41.8538 137.977 41.6918 137.977ZM34.4815 131.9C35.9398 133.48 39.2614 135.546 40.8816 136.194C40.6791 135.992 40.4766 135.829 40.4361 135.789C40.1121 135.505 40.031 135.019 40.274 134.655C40.5171 134.29 41.0031 134.209 41.3677 134.452C41.4082 134.492 41.7323 134.655 42.1778 134.898C42.1778 134.898 42.2184 134.898 42.2184 134.938C43.0285 135.384 43.7982 135.667 44.2843 135.789C44.1222 135.546 43.7577 135.141 43.1501 134.695C42.7855 134.411 42.7449 133.925 42.988 133.601C43.231 133.237 43.7172 133.156 44.0817 133.399C45.2159 134.128 45.9045 134.492 46.35 134.695C46.1475 134.411 45.8235 133.966 45.2564 133.358C45.1349 133.237 45.0538 133.155 45.0133 133.074C44.7703 132.75 44.8108 132.264 45.1348 131.981C45.4589 131.697 45.945 131.737 46.2285 132.021C46.269 132.062 46.3095 132.143 46.431 132.224C47.0791 132.912 47.5653 133.399 47.8893 133.723C47.2412 132.183 45.7425 129.55 44.9729 128.213C44.6488 127.605 44.3248 127.078 44.0817 126.633C43.2311 125.093 41.0032 125.701 37.4791 126.876C37.2766 127.362 36.912 128.213 36.1018 129.428C35.9803 129.631 35.8588 129.833 35.7373 129.995L35.6563 130.117C35.2107 130.887 34.7651 131.494 34.4815 131.9Z" class="fill_black"/>
    <path d="M69.2767 36.1625C69.2767 35.3927 66.6438 34.0556 64.3349 35.3116C62.026 36.5271 62.188 38.877 62.188 38.877C62.188 38.877 62.9171 38.2692 65.5905 37.2564C67.9804 36.4055 69.2767 36.1625 69.2767 36.1625Z" class="fill_black"/>
    <path d="M75.1502 35.2708C75.0287 34.663 76.973 34.0148 78.8768 34.4605C80.7805 34.9466 81.3071 37.0939 80.416 37.256C79.4844 37.3775 75.1502 35.2708 75.1502 35.2708Z" class="fill_black"/>
    <path d="M144.579 90.1688C144.579 87.7784 146.523 85.8337 148.913 85.8337C151.303 85.8337 153.247 87.7784 153.247 90.1688C153.247 92.5592 151.303 94.504 148.913 94.504C146.523 94.504 144.579 92.5592 144.579 90.1688Z" class="fill_black"/>
    <path d="M139.678 67.3182C139.678 64.9279 141.622 62.9832 144.012 62.9832C146.401 62.9832 148.346 64.9279 148.346 67.3182C148.346 69.7086 146.401 71.6534 144.012 71.6534C141.622 71.6534 139.678 69.7086 139.678 67.3182Z" class="fill_black"/>
</svg>
