<svg width="270" height="165" viewBox="0 0 270 165" fill="none" xmlns="http://www.w3.org/2000/svg">
    <path fill-rule="evenodd" clip-rule="evenodd" d="M181.28 65.6033C179.623 66.5191 172.08 80.7349 171.514 85.8805C170.947 91.0261 177.181 116.536 184.549 115.49C191.874 114.443 220.3 99.7475 224.049 96.4334C227.842 93.1193 233.336 78.5982 233.946 74.1503C234.295 71.7083 234.338 68.8303 233.336 65.0801C228.496 46.6344 197.672 56.5331 181.28 65.6033Z" class="main_color"/>
    <path fill-rule="evenodd" clip-rule="evenodd" d="M79.6964 112.306C79.4348 112.219 61.08 111.914 50.9653 111.696C39.6735 111.434 9.37293 113.527 3.48721 128.092C-18.6169 182.775 32.0002 160.666 50.1806 153.733C68.9712 146.537 64.8731 153.209 72.0667 146.101C79.304 138.95 82.0942 140.912 86.89 136.813C90.9882 133.281 95.3916 122.641 92.5577 119.022C89.6802 115.359 83.1842 113.571 79.6964 112.306Z" class="main_color"/>
    <path d="M30.0821 133.935C27.379 133.935 25.0247 133.325 23.7604 131.406C22.4524 129.444 21.5369 127.045 20.9265 123.862C20.8829 123.644 20.9265 123.382 21.0573 123.164C21.1881 122.946 21.4061 122.859 21.6677 122.815C26.2019 122.292 30.6924 119.676 35.0522 117.146C51.9682 107.291 69.4074 97.8287 86.9337 89.0637C90.6395 87.2322 93.299 86.1856 94.8685 85.9676C97.9204 85.5315 100.275 85.6187 102.585 85.6624C104.242 85.706 105.768 85.7496 107.425 85.6188C110.477 85.3135 114.924 84.4414 118.847 83.6564C122.248 83.0023 125.169 82.3918 126.957 82.2174C137.377 81.2145 143.742 82.1302 146.14 82.4791C146.445 82.5227 146.794 82.5663 146.881 82.5663C146.663 82.5663 146.27 82.7407 146.14 83.1332C146.052 83.3076 146.052 83.5256 146.14 83.7L146.75 83.6128L147.491 82.7407C147.753 82.9587 147.884 83.3076 147.84 83.6128C148.232 86.6217 148.189 97.6542 147.753 98.7008C147.012 100.532 146.576 102.277 146.14 103.934C145.006 108.294 144.047 112.045 138.597 113.527C132.145 115.271 125.387 114.356 118.847 113.484C112.308 112.611 105.594 111.696 99.3155 113.527C97.0484 114.181 95.8713 112.96 94.9557 112.088C94.0837 111.216 93.6914 110.824 92.5143 111.478L79.6965 118.455C73.8544 121.638 67.8378 124.909 61.5161 127.263C53.9737 130.054 46.3441 131.45 38.976 132.758L38.0169 132.932C35.4446 133.412 32.6107 133.935 30.0821 133.935ZM22.8012 124.429C23.368 126.958 24.1528 128.877 25.1991 130.447C27.0302 133.194 33.1775 132.06 37.6681 131.232L38.6272 131.057C45.9081 129.749 53.4941 128.397 60.8622 125.65C67.0967 123.339 73.0696 120.068 78.8245 116.928L91.6423 109.951C93.953 108.687 95.2174 109.951 96.1329 110.867C97.0049 111.739 97.5717 112.219 98.7488 111.87C105.376 109.951 112.308 110.867 118.978 111.783C125.343 112.655 131.927 113.527 138.03 111.87C142.521 110.649 143.306 107.64 144.352 103.498C144.788 101.841 145.268 99.9654 146.053 98.0467C146.271 97.0874 146.445 87.7119 146.096 84.2233C146.009 84.2233 145.922 84.1797 145.835 84.1797C143.48 83.8309 137.246 82.9587 127.044 83.9181C125.343 84.0925 122.335 84.703 119.109 85.3135C115.142 86.0984 110.695 86.9706 107.512 87.3194C105.724 87.4938 104.155 87.4502 102.455 87.4066C100.231 87.3194 97.9204 87.2758 95.043 87.6683C94.0838 87.7991 92.0347 88.4096 87.6749 90.6335C70.1921 99.3985 52.753 108.818 35.9242 118.673C31.7388 121.115 27.379 123.644 22.8012 124.429ZM146.096 98.0031C146.096 98.0467 146.096 98.0467 146.096 98.0031C146.096 98.0467 146.096 98.0467 146.096 98.0031Z" class="fill_black"/>
    <path d="M164.538 132.714C164.364 132.714 164.233 132.714 164.058 132.627C163.579 132.496 163.274 132.191 162.968 131.886C158.042 126.958 154.031 120.984 151.371 114.574C147.971 106.463 146.314 96.9129 146.052 84.5286C146.009 82.1738 146.052 79.8627 147.012 77.8131C148.014 75.5892 149.889 73.9757 151.72 72.4495L152.025 72.1879C164.756 61.3734 174.565 47.3319 180.364 31.6335C180.582 30.9794 180.8 30.3253 181.018 29.6712C181.89 26.9675 182.762 24.1767 185.596 22.8249C189.999 20.6882 196.103 23.3482 199.852 27.0548C202.076 29.2351 204.125 31.6335 205.912 34.1191L206.13 34.4243C207.22 35.9506 208.31 37.4768 209.923 38.0873C211.231 38.567 214.327 44.7155 214.588 47.3756C214.806 49.6867 216.332 51.8671 218.643 53.2189C220.954 54.5707 223.613 54.7451 225.749 53.7858C225.967 53.6985 226.142 53.5677 226.36 53.4805C227.232 53.0444 228.191 52.5212 229.324 52.6084C230.24 52.652 231.025 53.0881 231.766 53.5241C236.91 56.6638 240.747 61.2861 244.453 65.7776C245.281 66.8242 246.851 68.6993 246.371 70.836C245.979 72.5367 244.366 73.5397 243.232 74.1502C239.439 76.1561 235.21 77.2026 231.155 78.2056C228.714 78.8161 226.185 79.4266 223.787 80.2551C217.204 82.5663 211.318 86.4909 205.912 90.4155C193.356 99.573 184.506 108.033 178.097 117.103C177.312 118.237 176.484 119.414 175.743 120.591C173.039 124.603 170.249 128.79 166.413 131.886C166.064 132.147 165.366 132.714 164.538 132.714ZM189.084 23.8278C188.124 23.8278 187.209 24.0023 186.337 24.3947C184.157 25.4413 183.459 27.6653 182.675 30.1945C182.457 30.8486 182.239 31.5463 181.977 32.244C176.091 48.2041 166.107 62.4635 153.115 73.4961L152.81 73.7577C151.153 75.1531 149.453 76.5921 148.581 78.5108C147.796 80.2551 147.753 82.2174 147.796 84.485C148.014 96.6949 149.671 106.027 152.984 113.92C155.557 120.112 159.481 125.911 164.233 130.665C164.32 130.752 164.494 130.926 164.582 130.97C164.582 130.97 164.756 131.013 165.279 130.577C168.941 127.612 171.644 123.6 174.26 119.676C175.045 118.498 175.83 117.321 176.658 116.187C183.198 106.943 192.179 98.352 204.91 89.1073C210.403 85.0955 216.419 81.0836 223.221 78.7289C225.706 77.8567 228.278 77.2463 230.763 76.6358C234.73 75.6328 238.829 74.6298 242.447 72.7111C243.842 71.9698 244.54 71.3157 244.714 70.5308C244.976 69.3534 244.06 68.0888 243.145 66.9986C239.526 62.638 235.777 58.1028 230.894 55.094C230.283 54.7015 229.76 54.4399 229.281 54.4399C228.627 54.3963 227.929 54.7451 227.188 55.1376C226.97 55.2684 226.752 55.3556 226.49 55.4864C223.875 56.7074 220.605 56.4894 217.814 54.8759C215.024 53.2625 213.149 50.5589 212.888 47.6808C212.626 45.1516 209.967 40.4857 209.269 39.788C207.22 39.003 205.912 37.1715 204.779 35.5581L204.561 35.2528C202.817 32.8109 200.855 30.5433 198.675 28.4066C196.146 25.8338 192.353 23.8278 189.084 23.8278Z" class="fill_black"/>
    <path d="M202.337 79.7319C203.732 79.2958 204.255 77.5952 204.473 76.1561C204.953 72.9728 205.127 69.7459 204.909 66.5626C201.814 65.2544 198.413 64.8184 195.1 64.3823C185.726 63.1613 176.353 61.9403 166.979 60.7193C164.407 60.3705 160.527 59.9344 159.306 57.6668C157.606 54.4399 158.042 50.4717 159.568 47.2012C160.527 45.1953 162.489 43.1458 163.753 41.3579C166.194 37.9565 173.693 44.5848 176.178 41.2271C178.707 37.9129 177.443 33.9447 181.628 33.5086C185.508 33.0726 221.607 47.0704 184.462 12.4465C180.494 13.1006 169.377 19.6853 167.197 23.0866C165.366 25.9211 157.649 20.8627 155.12 23.043C153.159 24.7001 151.066 26.1827 149.191 27.8834C145.006 31.7644 142.172 36.9536 140.472 42.4044C138.815 47.8553 138.205 53.6114 138.074 59.3239C138.03 60.9374 138.03 62.5508 138.379 64.1207C139.12 67.3476 141.474 70.182 144.483 71.4902C153.638 75.3712 163.491 78.6853 173.344 79.9063C183.154 80.9965 192.876 82.7408 202.337 79.7319Z" class="fill_white"/>
    <path d="M190.566 82.2613C185.77 82.2613 180.931 81.6508 176.179 80.9967C175.176 80.8659 174.173 80.7351 173.17 80.6043C164.538 79.5577 154.99 76.7669 144.091 72.1009C140.777 70.7055 138.248 67.653 137.464 64.1209C137.071 62.4638 137.115 60.7195 137.158 59.1061C137.333 52.2162 138.118 46.7653 139.6 41.9686C141.475 35.9072 144.57 30.718 148.581 27.055C149.671 26.0521 150.892 25.0927 152.025 24.2206C152.854 23.5665 153.726 22.8688 154.554 22.1711C156.124 20.8193 158.783 21.517 161.399 22.1711C163.492 22.6944 165.889 23.3485 166.5 22.3891C168.898 18.7261 180.233 12.0107 184.375 11.3566C184.637 11.313 184.898 11.4002 185.116 11.5746C202.337 27.6219 202.817 32.3751 201.683 34.5554C199.852 38.044 192.266 36.3433 186.206 34.9479C184.331 34.5118 182.37 34.0757 181.803 34.163C179.884 34.381 179.492 35.2967 178.838 37.4335C178.446 38.6981 178.01 40.1371 176.963 41.5325C175.35 43.7129 172.386 42.7535 169.77 41.8814C167.11 41.0092 165.323 40.5296 164.538 41.6633C164.102 42.3174 163.579 42.9279 163.012 43.6256C162.009 44.8466 160.963 46.1548 160.396 47.3758C158.783 50.8208 158.652 54.3965 160.091 57.1002C161.05 58.9316 164.538 59.3677 166.849 59.673L167.11 59.7166C171.819 60.3271 176.484 60.9376 181.149 61.5481C185.814 62.1586 190.522 62.769 195.187 63.3795C198.544 63.8156 202.032 64.2517 205.258 65.6471C205.564 65.7779 205.782 66.0832 205.782 66.3884C206 69.6153 205.825 72.9294 205.346 76.2C205.215 77.0721 204.822 79.7757 202.599 80.4734C198.632 81.8252 194.62 82.2613 190.566 82.2613ZM156.995 23.2176C156.429 23.2176 155.949 23.3048 155.688 23.5665C154.859 24.3078 153.944 25.0055 153.115 25.6596C151.982 26.5318 150.848 27.4475 149.802 28.4069C146.052 31.8954 143.088 36.7794 141.344 42.5355C139.905 47.2014 139.164 52.5214 138.99 59.2369C138.946 60.7195 138.946 62.333 139.251 63.8156C139.905 66.7809 142.085 69.3537 144.875 70.5747C155.644 75.1534 165.018 77.9006 173.519 78.9472C174.522 79.078 175.525 79.2088 176.527 79.3396C185.421 80.517 193.836 81.6072 202.163 78.9472C202.948 78.6855 203.427 77.7262 203.689 76.0691C204.125 73.1039 204.299 70.1386 204.125 67.1733C201.247 66.0396 198.065 65.6471 195.013 65.2546C190.304 64.6441 185.639 64.0336 180.974 63.4231C176.309 62.8127 171.601 62.2022 166.936 61.5917L166.674 61.5481C163.84 61.1992 160.004 60.6759 158.609 58.0595C156.908 54.8762 156.996 50.7772 158.87 46.8089C159.524 45.3699 160.658 44.0181 161.704 42.6663C162.227 42.0122 162.75 41.4017 163.143 40.7912C164.712 38.5672 167.721 39.5266 170.336 40.3551C172.996 41.2273 174.783 41.7069 175.612 40.6168C176.484 39.483 176.833 38.262 177.225 37.0846C177.835 35.0351 178.489 32.8984 181.672 32.5931C182.5 32.5059 184.026 32.8547 186.642 33.4216C190.958 34.381 199.024 36.2125 200.201 33.9013C200.942 32.4623 199.896 27.8836 184.331 13.3189C180.32 14.2782 170.075 20.3396 168.069 23.4793C166.761 25.4852 163.884 24.7003 161.094 24.0026C159.568 23.5665 158.085 23.2176 156.995 23.2176Z" class="fill_black"/>
    <path d="M207.613 79.0341C206.087 77.595 203.34 78.38 201.727 77.0718C200.463 76.0252 200.463 74.1501 200.506 72.5366C200.593 70.4435 200.768 68.176 202.25 66.7369C203.296 65.6904 204.822 65.2543 206.305 65.0363C214.065 63.8153 227.973 68.8301 227.493 72.7111C227.319 74.0193 224.834 73.0599 223.526 72.7111C223.526 74.8914 225.008 76.7665 226.142 78.6416C227.275 80.5167 228.104 83.7872 226.839 85.5751C226.36 86.2292 225.095 87.0141 224.398 87.4502C222.741 88.4967 222.305 88.5403 220.692 89.5869C220.3 89.8486 219.297 90.023 218.861 90.023C218.425 90.023 218.033 89.8049 217.64 89.5869C216.027 88.6712 208.921 80.2551 207.613 79.0341Z" class="fill_white"/>
    <path d="M218.861 90.8518C218.207 90.8518 217.684 90.5465 217.248 90.3285C216.114 89.6744 213.237 86.5347 209.662 82.5229C208.485 81.171 207.438 80.0373 207.046 79.6448C206.479 79.1215 205.564 78.9907 204.561 78.8599C203.471 78.7291 202.206 78.5546 201.204 77.7261C199.503 76.3307 199.634 73.8015 199.678 72.4497C199.765 70.6182 199.896 67.8273 201.64 66.0831C202.904 64.7749 204.735 64.3824 206.174 64.1644C212.844 63.1178 223.57 66.4755 227.014 69.8333C228.017 70.8362 228.496 71.8392 228.365 72.7985C228.322 73.2782 228.06 73.6707 227.668 73.9323C226.883 74.4556 225.706 74.2376 224.572 73.9323C224.877 75.0225 225.575 76.1126 226.273 77.2028C226.491 77.5517 226.709 77.8569 226.883 78.2058C228.017 80.0373 229.194 83.8311 227.537 86.0986C227.057 86.7963 226.098 87.4068 225.052 88.0609L224.834 88.1917C224.006 88.715 223.439 89.0203 222.915 89.3255C222.392 89.5872 221.913 89.8488 221.128 90.3721C220.518 90.7645 219.253 90.939 218.861 90.939C218.861 90.8518 218.861 90.8518 218.861 90.8518ZM208.921 65.647C208.049 65.647 207.22 65.6906 206.479 65.8214C205.302 65.9959 203.82 66.3447 202.904 67.2605C201.683 68.4815 201.509 70.4438 201.422 72.4933C201.378 73.9323 201.378 75.5458 202.337 76.3307C202.948 76.8104 203.82 76.9412 204.779 77.072C205.956 77.2464 207.264 77.4209 208.223 78.3366C208.659 78.7727 209.662 79.8628 210.926 81.3019C213.237 83.8747 217.073 88.1917 218.033 88.7586C218.294 88.8894 218.599 89.0639 218.817 89.0639C219.21 89.0639 219.994 88.8894 220.212 88.7586C221.084 88.1917 221.608 87.9301 222.131 87.6248C222.654 87.3632 223.134 87.1016 223.918 86.5783L224.136 86.4475C224.703 86.0986 225.793 85.4009 226.142 84.9212C227.057 83.613 226.534 80.7786 225.401 78.9907C225.226 78.6855 225.008 78.3366 224.79 78.0313C223.744 76.3743 222.61 74.6736 222.654 72.5805C222.654 72.3188 222.785 72.0572 223.003 71.8828C223.221 71.7084 223.482 71.6648 223.744 71.752C223.918 71.7956 224.18 71.8828 224.398 71.9264C224.965 72.1008 226.185 72.4497 226.621 72.3625C226.621 71.97 226.316 71.4903 225.793 70.9234C223.09 68.3942 215.024 65.647 208.921 65.647Z" class="fill_black"/>
    <path d="M244.148 14.1907C246.546 13.2314 249.292 13.3622 251.777 14.1471C254.262 14.932 256.486 16.3275 258.622 17.8101C262.285 20.3393 265.729 23.2173 268.868 26.357C266.775 26.2262 264.072 26.1826 261.936 26.0518C263.287 29.7584 266.383 29.4967 269.696 35.2092C267.691 34.6423 262.284 34.5987 260.105 33.3341C262.11 37.0407 263.113 38.6542 263.68 43.9306C262.328 42.1427 258.884 40.1368 256.966 38.9158C256.66 42.448 257.096 47.2447 256.791 50.8205C255.265 49.0326 252.431 46.8959 250.905 45.0644C251.472 48.7274 251.603 51.6054 250.121 55.0067C248.464 51.4746 245.979 48.3785 242.927 45.9365C241.75 44.9772 239.57 45.108 239.134 43.6254C238.654 41.9683 240.311 39.1775 241.096 37.6512C242.622 34.5115 243.93 31.1974 244.278 27.7088C244.627 24.2203 243.93 20.5573 241.793 17.7665C241.401 17.2868 240.965 16.6763 241.139 16.0658C241.27 15.6734 241.575 15.3681 241.924 15.1501C242.883 14.5396 243.101 14.6268 244.148 14.1907Z" class="fill_black"/>
    <path d="M175.612 142.351C184.636 137.947 180.277 117.801 184.462 108.643C166.325 108.425 160.963 110.518 148.799 98.3521C146.837 103.192 144.614 108.251 140.733 111.739C135.589 116.362 128.221 117.539 121.332 117.19C114.444 116.798 107.686 115.097 100.798 114.835C96.8303 114.661 92.8192 115.01 88.8518 115.315C81.2658 115.926 73.6798 116.536 66.2245 117.844C58.7693 119.153 50.6165 121.028 43.946 117.408C41.5481 119.937 39.499 122.815 37.8423 125.868C46.3439 130.796 53.7991 138.209 62.2571 143.311C70.7151 148.369 80.8734 151.814 90.3777 149.285C96.3507 147.715 101.67 143.921 107.773 142.962C118.804 141.218 128.962 148.936 139.905 150.898C152.243 153.166 164.276 147.846 175.612 142.351Z" class="fill_white"/>
    <path d="M145.878 152.337C143.829 152.337 141.736 152.163 139.687 151.77C135.414 150.986 131.272 149.372 127.261 147.802C120.678 145.229 114.444 142.787 107.86 143.834C104.547 144.357 101.539 145.709 98.3561 147.148C95.871 148.282 93.2552 149.459 90.5521 150.157C79.8706 152.991 68.9711 148.413 61.7339 144.096C57.5921 141.61 53.6247 138.514 49.8317 135.549C45.8207 132.409 41.6789 129.182 37.3627 126.697C36.9703 126.479 36.7959 125.955 37.0139 125.519C38.7142 122.379 40.8069 119.458 43.2484 116.841C43.51 116.536 43.9459 116.493 44.2947 116.667C50.1368 119.807 57.2433 118.542 64.0882 117.321C64.7421 117.19 65.3525 117.103 66.0065 116.972C73.4181 115.708 81.0042 115.054 88.3722 114.487L88.939 114.443C92.8192 114.138 96.8302 113.833 100.798 113.963C104.416 114.094 108.035 114.661 111.523 115.184C114.749 115.664 118.062 116.144 121.332 116.318C126.956 116.623 134.76 115.969 140.123 111.129C143.785 107.815 145.921 103.062 147.927 98.0469C148.058 97.7852 148.276 97.5672 148.581 97.5236C148.886 97.48 149.148 97.5672 149.366 97.7416C159.567 107.902 164.756 107.858 177.399 107.771C179.492 107.771 181.846 107.728 184.462 107.771C184.767 107.771 185.029 107.946 185.203 108.164C185.377 108.382 185.377 108.731 185.247 108.992C183.677 112.437 183.372 117.495 183.023 122.859C182.5 131.406 181.933 140.215 176.004 143.136C165.976 147.977 156.123 152.337 145.878 152.337ZM110.956 141.828C116.798 141.828 122.378 144.008 127.872 146.145C131.796 147.671 135.894 149.285 139.992 150.026C151.981 152.207 163.491 147.235 175.219 141.523C180.276 139.081 180.8 130.752 181.279 122.728C181.584 117.757 181.89 113.048 183.154 109.472C181.061 109.472 179.143 109.472 177.399 109.472C165.061 109.559 159.219 109.603 149.06 99.8347C147.142 104.413 144.919 109.079 141.3 112.35C135.501 117.583 127.174 118.324 121.245 118.019C117.888 117.844 114.531 117.321 111.261 116.841C107.817 116.318 104.242 115.795 100.71 115.664C96.8738 115.49 92.9063 115.838 89.0697 116.144L88.503 116.187C81.1786 116.798 73.6361 117.408 66.3116 118.673C65.7013 118.76 65.0473 118.891 64.437 119.022C57.5049 120.243 50.3549 121.551 44.1204 118.498C42.1585 120.635 40.4145 123.034 38.9758 125.563C43.1612 128.048 47.085 131.144 50.9216 134.153C54.7146 137.119 58.5949 140.127 62.6495 142.569C69.5815 146.712 80.0014 151.116 90.1161 148.456C92.6884 147.759 95.2171 146.625 97.6586 145.535C100.798 144.096 104.067 142.657 107.599 142.09C108.689 141.915 109.822 141.828 110.956 141.828Z" class="fill_black"/>
    <path d="M20.3596 133.499C19.7056 134.371 23.1062 137.075 24.3269 137.119C26.594 135.505 28.2507 132.845 28.4687 131.101C28.6867 129.357 28.2507 130.011 27.0299 128.746C25.8092 127.481 24.2833 126.609 22.8882 125.563C18.2233 122.118 13.7327 114.879 9.67819 112.786C8.50105 112.175 8.32663 117.059 8.50102 118.324C8.937 121.682 11.3785 124.647 14.0379 126.74C16.6974 128.833 19.4876 130.185 22.2778 132.104C21.3623 132.583 20.9699 132.671 20.3596 133.499Z" class="fill_black"/>
    <path d="M221.215 37.0845C221.172 36.9536 221.128 36.8664 221.084 36.7356C220.43 34.8605 219.776 33.0726 220.125 31.1103C220.605 28.3631 220.561 25.6595 224.441 21.9529C224.965 20.4266 223.657 19.1184 222.479 17.9847C221.346 16.8509 219.907 15.8915 219.21 14.4089C219.035 14.06 218.905 13.624 218.948 13.2315C219.122 12.2286 220.343 11.8797 221.346 11.7925C225.662 11.4872 229.455 17.2434 233.771 16.9817C235.167 16.8945 236.518 16.3712 237.87 16.1096C242.055 15.281 246.633 17.0689 249.292 20.4266C251.908 23.828 252.562 28.6247 251.036 32.593C249.772 35.8635 247.243 38.4799 244.497 40.7038C241.837 42.8842 238.785 44.8029 235.385 45.1081C234.077 45.239 232.769 45.1081 231.504 44.8029C231.156 45.3698 230.85 45.8931 230.545 46.4599C228.322 50.6462 231.199 53.6987 231.068 54.0911C230.981 54.3528 228.801 57.9721 219.907 56.5331C216.332 55.9662 211.711 52.8265 210.882 49.5124C210.01 46.1111 209.749 42.4917 209.705 39.0032C213.368 40.1806 218.686 39.9189 221.215 37.0845Z" class="fill_white"/>
    <path d="M223.7 57.667C222.523 57.667 221.171 57.5797 219.646 57.3181C215.809 56.7076 210.882 53.3935 209.923 49.6433C209.139 46.6344 208.746 43.1023 208.746 38.916C208.746 38.6544 208.877 38.3491 209.095 38.2183C209.313 38.0875 209.618 38.0003 209.88 38.0875C213.193 39.2213 217.815 39.0468 220.169 36.8665L220.125 36.7793C219.471 34.9478 218.817 33.0727 219.21 30.936C219.253 30.6307 219.297 30.2819 219.384 29.9766C219.733 27.5782 220.169 24.8746 223.613 21.4733C223.787 20.6011 223.003 19.729 221.869 18.5952L221.825 18.5516C221.52 18.2464 221.215 17.9847 220.866 17.6795C219.951 16.851 218.992 15.9788 218.381 14.7578C218.076 14.1473 217.945 13.5804 218.076 13.0136C218.294 11.7926 219.471 11.0076 221.259 10.8768C223.7 10.7024 225.924 12.185 228.06 13.6241C230.022 14.9323 231.853 16.1532 233.728 16.066C234.512 16.0224 235.341 15.8044 236.169 15.5864C236.649 15.4555 237.172 15.3247 237.695 15.1939C242.186 14.2782 247.112 16.1532 249.946 19.8162C252.736 23.392 253.478 28.494 251.777 32.8547C250.644 35.8199 248.507 38.4799 244.976 41.358C242.752 43.1459 239.395 45.5879 235.384 45.9367C234.251 46.0239 233.074 45.9803 231.853 45.7187C231.635 46.0675 231.461 46.46 231.243 46.8089C229.717 49.6869 230.894 51.9109 231.504 53.001C231.766 53.4807 231.94 53.8732 231.809 54.3092C231.809 54.3092 230.371 57.667 223.7 57.667ZM210.49 40.0934C210.577 43.6256 210.926 46.6344 211.624 49.2072C212.408 52.1725 216.725 55.0942 219.951 55.5738C226.927 56.7076 229.412 54.6145 230.022 53.8732C230.022 53.8296 229.978 53.8296 229.978 53.7859C229.324 52.565 227.755 49.6433 229.717 45.9367C230.022 45.3698 230.327 44.8029 230.676 44.1924C230.894 43.8872 231.243 43.7128 231.635 43.8C232.856 44.1052 234.076 44.1924 235.254 44.1052C237.957 43.8436 240.703 42.5354 243.93 39.8754C247.2 37.259 249.161 34.7734 250.208 32.1133C251.646 28.3196 251.036 23.9153 248.595 20.7756C246.11 17.6359 241.881 16.0224 238.044 16.7637C237.564 16.851 237.128 16.9818 236.649 17.1126C235.733 17.3742 234.818 17.5923 233.815 17.6795C231.373 17.8103 229.194 16.3277 227.101 14.9323C225.139 13.6241 223.264 12.3595 221.389 12.4903C220.692 12.5339 219.864 12.7955 219.82 13.188C219.776 13.3188 219.864 13.5804 219.994 13.8421C220.43 14.7578 221.259 15.4991 222.087 16.2405C222.436 16.5457 222.785 16.851 223.09 17.1998C224.311 18.4208 225.967 20.0343 225.226 22.0838C225.183 22.2146 225.095 22.3454 225.008 22.4326C221.825 25.5287 221.477 27.7527 221.128 30.1074C221.084 30.4563 221.041 30.7615 220.954 31.1104C220.648 32.8111 221.172 34.3373 221.782 36.0816L221.913 36.4304C221.956 36.474 221.956 36.5612 222 36.6049C222.131 36.9101 222.087 37.259 221.825 37.5206C219.297 40.5295 214.37 41.0091 210.49 40.0934Z" class="fill_black"/>
    <path d="M237.216 24.177C237.651 23.174 239.613 23.2176 240.485 23.4793C242.142 23.9589 240.267 25.834 239.657 26.4881C238.742 27.4911 240.224 29.0173 241.183 28.0144C242.84 26.1829 244.584 23.392 241.706 21.6914C239.962 20.6884 236.213 21.0373 235.341 23.1304C234.818 24.3514 236.692 25.4416 237.216 24.177Z" class="fill_black"/>
    <path d="M183.372 152.294C183.111 152.294 182.849 152.163 182.718 151.989L170.816 137.642C170.598 137.38 170.554 137.031 170.685 136.726C170.816 136.421 171.121 136.203 171.426 136.203C171.949 136.159 222.697 133.586 229.978 124.342C237.172 115.228 221.913 88.9766 221.782 88.715C221.52 88.2789 221.695 87.7556 222.087 87.5376C222.523 87.276 223.046 87.4504 223.264 87.8428C223.918 88.9766 239.265 115.402 231.33 125.432C224.267 134.415 182.457 137.337 173.214 137.86L183.721 150.506C187.776 150.201 218.12 147.889 230.545 146.581C234.207 146.189 238.829 146.712 243.319 147.235C252.954 148.326 262.066 149.372 263.2 142.613C265.249 130.403 242.709 72.8421 242.447 72.2316C242.273 71.7955 242.491 71.2722 242.927 71.0978C243.363 70.9234 243.886 71.1414 244.06 71.5775C245.02 73.9759 267.036 130.185 264.9 142.875C263.505 151.247 253.129 150.07 243.101 148.936C238.698 148.456 234.164 147.933 230.719 148.282C217.422 149.721 183.721 152.25 183.372 152.25C183.416 152.294 183.416 152.294 183.372 152.294Z" class="fill_black"/>
    <path d="M184.419 149.067C184.026 146.014 184.985 140.389 183.852 139.473C182.5 138.383 180.408 137.773 178.358 137.249C176.266 136.726 174.26 137.511 172.124 137.816C167.503 138.383 162.62 139.473 159.306 142.744C159.001 143.049 158.652 143.398 158.565 143.834C158.303 144.924 159.568 145.884 160.701 145.84C161.835 145.796 162.794 145.142 163.84 144.663C164.843 144.183 166.151 143.878 167.067 144.532C164.974 145.796 163.012 147.192 161.094 148.762C160.353 149.372 159.611 150.07 159.263 150.942C158.434 153.079 160.178 155.259 161.748 156.873C162.227 157.352 162.75 157.875 163.448 157.875C163.884 157.875 164.233 157.657 164.625 157.439C167.372 155.87 169.813 153.82 172.647 152.381C175.394 150.942 184.767 151.771 184.419 149.067Z" class="fill_white"/>
    <path d="M163.448 158.704C162.358 158.704 161.573 157.919 161.094 157.439C159.481 155.738 157.431 153.209 158.434 150.593C158.87 149.503 159.742 148.674 160.527 148.064C161.53 147.235 162.576 146.45 163.666 145.665C163.622 145.709 163.579 145.709 163.535 145.753C162.707 146.189 161.791 146.625 160.745 146.668C159.786 146.712 158.826 146.276 158.216 145.578C157.737 145.011 157.562 144.313 157.736 143.616C157.911 142.918 158.39 142.395 158.739 142.09C162.358 138.601 167.503 137.511 172.037 136.944C172.603 136.857 173.214 136.769 173.824 136.639C175.35 136.333 176.92 136.028 178.576 136.421C180.713 136.944 182.936 137.598 184.419 138.819C185.378 139.604 185.378 141.523 185.247 144.75C185.203 146.276 185.116 147.846 185.291 148.979C185.334 149.503 185.203 149.982 184.898 150.375C183.895 151.639 181.192 151.945 178.097 152.25C176.091 152.468 173.999 152.686 173.039 153.166C171.514 153.951 170.031 154.954 168.636 155.913C167.502 156.698 166.325 157.483 165.105 158.18C164.581 158.442 164.058 158.704 163.448 158.704ZM165.759 143.223C166.456 143.223 167.067 143.398 167.546 143.747C167.764 143.921 167.938 144.183 167.895 144.488C167.895 144.793 167.72 145.055 167.459 145.186C165.41 146.407 163.448 147.802 161.617 149.328C160.963 149.852 160.309 150.462 160.047 151.16C159.568 152.468 160.265 154.038 162.358 156.175C162.707 156.523 163.099 156.916 163.448 156.916C163.622 156.916 163.927 156.785 164.189 156.611C165.366 155.913 166.5 155.172 167.633 154.387C169.116 153.384 170.598 152.381 172.255 151.552C173.519 150.898 175.655 150.68 177.966 150.462C180.102 150.244 183.023 149.939 183.59 149.241C183.634 149.197 183.634 149.197 183.634 149.11C183.459 147.846 183.547 146.189 183.59 144.619C183.634 143.092 183.721 140.52 183.372 140.04C182.195 139.081 180.19 138.514 178.228 138.034C176.963 137.729 175.612 137.99 174.217 138.252C173.606 138.383 172.952 138.514 172.298 138.601C168.026 139.124 163.23 140.127 159.96 143.267C159.655 143.529 159.48 143.747 159.437 143.965C159.437 144.008 159.393 144.139 159.568 144.401C159.829 144.706 160.265 144.924 160.658 144.88C161.355 144.837 162.009 144.488 162.707 144.139C162.968 144.008 163.186 143.877 163.448 143.79C164.276 143.441 165.061 143.223 165.759 143.223Z" class="fill_black"/>
    <path d="M20.1852 100.968C19.9672 101.012 19.8364 101.23 19.7928 101.448C19.2696 105.373 21.3623 109.384 24.7194 111.39C25.8094 112.044 27.0301 112.48 28.2073 112.917C29.1664 113.265 30.1256 113.614 31.0412 113.963C31.9567 114.312 32.3491 115.402 31.7823 116.231C31.2155 117.059 30.1692 117.67 30.082 118.716C30.0384 119.065 31.2155 120.461 32.0875 121.812C32.3055 122.161 32.7415 122.336 33.1339 122.248C37.4065 121.245 36.6653 122.597 38.8016 122.466C39.4556 122.423 40.1096 122.466 40.72 122.248C41.9843 121.856 42.8127 120.635 43.5539 119.501C43.6847 119.283 43.8155 119.065 43.9027 118.803C44.0335 118.237 46.0826 117.626 45.5594 117.364C45.0362 117.059 44.4258 116.972 43.859 116.841C41.3303 116.187 36.9705 114.138 35.401 112.088C33.8315 109.995 33.3519 108.469 31.3463 106.855C30.1692 105.896 27.9457 104.457 26.5941 103.803C24.6758 102.756 22.2779 100.314 20.1852 100.968Z" class="fill_black"/>
    <path fill-rule="evenodd" clip-rule="evenodd" d="M198.849 8.17309C198.675 8.9144 197.803 19.5109 199.155 21.0371C200.55 22.5634 210.098 26.706 211.711 24.264C213.324 21.822 218.163 13.0571 218.163 11.0511C218.163 9.08883 218.512 7.91145 215.896 6.86488C213.324 5.86193 213.629 3.33273 209.793 1.41403C203.035 -1.98731 200.419 0.934352 198.849 8.17309Z" class="secondary_color"/>
    <path d="M230.72 39.6135C230.458 39.6135 230.153 39.4827 230.022 39.2211C229.935 39.0903 220.867 26.0518 209.139 17.5485C208.746 17.2868 208.659 16.7199 208.964 16.3275C209.269 15.935 209.793 15.8478 210.185 16.153C222.175 24.8308 231.374 38.1309 231.461 38.2617C231.723 38.6542 231.635 39.2211 231.243 39.4827C231.025 39.5699 230.851 39.6135 230.72 39.6135Z" class="fill_black"/>
    <path d="M209.182 19.2928C209.095 19.2928 208.964 19.2928 208.877 19.2492C207.089 18.7259 205.956 17.8974 205.607 16.8072C205.389 16.1095 205.476 15.3682 205.912 14.7577C205.956 14.7141 205.956 14.6269 205.999 14.5833C206.217 14.278 206.435 13.8856 206.697 13.4495C207.133 12.6646 207.525 11.9669 208.049 11.618C208.31 11.4872 209.008 11.0511 210.926 12.3593C210.97 12.3593 210.97 12.4029 211.013 12.4029C211.362 12.6646 211.711 13.0571 212.016 13.4059C212.103 13.4931 212.19 13.6239 212.277 13.7112C212.757 14.278 212.408 15.6299 212.277 15.8915C211.624 17.1997 210.403 19.2928 209.182 19.2928ZM207.395 15.4554C207.351 15.499 207.351 15.5862 207.307 15.6299C207.22 15.7171 207.089 15.9787 207.177 16.284C207.264 16.502 207.613 17.1125 209.138 17.5922C209.531 17.2433 210.359 16.0223 210.795 15.1502C210.839 15.063 210.882 14.8013 210.882 14.6269C210.839 14.5833 210.839 14.5833 210.795 14.5397C210.534 14.278 210.228 13.9292 209.967 13.7112C209.444 13.3623 209.008 13.1879 208.79 13.1007C208.615 13.3187 208.31 13.842 208.092 14.1908C207.918 14.6269 207.656 15.063 207.395 15.4554Z" class="fill_black"/>
    <path d="M211.057 13.7548C210.621 13.7548 210.272 13.406 210.228 12.9699C210.228 12.5338 210.577 12.1414 211.013 12.0978C211.711 12.0542 212.626 11.8797 213.062 11.0948C213.455 10.3971 213.324 9.35054 212.757 8.17315C210.01 7.25741 208.397 7.34463 208.049 7.8243C207.743 8.21676 208.005 9.48136 209.705 11.7489C209.967 12.0978 209.88 12.621 209.531 12.8827C209.182 13.1443 208.659 13.0571 208.397 12.7083C206.392 9.96103 205.825 8.04233 206.741 6.82134C207.961 5.16428 211.188 5.81839 213.629 6.69052C213.804 6.77774 213.978 6.90856 214.065 7.08298C215.068 8.91447 215.242 10.6151 214.501 11.8797C213.891 13.0135 212.67 13.6676 211.057 13.7548C211.1 13.7548 211.1 13.7548 211.057 13.7548Z" class="fill_black"/>
    <path d="M213.891 19.729C213.542 19.729 213.149 19.6854 212.801 19.5545C211.58 19.1621 210.708 18.1155 210.359 16.5893C210.272 16.1532 210.534 15.7171 210.97 15.5863C211.406 15.4991 211.842 15.7607 211.972 16.1968C212.19 17.1562 212.67 17.7667 213.324 17.9847C214.109 18.2463 215.111 17.9411 216.114 17.1126C216.463 14.2345 216.071 12.6647 215.547 12.403C215.111 12.185 213.934 12.7083 212.016 14.7578C211.711 15.1066 211.188 15.1066 210.839 14.8014C210.49 14.4961 210.49 13.9729 210.795 13.624C213.106 11.1384 214.893 10.2227 216.245 10.8768C218.12 11.7489 218.076 15.0194 217.684 17.6358C217.64 17.8539 217.553 18.0283 217.378 18.1591C216.245 19.2057 214.981 19.729 213.891 19.729Z" class="fill_black"/>
    <path d="M210.664 24.5255C210.577 24.5255 210.534 24.5255 210.446 24.4819C208.441 23.9587 207.089 22.9121 206.697 21.4731C206.304 20.2521 206.697 18.9439 207.7 17.7665C208.005 17.4176 208.528 17.374 208.877 17.6793C209.226 17.9845 209.269 18.5078 208.964 18.8567C208.31 19.598 208.092 20.3393 208.266 20.9934C208.484 21.7783 209.356 22.3888 210.577 22.7813C213.15 21.4295 214.196 20.2085 214.065 19.598C213.978 19.1183 212.888 18.4206 210.098 18.0717C209.662 18.0281 209.313 17.5921 209.4 17.156C209.444 16.7199 209.88 16.3711 210.316 16.4583C213.673 16.8943 215.46 17.8537 215.722 19.3363C216.071 21.3858 213.367 23.2173 211.057 24.3947C210.926 24.4819 210.795 24.5255 210.664 24.5255Z" class="fill_black"/>
    <path d="M205.346 23.4357C203.514 23.4357 201.683 21.2554 200.375 19.2931C200.245 19.1186 200.201 18.9006 200.245 18.7262C200.55 16.6766 201.422 15.2376 202.773 14.6271C203.95 14.1038 205.302 14.3219 206.566 15.2376C206.959 15.4993 207.046 16.0225 206.784 16.3714C206.523 16.7639 205.999 16.8511 205.651 16.5894C205.084 16.197 204.256 15.8045 203.427 16.1534C202.686 16.4586 202.163 17.3744 201.901 18.6826C203.514 21.0809 204.866 21.9531 205.476 21.7786C205.956 21.6478 206.523 20.4704 206.523 17.636C206.523 17.1999 206.915 16.8075 207.351 16.8075C207.787 16.8075 208.179 17.1999 208.179 17.636C208.136 21.0373 207.395 22.9124 205.912 23.3049C205.738 23.4357 205.52 23.4357 205.346 23.4357Z" class="fill_black"/>
    <path d="M202.73 16.1967C201.945 16.1967 201.335 15.9787 200.855 15.499C199.416 13.9727 200.637 10.9639 201.945 8.69632C202.032 8.5219 202.207 8.39108 202.381 8.30386C204.343 7.60615 206.043 7.78058 207.177 8.69632C208.179 9.52485 208.615 10.7894 208.397 12.3593C208.354 12.7954 207.918 13.1442 207.482 13.057C207.046 13.0134 206.697 12.5773 206.784 12.1413C206.915 11.1819 206.697 10.397 206.174 9.96092C205.564 9.43764 204.517 9.39403 203.253 9.74288C201.858 12.2721 201.683 13.8855 202.076 14.3216C202.425 14.6705 203.689 14.6268 206.218 13.4059C206.61 13.1878 207.133 13.3622 207.308 13.7983C207.526 14.1908 207.351 14.7141 206.915 14.8885C205.215 15.7606 203.82 16.1967 202.73 16.1967Z" class="fill_black"/>
</svg>
