<svg width="216" height="264" viewBox="0 0 216 264" fill="none" xmlns="http://www.w3.org/2000/svg">
    <path d="M178.385 51.1388C136.476 44.3855 102.95 42.6156 73.3809 48.2511C60.1099 48.2511 56.8504 69.3028 58.8061 81.2258L64.2542 114.201L73.4275 158.819H184.531L193.705 114.201L199.153 81.2258C201.108 69.3028 190.585 51.1388 177.36 51.1388" class="secondary_color"/>
    <path d="M166.79 173.909H55.6865C55.2674 173.909 54.8483 173.583 54.7552 173.164L45.5819 128.545L40.1338 95.5707C38.6437 86.4421 40.1804 73.0287 46.001 66.1357C48.6086 63.0618 51.8216 61.5248 55.5468 61.4782C83.2063 56.2153 115.709 57.1468 160.83 64.4124V64.459C165.812 64.8316 170.748 67.6726 174.846 72.5164C180.527 79.2231 183.554 88.4914 182.343 95.5707L176.895 128.545L167.722 173.164C167.582 173.583 167.209 173.909 166.79 173.909ZM56.4315 172.046H166.045L175.079 128.173L180.527 95.2447C181.645 88.6311 178.758 79.9683 173.449 73.6807C169.398 68.8836 164.509 66.2754 159.666 66.2754V66.1357C115.196 59.0564 83.1598 58.1715 55.8728 63.3878C55.8262 63.3878 55.7796 63.3878 55.6865 63.3878C52.4735 63.3878 49.7262 64.7385 47.4911 67.3932C41.9499 73.8205 40.5529 86.5353 41.9499 95.2447L47.3979 128.219L56.4315 172.046Z" class="fill_black"/>
    <path d="M50.1453 195.845L41.9033 246.844H47.3048L60.6223 196.591L50.1453 195.845Z" class="fill_black"/>
    <path d="M162.134 211.588L170.376 262.54H164.974L151.703 212.286L162.134 211.588Z" class="fill_black"/>
    <path d="M209.35 119.789L208.605 117.833C204.182 106.469 189.979 102.743 180.527 110.475C169.398 119.743 162.739 145.033 162.227 187.835C162.18 190.769 159.805 193.237 156.872 193.237H164.834H65.6046C62.671 193.237 60.2962 190.816 60.2497 187.835C59.7375 144.986 53.0787 119.743 41.9497 110.475L41.6237 110.195C32.4039 102.557 18.3878 106.236 14.0573 117.414L13.126 119.789C10.0062 127.94 13.0329 137.162 20.4367 141.819C26.3504 145.545 35.8031 150.016 34.2199 154.022C29.936 164.687 33.1955 181.081 41.8565 191.933C50.9367 203.344 55.9192 217.27 70.5405 217.27C97.6878 221.229 124.882 224.023 152.076 217.27C166.65 217.27 185.416 204.881 187.232 190.396C189.234 174.282 182.855 155.838 188.396 154.022C195.567 151.693 209.537 147.268 212.051 142.192C217.127 131.619 212.47 127.94 209.35 119.789Z" fill="#FCFFF8"/>
    <path d="M116.267 222.3C100.622 222.3 85.2552 220.344 70.401 218.201C58.8063 218.155 53.0323 209.678 46.9323 200.689C45.0697 197.988 43.1605 195.147 41.0651 192.492C32.2178 181.407 28.8651 164.687 33.2888 153.649C34.3132 151.087 27.9804 147.361 23.3704 144.66C22.1597 143.915 20.9956 143.263 19.8781 142.564C12.1483 137.72 8.88876 127.986 12.1949 119.417L13.1262 117.041C15.3147 111.452 19.8781 107.354 25.6987 105.817C31.5193 104.28 37.5262 105.631 42.1361 109.45L42.462 109.729C54.3361 119.65 60.6223 145.918 61.088 187.788C61.1346 190.256 63.0903 192.259 65.5117 192.259H156.779C159.2 192.259 161.202 190.256 161.202 187.788C161.715 145.871 167.954 119.603 179.828 109.729C184.532 105.817 190.632 104.466 196.545 106.05C202.459 107.587 207.115 111.779 209.351 117.461L210.096 119.417C210.748 121.14 211.493 122.677 212.238 124.121C214.892 129.57 216.941 133.855 212.703 142.518C210.142 147.781 197.197 152.019 189.421 154.534L188.49 154.86C186.115 155.652 186.72 161.893 187.465 169.112C188.07 175.399 188.862 183.224 187.977 190.443C187.093 197.382 182.296 204.462 174.799 209.957C167.815 215.034 159.293 218.108 152.029 218.155C140.109 221.182 128.095 222.3 116.267 222.3ZM30.4483 107.121C29.0514 107.121 27.6078 107.307 26.1643 107.68C20.9491 109.031 16.8048 112.71 14.8491 117.787L13.9178 120.162C10.9376 127.893 13.8712 136.649 20.8559 141.074C21.9269 141.726 23.0445 142.425 24.3017 143.123C30.3552 146.709 36.6414 150.389 35.0117 154.441C30.8208 164.873 34.0338 180.802 42.5086 191.421C44.6506 194.122 46.6063 196.963 48.4689 199.711C54.5224 208.653 59.7842 216.385 70.4476 216.385C70.4941 216.385 70.5407 216.385 70.5872 216.385C96.5239 220.157 124.183 223.278 151.75 216.385C151.843 216.385 151.89 216.338 151.983 216.338C165.906 216.338 184.438 204.322 186.208 190.303C187.093 183.27 186.348 175.865 185.696 169.391C184.811 160.682 184.206 154.441 187.977 153.183L188.909 152.857C195.893 150.575 208.838 146.337 211.073 141.819C214.938 133.948 213.122 130.222 210.608 125.052C209.863 123.562 209.118 121.978 208.419 120.209L207.674 118.252C205.672 113.129 201.481 109.357 196.173 107.959C190.864 106.562 185.37 107.773 181.086 111.266C169.817 120.674 163.624 147.175 163.112 187.928C163.112 189.651 162.367 191.235 161.249 192.352H164.788C165.3 192.352 165.719 192.771 165.719 193.284C165.719 193.796 165.3 194.215 164.788 194.215H65.6048C62.159 194.215 59.3651 191.374 59.3185 187.928C58.8529 147.175 52.6132 120.674 41.3445 111.266L41.0185 110.987C37.9453 108.425 34.2666 107.121 30.4483 107.121Z" class="fill_black"/>
    <path d="M153.193 164.78H69.2369C63.1834 164.78 58.2476 169.717 58.2476 175.772V193.47H164.183V175.772C164.183 169.717 159.293 164.78 153.193 164.78Z" fill="#FCFFF8"/>
    <path d="M161.435 193.889H61.0412C60.8083 193.889 60.6221 193.703 60.6221 193.47C60.6221 193.237 60.8083 193.051 61.0412 193.051H161.435C161.668 193.051 161.854 193.237 161.854 193.47C161.854 193.703 161.668 193.889 161.435 193.889Z" class="fill_black"/>
    <path d="M162.692 173.956C162.506 173.956 162.32 173.816 162.273 173.63C161.295 168.739 156.918 165.246 151.982 165.246H68.8175C65.1855 165.246 61.8328 167.109 59.9236 170.183C59.7839 170.369 59.5511 170.463 59.3183 170.323C59.132 170.183 59.0389 169.95 59.1786 169.717C61.274 166.364 64.9061 164.361 68.8175 164.361H151.936C157.291 164.361 161.994 168.18 163.065 173.443C163.111 173.676 162.972 173.909 162.739 173.956H162.692Z" class="fill_black"/>
    <path d="M84.5101 74.5657L101.134 65.344L117.431 73.2616L126.372 155.512L80.2261 149.038L84.5101 74.5657Z" fill="#FCFFF8"/>
    <path d="M94.4285 58.6372H107.048C107.048 65.4371 109.841 69.1165 109.841 69.1165C109.841 69.1165 106.349 72.0041 100.761 72.0041C95.0804 72.0041 91.6812 69.1165 91.6812 69.1165C91.6812 69.1165 94.4285 65.4837 94.4285 58.6372Z" fill="#FCFFF8"/>
    <path d="M100.715 72.9357C94.7545 72.9357 91.169 69.9549 91.0293 69.8152C90.6568 69.4891 90.6102 68.9303 90.8896 68.5577C90.9361 68.5111 93.4972 65.018 93.4972 58.6373C93.4972 58.125 93.9163 57.7058 94.4285 57.7058H107.048C107.56 57.7058 107.979 58.125 107.979 58.6373C107.979 65.018 110.54 68.5111 110.587 68.5577C110.866 68.9768 110.819 69.5357 110.447 69.8152C110.261 69.9549 106.582 72.9357 100.715 72.9357ZM92.8919 68.8837C94.1026 69.6289 96.8499 71.0727 100.715 71.0727C104.533 71.0727 107.327 69.6289 108.538 68.8837C107.746 67.4864 106.256 64.3194 106.116 59.6154H95.3598C95.1735 64.3194 93.6835 67.4864 92.8919 68.8837Z" class="fill_black"/>
    <path d="M145.929 86.9081C151.377 88.9573 165.067 107.541 165.998 110.475C179.316 153.649 147.186 122.817 140.76 110.475C123.904 115.318 152.355 161.101 142.157 162.079C130.981 170.649 87.583 170.835 79.1548 164.594C82.0884 153.183 83.625 144.614 82.3677 137.767C80.9242 129.757 77.0594 123.935 72.8685 118.066C61.8326 122.538 52.0075 123.795 49.8189 122.91C49.2601 122.677 35.7563 112.757 36.641 119.836C33.2883 120.675 28.9578 126.031 27.2349 125.006C24.1151 123.096 5.76853 144.101 0.925781 137.674L9.16774 122.91C9.16774 122.91 33.2884 101.626 40.9716 106.702C47.6304 100.135 57.3158 91.5655 67.6067 83.2753C68.3051 82.6698 69.0502 82.0643 69.8418 81.4588C69.9349 81.3657 70.028 81.3191 70.1212 81.226C74.8242 77.6863 80.7845 74.6124 86.6983 72.9357C88.9334 72.2837 91.0288 71.8179 92.8914 71.4919C93.0777 71.259 93.3571 71.1193 93.7296 71.0727C95.7784 70.6536 114.078 73.9138 126.325 73.3083C136.709 72.7494 139.643 85.7437 145.929 86.9081Z" class="fill_white"/>
    <path d="M105.93 169.903C93.8695 169.903 82.6939 168.32 78.5962 165.339C78.2702 165.106 78.1771 164.734 78.2702 164.361C81.1107 153.463 82.6939 144.8 81.4832 137.953C80.1329 130.502 76.6405 125.006 72.5893 119.184C62.2985 123.236 52.2405 124.866 49.4931 123.748C49.3534 123.702 49.2138 123.608 48.5618 123.189C40.5061 117.833 38.3641 118.02 37.8519 118.346C37.526 118.578 37.5725 119.277 37.6191 119.743C37.6657 120.209 37.3863 120.674 36.9206 120.767C35.5702 121.093 33.8473 122.444 32.3107 123.608C30.1221 125.285 28.2596 126.729 26.7695 125.844C25.8382 125.611 21.7405 128.825 18.7603 131.154C13.2191 135.485 6.93282 140.375 2.88168 139.816C1.76412 139.677 0.879392 139.164 0.180919 138.279C-0.0519056 138 -0.0518942 137.581 0.134365 137.255L8.37636 122.491C8.42292 122.398 8.51603 122.304 8.5626 122.258C11.0305 120.069 32.2641 101.672 40.8321 105.584C47.9565 98.598 57.4557 90.2612 67.0481 82.5764C67.7466 81.9244 68.5382 81.3189 69.2832 80.7134C69.3764 80.6203 69.4695 80.5737 69.6092 80.4806C74.5916 76.7546 80.5985 73.7273 86.4657 72.0506C88.5611 71.4451 90.6099 70.9794 92.5191 70.6533C92.7985 70.4205 93.171 70.2808 93.5901 70.1876C94.4283 70.0013 96.7565 70.2808 101.553 70.8396C108.351 71.6314 118.642 72.7958 126.325 72.4232C132.844 72.0972 136.569 76.6615 139.829 80.7134C141.878 83.275 143.834 85.6503 146.115 86.0695C146.162 86.0695 146.208 86.1161 146.255 86.1161C151.936 88.2585 165.859 106.935 166.883 110.242C171.167 124.074 171.214 131.619 167.069 133.343C160.178 136.184 144.905 119.743 140.341 111.639C138.991 112.151 138.013 113.036 137.361 114.294C134.334 119.976 138.106 131.945 141.459 142.471C144.346 151.553 146.627 158.679 144.672 161.66C144.206 162.405 143.461 162.871 142.576 163.01C136.104 167.621 120.365 169.903 105.93 169.903ZM80.226 164.128C84.5099 166.69 96.3374 168.227 109.608 167.901C124.509 167.528 136.756 165.013 141.598 161.287C141.738 161.194 141.924 161.101 142.064 161.101C142.53 161.054 142.856 160.868 143.089 160.542C144.532 158.306 142.064 150.529 139.689 142.937C136.244 132.038 132.286 119.696 135.731 113.316C136.756 111.406 138.385 110.102 140.527 109.496C140.947 109.357 141.412 109.59 141.598 109.962C146.208 118.811 161.202 133.622 166.371 131.48C167.768 130.921 170.422 127.754 165.114 110.661C164.276 107.913 150.865 89.7954 145.696 87.7462C142.809 87.1873 140.667 84.5325 138.385 81.7381C135.266 77.8724 132.006 73.867 126.418 74.1464C118.595 74.519 108.211 73.3547 101.366 72.5629C98.0137 72.1903 94.6145 71.7711 94.0092 71.9109C93.7763 71.9574 93.6832 72.0506 93.6367 72.0506C93.497 72.1903 93.3107 72.2835 93.1245 72.33C91.2153 72.6561 89.1664 73.1218 87.0244 73.7273C81.4366 75.3108 75.4763 78.2916 70.7267 81.8778C70.6336 81.9709 70.5405 82.0175 70.4473 82.0641C69.7023 82.623 68.9573 83.2285 68.2588 83.8805C58.4802 91.705 48.7947 100.228 41.6702 107.261C41.3443 107.587 40.8786 107.633 40.5061 107.354C34.7321 103.535 16.6183 117.507 9.95955 123.376L2.13665 137.395C2.41604 137.627 2.742 137.767 3.16108 137.814C6.46719 138.233 12.6603 133.389 17.6428 129.523C23.2771 125.145 26.071 123.05 27.7473 124.121C28.2596 124.261 30.0756 122.863 31.1466 122.025C32.5901 120.954 34.1733 119.696 35.6634 119.137C35.6634 117.74 36.2687 117.041 36.8275 116.715C38.7832 115.505 42.6015 116.948 49.5397 121.606C49.8191 121.792 50.0985 121.978 50.1916 122.025C52.0542 122.724 61.4603 121.652 72.4962 117.181C72.9153 117.041 73.3344 117.135 73.6138 117.507C77.9909 123.702 81.7626 129.477 83.2527 137.581C84.5565 144.614 82.9733 153.323 80.226 164.128Z" class="fill_black"/>
    <path d="M95.7788 67.2069C90.4704 67.2069 85.162 64.2727 83.4391 65.8096C81.7162 67.3466 87.2574 81.2258 90.191 81.2258C91.7276 81.2258 95.1269 77.4998 96.1513 73.867C97.1758 70.4671 95.7788 67.2069 95.7788 67.2069Z" class="fill_black"/>
    <path d="M104.067 65.3438C109.376 65.3438 114.684 62.4096 116.407 63.9466C118.13 65.4836 112.589 79.3627 109.655 79.3627C108.118 79.3627 104.719 75.6368 103.695 72.004C102.67 68.604 104.067 65.3438 104.067 65.3438Z" class="fill_black"/>
    <path d="M114.777 40.8457C114.777 40.8457 115.01 24.1255 100.714 24.1255C86.4189 24.1255 86.6518 40.8457 86.6518 40.8457C86.6518 40.8457 83.8113 40.8923 83.9975 45.2703C84.1838 49.6483 88.235 49.7414 88.235 49.7414C90.5632 59.9412 94.7541 62.8754 100.714 62.8754C106.675 62.8754 110.866 59.9412 113.194 49.7414C113.194 49.7414 117.292 49.6483 117.478 45.2703C117.617 40.8923 114.777 40.8457 114.777 40.8457Z" fill="#FCFFF8"/>
    <path d="M113.892 43.3609C113.892 43.3609 114.125 26.6406 99.8296 26.6406C85.5341 26.6406 85.767 43.3609 85.767 43.3609C85.767 43.3609 82.9265 43.4074 83.1128 47.7389C83.299 52.1168 87.3502 52.21 87.3502 52.21C89.6784 62.4098 93.8693 65.344 99.8296 65.344C105.79 65.344 109.981 62.4098 112.309 52.21C112.309 52.21 116.407 52.1168 116.593 47.7389C116.733 43.3609 113.892 43.3609 113.892 43.3609Z" fill="#FCFFF8"/>
    <path d="M99.8297 66.2756C92.7984 66.2756 88.8404 62.3167 86.6053 53.0484C84.8358 52.7224 82.3213 51.3717 82.1816 47.7855C82.0885 45.9225 82.5076 44.4787 83.4389 43.5007C83.9045 42.9883 84.4168 42.7089 84.8824 42.5692C84.9755 40.3336 85.6274 33.8598 89.8649 29.5749C92.3794 27.0133 95.732 25.7092 99.8297 25.7092C103.927 25.7092 107.28 27.0133 109.795 29.5749C114.032 33.8598 114.684 40.3336 114.777 42.5692C115.196 42.7089 115.755 42.9883 116.221 43.5007C117.152 44.4787 117.571 45.876 117.478 47.7855C117.338 51.4183 114.824 52.769 113.054 53.0484C110.866 62.3167 106.861 66.2756 99.8297 66.2756ZM99.8297 27.5722C96.2442 27.5722 93.3572 28.69 91.1687 30.879C86.6519 35.4433 86.6984 43.2212 86.6984 43.3144C86.6984 43.5472 86.6053 43.7801 86.419 43.9664C86.2328 44.1527 85.9999 44.2459 85.7671 44.2459C85.5809 44.2459 83.9045 44.4322 83.9977 47.6924C84.1374 51.0457 87.0244 51.232 87.3503 51.2786C87.7694 51.2786 88.142 51.6046 88.2351 52.0238C90.703 62.9222 95.2198 64.4126 99.7832 64.4126C104.347 64.4126 108.863 62.9222 111.331 52.0238C111.424 51.6046 111.797 51.3252 112.216 51.2786C112.542 51.2786 115.429 51.0923 115.569 47.6924C115.708 44.4322 113.985 44.2924 113.799 44.2459C113.287 44.1993 112.868 43.8267 112.914 43.3144C112.914 43.2212 112.961 35.4433 108.444 30.879C106.349 28.69 103.415 27.5722 99.8297 27.5722Z" class="fill_black"/>
    <path d="M98.4795 249.546L101.506 262.54H128.048C128.048 262.54 127.815 251.642 116.128 249.36L112.216 244.143L98.4795 249.546Z" class="fill_black"/>
    <path d="M128.095 263.472H101.553C101.134 263.472 100.761 263.192 100.668 262.773L97.6415 249.779C97.5483 249.313 97.7812 248.847 98.2003 248.708L111.983 243.258C112.356 243.119 112.822 243.212 113.054 243.584L116.78 248.521C128.747 251.083 129.073 262.447 129.073 262.54C129.073 262.773 128.98 263.053 128.793 263.192C128.561 263.379 128.328 263.472 128.095 263.472ZM102.251 261.609H127.07C126.698 259.001 124.929 252.014 115.988 250.245C115.755 250.198 115.569 250.058 115.429 249.872L111.937 245.215L99.5972 250.105L102.251 261.609Z" class="fill_black"/>
    <path d="M72.4031 149.131C91.4947 146.849 105.185 220.297 106.628 225.327C108.072 230.357 115.476 229.146 113.799 235.341C112.123 241.535 116.034 242.187 116.128 245.168L95.7787 253.691C95.8252 253.644 39.0161 153.137 72.4031 149.131Z" class="fill_white"/>
    <path d="M95.8253 254.576C95.4993 254.576 95.1733 254.39 95.0336 254.11C93.2642 250.943 51.5886 176.843 62.9039 154.534C64.7665 150.855 67.9329 148.759 72.31 148.247C90.0512 146.151 102.484 202.366 106.582 220.856C107.047 222.999 107.373 224.535 107.56 225.094C108.072 226.911 109.562 227.749 111.145 228.681C113.241 229.892 115.895 231.429 114.731 235.62C113.799 239.113 114.777 240.557 115.755 241.954C116.407 242.886 117.059 243.817 117.105 245.168C117.105 245.541 116.873 245.913 116.547 246.053L96.1978 254.576C96.1046 254.529 95.9649 254.576 95.8253 254.576ZM72.5428 150.063C68.7711 150.529 66.1634 152.252 64.5802 155.372C54.2894 175.679 91.9138 244.609 96.2443 252.48L115.15 244.562C115.01 244.05 114.637 243.538 114.265 242.979C113.147 241.395 111.797 239.439 112.961 235.108C113.706 232.313 112.309 231.522 110.214 230.311C108.491 229.286 106.489 228.168 105.744 225.607C105.557 225.001 105.231 223.511 104.766 221.275C102.996 213.264 98.852 194.495 93.1245 178.427C86.2329 159.098 79.1085 149.271 72.5428 150.063Z" class="fill_black"/>
    <path d="M110.866 153.835C110.866 153.835 98.0604 158.446 98.2932 160.076C98.4794 161.66 106.442 179.219 109.003 179.125C111.564 179.032 115.429 168.274 115.429 168.274L110.866 153.835Z" class="fill_black"/>
    <path d="M106.861 156.257C106.861 156.257 110.074 170.276 111.425 170.695C112.729 171.114 119.108 175.306 121.716 171.114C124.323 166.923 127.676 167.435 134.754 166.271C141.832 165.106 176.895 152.717 174.427 134.46C171.959 116.25 106.861 156.257 106.861 156.257Z" class="fill_white"/>
    <path d="M118.269 173.862C115.941 173.862 113.473 172.651 112.076 171.999C111.704 171.813 111.285 171.627 111.145 171.58C110.633 171.44 109.282 171.021 105.976 156.49C105.883 156.117 106.069 155.698 106.395 155.465C108.537 154.161 158.827 123.376 172.052 129.617C173.961 130.502 175.078 132.085 175.358 134.321C176.429 142.425 170.655 150.435 158.641 157.561C149.142 163.15 138.478 166.597 134.893 167.156C133.496 167.388 132.239 167.528 131.121 167.715C126.604 168.32 124.369 168.599 122.507 171.58C121.436 173.303 119.852 173.862 118.269 173.862ZM111.843 169.857C112.123 169.95 112.449 170.136 112.914 170.323C116.174 171.906 119.433 173.024 120.923 170.602C123.252 166.876 126.139 166.504 130.888 165.852C132.006 165.712 133.263 165.526 134.614 165.339C141.785 164.175 175.87 152.019 173.495 134.6C173.262 133.017 172.517 131.945 171.214 131.34C167.721 129.663 158.595 130.175 134.846 141.912C122.181 148.2 110.586 155.093 107.932 156.723C109.282 162.452 111.052 168.879 111.843 169.857Z" class="fill_black"/>
    <path d="M36.0357 150.622C35.896 150.622 35.7098 150.529 35.6632 150.389C30.122 139.584 22.4388 139.118 22.3922 139.118C22.1594 139.118 21.9731 138.885 21.9731 138.652C21.9731 138.419 22.1594 138.233 22.4388 138.233C22.7647 138.233 30.6808 138.699 36.4548 149.97C36.548 150.156 36.4548 150.435 36.2686 150.529C36.1754 150.622 36.1289 150.622 36.0357 150.622Z" fill="#FCFFF8"/>
    <path d="M8.46962 124.354C9.40092 122.677 8.00399 120.442 8.84216 118.672C9.49407 117.321 11.1238 116.809 12.6139 116.483C14.4765 116.064 16.5254 115.645 18.2017 116.623C19.4124 117.321 20.1574 118.579 20.7162 119.836C23.6498 126.45 22.5788 140.003 18.9933 140.515C17.7826 140.702 18.0154 138.233 18.0154 136.976C16.0597 137.488 14.7559 139.258 13.3589 140.748C11.962 142.192 9.26124 143.729 7.35208 143.03C6.6536 142.751 5.67575 141.819 5.11697 141.307C3.81315 140.096 3.62689 139.723 2.32307 138.513C1.99712 138.233 1.62457 137.395 1.48488 136.976C1.34518 136.603 1.48488 136.184 1.57801 135.811C1.95053 134.135 7.72458 125.798 8.46962 124.354Z" class="fill_white"/>
    <path d="M8.37663 144.148C7.91098 144.148 7.44534 144.055 6.97969 143.915C6.28122 143.636 5.48961 142.937 4.65145 142.192L4.41862 142.006C3.72015 141.4 3.34761 140.981 2.9751 140.562C2.60258 140.143 2.27664 139.77 1.62473 139.211C1.11252 138.745 0.646848 137.628 0.553719 137.255C0.367459 136.65 0.507171 136.044 0.6003 135.578C0.879689 134.367 2.9751 131.154 5.6293 127.009C6.56059 125.565 7.39875 124.307 7.63158 123.888C7.95753 123.283 7.86441 122.491 7.72471 121.559C7.58502 120.535 7.44532 119.37 7.95754 118.253C8.84227 116.343 11.124 115.831 12.3346 115.551C14.011 115.179 16.5255 114.62 18.5743 115.784C20.111 116.669 20.9491 118.299 21.4613 119.417C24.069 125.285 23.6033 135.485 21.4148 139.397C20.7629 140.562 19.9247 141.26 18.9934 141.4C18.5278 141.493 18.0621 141.354 17.7362 141.028C17.0842 140.469 16.9911 139.444 16.9445 138.373C16.1064 138.885 15.4079 139.723 14.6629 140.562C14.4301 140.841 14.1972 141.074 13.9178 141.354C12.8468 142.564 10.5186 144.148 8.37663 144.148ZM9.30793 124.773C9.02854 125.285 8.23694 126.496 7.21251 128.033C5.62931 130.502 2.64914 135.019 2.41631 135.998C2.36975 136.23 2.27664 136.556 2.3232 136.696C2.41633 137.022 2.74227 137.674 2.88196 137.814C3.58043 138.466 3.95296 138.885 4.37204 139.258C4.74456 139.63 5.07052 140.003 5.72243 140.608L5.95526 140.795C6.4209 141.214 7.25908 141.959 7.67816 142.145C9.02854 142.658 11.3568 141.493 12.6606 140.096C12.8934 139.863 13.1262 139.584 13.359 139.351C14.5232 138.047 15.8736 136.603 17.7362 136.091C18.0155 135.998 18.2949 136.091 18.5278 136.23C18.7606 136.417 18.9003 136.65 18.9003 136.976C18.9003 137.162 18.9003 137.395 18.9003 137.674C18.9003 138.14 18.8537 139.118 18.9934 139.537C19.2728 139.397 19.5987 139.071 19.8781 138.559C21.7873 135.113 22.1598 125.379 19.8316 120.209C19.4125 119.324 18.7606 118.02 17.7362 117.414C16.4323 116.669 14.6629 116.949 12.8468 117.368C11.5896 117.647 10.1926 118.066 9.727 119.044C9.44761 119.65 9.54075 120.488 9.68044 121.327C9.77357 122.398 9.91327 123.655 9.30793 124.773Z" class="fill_black"/>
    <path d="M82.6941 33.5336C83.8116 29.6213 85.9071 25.7557 88.2353 22.216C93.3575 14.4381 99.6903 7.96423 106.07 4.0054C107.793 2.93419 109.515 2.04928 111.192 1.53696C113.008 0.978063 117.292 0 119.015 0C126.279 0 127.862 0.83834 131.215 3.26021C128.607 2.51502 123.811 4.05198 120.551 5.35606C117.059 6.75329 113.427 8.1971 109.935 11.271C112.822 10.2464 114.591 9.17517 116.966 8.61627C119.015 8.15053 121.715 7.63821 123.671 7.45191C126.884 7.12589 129.725 7.96423 132.379 9.08202C130.889 9.03544 128.886 10.0601 127.164 10.8518C125.674 11.5039 124.137 12.482 122.6 13.46C120.505 14.7641 118.409 16.1148 116.361 17.4654C118.875 16.4408 121.529 15.1833 123.764 14.4847C128.328 13.0408 130.609 12.9011 136.151 13.6463C131.215 15.7887 124.23 17.3257 118.27 22.4489C125.115 18.9558 129.026 18.8626 133.59 19.7941C128.7 21.2845 124.696 23.3804 119.667 27.4789C125.674 25.8022 132.658 22.9146 137.734 24.2187C134.055 25.5228 126.372 30.5994 122.693 33.813C118.828 37.1664 114.777 42.0102 113.567 41.8239C112.402 41.6376 113.008 37.1198 111.89 36.8404C107.048 35.5363 103.276 31.7638 97.8742 31.9035C94.6613 31.9501 90.9826 33.487 87.4437 36.1883C85.8139 37.4459 83.8116 39.0294 82.7872 38.0979C81.949 37.3527 82.1819 35.3034 82.6941 33.5336Z" class="fill_black"/>
    <path d="M103.462 43.78C103.136 42.5691 105.045 41.1253 106.023 40.7527C107.932 40.0075 107.513 43.1746 107.42 44.1526C107.28 45.7827 109.795 46.1088 109.934 44.4787C110.167 41.5445 109.748 37.6788 105.837 38.1911C103.509 38.5171 100.249 41.591 100.901 44.1526C101.32 45.643 103.881 45.3636 103.462 43.78Z" class="fill_black"/>
    <path d="M91.6808 44.106C91.3548 42.895 93.264 41.4512 94.2419 41.0786C96.151 40.3334 95.7319 43.5005 95.6388 44.4786C95.4991 46.1087 98.0136 46.4347 98.1533 44.8046C98.3862 41.8704 97.9671 38.0047 94.0556 38.517C91.7274 38.8431 88.4678 41.917 89.1197 44.4786C89.5853 46.0155 92.0999 45.6895 91.6808 44.106Z" class="fill_black"/>
    <path fill-rule="evenodd" clip-rule="evenodd" d="M74.3125 20.1203L85.4881 36.7474H118.596L126.232 16.6738L114.451 24.312L109.981 12.1561L102.531 24.7312L94.3819 11.8301L88.5148 26.827L74.8247 20.9121" class="fill_white"/>
    <path d="M118.596 37.8651H85.488C85.1155 37.8651 84.7895 37.6788 84.6032 37.3993L73.9864 21.6572C73.9399 21.6106 73.8933 21.564 73.8933 21.4709L73.4276 20.7722C73.1017 20.2599 73.2414 19.6079 73.707 19.2819C74.2193 18.9558 74.8712 19.0956 75.1971 19.5613L75.5696 20.0736L87.9094 25.3831L93.3575 11.4574C93.4972 11.0848 93.8697 10.8053 94.2422 10.7587C94.6613 10.7122 95.0338 10.8985 95.2666 11.2711L102.484 22.6818L109.05 11.6437C109.283 11.2711 109.655 11.0848 110.074 11.1313C110.493 11.1779 110.866 11.4574 111.006 11.83L115.01 22.6818L125.627 15.7888C125.999 15.5559 126.512 15.5559 126.884 15.8354C127.257 16.1148 127.396 16.6271 127.21 17.0463L119.62 37.1199C119.48 37.5856 119.061 37.8651 118.596 37.8651ZM86.0933 35.6761H117.851L124.044 19.375L115.057 25.1968C114.777 25.3831 114.451 25.4297 114.125 25.3365C113.799 25.2434 113.567 25.0105 113.473 24.6845L109.748 14.671L103.462 25.2434C103.276 25.5694 102.903 25.7557 102.531 25.7557C102.158 25.7557 101.832 25.5694 101.599 25.2434L94.6147 14.2053L89.5391 27.1995C89.446 27.479 89.2132 27.7118 88.9338 27.805C88.6544 27.8981 88.375 27.8981 88.0956 27.805L77.8048 23.3804L86.0933 35.6761Z" class="fill_black"/>
</svg>
