<svg width="178" height="191" viewBox="0 0 178 191" fill="none" xmlns="http://www.w3.org/2000/svg">
    <path fill-rule="evenodd" clip-rule="evenodd" d="M89.0028 127.978C88.7153 127.87 68.7395 127.547 57.7097 127.295C45.3865 127.008 12.4048 129.272 5.97369 145.191C-18.0979 204.735 37.0512 180.659 56.8115 173.112C77.2544 165.278 72.8353 172.573 80.6675 164.775C88.5357 157.013 91.5896 159.134 96.7991 154.678C101.254 150.833 106.068 139.226 102.943 135.273C99.8889 131.32 92.8111 129.343 89.0028 127.978Z" class="secondary_color"/>
    <path fill-rule="evenodd" clip-rule="evenodd" d="M104.2 115.868C104.308 115.688 107.865 101.17 109.877 93.2285C112.104 84.3166 125.254 76.6624 107.074 60.815C92.8829 48.4533 96.9787 48.9205 72.6556 50.5016C58.4282 51.4359 74.4879 96.7142 78.8352 103.722C83.1824 110.729 81.1345 112.597 83.5058 117.125C85.5537 121.006 93.2063 126.433 96.5835 124.815C99.9607 123.198 102.583 118.383 104.2 115.868Z" class="secondary_color"/>
    <path d="M160.463 190.002C157.301 190.002 154.175 189.463 151.409 188.924C140.379 186.768 129.421 183.57 118.823 180.443C115.266 179.401 111.924 178.215 110.128 175.269C109.625 174.478 109.409 173.616 109.23 172.861C108.871 171.424 108.655 170.92 107.793 170.813C105.35 170.525 102.978 169.878 100.715 168.944L100.392 168.8C99.8527 168.585 99.3856 168.369 98.8826 168.225C98.2718 168.082 97.6251 168.046 96.9425 168.01H96.5473C94.2479 167.902 91.9845 167.507 89.8288 166.86C89.4336 167.004 88.4995 167.363 87.3498 167.794C80.6672 170.345 62.9908 177.173 51.2783 180.048C41.973 182.348 39.6018 181.988 34.7515 180.91C30.548 179.976 28.4642 178.431 27.4582 177.712C26.057 176.67 24.4403 174.658 23.7217 172.969C22.7516 170.705 22.6079 168.728 22.5361 166.393C22.4283 163.518 23.578 160.823 24.7277 158.559C29.1468 149.719 37.1587 143.933 44.8832 138.291C46.5718 137.07 48.2963 135.812 49.9849 134.518C53.434 131.895 57.2423 129.882 61.3021 128.517C61.3021 128.517 61.3381 128.517 61.374 128.481V128.445C61.2303 126.54 61.5177 124.564 62.2363 122.731C62.3441 122.516 62.5237 122.336 62.7752 122.3C75.0266 119.928 87.4216 118.994 96.8347 118.419L115.984 117.305C119.038 117.125 122.451 116.91 125.541 118.239C125.685 118.311 125.793 118.383 125.864 118.527C129.637 124.348 135.062 129.02 141.17 131.679C142.571 132.29 144.08 132.829 145.517 133.368C146.343 133.656 147.205 133.979 148.032 134.303C157.193 137.824 164.738 143.214 169.948 149.898C175.84 157.517 178.57 166.896 177.385 175.556C176.882 179.365 175.624 182.42 173.72 184.684C171.313 187.487 167.541 189.283 163.121 189.751C162.151 189.93 161.289 190.002 160.463 190.002ZM107.936 169.411C109.841 169.627 110.236 171.172 110.595 172.538C110.775 173.22 110.954 173.939 111.314 174.55C112.859 177.029 115.912 178.108 119.218 179.078C129.78 182.168 140.703 185.402 151.661 187.523C155.074 188.169 159.026 188.852 162.87 188.457C166.93 188.026 170.379 186.409 172.535 183.893C174.259 181.881 175.373 179.042 175.876 175.52C176.99 167.219 174.403 158.271 168.726 150.941C163.696 144.472 156.331 139.226 147.457 135.776C146.631 135.452 145.768 135.165 144.978 134.842C143.505 134.303 141.996 133.763 140.559 133.117C134.271 130.35 128.667 125.57 124.751 119.605C122.02 118.491 118.823 118.671 116.02 118.85L96.8707 119.964C87.6013 120.503 75.4577 121.438 63.4219 123.738C62.883 125.247 62.6674 126.864 62.7752 128.445V128.481C62.7752 128.661 62.8111 128.984 62.6315 129.272C62.38 129.703 61.9488 129.847 61.7333 129.918C57.7812 131.248 54.1166 133.189 50.8112 135.704C49.1226 136.998 47.3622 138.255 45.7095 139.477C37.7695 145.263 30.2606 150.725 25.9851 159.241C24.9432 161.326 23.8654 163.805 23.9732 166.357C24.0451 168.549 24.1528 170.345 25.051 172.394C25.6618 173.831 27.0989 175.664 28.3205 176.526C29.2546 177.209 31.1947 178.611 35.1108 179.473C39.5658 180.479 41.6137 180.91 50.9549 178.611C62.5596 175.736 80.2002 168.944 86.8468 166.393C89.7929 165.279 89.7929 165.279 90.0444 165.35C92.2 165.997 94.3916 166.393 96.6551 166.5H97.0503C97.7688 166.536 98.5233 166.572 99.2778 166.752C99.8886 166.896 100.463 167.147 101.038 167.399L101.362 167.543C103.41 168.513 105.637 169.124 107.936 169.411Z" class="fill_black"/>
    <path d="M113.542 135.237C112.895 135.237 112.787 135.057 112.679 134.769C112.428 134.194 112.212 133.548 112.033 132.793C110.38 132.937 108.512 132.829 106.859 132.721C105.637 132.649 104.488 132.577 103.626 132.613L92.3801 133.224C92.3083 133.548 92.1646 133.835 91.7334 133.907C90.1167 134.087 87.6018 134.159 85.1587 134.194C82.7515 134.23 80.2725 134.302 78.7276 134.482C78.548 134.518 78.3324 134.446 78.1887 134.302C78.045 134.159 77.9372 133.979 77.9372 133.799C77.7216 129.99 77.506 126.109 77.3264 122.336C76.8593 112.49 76.3923 102.284 74.9552 92.4738C74.2366 87.3351 73.4462 82.0526 71.8295 77.0576C70.8235 73.9672 66.7996 71.3799 63.2427 69.08C61.2667 67.8223 59.4344 66.6364 58.0691 65.3787C57.9254 65.235 57.8176 65.0193 57.8176 64.8397C57.8176 64.6241 57.9254 64.4444 58.0691 64.3006C59.147 63.4023 62.5242 61.7133 65.2547 60.3478C66.2607 59.8447 67.1229 59.4135 67.59 59.1619C71.9013 56.7902 75.9612 55.4247 79.7695 54.2748C83.8293 52.2624 88.3203 51.1125 92.8472 50.9328C93.2783 50.9328 94.2484 50.7891 94.5358 50.6813C94.7155 50.6094 94.931 50.6094 95.1107 50.7172C95.2903 50.825 95.434 50.9687 95.4699 51.1843C95.8651 52.8014 97.0508 54.2388 98.6316 55.1013C100.105 55.8918 101.937 56.1434 103.805 55.8559C104.991 55.6762 106.32 55.0653 106.572 53.9873C106.643 53.6998 106.643 53.3764 106.643 53.0171C106.643 52.514 106.643 51.939 106.823 51.4C106.895 51.1484 107.111 51.0047 107.362 50.9328L107.398 50.8969C107.506 50.7891 107.614 50.7172 107.757 50.6813C108.152 50.5375 108.332 50.4297 108.512 50.3578C109.158 50.0344 109.41 50.0344 110.416 50.3219C112.679 50.8969 114.727 52.0468 116.452 53.0889C118.823 53.6279 121.338 54.4904 123.242 55.4247L123.961 55.784C127.625 57.5449 130.5 58.9104 133.589 62.5399C133.733 62.7195 133.805 62.9351 133.733 63.1507C132.763 67.2473 131.577 71.2002 130.428 75.0093C128.021 83.0588 125.721 90.677 125.577 99.2655C125.398 109.83 125.218 120.755 128.559 131.032C128.631 131.212 128.595 131.427 128.523 131.571C128.452 131.715 128.272 131.859 128.092 131.931C125.865 132.577 122.272 133.512 119.074 134.23C115.877 134.949 114.296 135.237 113.542 135.237ZM112.607 131.284C112.967 131.284 113.254 131.535 113.326 131.895C113.47 132.649 113.613 133.26 113.829 133.799C115.554 133.655 122.667 132.002 127.05 130.745C123.889 120.431 124.068 109.184 124.248 99.2296C124.392 90.4614 126.691 82.7354 129.17 74.5781C130.284 70.8768 131.434 67.0677 132.368 63.1507C129.565 59.9525 126.871 58.6589 123.458 57.0058L122.739 56.6465C120.907 55.7481 118.428 54.9216 116.128 54.4185C116.057 54.4185 115.985 54.3826 115.913 54.3466C114.224 53.3404 112.248 52.2265 110.128 51.6515C109.949 51.6156 109.518 51.4718 109.41 51.5077C109.41 51.5077 109.302 51.5437 109.266 51.5796C109.087 51.6875 108.835 51.7952 108.404 51.9749C108.368 51.9749 108.368 52.0108 108.332 52.0108C108.296 52.0468 108.224 52.0827 108.188 52.1187C108.152 52.3702 108.152 52.6577 108.152 52.9452C108.152 53.3404 108.152 53.8076 108.045 54.2748C107.685 55.7841 106.212 56.898 104.093 57.2214C101.937 57.5808 99.7813 57.2574 98.0208 56.3231C96.2963 55.4247 94.9669 53.9154 94.3202 52.1905C93.7813 52.2983 93.2065 52.3343 92.9191 52.3343C88.6077 52.514 84.2605 53.592 80.3803 55.5325C80.3443 55.5325 80.3084 55.5684 80.2725 55.5684C76.536 56.7184 72.5121 58.048 68.3085 60.3837C67.8415 60.6353 66.9433 61.1024 65.9373 61.6055C63.9972 62.5758 61.1948 63.9773 59.7577 64.8756C60.9433 65.8459 62.4523 66.8161 64.0691 67.8582C68.0211 70.4096 72.081 73.0329 73.2306 76.5905C74.9192 81.6933 75.6737 87.0835 76.4282 92.2582C77.8294 102.14 78.3324 112.346 78.7994 122.264C78.9791 125.786 79.1228 129.415 79.3384 132.973C80.9192 132.829 83.0749 132.793 85.1587 132.757C87.2784 132.721 89.4341 132.649 90.979 132.541C90.979 132.182 91.2664 131.859 91.6616 131.823L103.554 131.176C104.488 131.14 105.673 131.212 106.931 131.284C108.763 131.392 110.811 131.535 112.5 131.32C112.536 131.284 112.572 131.284 112.607 131.284Z" class="fill_black"/>
    <path d="M94.1404 96.8219C94.1404 95.4923 93.9967 94.1627 93.6734 92.8691C93.4937 92.1144 93.2422 91.3598 93.0626 90.5693C92.5237 88.1257 92.7752 85.6102 93.0626 83.1666C93.5656 82.7354 94.2482 82.5917 94.859 82.7354C94.7871 79.6809 95.1105 76.5546 96.5476 73.8954C96.7991 73.4283 97.1224 72.9611 97.5895 72.7455C98.1643 72.4939 98.8829 72.6736 99.3859 73.0689C99.8889 73.4642 100.248 74.0032 100.536 74.5782C102.907 78.8904 103.589 84.1009 102.368 88.8444C102.512 87.8382 102.835 86.6164 103.841 86.4727C105.098 91.1801 103.733 96.4626 100.392 99.9842C100.248 100.128 100.104 100.272 99.8889 100.308C99.6733 100.344 99.4577 100.2 99.2422 100.092C97.4817 99.0499 95.865 97.9359 94.1404 96.8219Z" class="fill_white"/>
    <path d="M99.817 101.026C99.4218 101.026 99.0984 100.847 98.8829 100.703C97.8769 100.092 96.9428 99.4813 96.0086 98.8704C95.2901 98.4032 94.5356 97.9001 93.7811 97.433C93.5656 97.2892 93.4578 97.0736 93.4578 96.822C93.4578 95.5643 93.3141 94.3066 92.9907 93.0489C92.9189 92.7254 92.8111 92.402 92.7392 92.0786C92.6314 91.6474 92.4877 91.2162 92.38 90.7491C91.841 88.1977 92.0925 85.6103 92.344 83.0949C92.38 82.9152 92.4518 82.7355 92.5955 82.6277C93.0266 82.2683 93.5656 82.0527 94.1404 81.9809C94.1404 78.4952 94.7153 75.8 95.9368 73.5361C96.2242 73.033 96.6194 72.3862 97.338 72.0987C98.1284 71.7394 99.0984 71.919 99.8529 72.494C100.464 72.9612 100.895 73.6439 101.218 74.2189C103.158 77.7046 103.985 81.7653 103.661 85.7541C103.697 85.7541 103.769 85.7181 103.805 85.7181C104.164 85.6463 104.524 85.8978 104.595 86.2572C105.925 91.1803 104.524 96.7502 100.967 100.452C100.787 100.631 100.5 100.919 100.068 100.991C99.9248 101.026 99.8529 101.026 99.817 101.026ZM94.859 96.4268C95.5057 96.858 96.1524 97.2533 96.7991 97.6845C97.7332 98.2954 98.6673 98.9063 99.6373 99.4813C99.6733 99.5172 99.7451 99.5532 99.7811 99.5532C99.817 99.5172 99.8529 99.4813 99.8888 99.4453C102.835 96.3908 104.164 91.899 103.41 87.6946C103.374 87.7664 103.338 87.8383 103.338 87.9102C103.266 88.2695 103.194 88.6289 103.086 88.9882C102.979 89.3476 102.619 89.5991 102.26 89.5272C101.901 89.4554 101.649 89.096 101.685 88.7366C101.757 88.2695 101.829 87.8742 101.937 87.5508C102.727 83.2745 102.045 78.7108 99.9248 74.9016C99.6733 74.4345 99.3859 73.9314 98.9547 73.6439C98.6673 73.4283 98.2362 73.2846 97.8769 73.4283C97.5895 73.572 97.338 73.9314 97.1583 74.2548C95.9727 76.4469 95.4697 79.142 95.5775 82.7355C95.5775 82.9511 95.4697 83.1667 95.326 83.3105C95.1464 83.4542 94.9308 83.4901 94.7153 83.4542C94.3919 83.3823 94.0326 83.4542 93.7452 83.598C93.5296 85.8978 93.3141 88.2336 93.7811 90.4616C93.8889 90.8568 93.9967 91.2881 94.1045 91.7193C94.2123 92.0427 94.2841 92.4021 94.3919 92.7255C94.6434 93.9473 94.823 95.205 94.859 96.4268Z" class="fill_black"/>
    <path d="M113.003 100.2C112.715 99.7329 112.823 99.158 112.967 98.6549C114.116 94.1989 116.021 89.8866 116.559 85.3229C115.985 84.9994 115.266 84.9276 114.619 85.1072C113.398 81.4059 113.074 76.1594 110.128 73.608C109.661 73.2127 108.548 72.6018 107.398 72.6018C105.745 72.6018 104.164 75.0813 104.272 76.7344C104.56 80.3638 104.344 83.8854 104.811 87.479C104.596 86.9399 104.093 86.5447 103.554 86.4009C103.374 88.8445 103.158 91.3241 103.41 93.8036C103.661 96.2472 104.344 98.7267 105.745 100.739C106.176 101.35 106.715 101.925 107.398 102.069C107.829 102.177 108.26 102.105 108.691 102.069C110.524 101.817 112.14 101.745 113.003 100.2Z" class="fill_white"/>
    <path d="M107.973 102.859C107.757 102.859 107.506 102.823 107.29 102.787C106.284 102.536 105.637 101.745 105.206 101.17C103.841 99.2297 103.015 96.7861 102.727 93.8753C102.476 91.3958 102.691 88.9163 102.871 86.4727V86.3649C102.871 86.1492 102.979 85.9696 103.158 85.8258C103.338 85.718 103.554 85.6462 103.769 85.7181C103.841 85.7181 103.877 85.754 103.949 85.7899C103.841 84.2447 103.805 82.6995 103.769 81.2262C103.733 79.7888 103.697 78.2795 103.59 76.8061C103.482 75.6203 104.093 74.1469 105.027 73.1048C105.745 72.3142 106.572 71.9189 107.398 71.9189C108.763 71.9189 110.057 72.6376 110.595 73.1048C112.895 75.0812 113.649 78.3872 114.404 81.5495C114.619 82.5198 114.835 83.4541 115.122 84.3166C115.733 84.2806 116.344 84.4244 116.919 84.7118C117.17 84.8556 117.314 85.1431 117.278 85.4306C116.919 88.4491 115.985 91.3239 115.086 94.1268C114.583 95.6721 114.08 97.2532 113.685 98.8344C113.577 99.1937 113.506 99.6249 113.649 99.8405C113.793 100.056 113.793 100.344 113.649 100.559C112.679 102.284 110.955 102.5 109.302 102.715L108.871 102.787C108.584 102.823 108.296 102.859 107.973 102.859ZM104.2 87.8023C104.057 89.7787 103.949 91.7911 104.164 93.7316C104.416 96.3908 105.17 98.5828 106.392 100.308C106.859 100.955 107.254 101.278 107.649 101.386C107.937 101.458 108.332 101.422 108.691 101.35L109.158 101.278C110.667 101.098 111.637 100.919 112.248 100.128C112.069 99.4812 112.248 98.8344 112.32 98.475C112.751 96.8579 113.254 95.2409 113.757 93.6597C114.583 91.1083 115.446 88.4491 115.805 85.754C115.482 85.6821 115.158 85.6821 114.835 85.754C114.476 85.8618 114.08 85.6462 113.973 85.2868C113.613 84.2087 113.326 83.0588 113.039 81.8011C112.356 78.8544 111.637 75.7999 109.697 74.111C109.374 73.8235 108.404 73.2845 107.434 73.2845C107.039 73.2845 106.572 73.536 106.104 74.0391C105.422 74.7938 104.955 75.8718 105.027 76.6624C105.134 78.1716 105.17 79.6809 105.206 81.1543C105.242 83.2026 105.314 85.3228 105.566 87.3711C105.601 87.7304 105.386 88.0538 105.063 88.1616C104.703 88.3054 104.344 88.1257 104.2 87.8023Z" class="fill_black"/>
    <path d="M108.296 52.7295C108.476 51.6874 108.368 50.1063 108.404 49.0641C108.512 45.1832 109.518 43.8176 109.554 42.1287C106.679 42.7755 101.039 44.8957 98.1285 44.4285C96.7632 44.2129 95.398 43.9613 94.0327 43.7457C94.5357 45.3988 95.398 47.3393 95.4698 51.0765C95.4698 51.3999 95.398 55.7121 99.9249 57.0776C102.26 57.7604 104.703 56.4668 106.643 54.9934C107.398 54.3825 108.188 53.6997 108.296 52.7295Z" class="fill_white"/>
    <path d="M101.254 57.9763C100.715 57.9763 100.212 57.9044 99.7091 57.7607C95.1822 56.3951 94.787 52.3344 94.7511 51.1486C94.7152 48.0941 94.1044 46.2614 93.6014 44.824C93.4936 44.5365 93.4218 44.249 93.314 43.9975C93.2421 43.7459 93.2781 43.4944 93.4577 43.3147C93.6374 43.135 93.8529 43.0272 94.1044 43.0632C95.4697 43.2788 96.8349 43.5303 98.2002 43.7459C100.176 44.0693 103.697 43.0632 106.535 42.2367C107.577 41.9132 108.583 41.6257 109.374 41.4461C109.589 41.4101 109.805 41.4461 109.984 41.5898C110.164 41.7336 110.236 41.9492 110.236 42.1648C110.2 42.9194 110.02 43.6022 109.805 44.3568C109.517 45.4708 109.122 46.8364 109.05 49.1003C109.05 49.3878 109.05 49.7471 109.05 50.1424C109.05 51.0408 109.05 52.0829 108.943 52.8735C108.763 54.0594 107.865 54.8859 107.002 55.5686C104.955 57.1498 103.014 57.9763 101.254 57.9763ZM95.0745 44.6443C95.5774 46.1177 96.1164 48.0222 96.1882 51.0408V51.0767C96.1882 52.2985 96.6194 55.3171 100.104 56.3592C101.793 56.8623 103.805 56.1795 106.176 54.3828C106.859 53.8797 107.47 53.3047 107.577 52.6219C107.685 51.9751 107.685 50.9689 107.685 50.1065C107.685 49.7112 107.685 49.3518 107.685 49.0284C107.757 46.5848 108.152 45.1115 108.476 43.9615C108.547 43.6381 108.655 43.3506 108.691 43.0991C108.152 43.2428 107.577 43.4225 106.931 43.6022C103.949 44.4646 100.284 45.5427 97.9846 45.1474C97.0505 44.9677 96.0804 44.824 95.0745 44.6443Z" class="fill_black"/>
    <path d="M103.446 48.8845C107.11 48.3455 110.308 45.9378 112.571 42.9912C114.835 40.0445 116.272 36.5588 117.601 33.109C119.865 27.1797 121.948 20.9629 121.374 14.6383C121.194 12.6259 120.727 10.6135 119.721 8.88866C118.284 6.40913 116.344 3.4265 113.577 2.63593C110.092 1.62974 106.428 0.982929 102.835 1.30635C99.2062 1.62976 95.6134 2.95935 92.9907 5.47482C89.9728 8.3137 88.4638 12.3744 87.0626 16.2913C85.7692 19.8489 86.9908 23.7299 87.889 27.4312C89.5057 34.223 91.5895 41.6615 95.0027 44.8598C97.4458 47.1237 100.104 49.3876 103.446 48.8845Z" class="fill_white"/>
    <path d="M102.476 49.6751C99.4221 49.6751 96.943 47.6268 94.5 45.3629C91.0509 42.1287 88.9311 34.9058 87.1707 27.575C87.0629 27.1797 86.991 26.7844 86.8833 26.3891C86.021 22.9753 85.1587 19.4177 86.3803 16.0398C87.7455 12.2666 89.2904 7.95438 92.488 4.93582C95.0748 2.49223 98.7035 0.947022 102.763 0.58767C106.069 0.300188 109.661 0.731393 113.793 1.91725C116.703 2.7797 118.751 5.7264 120.332 8.49341C121.266 10.1464 121.841 12.1228 122.092 14.5305C122.703 21.1426 120.44 27.7187 118.284 33.3246C116.955 36.7385 115.482 40.3679 113.146 43.3865C110.488 46.8363 107.111 49.0283 103.554 49.5673C103.194 49.6392 102.835 49.6751 102.476 49.6751ZM104.775 1.91725C104.129 1.91725 103.482 1.95322 102.871 1.98915C99.1346 2.31257 95.7934 3.71404 93.458 5.94202C90.512 8.74497 89.003 12.8416 87.7096 16.471C86.6318 19.4536 87.4581 22.7956 88.2485 25.9938C88.3563 26.3891 88.4641 26.7844 88.5359 27.1797C90.2605 34.2949 92.2724 41.2663 95.47 44.2489C98.0209 46.6207 100.392 48.5611 103.302 48.1299C106.464 47.6627 109.554 45.6504 111.961 42.4881C114.188 39.6133 115.625 36.0916 116.883 32.7856C119.003 27.3234 121.194 20.9629 120.619 14.6383C120.404 12.4103 119.901 10.6136 119.075 9.17619C117.602 6.66073 115.805 3.96559 113.362 3.24688C110.236 2.38444 107.398 1.91725 104.775 1.91725Z" class="fill_black"/>
    <path d="M92.7032 18.3756C95.4337 17.1538 97.4097 14.7461 99.3139 12.4104C101.47 9.75115 101.721 6.40915 101.757 2.99531C101.757 1.73758 104.955 -0.0591845 102.26 0.120492C101.47 0.156427 97.4815 -0.202908 94.787 0.767343C91.0146 2.09695 89.5774 3.60622 86.811 6.51698C83.5057 10.0027 82.7512 15.0336 82.5715 19.8489C82.5715 20.4239 82.5715 21.0707 83.0027 21.5019C83.7572 22.2925 91.6613 18.8068 92.7032 18.3756Z" class="fill_black"/>
    <path d="M123.529 20.1005C121.445 19.9927 119.326 19.9209 117.242 19.849C114.978 19.7412 111.134 19.0944 107.182 15.8961C105.422 14.4587 97.769 8.09814 96.9426 3.13905C96.8348 2.45628 96.7989 1.6657 97.266 1.16261C97.5175 0.875124 97.9127 0.731383 98.3079 0.623577C101.074 -0.167002 103.984 -0.0592132 106.859 0.156399C111.853 0.515753 117.278 1.4501 120.511 5.25925C123.637 8.99653 123.601 15.1774 123.529 20.1005Z" class="fill_black"/>
    <path d="M101.793 19.8848C101.075 19.7051 100.284 19.9567 99.7814 20.4598C99.2784 20.9988 99.0629 21.7894 99.2425 22.4722C99.3144 22.7237 99.4221 22.9393 99.5659 23.119C99.8174 23.4424 100.213 23.6221 100.644 23.6939C101.326 23.8018 102.045 23.5502 102.548 23.0471C103.015 22.544 103.23 21.7894 103.051 21.1066C102.943 20.7113 102.728 20.3879 102.404 20.1364C102.225 20.0286 102.009 19.9207 101.793 19.8848Z" class="fill_black"/>
    <path d="M100.967 100.451C98.308 105.914 95.5775 111.34 92.7033 116.694C90.5835 120.683 88.356 124.672 85.4099 128.086C83.0028 130.888 80.0208 133.332 76.4639 134.338C74.3082 134.949 72.0089 135.057 69.7813 134.985C66.6916 134.877 63.494 134.518 60.7994 132.901C58.5 131.499 56.7755 129.307 55.2665 127.079C47.9013 116.263 43.7337 103.218 44.2008 90.138C44.3445 86.4007 44.8475 82.5916 46.3564 79.1418C49.7696 71.4157 56.1647 62.5397 64.5718 62.1444C66.0808 62.0726 68.7035 64.085 71.6496 67.2832C72.7993 68.505 72.9789 70.3736 73.2663 72.0266C73.6615 74.2905 73.949 76.6263 73.3382 78.8184C73.3023 78.9981 72.943 79.0699 73.0508 78.9262C67.482 83.8853 65.6856 92.905 68.3083 99.9124C68.5957 100.667 68.9191 101.386 69.3502 102.104C70.7155 104.404 73.0148 106.165 75.6016 106.884C78.1884 107.602 81.0627 107.315 83.4339 106.057C84.9788 105.231 86.3081 104.045 87.5656 102.823C89.6853 100.739 91.6254 98.4749 93.3859 96.0673C94.1404 96.0673 99.8888 100.056 100.967 100.451Z" class="fill_white"/>
    <path d="M71.0032 135.776C70.5721 135.776 70.141 135.776 69.7458 135.74C66.9793 135.668 63.3865 135.344 60.4405 133.548C57.9615 132.038 56.1291 129.667 54.692 127.511C47.0394 116.263 43.0514 103.003 43.4826 90.138C43.6263 85.5383 44.3448 81.9808 45.7101 78.8903C47.4705 74.9375 54.0094 61.9289 64.5722 61.4618C66.2608 61.3899 68.8116 63.1866 72.1888 66.8161C73.3385 68.0738 73.626 69.7987 73.8774 71.344C73.9134 71.5596 73.9493 71.7392 73.9852 71.9548C74.3445 74.1469 74.7038 76.6624 74.0212 79.07C73.9134 79.4653 73.5541 79.7168 73.2307 79.7528C68.2368 84.4243 66.4045 92.905 68.9553 99.6968C69.2428 100.487 69.5661 101.134 69.9254 101.745C71.2188 103.901 73.3385 105.518 75.7457 106.201C78.1529 106.884 80.8115 106.596 83.039 105.41C84.548 104.62 85.8414 103.434 86.9911 102.284C89.039 100.236 90.9791 98.0078 92.7395 95.6361C92.8832 95.4565 93.0629 95.3486 93.2784 95.3486C93.9251 95.3127 95.0389 95.9595 98.3802 98.0438C99.5658 98.7625 100.895 99.6249 101.254 99.7687C101.434 99.8405 101.578 99.9843 101.686 100.164C101.757 100.344 101.757 100.559 101.65 100.739C99.0269 106.129 96.2604 111.627 93.3503 117.018C91.1587 121.114 88.9312 125.067 85.9492 128.553C83.039 131.895 79.9133 134.087 76.6439 135.057C74.7397 135.632 72.7278 135.776 71.0032 135.776ZM64.644 62.9351H64.6081C54.8717 63.4023 48.6921 75.728 47.0035 79.5012C45.7101 82.412 45.0634 85.8258 44.8837 90.2099C44.4526 102.751 48.3328 115.724 55.8417 126.72C57.2788 128.84 58.8956 130.96 61.159 132.326C63.8177 133.943 67.159 134.23 69.7817 134.302C71.7577 134.374 74.0571 134.338 76.2487 133.691C79.2666 132.829 82.1408 130.781 84.8713 127.654C87.7815 124.312 89.9372 120.395 92.0928 116.407C94.8593 111.232 97.5179 105.985 100.033 100.811C99.458 100.487 98.6676 99.9843 97.5898 99.3374C96.3682 98.5828 94.4281 97.361 93.5659 96.9657C91.8413 99.2656 89.9731 101.422 87.9611 103.398C86.7755 104.548 85.3743 105.878 83.6857 106.776C81.1349 108.106 78.1169 108.429 75.3505 107.674C72.5841 106.884 70.141 105.051 68.7039 102.572C68.3086 101.889 67.9494 101.134 67.626 100.272C64.8237 92.8691 66.9434 83.49 72.5841 78.531C72.6559 78.4951 72.6918 78.4591 72.7637 78.4232C73.2308 76.4108 72.9074 74.2188 72.5841 72.3142C72.5481 72.0986 72.5122 71.9189 72.4763 71.7033C72.2607 70.3018 72.0092 68.8644 71.1469 67.9301C66.9434 63.3304 65.147 62.9351 64.644 62.9351Z" class="fill_black"/>
    <path d="M120.511 76.0515C119.936 73.9313 120.152 71.6315 120.727 69.4754C121.625 66.0256 123.421 62.1805 126.619 60.6353C127.194 60.3478 128.631 59.4854 130.535 60.3478C134.164 62.0368 136.284 63.8335 139.337 66.4209C147.242 73.0689 153.349 82.0167 156.116 91.9708C158.882 101.925 158.2 112.957 153.637 122.228C150.727 128.157 146.056 133.512 139.876 135.704C137.469 136.566 134.918 136.926 132.332 137.033C125.793 137.321 118.787 135.812 114.116 131.248C112.931 130.098 111.96 128.804 111.062 127.403C106.428 120.072 107.326 110.406 106.535 101.781C108.404 101.206 110.595 100.2 113.038 99.625C113.505 99.5172 116.38 105.087 117.206 106.596C118.032 108.106 119.11 109.579 120.619 110.406C122.02 111.16 123.673 111.268 125.254 111.196C126.691 111.124 128.2 110.945 129.493 110.262C131.505 109.22 132.835 107.171 133.625 105.051C135.17 100.883 135.026 96.1393 133.338 92.0067C131.649 87.8742 127.948 85.179 124.715 82.1246C123.35 80.9028 121.409 79.4294 120.511 76.0515Z" class="fill_white"/>
    <path d="M130.786 137.824C126.08 137.824 118.822 136.89 113.613 131.787C112.499 130.673 111.421 129.343 110.451 127.834C106.787 122.049 106.463 114.898 106.176 107.998C106.104 105.986 105.996 103.865 105.817 101.889C105.781 101.566 105.996 101.242 106.32 101.134C107.002 100.919 107.757 100.631 108.511 100.344C109.805 99.8766 111.278 99.3016 112.858 98.9423C113.577 98.7626 113.9 98.9782 117.17 105.051C117.421 105.554 117.673 105.986 117.817 106.273C118.787 108.07 119.793 109.184 120.942 109.795C122.307 110.513 123.96 110.549 125.218 110.513C126.367 110.477 127.876 110.334 129.17 109.687C131.182 108.645 132.331 106.489 132.942 104.872C134.415 100.955 134.307 96.3909 132.691 92.3302C131.397 89.132 128.81 86.8322 126.08 84.3886C125.469 83.8495 124.858 83.2746 124.248 82.7356C124.104 82.6278 123.996 82.484 123.852 82.3762C122.523 81.1544 120.727 79.5373 119.828 76.2672C119.29 74.2549 119.361 71.9191 120.044 69.3317C120.906 66.0257 122.703 61.7495 126.331 60.0246L126.475 59.9527C127.158 59.5933 128.81 58.7668 130.858 59.7371C134.451 61.3901 136.535 63.1509 139.445 65.5945L139.84 65.9179C148.104 72.8893 154.139 82.0887 156.87 91.8272C159.744 102.212 158.846 113.424 154.355 122.588C150.978 129.451 145.948 134.374 140.164 136.423C137.936 137.213 135.421 137.68 132.439 137.788C131.864 137.824 131.325 137.824 130.786 137.824ZM107.29 102.32C107.433 104.153 107.505 106.057 107.613 107.926C107.9 114.646 108.188 121.581 111.673 127.08C112.571 128.517 113.577 129.775 114.619 130.781C120.044 136.099 128.02 136.566 132.295 136.387C135.134 136.243 137.541 135.848 139.625 135.093C145.05 133.153 149.792 128.481 152.99 121.977C157.337 113.137 158.235 102.284 155.433 92.2224C152.81 82.7715 146.918 73.8237 138.87 67.0319L138.475 66.7085C135.673 64.3368 133.625 62.6119 130.212 61.0307C128.774 60.3839 127.661 60.9229 127.086 61.2463L126.942 61.3182C123.816 62.8275 122.236 66.7085 121.409 69.6911C120.799 72.0269 120.727 74.1111 121.194 75.872C121.948 78.7108 123.529 80.1482 124.787 81.2982C124.93 81.4419 125.074 81.5497 125.218 81.6934C125.828 82.2325 126.439 82.8074 127.05 83.3464C129.78 85.79 132.619 88.3055 134.056 91.8272C135.816 96.1753 135.924 101.134 134.343 105.411C133.661 107.279 132.295 109.759 129.888 111.016C128.343 111.807 126.655 111.951 125.361 112.023C123.888 112.095 122.02 112.023 120.331 111.124C118.463 110.118 117.314 108.321 116.631 107.028C116.487 106.74 116.236 106.309 115.984 105.806C115.23 104.44 113.577 101.35 112.93 100.488C111.565 100.847 110.308 101.314 109.086 101.745C108.439 101.925 107.865 102.141 107.29 102.32Z" class="fill_black"/>
    <path d="M88.1761 28.4016C88.248 31.5639 89.8647 35.1934 93.4575 35.409C97.0862 35.6247 99.2778 32.3904 99.8167 29.1922C100.104 27.6829 97.7689 27.036 97.5174 28.5453C97.1581 30.5936 96.1521 33.0013 93.7449 33.0373C91.4096 33.0732 90.5833 30.2343 90.5474 28.4016C90.5114 26.8564 88.1043 26.8564 88.1761 28.4016Z" class="fill_black"/>
    <path d="M106.356 28.4376C107.326 31.9952 108.224 35.8402 112.715 35.7324C116.56 35.6605 118.823 32.103 118.967 28.5813C119.039 27.0361 116.631 27.0361 116.56 28.5813C116.452 31.0968 115.015 33.2888 112.32 33.3607C109.482 33.3966 109.23 29.839 108.655 27.7907C108.26 26.3174 105.925 26.9283 106.356 28.4376Z" class="fill_black"/>
    <path d="M41.7933 165.027C41.1826 165.027 40.5359 165.027 39.9251 165.027C39.5299 165.027 39.2065 164.704 39.2065 164.308C39.2065 163.913 39.5299 163.626 39.9251 163.59C72.1882 164.165 93.8527 150.976 103.374 138.471C103.625 138.147 104.056 138.111 104.38 138.327C104.703 138.579 104.739 139.01 104.523 139.333C98.7389 146.916 89.9725 153.348 79.1582 157.912C68.0565 162.583 55.1585 165.027 41.7933 165.027Z" class="fill_black"/>
    <path d="M162.691 173.436C153.493 173.436 143.505 170.669 133.661 165.386C122.523 159.421 112.068 150.401 103.41 139.333C103.158 139.01 103.23 138.579 103.518 138.327C103.841 138.076 104.272 138.147 104.524 138.435C124.392 163.877 148.284 172.394 163.984 171.962C164.379 171.927 164.703 172.25 164.739 172.645C164.739 173.04 164.451 173.364 164.056 173.4C163.589 173.436 163.158 173.436 162.691 173.436Z" class="fill_black"/>
    <path d="M113.721 164.128C113.721 164.128 91.0145 152.09 90.0444 151.659C88.6073 151.012 85.0146 155.181 86.775 156.69C87.6014 157.409 100.14 170.237 101.901 171.711C103.661 173.148 110.451 175.915 110.451 175.915L113.721 164.128Z" class="fill_white"/>
    <path d="M110.452 176.634C110.344 176.634 110.272 176.634 110.2 176.598C109.913 176.49 103.266 173.795 101.434 172.286C100.32 171.352 95.0386 166.069 90.835 161.793C88.5716 159.493 86.5956 157.516 86.3081 157.265C85.3381 156.402 85.3381 154.965 86.38 153.348C87.386 151.803 89.1105 150.473 90.368 151.012C91.338 151.443 113.182 163.015 114.08 163.482C114.368 163.625 114.511 163.985 114.44 164.308L111.17 176.095C111.098 176.275 110.991 176.454 110.811 176.562C110.667 176.598 110.559 176.634 110.452 176.634ZM89.6854 152.306C89.362 152.306 88.3201 152.917 87.5656 154.139C87.0986 154.857 86.8111 155.756 87.2782 156.151C87.6016 156.438 89.1464 157.984 91.8769 160.751C95.8649 164.775 101.29 170.238 102.368 171.136C103.589 172.142 107.757 173.975 109.985 174.909L112.895 164.452C106.248 160.93 90.5117 152.629 89.7572 152.306C89.7572 152.342 89.7213 152.306 89.6854 152.306Z" class="fill_black"/>
</svg>
