<svg width="122"  height="123"  viewBox="0 0 122 123"  fill="none"  xmlns="http://www.w3.org/2000/svg"  ><path d="M119.458 84.8147H111.833V26.3564C111.833 22.1525 108.412 18.7314 104.208 18.7314H17.7917C13.5878 18.7314 10.1667 22.1525 10.1667 26.3564V84.8147H2.54167C1.13867 84.8147 0 85.9534 0 87.3564V92.4397C0 99.4445 5.7035 105.148 12.7083 105.148H109.292C116.297 105.148 122 99.4445 122 92.4397V87.3564C122 85.9534 120.861 84.8147 119.458 84.8147ZM15.25 26.3564C15.25 24.9534 16.3887 23.8147 17.7917 23.8147H104.208C105.611 23.8147 106.75 24.9534 106.75 26.3564V84.8147H81.3333C80.6572 84.8147 80.0117 85.0841 79.544 85.5569L75.2028 89.898H46.8073L42.4662 85.5569C41.9883 85.0841 41.3428 84.8147 40.6667 84.8147H15.25V26.3564ZM116.917 92.4397C116.917 96.6436 113.496 100.065 109.292 100.065H12.7083C8.50442 100.065 5.08333 96.6436 5.08333 92.4397V89.898H39.6144L43.9505 94.2392C44.4283 94.712 45.0739 94.9814 45.75 94.9814H76.25C76.9261 94.9814 77.5717 94.712 78.0444 94.2392L82.3856 89.898H116.917V92.4397Z"  fill="#FFFFFF"  /> </svg>