<svg width="227" height="157" viewBox="0 0 227 157" fill="none" xmlns="http://www.w3.org/2000/svg">
    <path fill-rule="evenodd" clip-rule="evenodd" d="M61.3656 59.6676C61.1141 59.6317 44.1562 66.639 35.5336 68.9029C25.869 71.4184 4.95902 56.3616 2.58779 74.6885C-6.21452 143.289 9.12659 116.553 23.2821 104.012C37.9407 91.0391 55.2938 108.575 60.1081 98.5135C64.9584 88.4876 76.599 86.4034 79.9044 80.51C82.7427 75.4072 82.9941 66.4953 79.9044 63.0456C76.8146 59.5599 64.5632 60.2785 61.3656 59.6676Z" class="main_color"/>
    <path fill-rule="evenodd" clip-rule="evenodd" d="M193.58 68.0404C193.437 67.8608 177.557 60.1706 170.084 55.5709C161.712 50.4322 128.695 62.3627 144.97 65.3813C161.82 68.5076 166.814 88.9906 175.006 87.0501C183.197 85.1456 192.826 91.8295 197.999 91.003C202.419 90.2843 206.658 85.9003 205.939 82.0552C205.185 78.282 195.736 70.484 193.58 68.0404Z" class="main_color"/>
    <path d="M137.389 149.937C136.922 149.937 136.455 149.901 135.952 149.865C130.095 149.29 121.149 145.157 106.06 135.994C104.802 135.239 103.221 135.024 101.533 134.772C100.671 134.664 99.7724 134.52 98.8382 134.305C86.2995 131.43 80.6947 133.406 74.1559 135.67C67.9045 137.862 60.8267 140.342 46.3119 138.797C39.773 138.078 39.1981 131.466 38.7311 126.112C38.4796 123.093 38.2281 120.254 37.0425 119.176C33.1623 115.655 28.851 114.469 24.2523 113.211C19.9769 112.061 15.5937 110.875 11.4979 107.641C7.79735 104.73 7.90507 100.238 11.7853 95.0636C15.5936 89.9968 22.5636 84.7862 30.0725 81.4801C38.3 77.8148 45.2341 77.3117 49.1143 80.0427C49.4376 80.2943 50.1921 79.5756 50.8388 79.0007C51.3059 78.5694 51.7729 78.1382 52.3118 77.8148C55.1501 76.1618 58.7788 74.4728 62.2997 72.8557C67.15 70.6277 72.1439 68.292 74.7666 66.1359C82.9941 59.3082 87.2695 53.0195 90.6827 47.9886C95.0299 41.5203 98.1915 36.8847 106.635 36.4535L106.671 37.1722L106.635 36.4535C127.76 35.3395 132.79 41.0172 141.089 50.3963C143.892 53.5585 147.089 57.1881 151.437 61.0691C153.053 62.5065 156.035 63.0095 159.233 63.5485C162.969 64.1594 167.173 64.8781 170.119 67.2858C175.185 71.3824 191.244 81.552 195.987 84.1034C218.011 96.0339 226.13 102.574 226.202 102.61C226.346 102.754 226.454 102.933 226.454 103.113C226.454 103.329 226.382 103.508 226.238 103.652C226.023 103.868 220.346 109.33 200.406 106.922C189.951 105.665 185.819 110.264 179.604 117.272C175.077 122.374 169.4 128.735 159.484 134.664C154.49 137.647 151.293 140.917 148.706 143.504C145.257 147.098 142.455 149.937 137.389 149.937ZM87.8084 131.43C90.9701 131.43 94.6706 131.861 99.1975 132.903C100.024 133.083 100.922 133.227 101.748 133.335C103.581 133.586 105.341 133.838 106.814 134.736C137.173 153.171 140.263 150.044 147.7 142.534C150.323 139.875 153.628 136.533 158.766 133.442C168.502 127.585 174.071 121.332 178.562 116.301C184.849 109.222 189.412 104.119 200.622 105.485C216.035 107.353 222.609 104.371 224.585 103.149C222.142 101.316 213.52 95.2074 195.34 85.3612C190.562 82.7738 174.358 72.5323 169.257 68.3998C166.598 66.2437 162.754 65.5969 159.053 64.986C155.64 64.411 152.443 63.8719 150.538 62.183C146.119 58.2301 142.922 54.6007 140.083 51.4025C132.071 42.3468 127.221 36.8847 106.778 37.9268C99.0538 38.3221 96.3952 42.275 91.9401 48.8511C88.4551 53.9898 84.1438 60.3503 75.7367 67.3217C72.9702 69.6216 68.0841 71.8496 62.9464 74.2572C59.4615 75.8743 55.8687 77.5273 53.0663 79.1803C52.707 79.3959 52.2759 79.7912 51.8447 80.1506C50.8387 81.0849 49.5813 82.2348 48.2879 81.3364C40.9227 76.0899 20.6236 85.7924 12.935 96.0339C10.5638 99.1962 8.55184 103.58 12.3961 106.599C16.2404 109.653 20.5157 110.803 24.6474 111.917C29.2102 113.139 33.8808 114.433 38.0125 118.206C39.6293 119.679 39.8808 122.662 40.1682 126.112C40.6353 131.43 41.1023 136.928 46.4556 137.503C60.6111 139.012 67.5452 136.569 73.6529 134.449C77.9283 132.867 81.9522 131.43 87.8084 131.43Z" class="fill_black"/>
    <path d="M85.617 110.48C85.617 110.48 91.5092 112.672 89.569 117.056C87.6289 121.44 79.9403 125.213 78.3595 128.196C76.7787 131.178 73.5092 138.401 70.9942 138.078C68.4793 137.755 70.9942 126.938 70.9942 126.938L85.617 110.48Z" class="fill_white"/>
    <path d="M71.1375 138.833C71.0657 138.833 70.9578 138.833 70.886 138.833C70.4189 138.761 70.0597 138.545 69.7723 138.114C68.2633 135.958 69.9159 128.304 70.2752 126.794C70.3111 126.687 70.3471 126.579 70.4548 126.471L85.0775 110.013C85.2571 109.797 85.5805 109.725 85.8679 109.833C86.0117 109.869 89.2451 111.127 90.323 113.678C90.826 114.864 90.79 116.086 90.2152 117.379C89.0655 120.003 86.0475 122.374 83.3889 124.423C81.4488 125.932 79.6165 127.369 79.0057 128.555C78.8261 128.914 78.6105 129.346 78.359 129.813C75.9159 134.556 73.5447 138.833 71.1375 138.833ZM71.6405 127.297C70.8501 130.783 70.1315 136.101 70.9579 137.287C71.0297 137.395 71.0656 137.395 71.0656 137.395C72.7542 137.611 75.7722 131.717 77.0297 129.166C77.2812 128.699 77.4967 128.232 77.6764 127.872C78.4309 126.435 80.2991 124.962 82.4548 123.273C84.9697 121.296 87.808 119.068 88.8499 116.768C89.2451 115.834 89.281 115.008 88.9577 114.217C88.311 112.708 86.5865 111.738 85.7601 111.342L71.6405 127.297Z" class="fill_black"/>
    <path d="M86.1561 73.1794C86.1561 73.1794 81.5574 82.4147 70.0246 95.2435C64.0965 101.856 43.5099 118.17 39.6656 124.602C28.3843 143.54 42.935 145.193 48.7912 144.582C54.6474 143.971 70.312 131.682 83.7131 113.283C97.1141 94.8841 105.845 92.2969 114.144 94.3811C116.767 95.0279 119.461 97.22 123.054 98.1543C146.048 104.191 141.629 106.707 148.491 105.449C162.215 102.898 164.048 108.791 172.419 115.08C172.419 115.08 185.604 114.469 188.73 103.796C188.73 103.796 171.341 98.4417 162.754 94.1654C154.203 89.8532 119.928 57.4398 86.1561 73.1794Z" class="fill_white"/>
    <path d="M46.743 145.409C42.755 145.409 38.1922 144.259 36.0724 140.917C33.7012 137.18 34.7071 131.574 39.0903 124.207C41.4616 120.254 49.6172 112.995 57.4854 105.988C62.4794 101.568 67.1859 97.3637 69.5212 94.7404C80.8025 82.1631 85.4731 72.9278 85.545 72.82C85.6168 72.6763 85.7247 72.5684 85.8684 72.4965C114.144 59.3083 142.778 79.432 156.538 89.1345C159.413 91.1469 161.676 92.764 163.113 93.4827C171.52 97.6871 188.801 103.041 188.981 103.077C189.34 103.185 189.556 103.58 189.448 103.976C186.215 115.008 172.598 115.762 172.49 115.798C172.311 115.798 172.167 115.762 172.023 115.655C170.155 114.253 168.574 112.816 167.173 111.558C162.251 107.138 158.981 104.227 148.67 106.132C145.077 106.815 144.287 106.419 141.7 105.233C139.185 104.048 134.55 101.891 122.946 98.837C120.934 98.2979 119.209 97.3996 117.664 96.609C116.371 95.9622 115.149 95.3154 114.036 95.0279C106.958 93.2311 98.4789 94.2732 84.3593 113.642C71.2098 131.682 55.4375 144.546 48.9346 145.265C48.216 145.373 47.4974 145.409 46.743 145.409ZM86.6588 73.7543C85.8683 75.2635 80.9822 84.1036 70.5631 95.7466C68.1559 98.4058 63.4134 102.646 58.4195 107.102C50.9824 113.714 42.5754 121.225 40.3119 124.998C36.2162 131.861 35.2102 136.964 37.2581 140.162C39.5934 143.828 45.5933 144.223 48.7549 143.864C54.0004 143.289 69.2697 131.933 83.1738 112.852C94.994 96.6449 104.012 91.075 114.359 93.6982C115.652 94.0216 116.946 94.7045 118.311 95.3873C119.856 96.1778 121.437 97.0043 123.305 97.4714C135.018 100.562 139.76 102.754 142.311 103.94C144.826 105.126 145.293 105.341 148.419 104.73C159.412 102.682 163.077 105.952 168.143 110.48C169.544 111.702 170.945 112.995 172.706 114.325C174.466 114.181 184.849 112.888 187.903 104.227C184.562 103.185 170.083 98.5136 162.538 94.7404C160.993 93.9858 158.694 92.3327 155.784 90.2844C142.167 80.8335 114.108 61.1051 86.6588 73.7543Z" class="fill_black"/>
    <path d="M87.5929 71.3826C87.5929 71.3826 86.1558 72.4965 86.1558 73.2152C86.1558 73.898 95.0299 95.7824 125.425 82.2709L120.467 79.6476C120.467 79.6476 102.934 84.1395 87.5929 71.3826Z" class="fill_black"/>
    <path d="M36.6475 35.3396C36.6475 35.3396 34.9588 38.3581 34.7792 40.2627C34.5636 42.1673 34.3481 46.5155 33.9529 47.4857C33.5218 48.456 31.2223 51.3667 30.2882 50.8636C29.3541 50.3246 29.2463 49.3544 30.2882 47.4857C31.3301 45.6171 30.7912 42.9219 29.5338 43.1375C28.2763 43.3531 25.474 43.1735 25.0428 47.4857C24.6117 51.798 24.3961 54.4212 23.5698 54.3134C22.7434 54.2056 21.3782 48.8153 22.2045 44.0359C23.0308 39.2565 31.8331 31.207 31.8331 31.207L36.6475 35.3396Z" class="fill_white"/>
    <path d="M23.6056 55.032C23.5696 55.032 23.5337 55.032 23.4618 55.032C23.1744 54.996 22.887 54.8163 22.6714 54.4929C21.7013 53.1633 20.7313 48.2762 21.4858 43.8921C22.348 38.9331 30.9708 30.9914 31.3301 30.632C31.5815 30.3805 32.0127 30.3805 32.3001 30.632L37.1144 34.7645C37.3659 34.9802 37.4378 35.3754 37.2582 35.6629C37.2582 35.6989 35.6414 38.5737 35.4618 40.3345C35.3899 40.8735 35.354 41.6641 35.2821 42.4547C35.0666 45.078 34.8869 47.0184 34.5636 47.7371C34.1684 48.6355 32.4078 51.0432 31.0067 51.5103C30.5037 51.69 30.1085 51.5822 29.8929 51.4385C29.354 51.151 28.9947 50.7198 28.851 50.1807C28.6354 49.3902 28.851 48.3839 29.6055 47.0903C30.2522 45.9404 30.1444 44.467 29.7492 43.928C29.7132 43.892 29.6414 43.7843 29.6055 43.8202C29.4618 43.8562 29.3181 43.8562 29.1384 43.8921C27.7732 44.0718 26.0486 44.2514 25.7253 47.5575L25.6894 48.1325C25.2583 52.5884 25.0786 54.1695 24.2882 54.8163C24.1085 54.9601 23.8571 55.032 23.6056 55.032ZM31.833 32.1772C30.0366 33.9021 23.5696 40.2986 22.887 44.1796C22.2403 47.9168 22.9948 51.7978 23.5696 53.1992C23.8211 52.229 24.0367 50.0729 24.2523 47.9887L24.2882 47.4137C24.7193 42.9578 27.5935 42.6344 28.9588 42.4547C29.1025 42.4547 29.2462 42.4188 29.354 42.3828C29.9648 42.275 30.5397 42.5266 30.8989 43.1015C31.6894 44.2155 31.6534 46.3356 30.827 47.809C30.1444 49.0308 30.1444 49.6058 30.2163 49.8214C30.2522 49.9292 30.2881 50.037 30.5037 50.1807C31.1145 50.0729 32.8031 48.0965 33.1983 47.1981C33.4498 46.6231 33.6653 44.0718 33.809 42.3469C33.8809 41.5204 33.9528 40.7298 33.9887 40.1548C34.1683 38.6096 35.1743 36.4535 35.6773 35.4474L31.833 32.1772Z" class="fill_black"/>
    <path d="M115.904 51.5463C117.162 55.8226 143.82 47.306 143.209 79.1086C143.209 79.1086 150.107 85.3973 149.676 98.1542C149.676 98.1542 155.748 105.88 150.718 122.41H139.221C139.221 122.41 137.101 118.565 135.88 114.038C133.796 106.491 131.389 99.0167 128.623 91.6859C127.545 88.9908 126.826 86.3316 126.898 84.1395L120.467 81.8396C120.467 81.8396 106.563 90.4282 90.6828 76.4135C90.6828 76.4135 79.0063 65.9204 80.8745 45.9764C80.8745 45.9764 71.4614 36.6332 73.15 30.9195C73.15 30.9195 64.3477 30.3086 58.4915 23.5528C58.4915 23.5528 58.7071 28.8353 46.5635 30.2368L37.5815 23.9481C37.5815 23.9481 42.3959 17.9469 48.4677 14.1018C54.5395 10.2927 59.5334 10.2927 64.1681 12.5926C64.1681 12.5926 79.2218 11.3348 85.078 19.4921C85.0421 19.4921 106.491 19.5281 115.904 51.5463Z" class="fill_white"/>
    <path d="M150.718 123.129H139.221C138.969 123.129 138.718 122.985 138.574 122.77C138.502 122.626 136.418 118.781 135.161 114.253C133.113 106.779 130.67 99.2682 127.939 91.9734C126.826 89.2064 126.215 86.6909 126.143 84.6786L120.502 82.6661C119.532 83.2052 116.263 84.7864 111.556 85.1457C106.419 85.5051 98.5866 84.391 90.1795 76.9884C90.0717 76.8806 78.3592 66.1359 80.0837 46.2638C78.6466 44.7904 71.497 37.1363 72.2156 31.5663C69.9881 31.2429 63.7007 29.9851 58.8145 25.062C58.0241 26.9307 55.3654 29.9852 46.5991 31.0273C46.4194 31.0632 46.2397 30.9914 46.096 30.9195L37.1141 24.6308C36.9344 24.523 36.8267 24.3434 36.8267 24.1278C36.7908 23.9481 36.8626 23.7325 36.9704 23.5887C37.186 23.3372 41.9285 17.4438 48.0362 13.5987C53.7846 9.96929 59.0659 9.43022 64.2395 11.9457C66.1437 11.8019 79.5448 11.1911 85.3651 18.8812C86.7303 18.9531 91.5447 19.4921 97.2572 22.9779C103.329 26.7151 111.592 34.6568 116.514 51.4385C116.73 52.1213 119.029 52.3728 121.293 52.6244C129.305 53.5228 144.179 55.1757 143.855 78.893C145.113 80.1507 150.646 86.4034 150.358 98.0104C151.329 99.4119 156.035 107.318 151.364 122.698C151.293 122.914 151.041 123.129 150.718 123.129ZM139.652 121.692H150.179C154.742 106.132 149.173 98.6573 149.101 98.5854C148.993 98.4417 148.957 98.298 148.957 98.1183C149.352 85.8644 142.778 79.6836 142.706 79.6476C142.562 79.5039 142.454 79.3242 142.454 79.1086C142.921 56.3976 129.305 54.8882 121.185 53.9898C117.88 53.6305 115.652 53.379 115.185 51.7979C110.407 35.5192 102.467 27.8291 96.6105 24.2356C90.3231 20.3546 85.0777 20.2827 85.0058 20.2827C84.7902 20.2827 84.5747 20.1749 84.431 19.9952C78.8981 12.2692 64.3114 13.3831 64.1677 13.3831C64.024 13.3831 63.9163 13.3831 63.7726 13.3112C58.9582 10.9036 54.2157 11.3708 48.7906 14.7846C44.0122 17.8032 39.9524 22.2592 38.5872 23.8762L46.7069 29.5539C57.6289 28.2243 57.7007 23.6606 57.7007 23.6246C57.7007 23.3371 57.8804 23.0497 58.1678 22.9419C58.4552 22.8341 58.7785 22.906 58.9582 23.1216C64.5629 29.554 73.006 30.2367 73.1138 30.2367C73.3293 30.2367 73.5449 30.3805 73.6527 30.5601C73.7605 30.7398 73.7963 30.9554 73.7604 31.171C72.2155 36.4175 81.2334 45.4373 81.3052 45.5451C81.4489 45.6888 81.5208 45.9045 81.5208 46.1201C79.6885 65.4891 90.9699 75.8745 91.0776 75.9823C99.0536 83.0256 106.491 84.1036 111.305 83.7802C116.55 83.4208 119.964 81.3725 119.999 81.3366C120.179 81.2288 120.431 81.1928 120.61 81.2647L127.041 83.5645C127.329 83.6723 127.544 83.9599 127.508 84.2473C127.437 86.1519 128.047 88.6674 129.197 91.5062C131.963 98.8729 134.442 106.419 136.49 113.93C137.532 117.451 139.113 120.614 139.652 121.692Z" class="fill_black"/>
    <path d="M91.7245 39.4003C94.3113 38.3222 95.03 41.8798 95.03 41.8798C95.03 41.8798 95.3892 33.7225 96.1437 31.7101C96.8622 29.6977 99.5568 29.9493 101.784 31.7101C103.976 33.4709 104.299 26.5355 104.479 24.2715C104.766 20.2468 108.862 24.3075 109.15 24.2715C110.371 24.1637 111.305 28.0447 113.102 26.6073C115.293 24.8465 116.91 29.6977 117.665 31.7101C118.383 33.7225 118.778 41.8798 118.778 41.8798C118.778 41.8798 119.497 38.3222 122.084 39.4003C124.634 40.4783 122.084 46.3717 118.778 47.2342C118.778 47.2342 117.413 54.2056 116.694 55.1758C115.976 56.1101 112.455 60.3864 110.838 61.4645C109.76 62.1832 108.683 61.7879 106.958 61.5363C105.233 61.7519 103.724 61.5723 103.078 61.4645C102.359 61.3567 97.9401 56.1461 97.2215 55.1758C96.503 54.2415 95.1377 47.2342 95.1377 47.2342C91.7245 46.3717 89.1377 40.4783 91.7245 39.4003Z" class="fill_white"/>
    <path d="M109.329 62.5423C108.826 62.5423 108.287 62.4704 107.712 62.3626C107.46 62.3267 107.173 62.2549 106.85 62.2189C105.556 62.3627 104.227 62.3627 102.862 62.1111C101.64 61.8955 96.5743 55.6428 96.5384 55.5709C95.8198 54.6366 94.8138 49.7854 94.3827 47.7371C92.0115 46.8387 90.1073 43.8561 89.9276 41.5562C89.8198 40.1548 90.3588 39.1127 91.4007 38.6814C92.4785 38.2502 93.2689 38.4658 93.736 38.7173C93.9875 38.8611 94.2031 39.0048 94.3827 39.2205C94.5624 36.5972 94.8857 32.7881 95.3887 31.4226C95.7121 30.5242 96.3946 29.9132 97.2928 29.6617C98.694 29.2664 100.562 29.8414 102.143 31.1351C102.251 31.2429 102.359 31.2788 102.359 31.2788C102.646 31.135 103.221 30.1288 103.616 24.8104C103.616 24.5948 103.652 24.3792 103.652 24.1996C103.724 23.0137 104.155 22.2232 104.874 21.8998C106.203 21.2889 107.927 22.5466 108.933 23.3012C109.041 23.3731 109.149 23.445 109.221 23.5168C109.975 23.5887 110.514 24.3074 111.053 25.0261C111.412 25.4932 111.88 26.1401 112.167 26.176C112.275 26.176 112.383 26.1401 112.526 26.0323C113.281 25.4214 113.999 25.4214 114.43 25.5651C116.119 26.0323 117.161 28.5837 118.095 31.1351L118.203 31.4584C118.706 32.824 119.029 36.6331 119.209 39.2563C119.388 39.0767 119.604 38.897 119.855 38.7533C120.358 38.5017 121.149 38.2861 122.191 38.7173C123.233 39.1485 123.772 40.1907 123.664 41.5921C123.484 43.892 121.616 46.8747 119.245 47.773C118.85 49.8213 117.844 54.6725 117.089 55.6068C116.442 56.4333 112.814 60.8893 111.053 62.0393C110.55 62.4345 109.939 62.5423 109.329 62.5423ZM106.886 60.7815C106.922 60.7815 106.957 60.7815 106.993 60.7815C107.353 60.8175 107.676 60.8893 107.999 60.9252C109.185 61.1049 109.796 61.2127 110.406 60.8174C111.879 59.8472 115.257 55.7865 116.119 54.7084C116.514 54.2053 117.448 50.3603 118.059 47.0902C118.095 46.8027 118.311 46.5872 118.598 46.5153C120.538 46.0122 122.263 43.353 122.406 41.4844C122.478 40.7298 122.263 40.2626 121.832 40.047C121.4 39.8673 121.005 39.8673 120.718 40.011C119.999 40.4063 119.604 41.5922 119.532 41.9874C119.46 42.3468 119.137 42.5984 118.778 42.5624C118.418 42.5265 118.131 42.239 118.131 41.8796C118.023 39.6516 117.628 33.4708 117.089 31.9256L116.981 31.6022C116.514 30.3086 115.4 27.2182 114.287 26.9307C114.143 26.8947 113.963 26.8947 113.64 27.1462C113.173 27.5056 112.706 27.6853 112.203 27.6134C111.269 27.5056 110.658 26.6431 110.083 25.8885C109.868 25.5651 109.472 25.062 109.293 24.9901C108.969 25.0261 108.754 24.8464 108.287 24.4871C106.957 23.4809 106.059 23.0497 105.7 23.2293C105.52 23.3012 105.377 23.7324 105.305 24.3074C105.305 24.4871 105.269 24.6667 105.269 24.9183C104.946 29.3383 104.478 31.9974 103.113 32.6083C102.826 32.7521 102.179 32.8599 101.46 32.285C100.239 31.3147 98.8377 30.8475 97.8677 31.0991C97.4006 31.2428 97.1132 31.5304 96.9335 31.9616C96.3587 33.5427 95.9635 39.6876 95.8917 41.9156C95.8917 42.2749 95.6042 42.5624 95.2449 42.5983C94.8857 42.6343 94.5624 42.3828 94.4905 42.0234C94.3827 41.5922 94.0234 40.4063 93.3049 40.047C92.9815 39.8673 92.6222 39.9032 92.1911 40.0829C91.724 40.2625 91.5444 40.7656 91.5803 41.5203C91.724 43.3889 93.4486 46.0481 95.3887 46.5512C95.6761 46.6231 95.8558 46.8387 95.9276 47.1262C96.5743 50.3963 97.4725 54.2413 97.8677 54.7444C98.8018 55.9662 102.538 60.2784 103.365 60.7456C104.622 60.9252 105.808 60.9611 106.957 60.8174C106.814 60.7815 106.85 60.7815 106.886 60.7815Z" class="fill_black"/>
    <path d="M148.203 138.401C148.203 138.401 148.85 153.566 148.203 154.608C147.592 155.65 137.029 156.585 135.772 155.327C134.515 154.069 134.083 152.596 133.904 151.985C133.688 151.374 132.107 151.661 132.323 149.685C132.538 147.709 132.538 145.409 133.58 144.546C134.622 143.72 138.79 139.408 139.544 136.82C140.263 134.233 148.203 138.401 148.203 138.401Z" class="fill_white"/>
    <path d="M139.509 156.657C137.677 156.657 135.88 156.477 135.27 155.83C133.976 154.501 133.473 153.027 133.258 152.308C133.222 152.273 133.114 152.237 133.042 152.201C132.503 151.949 131.425 151.446 131.605 149.613C131.641 149.29 131.677 148.967 131.677 148.643C131.821 146.81 132 144.906 133.114 144.007C134.3 143.073 138.18 138.976 138.826 136.641C138.97 136.102 139.329 135.706 139.868 135.455C142.132 134.485 147.485 137.18 148.527 137.755C148.743 137.862 148.886 138.114 148.922 138.366C149.174 144.115 149.461 153.89 148.814 154.968C148.671 155.219 148.275 155.866 144.323 156.333C144.18 156.405 141.808 156.657 139.509 156.657ZM141.09 136.713C140.838 136.713 140.623 136.748 140.443 136.82C140.299 136.892 140.264 136.964 140.228 137.072C139.401 140.019 134.874 144.475 134.012 145.193C133.365 145.696 133.258 147.349 133.114 148.823C133.078 149.146 133.042 149.506 133.006 149.829C132.934 150.655 133.15 150.763 133.617 150.979C133.94 151.123 134.371 151.338 134.551 151.841L134.587 151.949C134.803 152.596 135.198 153.854 136.24 154.896C137.282 155.758 146.264 155.04 147.557 154.249C147.844 153.063 147.737 145.696 147.485 138.905C145.473 137.827 142.599 136.713 141.09 136.713Z" class="fill_black"/>
    <path d="M152.694 117.092C152.694 117.092 145.041 121.8 136.885 121.009C136.885 121.009 140.945 129.023 138.754 137.647L148.634 139.372C148.67 139.336 152.801 126.579 152.694 117.092Z" class="fill_black"/>
    <path d="M39.3415 20.6421C39.3415 20.6421 45.9163 27.0385 51.1618 29.4821C51.1618 29.4821 40.1678 31.3148 36.611 37.1722C36.611 37.1722 33.7008 32.824 30.2158 32.1772C30.2517 32.1772 33.3057 23.9841 39.3415 20.6421Z" class="fill_black"/>
    <path d="M169.688 115.08C169.688 115.08 187.041 107.641 184.741 97.4355C184.741 97.4355 193.939 106.06 199.579 115.906C205.22 125.752 214.849 129.993 217.364 135.275C219.879 140.558 222.573 150.188 217.364 150.835C212.154 151.446 203.136 150.404 201.879 141.636C200.621 132.867 196.238 130.855 192.25 128.196C188.298 125.537 176.19 120.937 169.688 115.08Z" class="fill_white"/>
    <path d="M214.777 151.733C208.67 151.733 202.239 149.182 201.197 141.743C200.119 134.125 196.706 131.933 193.077 129.561C192.682 129.31 192.287 129.058 191.892 128.771C190.562 127.908 188.299 126.759 185.64 125.465C180.287 122.806 173.568 119.536 169.221 115.583C169.042 115.403 168.97 115.187 169.006 114.936C169.041 114.684 169.221 114.505 169.437 114.397C169.616 114.325 186.215 107.066 184.095 97.5792C184.023 97.2558 184.167 96.9683 184.454 96.7886C184.742 96.6449 185.065 96.6808 185.317 96.8965C185.425 96.9683 194.658 105.736 200.299 115.547C203.388 120.901 207.628 124.531 211.364 127.729C214.346 130.28 216.933 132.472 218.083 134.952C219.879 138.725 222.394 146.092 220.418 149.613C219.807 150.691 218.801 151.374 217.508 151.518C216.574 151.662 215.676 151.733 214.777 151.733ZM171.018 115.259C175.221 118.745 181.293 121.764 186.251 124.171C188.945 125.501 191.281 126.651 192.682 127.585C193.077 127.837 193.436 128.088 193.832 128.34C197.568 130.747 201.412 133.263 202.598 141.528C203.963 151.23 215.065 150.368 217.292 150.116C218.119 150.008 218.73 149.613 219.125 148.931C220.526 146.415 218.981 140.306 216.754 135.599C215.712 133.407 213.233 131.286 210.394 128.843C206.766 125.716 202.239 121.871 199.005 116.265C194.802 108.935 188.514 102.179 185.712 99.3759C185.64 107.605 174.538 113.57 171.018 115.259Z" class="fill_black"/>
    <path d="M101.281 42.2033C100.814 41.3049 102.036 39.7596 102.754 39.2206C104.084 38.2144 104.335 40.7299 104.443 41.5204C104.622 42.8141 106.634 42.4907 106.455 41.1971C106.131 38.8613 105.125 35.9505 102.179 37.2801C100.419 38.0706 98.4068 41.233 99.3769 43.0657C99.9517 44.1797 101.892 43.3532 101.281 42.2033Z" class="fill_black"/>
    <path d="M110.946 41.5562C110.479 40.6578 111.701 39.1126 112.419 38.5736C113.784 37.5674 114 40.0828 114.108 40.8734C114.287 42.167 116.299 41.8437 116.12 40.55C115.796 38.2142 114.79 35.3035 111.844 36.6331C110.084 37.4237 108.072 40.5859 109.042 42.4186C109.617 43.5326 111.557 42.7061 110.946 41.5562Z" class="fill_black"/>
    <path d="M93.0176 38.3941C92.5146 35.1958 92.6942 31.7101 93.1613 28.44C94.2032 21.1452 96.5744 14.3534 99.8079 9.3584C100.67 7.99286 101.604 6.77108 102.646 5.8727C103.796 4.86651 106.526 2.71044 107.748 2.13547C112.958 -0.308122 114.359 -0.27224 117.592 0.374594C115.472 0.733946 112.526 3.46506 110.658 5.44149C108.61 7.63354 106.526 9.89748 105.053 13.2754C106.778 11.5864 107.676 10.1849 109.185 8.99905C110.479 7.99286 112.239 6.69925 113.604 5.90867C115.796 4.615 118.131 4.25565 120.395 4.11191C119.317 4.57907 118.239 6.01644 117.269 7.13043C116.407 8.13662 115.652 9.32248 114.898 10.5443C113.856 12.1973 112.814 13.8503 111.772 15.5034C113.245 13.8863 114.718 12.1254 116.083 10.8677C118.886 8.28032 120.431 7.41795 124.67 6.08835C121.868 9.28658 117.377 12.7363 114.826 18.45C118.562 13.6347 121.329 12.2333 124.886 11.3708C121.868 14.1019 119.712 16.9407 117.52 21.5764C121.257 18.3422 125.281 13.9222 129.376 13.1316C127.185 15.3236 123.377 21.5405 121.832 25.098C120.179 28.7994 118.922 33.6507 117.987 33.9381C117.089 34.2256 116.011 30.7399 115.113 30.9195C111.197 31.6023 107.209 30.2008 103.401 32.1054C101.101 33.2553 98.9817 35.5552 97.3649 38.7175C96.6104 40.1549 95.7482 41.9517 94.6703 41.6642C93.7722 41.3767 93.2691 39.8674 93.0176 38.3941Z" class="fill_black"/>
</svg>
