<svg width="366" height="418" viewBox="0 0 366 418" fill="none" xmlns="http://www.w3.org/2000/svg">
    <g style="mix-blend-mode:multiply">
        <path class="main_color" d="M173.085 146.594C173.085 146.92 173.085 147.245 173.085 147.57C173.541 143.732 173.736 140.023 173.671 136.705C173.28 139.633 173.15 143.146 173.085 146.594Z"/>
        <path d="M201.965 139.633C199.428 121.222 179.394 92.726 172.76 81.9263C168.597 84.9841 165.475 87.4563 165.084 88.3021C165.019 88.4972 164.954 88.6273 164.824 88.7575C162.743 90.9694 125.602 131.761 123.781 133.843C123.391 134.298 85.2094 178.017 79.2903 184.653L86.5103 195.323C86.7054 195.648 86.7705 196.038 86.7054 196.364C86.9005 196.884 88.5917 197.665 91.974 198.25C106.284 197.014 121.765 192.655 124.171 184.003C128.399 168.844 131.456 195.518 135.164 190.313C139.587 184.068 143.945 179.839 145.116 182.441C148.823 174.504 155.848 171.251 161.182 168.714C164.044 167.348 166.515 166.242 167.621 164.745C170.158 161.428 170.353 153.49 170.483 146.464C170.678 139.503 170.808 132.932 173.02 129.679C173.28 129.354 173.67 129.094 174.061 129.094C174.126 129.094 174.191 129.094 174.321 129.094C174.841 129.159 175.231 129.549 175.362 130.069C178.158 141.064 173.605 161.232 170.613 174.569C169.377 179.904 168.337 184.523 168.467 185.954C168.532 186.93 168.597 187.971 168.792 189.012C176.988 181.791 189.867 176.521 189.867 176.521C189.867 176.521 204.697 159.476 201.965 139.633Z" class="main_color"/>
        <path d="M84.0385 196.364L76.5583 185.239C76.2331 184.718 76.2982 184.003 76.6884 183.612C77.9893 182.311 119.163 135.144 121.765 132.151C123.521 130.069 159.686 90.3839 162.743 87.066C163.653 85.5696 167.296 82.642 171.394 79.6493C166.776 71.3219 161.507 67.4835 161.507 67.4835C161.507 67.4835 143.034 80.5601 142.189 83.1625C139.782 85.8949 104.202 127.467 102.576 129.549C100.95 131.566 60.3622 181.01 59.0613 182.441L66.5414 194.282C65.826 197.209 74.4119 198.901 85.2093 198.706C84.2987 197.86 84.0385 197.079 84.0385 196.364Z" class="main_color"/>
        <path d="M165.8 186.15C165.735 184.458 166.516 180.815 168.012 174.049C168.532 171.576 169.182 168.909 169.768 166.112C169.703 166.177 169.638 166.242 169.573 166.307C168.077 168.258 165.345 169.56 162.158 171.056C156.304 173.788 148.954 177.237 146.222 186.475C146.092 186.865 145.961 187.256 145.766 187.646C148.173 198.25 158.515 205.797 162.808 196.234C163.589 194.542 164.759 192.916 166.255 191.289C166.125 189.533 165.93 187.776 165.8 186.15Z" class="main_color"/>
        <path d="M193.119 208.139C191.688 212.433 212.372 237.871 211.917 262.333C210.811 320.365 190.387 403.184 190.387 403.184H200.078C196.761 403.639 216.665 432.655 242.097 300.067C242.227 299.546 258.359 277.882 264.863 274.564C294.719 259.47 249.187 164.095 249.187 164.095C249.187 164.095 252.7 197.014 242.553 197.014C223.755 197.014 196.306 198.706 193.119 208.139Z" class="main_color"/>
        <path d="M207.624 28.7087C206.193 27.5377 207.234 24.2197 208.079 22.9186C209.705 20.4463 211.852 24.545 212.632 25.7811C213.868 27.863 217.12 26.1064 215.885 24.0245C213.738 20.3162 209.9 16.0874 205.738 19.9909C203.201 22.333 201.965 28.7738 204.892 31.246C206.648 32.7423 209.445 30.2701 207.624 28.7087Z" class="fill_black"/>
        <path d="M346.039 106.323C345.844 106.323 345.714 106.323 345.584 106.258C345.064 106.128 344.673 105.673 344.543 105.087L344.478 104.567L344.999 104.372C348.121 103.266 348.446 103.656 348.641 103.981C348.771 104.111 348.966 104.567 348.446 105.087C347.796 105.868 346.82 106.323 346.039 106.323Z" class="fill_black"/>
        <path d="M350.202 97.9306L349.031 97.3451C349.941 95.3933 352.413 94.8728 353.649 94.8728V96.174C352.868 96.174 350.852 96.4993 350.202 97.9306Z" class="fill_black"/>
        <path d="M318.46 187.45C318.2 187.45 318.005 187.45 317.745 187.385C317.159 187.255 316.639 186.865 316.379 186.279C315.988 185.564 316.054 184.783 316.184 184.198C315.858 183.612 315.468 182.766 315.598 181.79C315.793 180.619 318.655 174.049 320.216 172.617C320.477 171.902 320.281 169.299 320.151 167.152C320.021 164.94 319.826 162.533 319.826 159.866C319.826 153.035 326.396 136.315 326.981 134.818L327.371 133.192C327.697 131.956 327.957 130.785 328.217 129.679C330.168 121.416 329.518 114.065 329.193 113.154C328.542 111.853 327.371 104.566 330.949 101.379C331.404 100.988 331.924 100.598 332.51 100.273C332.12 95.3932 334.071 91.0993 335.307 88.497C335.567 87.9115 335.827 87.391 335.957 87.0007C336.413 85.5044 335.762 73.2084 335.372 65.8568C334.982 59.2209 334.851 55.7077 334.917 54.7969C335.177 52.65 337.583 51.6741 339.73 51.6741C340.445 51.6741 341.681 51.8042 342.397 52.5849C342.527 52.7801 342.787 52.9753 342.982 54.5367C343.502 53.6258 344.413 52.8452 345.584 52.4548C347.47 51.8042 349.617 52.1946 350.657 53.4307C351.698 54.6017 351.503 57.9847 349.422 72.5578C348.771 77.1118 348.121 81.796 348.186 83.0321C348.316 85.5694 349.226 86.7405 350.983 88.8874C351.373 89.3428 351.763 89.8632 352.153 90.3837C354.885 93.8968 355.341 99.2316 355.015 101.769C354.95 102.094 354.82 102.485 354.69 102.875C356.316 104.631 357.422 106.583 358.007 108.73C360.739 111.072 362.561 121.026 362.561 121.091C362.691 122.783 361.715 124.019 361.26 124.669C361.26 124.734 361.195 124.734 361.195 124.799C361.195 125.45 360.869 126.166 360.479 126.621C359.764 127.532 358.658 127.922 357.552 127.727C357.292 127.662 357.032 127.597 356.772 127.532C356.772 127.792 356.772 128.117 356.837 128.378C357.032 131.045 357.487 133.322 357.877 135.534C358.398 138.332 358.918 141.259 358.983 144.772C360.024 146.399 364.317 153.425 364.837 158.304C365.227 161.557 364.382 164.095 362.365 165.851C364.187 167.348 364.642 167.998 364.837 168.454C365.488 169.885 365.162 171.251 364.967 171.902C365.032 173.008 364.967 175.024 363.601 175.675C362.561 176.195 361.065 176 360.284 175.87C358.918 176.195 357.227 176.065 356.576 174.699C356.186 174.049 356.251 173.203 356.251 172.357C356.251 171.186 356.251 170.34 355.796 169.95C355.276 169.494 354.17 169.169 352.869 169.169C352.674 169.169 352.479 169.169 352.349 169.169H352.153C351.958 169.169 351.828 169.169 351.828 169.169C351.763 169.169 351.698 169.169 351.568 169.169C350.267 169.104 349.031 168.909 347.991 168.584C346.885 168.974 345.714 169.299 344.543 169.559C341.486 170.145 338.949 170.34 336.803 170.21C336.738 170.21 336.738 170.21 336.673 170.21C333.681 170.275 327.371 175.22 326.591 176.195C326.396 176.651 325.81 178.603 325.42 180.034C324.574 183.157 324.184 184.458 323.794 185.043C323.078 186.084 321.843 186.279 321.192 186.345C320.477 186.865 319.501 187.45 318.46 187.45ZM339.795 54.3415C338.624 54.3415 337.648 54.7969 337.583 55.1872C337.518 55.9029 337.778 60.9124 338.039 65.7917C338.819 79.9744 339.079 86.4802 338.429 88.0416C338.234 88.497 337.974 89.0175 337.713 89.6681C336.478 92.3354 334.591 96.369 335.242 100.923C335.307 101.509 334.982 102.094 334.461 102.289C333.681 102.615 333.095 102.94 332.705 103.33C330.493 105.347 331.144 111.137 331.599 112.048C332.445 113.74 332.77 122.002 330.819 130.264C330.559 131.37 330.233 132.606 329.908 133.843L329.453 135.534C329.453 135.599 329.453 135.664 329.388 135.729C329.323 135.924 322.363 153.36 322.363 159.866C322.363 162.403 322.493 164.875 322.688 167.022C323.013 171.446 323.143 173.658 321.843 174.569C320.997 175.285 318.265 181.14 318.07 182.116C318.07 182.376 318.265 182.831 318.525 183.092C318.85 183.482 318.916 183.937 318.72 184.393C318.655 184.523 318.655 184.653 318.59 184.783C318.915 184.653 319.371 184.458 319.696 184.198C319.956 184.002 320.281 183.872 320.607 183.937C320.932 183.937 321.322 183.872 321.387 183.807C321.582 183.417 322.233 181.14 322.623 179.643C323.404 176.781 323.729 175.545 324.119 175.024C324.77 173.983 331.794 168.063 336.217 167.868C336.348 167.868 336.413 167.868 336.543 167.868C338.494 167.998 340.836 167.803 343.763 167.217C344.999 166.957 346.169 166.632 347.21 166.242C347.535 166.111 347.86 166.111 348.186 166.242C349.161 166.632 350.332 166.827 351.633 166.827C351.698 166.827 351.698 166.827 351.763 166.827C351.763 166.827 351.763 166.827 351.828 166.827C351.893 166.827 351.893 166.827 351.958 166.827H352.218C352.349 166.827 352.479 166.827 352.609 166.827C352.674 166.827 352.674 166.827 352.739 166.827C354.105 166.892 356.056 167.152 357.357 168.258C358.788 169.494 358.788 171.446 358.723 172.682C358.723 172.943 358.723 173.398 358.723 173.593C358.983 173.658 359.438 173.593 359.764 173.463C359.959 173.398 360.219 173.398 360.414 173.463C361 173.593 361.78 173.658 362.105 173.593C362.17 173.268 362.235 172.552 362.17 171.967C362.17 171.706 362.17 171.511 362.3 171.251C362.3 171.251 362.626 170.47 362.3 169.625C362.3 169.56 361.91 168.974 359.243 166.892C358.918 166.632 358.723 166.242 358.723 165.786C358.723 165.331 358.983 164.94 359.373 164.745C361.585 163.444 362.431 161.557 362.105 158.63C361.65 154.661 357.877 148.09 356.446 145.943C356.316 145.748 356.251 145.488 356.251 145.228C356.251 141.715 355.731 138.982 355.211 136.055C354.82 133.777 354.365 131.435 354.17 128.638C354.105 127.467 354.105 126.491 354.105 125.58C354.105 125.125 354.365 124.734 354.755 124.474C355.145 124.279 355.666 124.279 356.056 124.474C356.642 124.799 357.357 125.06 357.942 125.19C358.268 125.255 358.463 124.93 358.528 124.799C358.398 124.084 358.853 123.563 359.178 123.108C359.569 122.588 360.024 122.002 359.959 121.286C359.829 119.4 357.552 111.788 356.446 110.747C356.056 110.617 355.731 110.226 355.601 109.836C355.08 107.689 353.975 105.737 352.153 104.046C351.698 103.591 351.633 102.94 351.958 102.354C352.284 101.899 352.414 101.509 352.414 101.379C352.739 99.2316 352.218 94.6775 350.072 92.0102C349.682 91.4897 349.291 91.0343 348.901 90.5789C347.08 88.3019 345.649 86.5453 345.519 83.1622C345.454 81.731 345.974 78.0877 346.82 72.1674C347.665 66.4423 348.966 56.8788 348.576 55.0571C348.121 54.7318 347.21 54.6017 346.299 54.927C345.714 55.1222 344.999 55.5125 344.933 56.4234C344.673 59.351 343.698 70.1506 343.698 70.2807C343.633 70.9964 343.047 71.5168 342.332 71.4518C341.616 71.4518 341.096 70.8663 341.096 70.1506C340.966 63.5147 340.575 56.0981 340.185 54.3415C340.25 54.3415 340.055 54.3415 339.795 54.3415ZM358.658 125.06V125.125C358.658 125.125 358.658 125.125 358.658 125.06Z" class="fill_black"/>
        <path d="M248.407 185.759C248.407 185.108 248.407 184.458 248.407 183.807C247.561 184.263 247.106 184.458 247.106 184.523C247.236 185.369 246.195 180.88 245.805 178.082C245.805 180.945 245.805 183.547 245.87 185.759C245.87 189.988 245.87 193.046 246 194.542C246.39 199.486 246.195 202.609 246.13 203.975C244.634 204.366 243.138 204.496 242.683 204.366C241.642 203.455 240.276 198.445 239.626 194.347C239.496 193.696 238.91 193.241 238.26 193.241C237.609 193.306 237.089 193.826 237.024 194.477C236.829 198.51 235.788 203.325 234.617 203.975C231.235 205.797 211.461 205.407 202.355 203.78C194.615 202.349 188.631 198.771 186.744 197.469C187.395 192.525 190.647 166.957 189.151 156.092C188.436 150.953 185.313 137.421 182.126 123.173C178.354 106.648 173.67 86.0248 173.996 83.8778C174.451 81.861 182.256 75.2902 189.802 69.8903L210.486 77.4371C210.876 77.5672 211.266 77.5021 211.592 77.307C211.917 77.1118 212.177 76.7865 212.177 76.3961L213.738 64.9459C216.145 65.4664 218.877 66.182 221.348 67.0278C219.722 65.6615 218.551 64.8158 218.551 64.8158C218.551 64.8158 224.926 66.5073 229.414 68.0036C225.186 64.6857 215.104 62.6038 212.827 62.1484C212.502 62.0833 212.112 62.1484 211.852 62.3436C211.592 62.5387 211.396 62.8641 211.331 63.2544L209.835 74.4444L189.997 67.1579C189.606 67.0278 189.151 67.0928 188.826 67.288C186.094 69.2397 172.37 79.1286 171.459 83.2273C171.004 85.4392 173.67 97.8653 179.59 123.693C182.842 137.941 185.899 151.408 186.614 156.418C188.24 167.868 184.143 197.6 184.143 197.86C184.078 198.315 184.273 198.771 184.663 199.096C184.988 199.291 192.013 204.431 201.965 206.252C206.453 207.098 214.909 207.684 222.389 207.684C228.503 207.684 233.902 207.228 235.918 206.122C237.219 205.407 238.065 203.585 238.65 201.503C239.301 203.585 240.081 205.472 241.122 206.252C242.553 207.423 245.87 206.643 247.756 206.122C248.212 205.992 248.602 205.602 248.667 205.081C248.667 204.951 249.252 201.438 248.667 194.217C248.407 192.98 248.407 189.923 248.407 185.759Z" class="fill_black"/>
        <path d="M247.106 185.954C246.911 185.954 246.716 185.889 246.52 185.824C245.87 185.499 245.87 185.499 245.024 181.27C244.504 178.668 244.244 177.041 244.244 176.326C244.244 168.519 241.252 160.777 238.39 153.295C235.983 146.984 233.707 141.064 233.056 135.079C232.471 129.549 233.967 124.344 235.398 119.27C236.829 114.325 238.13 109.576 237.349 105.217C232.926 102.81 229.804 101.053 229.804 101.053C229.349 100.793 229.088 100.273 229.153 99.7521L230.845 83.5526C230.129 81.6009 229.284 79.6492 228.438 77.7625C225.381 71.1265 217.966 65.9219 217.836 65.8568C217.315 65.4665 217.12 64.8159 217.38 64.2304C217.641 63.6448 218.291 63.3846 218.876 63.5147C227.462 65.7918 232.601 67.4833 234.162 68.5242C236.178 69.3699 243.333 74.3144 258.749 85.3092C262.391 87.9115 266.099 90.5139 268.766 92.4006C268.701 91.8801 268.831 91.4897 269.091 91.0994C270.002 89.8633 271.693 90.4488 274.034 91.2295C275.986 91.8801 278.653 92.856 280.279 92.3355C296.475 87.326 330.168 76.2011 330.493 76.0709C330.884 75.9408 331.274 76.0059 331.599 76.2011C331.924 76.3962 332.119 76.7866 332.185 77.1769L333.16 87.326C333.355 87.5212 333.485 87.8465 333.55 88.1067C333.616 88.7573 333.616 88.8224 330.558 92.0753C328.997 93.7668 326.461 96.3691 323.208 99.3618C317.549 104.632 308.768 111.983 299.077 117.188C294.459 119.66 288.409 119.139 283.076 118.749C278.197 118.359 273.579 117.968 271.238 119.92C268.376 122.262 263.302 121.547 255.432 117.708C256.342 123.238 257.708 129.028 259.009 134.623C261.416 144.772 263.692 154.336 263.432 162.924C263.107 172.747 258.098 180.229 248.537 185.174C248.407 185.239 248.342 185.304 248.277 185.304C248.147 185.434 248.082 185.564 247.951 185.629C247.626 185.889 247.366 185.954 247.106 185.954ZM231.82 99.1666C233.056 99.8823 235.723 101.314 239.105 103.2C239.431 103.395 239.691 103.656 239.756 104.046C240.927 109.186 239.496 114.39 237.935 119.92C236.569 124.734 235.138 129.744 235.658 134.753C236.243 140.413 238.455 146.204 240.862 152.319C243.789 159.996 246.846 167.998 246.846 176.261C246.846 177.106 247.496 180.489 247.951 182.571C256.212 178.082 260.505 171.511 260.765 162.924C261.025 154.726 258.814 145.293 256.407 135.339C254.846 128.833 253.22 122.067 252.375 115.691C252.309 115.236 252.505 114.716 252.895 114.455C253.285 114.195 253.805 114.13 254.261 114.39C264.148 119.53 267.985 119.205 269.481 117.968C272.603 115.366 277.742 115.822 283.206 116.277C288.409 116.732 293.873 117.123 297.776 115.041C314.102 106.258 327.696 91.4897 330.558 88.1718L329.648 79.0636C322.818 81.3407 295.174 90.4488 280.929 94.8077C278.523 95.5234 275.53 94.4824 273.059 93.6367C272.603 93.5065 272.083 93.3114 271.628 93.1813C271.888 93.6367 272.278 94.2872 272.929 95.2631C273.254 95.7836 273.254 96.5643 272.799 96.9546C272.018 97.7353 271.172 97.2149 269.937 96.4342C269.221 95.9788 268.245 95.2631 266.88 94.2872C264.343 92.5307 260.83 89.9934 257.123 87.326C248.212 81.0154 234.812 71.4518 233.121 70.8663C232.861 70.8012 232.666 70.6711 232.536 70.541C231.82 70.0205 228.178 68.8495 223.885 67.6134C226.292 69.8904 229.023 73.0783 230.65 76.6565C231.56 78.6733 232.471 80.8202 233.251 82.9021C233.316 83.0972 233.381 83.2924 233.316 83.4876L231.82 99.1666Z" class="fill_black"/>
        <path d="M210.811 59.2207C207.364 59.2207 202.095 57.9846 197.086 55.8377C192.338 53.8209 184.012 49.3319 181.216 41.8502C178.289 33.9131 177.963 27.3422 180.305 22.2677C182.126 18.4293 185.378 15.6317 190.062 13.9402C191.297 13.5499 192.533 13.2896 193.834 13.2896C201.64 13.2896 210.16 20.8364 214.063 31.2457C218.746 43.8019 218.486 56.6835 213.608 58.7653C212.957 59.0906 211.982 59.2207 210.811 59.2207ZM190.972 16.3474C186.939 17.7787 184.143 20.1207 182.647 23.3086C180.63 27.6675 180.955 33.7179 183.622 40.8743C186.094 47.4452 193.704 51.5439 198.062 53.3655C204.957 56.2931 210.941 57.0088 212.502 56.3582C215.234 55.1871 216.08 44.2573 211.591 32.1565C207.624 21.487 199.623 15.892 193.834 15.892C192.924 15.892 191.948 16.0221 190.972 16.3474Z" class="fill_black"/>
        <path d="M211.527 74.8347C212.632 73.2733 214.974 69.9553 215.754 69.8903C216.86 69.8903 218.681 75.8756 218.551 76.4611C218.421 76.9165 214.909 77.437 213.023 77.6322C213.088 77.9575 212.957 78.2828 212.632 78.4779L211.982 78.8032C211.787 78.9334 211.527 78.9334 211.331 78.8032C210.096 80.82 207.364 85.0488 206.843 84.9838C206.128 84.8536 203.136 78.3478 203.136 77.8274C203.136 77.437 207.559 76.3961 209.705 75.9407C209.705 75.6154 209.835 75.3552 210.096 75.225L210.746 74.8997C210.876 74.8347 210.941 74.8347 211.071 74.8347C211.331 74.7696 211.396 74.7696 211.527 74.8347Z" class="fill_black"/>
        <path d="M172.565 285.103C172.5 285.103 172.435 285.103 172.305 285.103C170.874 284.843 170.874 284.843 171.979 265.13C172.5 255.566 173.28 243.986 173.736 237.415C174.581 224.924 171.654 213.214 168.987 202.869C167.361 196.429 165.995 190.899 165.735 186.149C165.67 184.458 166.451 180.815 167.947 174.049C168.467 171.576 169.117 168.909 169.703 166.111C169.638 166.176 169.573 166.242 169.508 166.307C168.012 168.258 165.28 169.56 162.093 171.056C156.238 173.788 148.888 177.236 146.157 186.475C141.668 201.633 100.69 203.585 88.5918 200.202C84.8192 199.161 83.9086 197.6 83.9086 196.363L76.4284 185.239C76.1032 184.718 76.1683 184.002 76.5585 183.612C77.8594 182.311 119.033 135.144 121.635 132.151C123.391 130.069 159.556 90.3837 162.613 87.0658C164.434 84.008 177.313 75.2252 182.972 71.5169C183.427 71.1916 184.013 71.2566 184.403 71.5169C184.663 71.647 190.192 75.5505 195.005 83.8129C196.046 85.5694 197.932 88.3669 200.404 91.9451C209.445 105.152 224.536 127.272 226.812 142.69C229.739 162.403 214.584 179.123 213.933 179.774C213.803 179.904 213.608 180.034 213.478 180.099C213.283 180.164 190.972 188.882 186.354 198.575C181.216 209.245 178.874 229.868 177.898 241.189C177.833 241.579 174.321 282.24 173.736 283.997C173.671 284.778 173.085 285.103 172.565 285.103ZM174.126 129.158C174.191 129.158 174.256 129.158 174.386 129.158C174.906 129.223 175.297 129.614 175.427 130.134C178.224 141.129 173.671 161.297 170.678 174.634C169.443 179.969 168.402 184.588 168.532 186.019C168.727 190.508 170.093 195.908 171.719 202.219C173.801 210.481 176.272 220.37 176.598 230.844C177.963 219.589 180.305 205.732 184.273 197.469C189.151 187.385 209.705 178.928 212.502 177.822C214.258 175.805 227.072 160.386 224.536 143.081C222.389 128.248 207.429 106.453 198.518 93.3764C196.046 89.7982 194.095 86.9357 193.054 85.114C189.476 78.9986 185.444 75.4204 183.883 74.1843C175.101 80.0395 165.865 86.8056 165.15 88.3019C165.085 88.4971 165.02 88.6272 164.889 88.7573C162.808 90.9693 125.667 131.761 123.846 133.843C123.456 134.298 85.2745 178.017 79.3555 184.653L86.5754 195.323C86.7706 195.648 86.8356 196.038 86.7706 196.363C87.0958 197.339 93.0149 199.226 105.048 199.031C121.96 198.706 141.343 194.412 143.945 185.759C147.002 175.415 155.263 171.511 161.247 168.714C164.109 167.348 166.581 166.242 167.686 164.745C170.223 161.427 170.418 153.49 170.548 146.464C170.743 139.503 170.874 132.932 173.085 129.679C173.28 129.354 173.671 129.158 174.126 129.158ZM173.605 136.705C173.28 139.568 173.15 143.081 173.085 146.529C173.085 146.854 173.085 147.18 173.085 147.505C173.475 143.731 173.736 140.023 173.605 136.705Z" class="fill_black"/>
        <path d="M172.565 285.103C172.5 285.103 172.435 285.103 172.305 285.103C170.874 284.843 170.874 284.843 171.979 265.13C172.5 255.566 173.28 243.986 173.736 237.415C174.581 224.924 171.654 213.214 168.987 202.869C167.361 196.429 165.995 190.899 165.735 186.149C165.67 184.458 166.451 180.815 167.947 174.049C168.467 171.576 169.117 168.909 169.703 166.111C169.638 166.176 169.573 166.242 169.508 166.307C168.012 168.258 165.28 169.56 162.093 171.056C156.238 173.788 148.888 177.236 146.157 186.475C141.668 201.633 100.69 203.585 88.5918 200.202C84.8192 199.161 83.9086 197.6 83.9086 196.363L76.4284 185.239C76.1032 184.718 76.1683 184.002 76.5585 183.612C77.8594 182.311 119.033 135.144 121.635 132.151C123.391 130.069 159.556 90.3837 162.613 87.0658C164.434 84.008 177.313 75.2252 182.972 71.5169C183.427 71.1916 184.013 71.2566 184.403 71.5169C184.663 71.647 190.192 75.5505 195.005 83.8129C196.046 85.5694 197.932 88.3669 200.404 91.9451C209.445 105.152 224.536 127.272 226.812 142.69C229.739 162.403 214.584 179.123 213.933 179.774C213.803 179.904 213.608 180.034 213.478 180.099C213.283 180.164 190.972 188.882 186.354 198.575C181.216 209.245 178.874 229.868 177.898 241.189C177.833 241.579 174.321 282.24 173.736 283.997C173.671 284.778 173.085 285.103 172.565 285.103ZM174.126 129.158C174.191 129.158 174.256 129.158 174.386 129.158C174.906 129.223 175.297 129.614 175.427 130.134C178.224 141.129 173.671 161.297 170.678 174.634C169.443 179.969 168.402 184.588 168.532 186.019C168.727 190.508 170.093 195.908 171.719 202.219C173.801 210.481 176.272 220.37 176.598 230.844C177.963 219.589 180.305 205.732 184.273 197.469C189.151 187.385 209.705 178.928 212.502 177.822C214.258 175.805 227.072 160.386 224.536 143.081C222.389 128.248 207.429 106.453 198.518 93.3764C196.046 89.7982 194.095 86.9357 193.054 85.114C189.476 78.9986 185.444 75.4204 183.883 74.1843C175.101 80.0395 165.865 86.8056 165.15 88.3019C165.085 88.4971 165.02 88.6272 164.889 88.7573C162.808 90.9693 125.667 131.761 123.846 133.843C123.456 134.298 85.2745 178.017 79.3555 184.653L86.5754 195.323C86.7706 195.648 86.8356 196.038 86.7706 196.363C87.0958 197.339 93.0149 199.226 105.048 199.031C121.96 198.706 141.343 194.412 143.945 185.759C147.002 175.415 155.263 171.511 161.247 168.714C164.109 167.348 166.581 166.242 167.686 164.745C170.223 161.427 170.418 153.49 170.548 146.464C170.743 139.503 170.874 132.932 173.085 129.679C173.28 129.354 173.671 129.158 174.126 129.158ZM173.605 136.705C173.28 139.568 173.15 143.081 173.085 146.529C173.085 146.854 173.085 147.18 173.085 147.505C173.475 143.731 173.736 140.023 173.605 136.705Z" class="fill_black"/>
        <path d="M203.136 49.9826C202.745 49.9826 202.355 49.8525 202.03 49.5272C201.444 48.9417 201.444 47.9658 202.03 47.3803L208.534 41.0046C208.795 40.7443 209.185 40.5492 209.575 40.5492H220.503C221.348 40.5492 221.999 41.1998 221.999 42.0455C221.999 42.8913 221.348 43.5418 220.503 43.5418H210.16L204.111 49.4621C203.916 49.8525 203.526 49.9826 203.136 49.9826Z" class="fill_black"/>
        <path d="M26.8643 215.491C25.6935 215.751 37.2714 226.29 38.6374 237.48C39.8732 247.759 46.6379 267.472 51.9065 269.489C59.7119 272.482 91.9742 250.492 87.0308 247.304C86.3803 246.914 84.494 235.984 77.5993 228.112C74.7373 224.794 69.8589 223.363 67.4523 220.11C59.0615 208.725 50.5406 201.633 50.5406 201.633L26.8643 215.491Z" class="fill_black"/>
        <path d="M201.379 7.10931C198.062 3.33594 193.184 1.25409 188.24 0.408336C183.297 -0.372362 178.223 0.0830493 173.28 0.798689C164.759 2.03479 156.368 3.98652 148.238 6.71896C151.945 8.34542 156.693 10.5574 160.401 12.1839C154.937 17.3885 149.799 14.2657 139.131 21.357C143.099 22.0727 152.466 26.6918 157.344 26.4316C150.644 31.1808 147.587 33.0025 141.993 41.6552C145.896 39.7034 153.571 39.248 157.929 38.7926C155.393 45.1683 150.514 53.1054 147.977 59.4811C152.14 57.6595 158.905 56.4234 163.068 54.6668C158.905 60.457 156.173 65.3363 155.848 72.4277C161.767 67.8085 168.727 64.5556 176.077 62.9942C178.939 62.4087 182.581 64.4906 184.598 62.3437C186.874 59.9365 186.354 53.6909 186.354 50.3079C186.354 43.5419 187.004 36.6457 189.411 30.3351C191.818 24.0244 196.241 18.2993 202.29 15.2416C203.396 14.7211 204.631 14.0705 204.892 12.8995C205.087 12.1188 204.697 11.3381 204.306 10.6224C203.266 8.80082 202.875 8.73577 201.379 7.10931Z" class="fill_black"/>
        <path d="M193.899 39.118C192.468 37.947 193.509 34.629 194.354 33.3279C195.981 30.8556 198.127 34.9543 198.908 36.1904C200.143 38.2723 203.396 36.5157 202.16 34.4338C200.013 30.7255 196.176 26.4967 192.013 30.4002C189.476 32.7423 188.175 39.1831 191.167 41.6553C192.988 43.1517 195.72 40.6144 193.899 39.118Z" class="fill_black"/>
        <path d="M26.8643 217.312C32.5882 219.134 39.4179 225.575 37.5967 232.276L59.1265 215.361L50.8008 202.739L26.8643 217.312Z" class="fill_white"/>
        <path d="M37.5965 233.577C37.3363 233.577 37.0761 233.512 36.881 233.382C36.4257 233.056 36.1655 232.471 36.3606 231.95C37.9217 226.16 31.6774 220.24 26.4738 218.613C26.0185 218.483 25.6282 218.028 25.5632 217.507C25.4981 216.987 25.7583 216.532 26.1486 216.271L50.0201 201.698C50.6055 201.308 51.386 201.503 51.7763 202.089L60.102 214.71C60.4923 215.295 60.3622 216.011 59.8419 216.466L38.312 233.382C38.1819 233.512 37.8567 233.577 37.5965 233.577ZM29.7261 217.117C34.2142 219.459 38.8324 224.078 39.1576 229.348L57.3051 215.1L50.2803 204.496L29.7261 217.117Z" class="fill_black"/>
        <path d="M71.8572 186.453L0 228.134L3.32855 233.875L75.1857 192.194L71.8572 186.453Z" class="fill_black"/>
        <path d="M63.6798 193.436C62.8993 193.696 62.1187 194.217 61.3382 194.997C62.1187 194.477 62.8993 193.956 63.6798 193.436ZM77.5344 184.588C78.8353 183.807 79.7459 183.222 79.7459 183.222L82.4778 191.159C82.4778 191.159 75.3879 200.332 72.591 201.503C69.794 202.674 47.4836 209.44 49.0447 205.472C49.6301 203.91 52.9474 201.113 56.785 198.25C54.9638 199.096 53.4678 199.356 53.4027 199.161C52.9474 198.185 55.7443 196.233 57.3054 194.152C59.3868 191.484 61.6634 189.207 63.6148 187.516C65.3059 186.149 74.9976 184.913 77.5344 184.588Z" class="fill_white"/>
        <path d="M50.9307 208.074C48.9793 208.074 48.524 207.619 48.1988 207.293C47.6134 206.708 47.4833 205.927 47.8085 205.081C48.1337 204.236 48.9793 202.934 52.3616 200.137C52.2966 200.072 52.2316 199.942 52.1665 199.877C51.451 198.445 52.817 197.144 54.378 195.583C55.0285 194.932 55.744 194.217 56.2643 193.566C58.671 190.508 61.0776 188.166 62.7038 186.735C64.0697 185.564 68.883 184.458 77.0787 183.417C78.1844 182.701 79.03 182.246 79.03 182.246C79.3552 182.051 79.8106 181.986 80.1358 182.116C80.526 182.246 80.7862 182.571 80.9163 182.897L83.6482 190.834C83.7783 191.224 83.7132 191.679 83.4531 192.07C82.2172 193.631 75.9729 201.568 73.0459 202.804C71.6149 203.39 66.2162 205.146 60.9476 206.448C55.744 207.684 52.7519 208.074 50.9307 208.074ZM50.4753 205.472C54.1179 205.862 68.818 201.698 72.0052 200.332C73.6963 199.617 78.1844 194.412 80.9163 190.964L78.965 185.239C78.7048 185.369 78.4446 185.564 78.1194 185.759C77.9893 185.824 77.7942 185.889 77.599 185.954C69.4684 186.93 65.0454 188.036 64.3299 188.687C62.1834 190.573 59.9719 192.85 58.2157 195.128C57.6953 195.843 57.0449 196.494 56.3944 197.144C56.9148 197.079 57.4351 197.274 57.7604 197.73C58.0856 198.315 57.9555 199.031 57.4351 199.421C52.817 202.869 51.1258 204.626 50.4753 205.472ZM61.3378 196.299C60.9476 196.299 60.6223 196.168 60.3622 195.843C59.9068 195.323 59.9719 194.607 60.4272 194.087C61.2728 193.176 62.2485 192.525 63.2241 192.2C63.8746 192.005 64.525 192.265 64.8502 192.85C65.1755 193.436 64.9803 194.152 64.3949 194.542C63.6794 195.062 62.8989 195.583 62.1184 196.103C61.8582 196.234 61.598 196.299 61.3378 196.299Z" class="fill_black"/>
        <path d="M340.9 100.012C340.185 98.5811 338.168 98.2558 337.453 98.2558V96.9547C338.754 96.9547 341.16 97.4751 342.071 99.4268L340.9 100.012Z" class="fill_black"/>
        <path d="M211.461 85.1791L221.283 80.8853C221.283 80.8853 236.959 134.949 236.633 147.57C228.958 130.98 224.145 117.968 224.145 117.968L225.771 108.34L219.722 107.689C219.722 107.689 218.356 93.7017 211.461 85.1791Z" class="fill_black"/>
        <path d="M197.802 401.882H189.931C189.541 401.882 189.151 401.687 188.956 401.427C188.696 401.102 188.631 400.711 188.696 400.321C188.891 399.475 205.217 316.916 206.128 259.665C206.388 243.986 199.428 227.787 194.81 217.117C191.818 210.156 190.517 207.033 191.037 205.146C193.704 195.127 214.909 193.046 232.276 193.046C240.406 193.046 246.716 193.501 246.781 193.566C247.171 193.566 247.496 193.761 247.691 194.086C248.537 195.192 268.831 221.541 265.513 240.603C264.538 246.263 261.481 250.752 256.472 253.875C252.179 256.542 238.26 272.156 233.446 296.293C217.836 374.428 204.436 395.246 199.103 400.711C199.038 401.362 198.452 401.882 197.802 401.882ZM191.492 399.28H196.761C196.826 399.215 196.826 399.215 196.891 399.15C201.835 394.401 215.039 374.883 230.78 295.772C235.398 272.417 248.797 255.501 254.976 251.663C259.334 248.931 261.936 245.092 262.782 240.148C265.709 223.558 248.537 199.747 245.805 196.168C244.114 196.038 238.715 195.713 232.08 195.713C209.185 195.713 195.135 199.421 193.379 205.862C193.119 206.903 195.2 211.782 197.086 216.076C201.77 226.941 208.859 243.401 208.664 259.665C207.819 312.883 193.769 387.635 191.492 399.28Z" class="fill_black"/>
        <path d="M184.338 201.048C185.573 207.293 213.543 234.292 184.468 269.099C178.093 276.71 192.663 287.12 181.996 291.609C178.288 293.17 182.061 299.416 182.126 303.059C182.256 311.517 186.939 323.097 181.801 332.53C154.482 383.016 177.248 407.347 178.223 406.762H192.793C192.793 406.762 217.12 374.753 218.616 326.415C220.112 278.207 226.031 225.965 234.812 224.599C258.294 220.956 238.715 188.752 238.715 188.752L201.184 185.954C201.119 185.954 186.029 191.549 184.338 201.048Z" class="fill_white"/>
        <path d="M178.158 408.063C177.443 408.063 176.792 407.477 176.467 407.152C173.8 404.615 168.987 397.133 167.556 385.162C165.67 369.418 170.093 351.527 180.695 331.945C184.077 325.699 182.842 318.217 181.801 311.647C181.345 308.654 180.89 305.791 180.825 303.124C180.825 302.083 180.435 300.652 180.045 299.286C179.134 295.968 177.963 291.869 181.541 290.438C185.899 288.616 185.183 286.014 183.362 281.134C181.931 277.231 180.11 272.417 183.557 268.318C206.648 240.668 192.858 218.093 186.224 207.293C184.598 204.626 183.427 202.739 183.167 201.308C183.167 201.178 183.102 200.983 183.167 200.853C184.988 190.703 200.143 184.978 200.794 184.718C200.989 184.653 201.184 184.653 201.314 184.653L238.845 187.45C239.235 187.45 239.626 187.711 239.886 188.101C240.341 188.882 251.529 207.423 246.39 218.483C244.504 222.582 240.666 225.054 235.073 225.965C234.227 226.095 229.609 228.307 225.381 258.234C222.779 276.45 220.828 301.367 220.047 326.545C218.551 374.753 194.159 407.282 193.964 407.607C193.704 407.933 193.314 408.128 192.923 408.128H178.483C178.288 408.063 178.223 408.063 178.158 408.063ZM178.418 405.46H192.078C195.135 401.167 215.884 370.459 217.315 326.415C218.096 301.172 220.047 276.125 222.714 257.778C227.007 227.917 231.56 223.818 234.617 223.298C239.366 222.582 242.423 220.63 243.984 217.312C248.082 208.529 239.756 193.111 238 189.923L201.444 187.19C199.493 187.971 187.395 193.111 185.769 200.983C186.094 201.958 187.2 203.78 188.435 205.862C195.395 217.182 209.835 240.798 185.573 269.879C183.102 272.807 184.468 276.32 185.834 280.093C187.46 284.452 189.476 289.852 182.581 292.715C181.28 293.235 181.736 295.382 182.581 298.505C183.037 300.066 183.427 301.628 183.492 302.994C183.557 305.466 183.947 308.199 184.403 311.126C185.508 318.152 186.809 326.089 182.972 333.116C169.507 358.033 168.727 376.119 170.418 386.854C172.239 398.629 177.248 404.485 178.418 405.46Z" class="fill_black"/>
        <path d="M178.093 405.656L171.264 417.431H242.358C242.358 417.431 213.022 403.249 196.696 401.882C180.37 400.516 178.093 405.656 178.093 405.656Z" class="fill_black"/>
        <path d="M189.476 57.8547C188.305 52.6501 185.834 47.7056 184.533 45.3636L184.728 45.2985C184.208 44.5829 183.687 43.8022 183.297 43.0215L182.256 43.3467C181.866 43.4769 181.541 43.7371 181.411 44.1274C181.281 44.5178 181.346 44.9081 181.541 45.2334C181.606 45.2985 185.509 51.7393 187.005 58.3752C188.436 65.0111 188.37 68.199 188.37 68.264C188.37 68.5243 188.436 68.7194 188.501 68.9146L188.566 69.0447C189.216 68.5893 189.606 68.264 189.606 68.264L191.428 68.9146L190.907 67.9387C190.842 66.9629 190.712 63.6449 189.476 57.8547Z" class="fill_black"/>
        <path d="M211.071 57.9197C210.226 57.9197 209.25 57.8546 208.079 57.7245C209.575 61.0425 211.397 63.905 211.462 64.0351L212.307 65.4013L212.567 63.3845C212.567 63.3845 213.218 63.5147 214.324 63.7749L213.673 62.6689C213.673 62.6038 212.372 60.522 211.071 57.9197Z" class="fill_black"/>
    </g>
</svg>
