<svg width="215" height="231" viewBox="0 0 215 231" fill="none" xmlns="http://www.w3.org/2000/svg">
    <path fill-rule="evenodd" clip-rule="evenodd" d="M0 79.5027L81.5352 156.118L73.6191 167.109L0 130.176V79.5027Z" class="secondary_color"/>
    <path fill-rule="evenodd" clip-rule="evenodd" d="M41.7686 28.5034L95.8304 126.496L84.8877 134.507L26.2159 76.7545L41.7686 28.5034Z" class="secondary_color"/>
    <path fill-rule="evenodd" clip-rule="evenodd" d="M118.927 0L117.39 111.872L103.933 113.409L81.5352 34.1856L118.927 0Z" class="secondary_color"/>
    <path d="M100.021 229.053H102.35C102.35 229.053 105.609 193.191 105.19 188.999C104.585 183.364 111.15 175.539 111.15 175.539C111.15 175.539 136.482 150.668 130.149 158.586C127.914 161.334 138.484 174.841 148.495 178.52C151.895 179.777 172.337 194.961 173.175 196.777C175.41 201.621 201.16 229.053 201.16 229.053H203.582C203.582 229.053 190.497 200.689 175.317 173.071C164.56 153.509 152.919 143.542 146.307 133.389C134.246 127.847 119.253 129.896 109.94 136.184C111.43 143.17 90.2892 169.438 90.5221 172.651C91.174 181.734 100.021 229.053 100.021 229.053Z" class="fill_white"/>
    <path d="M203.628 229.985H201.207C200.927 229.985 200.695 229.892 200.508 229.705C199.437 228.587 174.665 202.087 172.383 197.15C171.359 195.473 151.755 180.662 148.216 179.358C139.415 176.145 130.568 165.945 129.171 160.915C129.078 160.542 128.985 160.17 128.985 159.844C124.98 163.43 117.111 170.975 111.895 176.098C111.43 176.657 105.656 183.829 106.168 188.813C106.587 193.051 103.467 227.609 103.327 229.053C103.281 229.519 102.862 229.891 102.396 229.891H100.068C99.6022 229.891 99.2297 229.566 99.1366 229.146C98.7641 227.19 90.2427 181.687 89.6374 172.652C89.5443 171.254 91.4534 168.227 96.4824 160.589C101.837 152.485 109.94 140.236 109.102 136.277C109.008 135.904 109.195 135.532 109.474 135.299C119.905 128.313 135.224 127.148 146.772 132.458C146.912 132.551 147.052 132.644 147.145 132.784C149.52 136.417 152.547 140.003 156.039 144.195C161.953 151.227 169.31 160.03 176.201 172.512C191.242 199.851 204.373 228.261 204.513 228.541C204.652 228.82 204.606 229.146 204.466 229.426C204.327 229.705 203.907 229.985 203.628 229.985ZM201.579 228.122H202.138C199.391 222.207 187.656 197.429 174.525 173.536C167.727 161.194 160.742 152.857 154.595 145.499C151.15 141.354 148.123 137.814 145.701 134.135C134.945 129.291 120.743 130.315 110.917 136.65C111.197 141.26 105.469 150.342 97.9724 161.707C94.9457 166.317 91.4534 171.534 91.4534 172.605C92.0122 180.895 99.6488 221.974 100.813 228.075H101.558C102.722 215.453 104.678 192.213 104.352 189.046C103.747 183.084 110.266 175.213 110.545 174.887L110.592 174.841C110.638 174.794 115.481 170.043 120.37 165.386C123.211 162.638 125.539 160.496 127.215 159.005C130.428 156.118 131.08 155.652 131.825 156.351C132.617 157.049 131.918 157.934 130.94 159.145C130.847 159.285 130.801 159.704 130.987 160.449C132.291 165.153 140.859 174.701 148.868 177.635C150.824 178.334 157.156 182.758 162.418 186.671C165.724 189.092 173.407 194.914 174.106 196.358C175.782 200.037 192.639 218.574 201.579 228.122Z" class="fill_black"/>
    <path d="M199.484 230.776H214.664C214.664 230.776 205.165 224.955 203.488 225.327C200.322 226.026 199.484 230.776 199.484 230.776Z" class="fill_black"/>
    <path d="M102.489 88.6312L97.9259 75.7301L109.334 74.0068L116.692 84.4861C116.738 84.4861 110.545 89.5627 102.489 88.6312Z" class="fill_white"/>
    <path d="M104.538 89.7023C103.84 89.7023 103.141 89.6557 102.396 89.5626C102.024 89.516 101.744 89.2832 101.604 88.9572L97.0411 76.056C96.948 75.7766 96.9946 75.4971 97.1343 75.2643C97.274 75.0314 97.5068 74.8451 97.7862 74.7985L109.195 73.0752C109.521 73.0287 109.893 73.1684 110.079 73.4478L117.437 83.9271C117.716 84.3463 117.623 84.8586 117.25 85.1846C117.064 85.4175 111.802 89.7023 104.538 89.7023ZM103.188 87.7462C109.008 88.2119 113.711 85.4175 115.434 84.2531L108.915 74.9848L99.1831 76.4752L103.188 87.7462Z" class="fill_black"/>
    <path d="M93.6885 72.5629C92.4312 70.9793 84.9808 61.2919 89.5907 57.1933C90.3358 56.5413 91.174 56.5413 92.1053 57.007C94.7595 52.8153 100.208 49.6949 102.35 49.8346C105.516 50.0209 110.033 55.3304 112.454 61.9905C112.827 62.9686 122.838 59.8947 123.537 61.9905C124.002 63.2946 115.481 65.9959 114.922 67.5794C113.618 71.3054 115.108 74.8916 115.574 76.9409C110.126 81.2257 108.263 82.2504 105.376 80.2011C104.771 79.7819 104.119 79.223 103.374 78.5244L101.465 79.2696L100.487 78.4312C100.487 78.4778 100.487 78.5244 100.487 78.571C100.301 80.5271 90.848 79.2696 89.7771 76.1025C89.0786 73.9135 91.4068 72.7957 93.6885 72.5629Z" class="fill_white"/>
    <path d="M108.077 82.1107C107.006 82.1107 105.982 81.7381 104.864 80.9463C104.352 80.5737 103.793 80.108 103.234 79.5956L101.884 80.108C101.558 80.2477 101.185 80.1545 100.953 79.9683L100.766 79.7819C100.394 80.0148 99.835 80.2477 99.0434 80.3409C96.0633 80.6669 90.0099 79.4093 88.9855 76.3354C88.7061 75.4039 88.7992 74.519 89.2648 73.7738C89.9167 72.7492 91.0809 72.2369 92.1053 71.9575C89.6374 68.5576 84.5617 60.5468 89.032 56.4948C89.8236 55.7962 90.8014 55.5633 91.8259 55.8427C94.6198 51.9305 99.9282 48.7169 102.489 48.9032C106.028 49.1361 110.685 54.4921 113.246 61.292C113.898 61.292 115.295 61.0591 116.366 60.9194C120.184 60.3139 123.816 59.755 124.468 61.7112C124.98 63.155 123.024 64.0864 119.811 65.67C118.414 66.322 116.133 67.4397 115.807 67.9521C114.829 70.7465 115.621 73.541 116.226 75.5903C116.366 76.0094 116.459 76.382 116.552 76.7546C116.645 77.1272 116.505 77.4998 116.226 77.6861C112.64 80.3874 110.312 82.1107 108.077 82.1107ZM103.374 77.5464C103.607 77.5464 103.84 77.6395 104.026 77.8258C104.724 78.4779 105.33 79.0368 105.888 79.4094C108.077 80.9463 109.334 80.5737 114.456 76.5683C114.41 76.4286 114.363 76.2423 114.317 76.056C113.711 73.9136 112.78 70.6534 113.991 67.2534C114.363 66.1822 116.04 65.3439 118.927 63.9467C119.998 63.4344 121.488 62.6892 122.233 62.2235C121.022 62.0372 118.089 62.5029 116.552 62.7358C113.385 63.2481 111.942 63.4344 111.523 62.3166C109.101 55.6099 104.771 50.9059 102.256 50.7662C100.58 50.673 95.3648 53.514 92.8503 57.4728C92.5709 57.892 92.0587 58.0318 91.6397 57.7989C90.8481 57.3797 90.4756 57.566 90.1496 57.8455C86.145 61.4317 93.5023 70.8863 94.3404 71.9575C94.5733 72.2369 94.6197 72.563 94.4801 72.889C94.3404 73.215 94.061 73.4013 93.7351 73.4478C92.2916 73.5876 91.1274 74.0999 90.7084 74.752C90.6152 74.9382 90.4756 75.2177 90.6153 75.73C90.8946 76.5683 92.3382 77.4066 94.3404 77.9655C96.9015 78.6641 98.9969 78.5245 99.5091 78.245C99.5557 77.919 99.7419 77.6396 100.068 77.5464C100.394 77.4067 100.766 77.4532 101.046 77.6861L101.605 78.1518L103.001 77.593C103.141 77.593 103.281 77.5464 103.374 77.5464Z" class="fill_black"/>
    <path d="M105.283 59.6152C106.261 58.5906 105.469 57.7522 104.585 56.8673C103.886 56.1687 97.4137 58.0782 97.274 59.0563C97.1343 60.0344 97.4137 61.5713 97.9725 61.6179C98.4847 61.6645 104.585 60.3139 105.283 59.6152Z" class="fill_black"/>
    <path d="M107.285 56.6808C106.075 56.6343 105.888 56.2617 105.888 55.0973C105.842 54.1659 109.8 50.999 110.498 51.5578C111.15 52.1167 111.942 53.3741 111.663 53.7467C111.383 54.1659 108.123 56.7274 107.285 56.6808Z" class="fill_black"/>
    <path d="M194.641 89.4229C186.259 91.2393 178.716 90.0284 176.713 90.2612C174.525 90.4941 160.043 95.7105 158.32 94.779C145.422 97.9926 140.3 93.8009 134.758 99.7159C150.311 124.167 162.558 142.844 154.735 143.496C146.213 149.178 113.059 149.318 106.633 145.172C108.868 137.581 110.033 131.945 109.101 127.381C107.984 122.072 105.05 118.206 101.884 114.294C93.4556 117.274 79.2533 121.373 77.577 120.767C77.1579 120.628 76.6923 120.348 76.2732 120.022C73.7121 120.581 70.6854 120.348 69.3816 119.65C67.0068 118.392 50.9419 97.4337 47.2167 93.1489L47.6823 92.2174C47.6823 92.2174 71.6167 103.349 77.5304 106.749C82.606 102.417 90.0097 96.6885 97.8792 91.2393C98.438 90.8201 98.9967 90.401 99.6021 90.0284C99.6952 89.9818 99.7418 89.9353 99.8349 89.8887C103.467 87.5134 107.984 85.5107 112.501 84.3929C114.223 83.9737 115.807 83.6477 117.25 83.4148C117.39 83.2751 117.623 83.182 117.902 83.1354C119.485 82.8559 127.355 80.0615 136.668 79.6423C144.584 79.3163 148.868 80.5272 153.664 81.2724C157.855 82.6231 163.442 78.8971 169.636 79.5957C177.738 80.4806 186.632 85.6038 192.592 86.7216C194.641 86.5353 196.922 86.023 198.087 86.0695C199.204 85.7901 200.927 85.0449 201.067 85.4641C201.253 86.0696 200.089 86.5353 199.018 86.9079C199.111 87.0942 199.158 87.3736 199.251 87.6065C200.508 87.4668 202.929 87.1408 203.069 87.56C203.302 88.212 200.834 88.5846 199.577 88.7709C199.623 88.9106 199.623 89.0503 199.67 89.1901C200.927 89.1901 202.929 89.19 202.976 89.6092C203.162 90.4941 199.903 90.4475 198.925 90.3078C198.832 90.3078 198.785 90.2612 198.739 90.2612C198.459 90.2612 198.133 90.2147 197.807 90.1215C197.202 91.2859 199.344 92.1242 199.111 93.0091C198.785 94.3132 195.665 90.9133 194.874 89.5626C194.687 89.516 194.641 89.4695 194.641 89.4229Z" class="fill_white"/>
    <path d="M127.029 148.945C117.763 148.945 109.195 147.92 106.075 145.871C105.749 145.638 105.563 145.219 105.702 144.8C107.844 137.627 109.055 131.899 108.124 127.474C107.099 122.63 104.538 119.044 101.465 115.272C95.9236 117.181 79.4863 122.351 77.158 121.513C76.7855 121.373 76.3665 121.14 75.9474 120.907C73.3398 121.373 70.2665 121.14 68.823 120.348C67.1466 119.463 60.8604 111.639 52.7581 101.532C49.9642 98.0391 47.5428 95.0118 46.4252 93.6611C46.1924 93.3817 46.1458 92.9625 46.2855 92.6365L46.7511 91.705C46.984 91.2392 47.4962 91.0995 47.9619 91.2858C48.8932 91.7516 70.639 101.858 77.2977 105.538C82.6527 100.973 89.8703 95.4775 97.2275 90.3544C97.7397 89.9818 98.3451 89.5625 98.9504 89.1434C99.0435 89.0968 99.0901 89.0503 99.1832 89.0037C103.002 86.4887 107.611 84.486 112.128 83.3682C113.758 82.949 115.295 82.6696 116.738 82.4367C116.971 82.297 117.25 82.2038 117.576 82.1106C117.856 82.0641 118.461 81.8778 119.206 81.6915C122.373 80.8065 128.938 78.9436 136.482 78.6175C142.908 78.3381 146.912 79.0833 150.824 79.7819C151.801 79.9682 152.686 80.1079 153.664 80.2477C153.711 80.2477 153.757 80.2476 153.804 80.2942C155.666 80.8997 157.995 80.3408 160.695 79.6422C163.35 78.9902 166.423 78.1984 169.589 78.571C174.385 79.0833 179.414 81.0394 183.885 82.8093C187.051 84.0668 190.078 85.2312 192.499 85.6969C193.337 85.6038 194.222 85.5106 195.06 85.3708C196.131 85.1846 197.063 85.0448 197.761 85.0448H197.808C198.04 84.9517 198.32 84.9051 198.599 84.812C200.043 84.3462 201.347 83.9271 201.766 85.0448C201.952 85.5572 201.812 85.9763 201.533 86.3489C202.837 86.3023 203.535 86.4886 203.768 87.1873C203.861 87.5133 203.861 87.8859 203.628 88.2119C203.535 88.3982 203.395 88.5379 203.163 88.6776C203.442 88.8639 203.582 89.0968 203.675 89.4229C203.768 89.842 203.628 90.2612 203.349 90.5406C202.511 91.4255 199.95 91.3324 198.972 91.2392C199.437 91.705 199.996 92.357 199.81 93.2419C199.67 93.7543 199.298 94.1268 198.785 94.22C197.249 94.4529 194.967 91.5187 194.176 90.4475C188.169 91.6584 182.721 91.3789 179.415 91.2392C178.204 91.1926 177.226 91.1461 176.76 91.1927C176.062 91.2858 173.687 91.9844 171.173 92.7762C163.536 95.1049 159.811 96.1296 158.228 95.757C152.826 97.0611 148.775 97.1076 145.469 97.1542C141.231 97.2008 138.577 97.2473 135.83 99.8089L137.227 102.045C151.755 124.866 159.857 138 157.576 142.657C157.25 143.356 156.505 144.194 154.921 144.381C150.125 147.455 138.065 148.945 127.029 148.945ZM107.658 144.66C111.057 146.29 119.905 147.268 129.823 147.035C141.185 146.803 150.498 145.126 154.176 142.657C154.316 142.564 154.456 142.518 154.595 142.518C155.527 142.425 155.806 142.052 155.946 141.773C157.901 137.814 147.098 120.907 135.69 102.976L133.874 100.135C133.641 99.7624 133.688 99.2966 133.967 98.9706C137.46 95.2912 140.812 95.2446 145.422 95.1981C148.635 95.1515 152.64 95.1049 157.995 93.8008C158.228 93.7542 158.414 93.7543 158.647 93.8474C159.857 94.1735 166.842 92.031 170.614 90.8667C173.827 89.8886 175.689 89.3297 176.528 89.2366C177.179 89.19 178.111 89.2365 179.461 89.2831C182.814 89.4228 188.355 89.7023 194.362 88.3982C194.548 88.3516 194.734 88.3516 194.874 88.4448C195.107 88.5379 195.293 88.6776 195.386 88.9105L195.433 88.9571C195.666 89.3763 196.085 89.8886 196.55 90.4009C196.55 90.168 196.597 89.8886 196.737 89.6091C196.923 89.2365 197.295 89.0502 197.715 89.0968C197.994 89.1434 198.273 89.19 198.506 89.19C198.506 89.0968 198.46 88.9571 198.46 88.8639C198.413 88.6776 198.46 88.4448 198.553 88.2119C198.366 88.0722 198.227 87.9324 198.18 87.6996C198.134 87.4667 198.041 87.2338 197.947 87.0475C197.901 86.9544 197.901 86.8612 197.901 86.8146H197.854C197.295 86.8146 196.318 86.9544 195.293 87.0941C194.408 87.2339 193.43 87.3736 192.499 87.4667C192.406 87.4667 192.313 87.4667 192.266 87.4667C189.612 87.001 186.492 85.7434 183.186 84.4859C178.856 82.8092 173.92 80.8531 169.356 80.3874C166.516 80.0614 163.769 80.76 161.115 81.412C158.274 82.1106 155.62 82.7627 153.245 82.0641C152.314 81.9243 151.336 81.7381 150.451 81.5983C146.679 80.8997 142.721 80.2011 136.528 80.4805C129.218 80.8065 122.745 82.623 119.672 83.4613C118.787 83.6942 118.228 83.8805 117.856 83.9271C117.716 83.9736 117.669 83.9736 117.669 84.0202C117.53 84.1133 117.39 84.2065 117.204 84.253C115.76 84.4859 114.177 84.8119 112.547 85.1845C108.31 86.2558 103.793 88.2119 100.161 90.5406C100.161 90.5406 100.115 90.5406 100.115 90.5872C100.068 90.5872 100.068 90.6338 100.021 90.6804L99.9748 90.7269C99.3695 91.1461 98.8108 91.5187 98.2985 91.9378C90.8482 97.1076 83.258 102.883 77.9962 107.447C77.7168 107.727 77.2511 107.727 76.9252 107.54C72.0824 104.746 54.4809 96.4556 48.8932 93.8474C50.197 95.431 52.1061 97.8062 54.2015 100.461C59.4633 107.028 68.2176 118.02 69.6611 118.811C70.6856 119.37 73.4329 119.603 75.9008 119.091C76.1802 119.044 76.4596 119.091 76.6459 119.277C77.0184 119.557 77.3908 119.743 77.7168 119.883C79.2068 120.209 91.826 116.762 101.418 113.409C101.791 113.269 102.21 113.409 102.443 113.688C105.842 117.833 108.729 121.699 109.893 127.148C110.918 131.806 109.753 137.534 107.658 144.66Z" class="fill_black"/>
    <path fill-rule="evenodd" clip-rule="evenodd" d="M47.1235 61.5249C45.2144 139.723 47.1235 183.41 47.1235 183.41L48.7068 183.177L50.9418 182.386L47.1701 66.6481" class="fill_white"/>
    <path d="M47.1236 183.876C47.0305 183.876 46.8908 183.829 46.8443 183.783C46.7511 183.69 46.7045 183.596 46.6579 183.457C46.6579 183.038 44.7488 138.838 46.6579 61.5248C46.6579 61.2454 46.8908 61.0591 47.1236 61.0591C47.403 61.0591 47.5892 61.292 47.5892 61.5248C47.5427 63.1549 47.4961 64.7384 47.4961 66.322C47.5427 66.4151 47.5892 66.5083 47.5892 66.6015L51.361 182.339C51.361 182.525 51.2213 182.712 51.035 182.805L48.7999 183.596C48.7534 183.596 48.7534 183.597 48.7068 183.643L47.1236 183.876C47.1236 183.876 47.1702 183.876 47.1236 183.876ZM47.1236 81.971C46.0526 142.425 47.3565 178.24 47.5427 182.898L48.5671 182.758L50.4297 182.06L47.1236 81.971Z" class="fill_black"/>
    <path fill-rule="evenodd" clip-rule="evenodd" d="M8.66101 41.3115L16.8564 83.4149L79.5328 68.7905L73.8519 34.2788L8.66101 41.3115Z" class="fill_white"/>
    <path d="M16.8564 83.8806C16.7633 83.8806 16.6702 83.834 16.6236 83.7874C16.5305 83.7409 16.4374 83.6011 16.4374 83.508L8.2419 41.3581C8.19534 41.2183 8.24188 41.0787 8.33501 40.9855C8.42814 40.8924 8.52136 40.7992 8.66106 40.7992L73.852 33.7665C74.0848 33.7199 74.3175 33.9062 74.3641 34.139L80.045 68.6507C80.0916 68.8836 79.952 69.1165 79.6726 69.1631L16.9961 83.7874C16.903 83.8806 16.903 83.8806 16.8564 83.8806ZM9.21981 41.7307L17.229 82.9026L79.0206 68.4645L73.4794 34.7911L9.21981 41.7307Z" class="fill_black"/>
    <path d="M65.5633 60.8727C65.0511 60.8727 64.306 60.5467 64.2595 59.9878C64.2129 59.7549 64.3061 59.2892 65.2373 59.1029C65.4702 59.0563 65.7495 59.0563 66.3082 59.0563C66.867 59.0563 68.0777 59.1029 68.4502 58.9166C68.3105 58.4975 68.2173 57.9851 68.1708 57.5194C67.9845 56.4948 67.8448 55.4701 67.1464 54.9112C66.3548 54.3057 65.4235 53.8866 64.4457 53.4208C62.3969 52.4428 60.255 51.4647 59.4169 48.9497C58.8115 47.1799 60.674 45.9223 61.8847 45.084C62.164 44.8977 62.3969 44.758 62.5831 44.6182L62.7694 44.4785C63.3282 44.0594 64.1197 43.3608 64.9113 43.5471C65.7029 43.7333 65.6098 44.9443 65.5633 45.736C65.5633 45.8292 65.5633 45.8758 65.5633 45.9223C65.5633 46.2018 65.377 46.3881 65.0976 46.3881C64.8182 46.3881 64.632 46.2018 64.632 45.9223C64.632 45.8758 64.632 45.7826 64.632 45.6429C64.6786 44.8977 64.632 44.5716 64.632 44.4319C64.2595 44.4319 63.6542 44.9443 63.3748 45.1772L63.1885 45.3168C62.9556 45.4566 62.7229 45.6429 62.4435 45.8292C61.0932 46.7606 60.0222 47.599 60.3481 48.6236C61.0466 50.7661 62.9091 51.6044 64.8648 52.5359C65.8426 53.0016 66.867 53.4674 67.7051 54.1194C68.7295 54.8646 68.9158 56.1687 69.102 57.3331C69.1952 57.7988 69.2418 58.2645 69.3815 58.6371C69.4746 58.9166 69.4281 59.1961 69.2884 59.3824C68.8693 59.9413 67.7983 59.9413 66.3082 59.9413C66.1685 59.9413 66.0289 59.9413 65.8892 59.9413C66.0289 60.0344 66.0754 60.1741 66.0754 60.3139C66.0288 60.6865 65.8426 60.8727 65.5633 60.8727Z" class="fill_black"/>
    <path d="M71.1045 58.4507C70.8251 58.4507 70.6389 58.2644 70.6389 57.985V56.5878C70.6389 56.4481 70.6389 56.2618 70.6389 56.122C70.6389 55.8426 70.6854 55.5166 70.6389 55.2837C70.3595 53.281 70.0801 51.6509 69.8007 50.2071C69.3351 47.4593 68.916 45.3168 68.916 42.3361C68.916 42.0567 69.1023 41.8704 69.3817 41.8704C69.661 41.8704 69.8473 42.0567 69.8473 42.3361C69.8473 45.2703 70.2198 47.273 70.6855 50.0674C70.9183 51.5112 71.2443 53.1413 71.5237 55.1906C71.5702 55.5166 71.5702 55.8892 71.5237 56.2152C71.5237 56.3549 71.5237 56.4946 71.5237 56.6343V58.0316C71.5702 58.2179 71.3839 58.4507 71.1045 58.4507Z" class="fill_black"/>
    <path d="M66.9603 43.3608C66.6809 43.3608 66.4946 43.1745 66.4946 42.8951C66.4946 42.6157 66.6809 42.4294 66.9603 42.4294C68.2175 42.4294 69.4748 42.2896 70.6855 42.1965C71.8962 42.1033 73.1069 41.9636 74.3176 41.9636C74.5969 41.9636 74.7832 42.1499 74.7832 42.4294C74.7832 42.7088 74.5969 42.8951 74.3176 42.8951C73.1534 42.8951 71.9893 42.9882 70.7786 43.128C69.5679 43.2677 68.2641 43.3608 66.9603 43.3608Z" class="fill_black"/>
    <path fill-rule="evenodd" clip-rule="evenodd" d="M14.1091 51.2318C13.7366 51.1387 13.5038 50.7661 13.5038 50.3935C13.5038 49.9277 13.8763 49.5085 14.3885 49.5085C14.6679 49.5085 14.9008 49.6017 15.1802 49.788C15.4595 50.0209 15.7854 50.3934 16.0182 50.9523C16.6236 52.3496 16.9961 54.7249 16.9961 55.5167C16.9961 57.892 17.8809 60.8727 18.7656 63.8535C19.6969 67.0206 20.6282 70.1876 20.6282 72.5629C20.6282 73.0286 20.2556 73.4478 19.7434 73.4478C19.2777 73.4478 18.8587 73.0752 18.8587 72.5629C18.8587 70.2807 17.974 67.3466 17.0892 64.3192C16.1579 61.1522 15.2266 57.9385 15.2266 55.4701C15.2266 54.9112 14.9939 53.3276 14.5748 52.1167C14.4351 51.7907 14.2023 51.3716 14.1091 51.2318Z" class="fill_black"/>
    <path fill-rule="evenodd" clip-rule="evenodd" d="M17.1358 49.6019C16.9496 49.7416 16.7167 49.8348 16.4839 49.8348C15.9716 49.8348 15.5061 49.4156 15.5061 48.8567C15.5061 48.5307 15.5992 48.2978 15.7389 48.0649C15.9251 47.8321 16.2045 47.6458 16.6236 47.5526C16.9495 47.5061 17.4618 47.5992 17.9274 47.739C18.7656 48.0184 19.7901 48.4841 19.9298 48.5307C23.1893 49.6019 26.6817 51.4183 25.2381 55.7497C24.7725 57.1004 23.4221 58.0784 21.6526 58.6373C19.7435 59.1962 17.3687 59.3825 15.5061 59.4291C15.4595 59.4291 15.4129 59.4291 15.3663 59.4291H14.4817H14.435C13.364 59.4291 13.1313 58.9168 13.3175 58.451C13.1313 57.9853 13.364 57.5195 14.435 57.4729H14.4817H14.5281C16.2976 57.4729 18.9984 57.4263 21.0939 56.7743C22.2114 56.4483 23.1427 55.9825 23.4221 55.1442C23.7015 54.3059 23.7015 53.6538 23.5152 53.0484C23.2824 52.4895 22.8633 52.0704 22.3045 51.6978C21.4663 51.0923 20.3489 50.7197 19.371 50.3937C19.2313 50.3471 18.4863 49.9745 17.7412 49.7416C17.555 49.695 17.3221 49.6485 17.1358 49.6019Z" class="fill_black"/>
    <path d="M29.9412 67.5329C29.8946 67.5329 29.8014 67.5329 29.7549 67.4863C29.4755 67.3466 29.4755 67.1137 29.4755 67.0205C29.4755 66.974 29.4755 66.974 29.4755 66.9274C29.4755 66.8343 29.4755 66.6479 29.4755 66.5548C29.3358 66.0891 29.1496 65.5767 29.1496 64.9247C29.1496 63.9001 28.8235 62.596 28.5907 61.4316C28.5441 61.1522 28.4511 60.8728 28.4045 60.6399C28.0785 59.1961 27.7992 57.7523 27.5198 56.3085C27.1938 54.5852 26.8213 52.862 26.4488 51.1387C26.3556 50.8127 26.2159 50.4401 26.0296 50.021C25.7502 49.4155 25.4708 48.7635 25.4708 48.0649C25.4708 47.7854 25.6571 47.5991 25.9365 47.5991C26.2159 47.5991 26.4021 47.7854 26.4021 48.0649C26.4021 48.5306 26.635 49.0895 26.8678 49.6484C27.0541 50.0676 27.2403 50.4867 27.3335 50.9524C27.7526 52.6757 28.0785 54.4455 28.4045 56.1688C28.6839 57.566 28.9632 59.0564 29.2892 60.4536C29.3358 60.6865 29.429 60.9659 29.4755 61.2454C29.7549 62.4563 30.0809 63.8069 30.0809 64.9247C30.0809 65.437 30.2205 65.8562 30.3602 66.3219C30.3602 66.3685 30.5465 67.1603 30.2205 67.4397C30.174 67.4863 30.0809 67.5329 29.9412 67.5329Z" class="fill_black"/>
    <path d="M35.948 67.7192C35.7152 67.7192 35.529 67.5795 35.4824 67.3466C35.4358 67.0206 35.2496 66.4151 35.1099 66.1823C34.7373 65.5768 34.3183 64.9247 33.9457 64.2261C33.806 63.9932 33.6664 63.7603 33.5267 63.5275C33.2939 63.1549 32.9679 62.8289 32.5954 62.4563C32.2694 62.1768 31.9901 61.8508 31.7107 61.5248C30.7328 60.2207 29.6152 58.218 29.3359 56.4947C29.2427 55.9358 29.3358 55.5167 29.6618 55.1907C30.2206 54.6318 31.245 54.7249 32.2229 54.8646C32.6885 54.9112 33.5267 55.0043 33.6664 54.9112C33.7595 54.7249 33.7595 53.7468 33.5267 52.5825C33.4801 52.3496 33.4336 52.0702 33.4336 51.7907C33.387 51.2318 33.2939 50.7195 33.061 50.3469C32.9679 50.2072 32.3626 49.9743 32.1764 49.8812C32.0367 49.8346 31.9434 49.788 31.8503 49.7414C30.3137 49.0428 28.5909 48.6703 26.5886 48.6703C26.3092 48.6703 26.1229 48.484 26.1229 48.2045C26.1229 47.9251 26.3092 47.7388 26.5886 47.7388C28.7306 47.7388 30.5931 48.1113 32.2695 48.8565C32.3626 48.9031 32.4557 48.9497 32.5488 48.9497C33.1541 49.1826 33.6664 49.4154 33.8992 49.788C34.2718 50.3469 34.3648 51.0455 34.4114 51.651C34.4579 51.8839 34.458 52.1167 34.5046 52.3496C34.8306 54.0263 34.784 55.0975 34.3649 55.5167C33.8992 55.9824 33.0611 55.8893 32.1764 55.7496C31.5245 55.6564 30.6397 55.5632 30.4069 55.7961C30.3137 55.8893 30.3137 56.1687 30.3603 56.3084C30.6397 57.8454 31.7106 59.755 32.5488 60.9193C32.735 61.1988 33.0145 61.4782 33.3405 61.7577C33.7596 62.1303 34.1786 62.5494 34.458 63.0617C34.5977 63.2946 34.7373 63.5275 34.877 63.7603C35.0633 64.0864 35.2496 64.4124 35.3893 64.6918H35.4359C35.6687 64.5987 35.9481 64.785 35.9947 65.0179C36.0412 65.1576 36.0878 65.2507 36.0878 65.3439C36.1809 65.7165 36.274 65.9494 36.3206 66.5083C36.3206 66.6945 36.4137 67.0206 36.4137 67.1137V67.1603C36.4137 67.3932 36.274 67.5795 36.0412 67.6261C35.9946 67.6726 35.9946 67.7192 35.948 67.7192Z" class="fill_black"/>
    <path d="M43.119 67.207C41.4892 67.207 40.4182 65.4372 39.7198 64.2729C39.6266 64.0866 39.487 63.9002 39.3938 63.7605C38.09 61.7112 37.4381 58.9168 37.019 56.1223C36.9259 56.1689 36.8327 56.2154 36.7396 56.2154C35.9945 56.2154 35.8083 55.0977 35.7151 54.073C35.6686 53.8867 35.6687 53.747 35.6687 53.6538C35.2496 52.0703 35.5755 50.8128 36.2274 49.6484V49.6019C36.1808 49.369 36.3671 49.1361 36.5999 49.0895C36.7862 48.8101 36.9724 48.4841 37.2052 48.2046C37.2983 48.0649 37.4381 47.832 37.5312 47.6457C37.8106 47.1334 38.1365 46.5279 38.6488 46.2019C38.7884 46.1088 39.2076 45.8759 40.7908 47.0403C41.2564 47.3663 41.6289 47.6457 42.0014 47.8786C42.6533 48.2978 43.2587 48.6703 44.1434 49.5553C46.7976 52.21 46.751 58.0319 46.2388 62.4099L46.1922 62.7824C46.0525 64.0865 45.8197 66.2755 44.4693 66.9742C43.9106 67.1139 43.4915 67.207 43.119 67.207ZM37.1121 49.8348C37.2518 50.6731 37.3449 51.558 37.438 52.4895C37.9037 56.2154 38.3693 60.5003 40.1388 63.2482C40.2319 63.4345 40.3716 63.6208 40.4647 63.8071C41.4892 65.5304 42.4205 66.7879 43.9106 66.0427C44.8419 65.5769 45.0281 63.6208 45.1212 62.5961L45.1678 62.2236C45.8663 56.2155 45.261 52.0237 43.3518 50.1142C42.5602 49.3224 42.0014 48.9964 41.396 48.5772C41.0235 48.3443 40.6044 48.0649 40.1388 47.6923C39.7663 47.4128 39.161 47.0402 38.9282 46.9471C38.6488 47.1334 38.4625 47.5526 38.2297 47.9718C38.09 48.2046 37.9969 48.4375 37.8572 48.6238C37.5778 49.0895 37.3449 49.4622 37.1121 49.8348ZM36.8793 55.3305C36.7396 54.399 36.6465 53.5141 36.5533 52.6292C36.5068 52.3032 36.4602 51.9771 36.4602 51.6511C36.3671 52.21 36.3671 52.7689 36.5533 53.4675C36.5999 53.5607 36.5999 53.747 36.6464 53.9798C36.6464 54.2593 36.7396 55.0511 36.8793 55.3305Z" class="fill_black"/>
    <path d="M41.629 47.3197C41.4427 47.3197 41.2099 47.18 41.1633 46.9471C41.1168 46.7142 41.2566 46.4348 41.4894 46.3882C42.3741 46.1554 43.1657 45.969 43.9107 45.8293C46.2855 45.2704 48.1946 44.8513 50.4763 43.6869C50.7091 43.5938 50.9885 43.6869 51.0816 43.8732C51.1748 44.1061 51.0817 44.3856 50.8954 44.4787C48.5206 45.6896 46.5649 46.1088 44.1435 46.6677C43.3985 46.854 42.6069 47.0402 41.7687 47.2265C41.6756 47.3197 41.629 47.3197 41.629 47.3197Z" class="fill_black"/>
    <path d="M51.1748 65.0181C50.9886 65.0181 50.8023 64.9249 50.7558 64.7386C50.3832 63.7606 50.197 62.7359 50.0573 61.7113C49.9641 61.0592 49.871 60.4538 49.7313 59.8483C48.9863 56.8209 48.4275 53.6073 47.8687 50.5334C47.6358 49.3224 47.4495 48.1115 47.2167 46.9005C47.1701 46.6677 47.3564 46.3882 47.5892 46.3417C47.822 46.2951 48.1014 46.4813 48.148 46.7142C48.3808 47.9252 48.5672 49.1361 48.8 50.3471C49.3588 53.421 49.9176 56.5415 50.6627 59.5688C50.8024 60.2208 50.8955 60.8729 50.9886 61.525C51.1283 62.503 51.268 63.4345 51.594 64.3194C51.6871 64.5523 51.5939 64.8317 51.3145 64.9249C51.268 65.018 51.2214 65.0181 51.1748 65.0181Z" class="fill_black"/>
    <path d="M52.3388 44.6184C52.0594 44.6184 51.8732 44.4321 51.8732 44.1527C51.8732 43.8732 52.0594 43.6869 52.3388 43.6869C53.4098 43.6869 54.4809 43.5938 55.5519 43.4541C56.6229 43.3609 57.7404 43.2212 58.8114 43.2212C59.0908 43.2212 59.2771 43.4075 59.2771 43.6869C59.2771 43.9664 59.0908 44.1527 58.8114 44.1527C57.787 44.1527 56.716 44.2458 55.645 44.3855C54.574 44.4787 53.4564 44.6184 52.3388 44.6184Z" class="fill_black"/>
    <path d="M54.2015 50.2071C53.9686 50.2071 53.7824 50.0674 53.7358 49.8345C53.6893 49.6016 53.8755 49.3221 54.1084 49.2756C55.7382 48.9961 57.1817 48.7166 58.6718 48.2974C58.9046 48.2043 59.184 48.3906 59.2306 48.6235C59.2771 48.8563 59.1375 49.1358 58.9046 49.1824C57.368 49.6016 55.9245 49.8811 54.2947 50.1605C54.2481 50.2071 54.248 50.2071 54.2015 50.2071Z" class="fill_black"/>
    <path d="M54.2014 61.1521C53.922 61.1521 53.7357 60.9658 53.7357 60.6863C53.7357 60.4069 53.922 60.2206 54.2014 60.2206C55.1792 60.2206 56.1571 60.1275 57.1349 60.0809C58.1128 59.9878 59.0907 59.8946 60.1151 59.8946C60.3945 59.8946 60.6738 59.8946 60.9532 59.9412C61.8379 59.9877 62.5364 60.0343 63.0952 59.5685C63.2814 59.4288 63.6073 59.4754 63.747 59.6617C63.8867 59.848 63.8402 60.1741 63.6539 60.3138C62.8158 60.9658 61.8845 60.9192 60.9067 60.8727C60.6738 60.8727 60.3945 60.8261 60.1151 60.8261C59.1373 60.8261 58.1593 60.9192 57.228 60.9658C56.2502 61.0589 55.2258 61.1521 54.2014 61.1521Z" class="fill_black"/>
    <path d="M54.7136 61.1523C54.248 61.1523 54.2479 60.7331 54.2014 60.1277C54.2014 59.9414 54.1548 59.7085 54.1082 59.5222C54.0617 59.3359 54.0151 59.1496 54.0151 58.9167C53.8755 57.5661 53.6892 56.3551 53.5029 55.1908L53.4564 55.0045C53.0839 52.7689 52.6648 50.4867 52.3854 48.2977C52.3389 47.9251 52.2923 47.4594 52.2923 47.0402C52.2458 46.1087 52.1991 45.0375 51.8732 44.3855C51.7801 44.1526 51.8267 43.8732 52.0595 43.78C52.2923 43.6403 52.5717 43.7334 52.6649 43.9663C53.0839 44.8046 53.1305 45.9224 53.2236 46.9936C53.2702 47.4128 53.2701 47.832 53.3167 48.2046C53.5961 50.3936 54.0152 52.6757 54.3877 54.9113L54.4342 55.1442C54.6204 56.3085 54.7602 57.5195 54.9464 58.8701C55.0861 58.9633 55.2258 59.103 55.2258 59.2893V60.6865C55.1793 60.8728 54.993 61.1523 54.7136 61.1523Z" class="fill_black"/>
    <path d="M101.092 47.2265C98.671 46.4347 96.0168 46.4813 93.5023 46.9005C87.9145 47.7854 82.6992 50.347 78.7877 54.0264C77.7168 55.0045 76.7855 56.1222 76.0405 57.3332C75.2489 58.6838 73.526 61.8975 73.0137 63.3413C70.9649 69.5822 70.9648 71.3055 71.3374 75.3108C71.6633 72.7027 73.8519 69.3028 75.4351 67.1138C77.158 64.7385 78.974 62.27 81.5816 60.6865C80.2313 62.7358 79.1602 63.7138 78.1824 65.5302C77.3908 67.0672 76.3198 69.163 75.6679 70.7465C74.5969 73.3547 74.271 76.1958 74.0848 78.9902C74.4573 77.6861 75.6213 76.4286 76.4595 75.3108C77.2511 74.3328 78.1824 73.4479 79.1137 72.5629C80.4175 71.352 81.6748 70.1877 82.9786 68.9767C81.7213 70.7 80.3244 72.4232 79.3 74.0067C77.2512 77.2669 76.506 79.1765 75.3885 84.2531C77.903 80.9929 80.697 75.6834 85.1206 72.8424C81.3489 77.1738 80.1847 80.4806 79.3931 84.812C81.5817 81.2258 83.8167 78.7573 87.4022 76.2889C84.8412 80.7135 81.3489 85.4175 80.6038 90.3544C82.3267 87.7462 87.2161 83.4613 89.9168 81.6915C92.7573 79.8751 96.529 78.571 96.7618 77.4532C96.9946 76.382 94.387 74.8451 94.5267 73.7739C95.1786 69.0233 94.2007 64.0864 95.7839 59.5221C96.7152 56.7743 98.5778 54.3058 100.999 52.4894C102.117 51.6511 103.514 50.6731 103.327 49.369C103.327 48.2978 102.163 47.5991 101.092 47.2265Z" class="fill_black"/>
    <path d="M103.653 71.9109C103.467 72.004 103.327 72.0506 103.141 72.1438C104.538 75.1711 115.062 74.8916 116.645 72.1438L103.653 71.9109Z" class="fill_black"/>
</svg>
