<?xml version="1.0" encoding="UTF-8"?>
<svg version="1.1" viewBox="0 0 1432 1120" width="1280" height="1280" xmlns="http://www.w3.org/2000/svg">
<path transform="translate(0)" d="m0 0h1432v1120h-1432z" fill="#FAFAFA"/>
<path transform="translate(450,41)" d="m0 0h178v105l-6 12-9 8-12 5h-13l-9-4-6-4-7-7-3-5-14 1h-17v23l-1 22-3 8-7 9-9 6-11 4-3-1v49l4 13 4 6 1 3 6 2 11 6 6 2 2-2 3-10 6-9 8-6 9-4h14l10 4 10 9 5 7 3 11-1 13-6 12-8 8-10 5-9 2v283l-4 10-7 9-9 6-11 3h-10l-11-4-8-6-6-9-3-11-1-124-7-8-16-16-1-6 5 3 7 6 7 8 5 5h2l2-5h-2l-2-10-9-10-9-9-3-2v-2h-2l-2-5v-3l-16 3-10 5-7 8-5 12-1 15-6 11-8 9-9 4-5 1-1 84 5-1 7-8 2-2h3l-1 5-7 8-3 3h-2l3 5 7 7 3 4v3l-5-1-11-11-2-1-2 5-2 4-2 1-3 5-8 7-8 3-15 2-10 5-5 4-6 9-2 6-1 105-4 10-8 10-10 6-7 2h-10l-12-5-8-7-6-9-2-8v-44l-10-1-12-6-8-9-4-11v-456l4-8 8-9 10-6 8-2 1 243 3-1 1-2 1-239 7 1 8 4 8 7 7 11 1 6v200l12-4 9-6h5l2 4 5 1 6-2v-11l-8-1-1-2 2-8 7-3v-11l-6-2-1-2v-6l2-2 5-2v-12l-7-3 1-8 6-3 1-7-1-4-7-3v-32l2-9 8-11 10-7 8-3v-40l1-1 14-2 11-6 8-9 3-7 2-56 5-3 10-5 6-9 3-8 4-22 4-7 5-3h2v167h5v-174l2-57z" fill="#FBD349"/>
<path transform="translate(869,40)" d="m0 0h69l29 1 1 323 5 1v-296l1-29 29 1 1 216 6-9 7-7 11-5h2l-1-43 1-152h5l1 195h9l10 4 1 2v170l1 54 5 10 9 9v75l-4 12-6 7-7 5-8 3-16 2-12 6-8 9-4 11-1 13-4 10-8 9-6 4-13 4h-8l-11-4-8-7-7-11-2-4v98l-6 12-6 7-10 6-6 2h-12l-14-7-8-8-4-8-1-3-1-44-1-12-4-9-7-8-10-5-7-2h-11l-1 45h-5l-1-48-8-5-8-9-3-7v-196l6-2v-12l-6-3-1-3 2-6 5-2v-11l-6-4-1-6 3-3 4-1v-12l-6-3-1-5 5-6h2v-11l-6-3v-8l4-3h2v-12l-6-3v-8l6-5v-10l-6-3v-7l3-3 2-1 1-3v-10l-6-2v-7l4-3h2v-12l-7-4 1-7 6-4v-12l-6-2v-8l5-3 1-2v-8l-3-3-3-1-1-2v-40l-2-5-23-23-1-5 5 1 20 20h3l-2-13-7-8-17-17-2-5 2-1 6 4 12 12 5 6 2-3-1-7v-54z" fill="#883835"/>
<path transform="translate(733,74)" d="m0 0h13l10 4 6 4 8 8 4 11 1 4v26l-1 85v182l-3 10-7 10-4-4-6-8-8-4-3-1h-8l-9 4-7 8-2 4v12l5 10 7 5 12 3 1 1v38l-1 119-8 3-12 6-3 1-2 4-5 8-2 7v187l1 16 6 12 7 6 10 4 8 3 1 19v165l-2 12-5 9-9 8-9 4-5 1h-10l-11-4-8-6-6-9-3-9-1-29-6-1-8-6-9-10-2-8-1-85 1-4-12-1-11-4-9-7-6-10-2-18v-439l2-9 5-8 7-7 8-4 11-2v-232l4-11 7-8 9-6 6-2 5 1v210l1 280h4l1-491 13-5 5-4 7-12 2-7 2-15 5-10 6-6h2v-2l9-5z" fill="#E53F2A"/>
<path transform="translate(869,40)" d="m0 0h69l29 1v261h-6l-11-6v-2l-4-2-6-9-2-5-1-9-1-150-3-7-7-8-12-6-3-1h-16l-10 4-6 5h-2l-2 4-4 7-1 10v187l1 110 5 10 7 7 7 4 8 2 14 2 12 6 7 7 4 7 2 6v70l-1 4 10 1 9 6 5 8 1 9-2 8-4 6-7 6-5 2h-7l1 9 1 24v99l-6 12-6 7-10 6-6 2h-12l-14-7-8-8-4-8-1-3-1-44-1-12-4-9-7-8-10-5-7-2h-11l-1 45h-5l-1-48-8-5-8-9-3-7v-196l6-2v-12l-6-3-1-3 2-6 5-2v-11l-6-4-1-6 3-3 4-1v-12l-6-3-1-5 5-6h2v-11l-6-3v-8l4-3h2v-12l-6-3v-8l6-5v-10l-6-3v-7l3-3 2-1 1-3v-10l-6-2v-7l4-3h2v-12l-7-4 1-7 6-4v-12l-6-2v-8l5-3 1-2v-8l-3-3-3-1-1-2v-40l-2-5-23-23-1-5 5 1 20 20h3l-2-13-7-8-17-17-2-5 2-1 6 4 12 12 5 6 2-3-1-7v-54z" fill="#9EBF5D"/>
<path transform="translate(265,213)" d="m0 0h2l1 243 3-1 1-2 1-239 7 1 8 4 8 7 7 11 1 6v200l12-4 9-6h5l2 4 5 1 6-2v-11l-8-1-1-2 2-8 7-3v-11l-6-2-1-2v-6l2-2 5-2v-12l-7-3 1-8 6-3 1-7-1-4-7-3v-32l2-9 8-11 10-7 8-3h11l11 4 9 7 7 11 2 13-1 280 5-1 7-8 2-2h3l-1 5-7 8-3 3h-2l3 5 7 7 3 4v3l-5-1-11-11-2-1-2 5-2 4-2 1-3 5-8 7-8 3-15 2-10 5-5 4-6 9-2 6-1 105-4 10-8 10-10 6-7 2h-10l-12-5-8-7-6-9-2-8v-44l-10-1-12-6-8-9-4-11v-456l4-8 8-9 10-6z" fill="#5BAFDA"/>
<path transform="translate(41,41)" d="m0 0h167v287l-3 10-6 9-10 7-6 2-16 2-12 6-7 8-4 9-2 18-4 9-7 8-10 6-7 2h-10l-9-2v66l-4 10-8 9-9 5-8 3h-9l-13-5-3-3z" fill="#2A5AA1"/>
<path transform="translate(1273,41)" d="m0 0h74l1 1 1 301 5 1 1-238 1-64 1-1h14v507l-1 1-9-1-10-6-7-7-4-8-1 38-4 10-6 8-10 7-5 2-17 1-8-3-10-8-6-9-2-6v-99l4-11 4-6 8-7 10-4h16l12 6 5 4 6 9 3 7v-55l-2-12-6-10-9-6-8-3-15-2-12-6-8-8-3-5-2-8-1-43 12-6 6-7 2-5v-13l-5-8-6-5-9-3z" fill="#53A2D3"/>
<path transform="translate(1241,41)" d="m0 0h32l1 1v104l-1 114-1 1-9 2-7 4-5 6-2 5-1 12-6 8-2 9-1 104-4 10-6 8-7 5-7 3h-18l-12-5-10-10-4-9-1-126v-65l1-2-8-1-12-6-8-7-5-9-2-11 1-13 5-10 7-8 6-4 13-4h4l-2-7v-19l2-15 6-9 8-7 10-4 13-2 10-4 9-7 5-4h2l-1 131 5-1 1-157z" fill="#FCD348"/>
<path transform="translate(733,74)" d="m0 0h13l10 4 6 4 8 8 4 11 1 4v26l-1 85v182l-3 10-7 10-4-4-6-8-8-4-3-1h-8l-9 4-7 8-2 4v12l1 7-5 10-3 9-2 15-5 10-8 8-10 5-7 1v-353l13-5 5-4 7-12 2-7 2-15 5-10 6-6h2v-2l9-5z" fill="#2A5AA1"/>
<path transform="translate(265,213)" d="m0 0h2l1 243 3-1 1-2 1-239 7 1 8 4 8 7 7 11 1 6v40l1 212v33l-1 165-3 9-6 8-8 7-10 4h-11l-10-3-9-6-6-7-4-11v-456l4-8 8-9 10-6z" fill="#9EBF5D"/>
<path transform="translate(667,141)" d="m0 0 5 1v490h-1l-1-113-11 8-8 9-2 5-1 192v110l1 66-13-1-11-4-9-7-6-10-2-18v-439l2-9 5-8 7-7 8-4 11-2v-232l4-11 7-8 9-6z" fill="#D14586"/>
<path transform="translate(1030,41)" d="m0 0h5l1 195h9l10 4 1 2v170l1 54 5 10 9 9v75l-4 12-6 7-7 5-8 3-16 2-12 6-8 9-4 11-1 13-4 10-8 9-6 4-13 4h-8l-11-4-8-7-7-11-3-6-1-32 10-2 6-4 5-6 2-4 1-11-3-8-4-5-7-4-10-2 1-18 5-10 8-9 11-6 19-4 10-4 4-2 2-4 6-9 1-5 1-118v-23l-1-51v-25l3-7 4-6 7-7 11-5h2l-1-43z" fill="#D04585"/>
<path transform="translate(161,41)" d="m0 0h47v287l-3 10-6 9-10 7-6 2-16 2-12 6-7 8-4 9-2 18-4 9-7 8-10 6-7 2h-10l-9-3 1-127 3-10 6-9 8-6 9-3 14-2 14-7 6-7 4-9 1-7v-26l-8-2-8-5-6-9-2-5v-7l3-8 6-7 7-4 9-1z" fill="#D04485"/>
<path transform="translate(1124,322)" d="m0 0 10 3 8 4 10 9 4 8 1 20v84l8-2h12l12 5 10 9 1 5h-2l-1 3v7l8 5v7l-8 6v7l8 6v6l-7 5-1 2v6l4 4 4 2v42l-3 11-6 9-11 8-8 3h-14l-7-2v10l-3 7-6 8-10 7-4 2h-4v2l-9 3-3 4-2 7-7 8-14 14h-2l-1 3-5-1-20-20-2-3v-4l5 2 6 6 4 1v-6l3 1 3-1-5-5v-2l-4-2-11-11-1-6 4 2 3 2v2l4 2v2h2l7 8 6 4 7-8 5-5h2l2-4-6-4-4-1-6 6-4-2-22-22v-5l5 3 20 20 5-5-3-9-27-27-1-4 4 1 10 9 12 12 2-2-1-1v-110l8-3 12-6 7-7 5-10 1-20z" fill="#5BAFDA"/>
<path transform="translate(869,40)" d="m0 0h69l29 1v261h-6l-11-6v-2l-4-2-6-9-2-5-1-9-1-150-3-7-7-8-12-6-3-1h-16l-10 4-6 5h-2l-2 4-4 7-1 10v290h-1l-1-5-1-187-1-34-2 6h-1l-1 7-2 1-4-3-3 3 1 6-2 3h-3l-1 3h-3l-1-6v-6l3-1-2-5-6 1-2-1-1 2-4 1-6-2-1-5 1-5h-2l-1-2-1 1v5l-2-3-1-1-3 6-4 2-2-5v-8l-3-3-3-1-1-2v-40l-2-5-23-23-1-5 5 1 20 20h3l-2-13-7-8-17-17-2-5 2-1 6 4 12 12 5 6 2-3-1-7v-54z" fill="#92AE58"/>
<path transform="translate(450,41)" d="m0 0h178v105l-6 12-9 8-12 5h-13l-9-4-6-4-7-7-3-5-14 1h-17v23l-1 22-3 8-7 9-9 6-11 4-3-1-1-73h2v2h2l7 8 3 2h3l-6-8-7-7 2-4 7-7 1-2h2l2-6-8 6-8 8-4-2-2-3h5l-2-16-5-10-3-3v-2l-18-9h-14l-7 3-1 6h-1l2-64z" fill="#B0E9F4"/>
<path transform="translate(140,41)" d="m0 0h21l1 1v118l-11 3-7 5-5 8-1 4v7l5 10 4 5 8 4 7 2v26l-2 10-6 10-7 6-11 5-17 3-9 4-6 5-6 12-1 5-1 125-5 1-12-11-4-7-1-6v-239l3-1 2-4 2-2v-7l-4-6-1-7 5-5v-8l-1-3-4-1-1-5 3-7 3-1v-8l-1-6 4-6 10-6 7-2 16-3 8-4 7-6 6-12z" fill="#271A56"/>
<path transform="translate(702,251)" d="m0 0h11l11 4 10 7 6 10 2 8v102l1 18-11 2-7 4-6 7-2 4v12l1 7-5 10-3 9-2 15-5 10-8 8-10 5-7 1v-193l1-37 8-7 10-5z" fill="#251957"/>
<path transform="translate(1267,562)" d="m0 0h4l4 13 7 9 11 7 4 1v3l5 1 1 6v24l-1 94-1 23-3 10-7 6-11 5-3 1h-13l-9-3-7-4-7-10-2-8-2-42v-91l1-22 4-9 9-7 12-6z" fill="#C9EAF5"/>
<path transform="translate(667,141)" d="m0 0 5 1v352l-2 1-11-4-10-8-6-8-3-10v-65l1-197v-35l4-11 7-8 9-6z" fill="#2A5AA1"/>
<path transform="translate(1165,448)" d="m0 0h12l12 5 10 9 1 5h-2l-1 3v7l8 5v7l-8 6v7l8 6v6l-7 5-1 2v6l4 4 4 2v42l-3 11-6 9-11 8-8 3h-14l-12-6-7-6-6-10-1-3v-108l5-10 6-7 7-5z" fill="#2A5AA1"/>
<path transform="translate(1297,440)" d="m0 0h16l12 6 5 4 6 9 3 7v99l-4 10-6 8-10 7-5 2-17 1-8-3-10-8-6-9-2-6v-99l4-11 4-6 8-7z" fill="#D04585"/>
<path transform="translate(1122,56)" d="m0 0 10 1 10 5 10 9 5 10 1 70-6 3-7 6-6 10-2 9 1 14 3 8 2 3-1 4-8 5-8 3h-7l-12-6-10-9-5-7-2-15v-76l1-23 3-6 6-7 10-7 7-3z" fill="#B6E4F5"/>
<path transform="translate(364,284)" d="m0 0h11l11 4 9 7 7 11 2 13-1 197-11-1-12-5-10-9-4-7-2-13-1-196z" fill="#649043"/>
<path transform="translate(709,837)" d="m0 0 2 3 6 10 6 5 10 4 8 3 1 19v165l-2 12-5 9-9 8-9 4-5 1h-10l-11-4-8-6-6-9-3-9-1-30 2 1h16l8-4 7-6 7-11 2-7 1-10v-7l-7-4-1-8 3-5 6-4h2l-3-4-6-4-1-3v-9l2-2h3v-2h4l-4-7-5-5v-10l4-3h2v-7l-4-2-2-3v-11l2-2 6-2-3-31-5-9z" fill="#D14586"/>
<path transform="translate(303,442)" d="m0 0h1l1 37v49l-1 165-3 9-6 8-8 7-10 4h-6l-1-6v-59l3-3 8-4 6-7 2-5v-13l-5-8v-2l-4-2-11-5 1-89 2-2v-23l-3-3v-21l3-10 5-7 12-7 6-2z" fill="#478D5D"/>
<path transform="translate(560,41)" d="m0 0h68v105l-6 12-9 8-12 5h-13l-9-4-6-4-7-7-4-7-1-4-1-76z" fill="#92AF58"/>
<path transform="translate(742,448)" d="m0 0h1v99l-1 72v262h-1l-1-19-15-5-6-4-5-6-5-10-1-16v-187l4-11 6-8 10-6 12-4 1-119z" fill="#F8C1D8"/>
<path transform="translate(938,41)" d="m0 0h29v261h-6l-11-6v-2l-4-2-6-9-2-5-1-9v-227z" fill="#92AE58"/>
<path transform="translate(163,434)" d="m0 0h3v6l-2 6v9l1 4 17 1 10 4 9 8 6 11 1 5v51l-4 11-6 8-9 6-7 3-11 1-9-2-10-6-7-8-4-8-1-3-1-32-23-23-2-3v-3l5 1 20 20 1-3-1-12-24-24-1-5 4 1 7 6v2l4-1 6 5h5l-1-5-7-9-15-14-3-3v-4l5 1 17 17 1 2 5-1 18-18z" fill="#D04485"/>
<path transform="translate(974,40)" d="m0 0 29 1 1 220-2 18-9 14-11 8-8 1v5h-1v-238z" fill="#93AF59"/>
<path transform="translate(679,41)" d="m0 0h124l1 54 1 8-3 3-15-16-6-5-3-1 2 5 23 23 1 2 1 13-3 1-20-20-5-2-1 24h-1l-1-25-3-10-3-6-8-8-10-5-4-1h-13l-10 4-3 1v2l-8 7-4 9-3 19-6 12-4 5-7 4-8 3v-4l-2-6v-89z" fill="#AFE9F4"/>
<path transform="translate(1273,41)" d="m0 0h31v193l-1 22-4 9-7 7-7-6-7-4-5-1z" fill="#649145"/>
<path transform="translate(804,447)" d="m0 0 5 1 12 5 10 9 5 8 2 8 1 13-1 156-8 1-1 45h-5l-1-48-8-5-8-9-3-7z" fill="#488D5D"/>
<path transform="translate(526,692)" d="m0 0 12 1 9 4 8 6 7 9 2 5 1 7v46l-3 10-4 6-7 7-8 5-6 2h-10l-9-3-8-6-7-8-4-10-2-17v-29l2-12 4-8 2-3h2v-2l10-7z" fill="#5BAFDA"/>
<path transform="translate(718,433)" d="m0 0 2 3 4 5 8 4 9 2 1 1v38l-1 119-8 3-12 6-3 1-2 4-1-4-1-73-4-10-7-7-12-6-4-1h-7l-1 88h-1v-112l11-4 8-5 7-8 3-7 3-19 5-11z" fill="#D04485"/>
<path transform="translate(1357,41)" d="m0 0h14v507l-1 1-9-1-1-2 6-3 2-4-1-15-1-1v-7l-2-1-2-2v-16h-2v-5h2l-2-7 1-1 2-9 2-1v-2h-2l1-4 2 1-1-7-1-1v-19l1-4 1-19 1-14 1-4-2-8-2-10 1-4-1-10v-12l1-7-1-2h2l-3-7-5-2-2-1v-296z" fill="#52A1D2"/>
<path transform="translate(1e3 41)" d="m0 0h27v195l-14 7-7 7-5 9h-1z" fill="#C7EAF5"/>
<path transform="translate(895,96)" d="m0 0h16l12 5 9 8 4 6 1 4v47l-2 9-6 3-4 4-10 5-6 1h-14l-11-4-4-2v-2h-2l-5-5-3-5-1-4v-39l1-10 5-8 5-5 9-6z" fill="#852F15"/>
<path transform="translate(1120,322)" d="m0 0h4v124l-1 20-5 10-8 8-12 6-7 2-1 110 2 1-4 3v-2l-4-2 2-1 3 1v-111l1-2v-103l1-40 3-7 9-8 11-7z" fill="#C8EAF5"/>
<path transform="translate(1165,41)" d="m0 0h70v24l-4 5-6 7-10 6-10 3-12 2-8 4-8 7-4 7-2 15v19l1 7-11 3h-3l-1-9-1-60-5-10-9-8-10-5-8-2v-14z" fill="#C9EAF5"/>
<path transform="translate(628,41)" d="m0 0h43l1 25v76l-8 1-11 6-3 2-1-2-10 2h-6l-5-2-1-3z" fill="#C8EAF5"/>
<path transform="translate(869,40)" d="m0 0h69l-1 79-2-4-7-9-9-6-8-3h-16l-10 4-6 5h-2l-2 4h-2l-3 5-2-3v-67z" fill="#878A39"/>
<path transform="translate(273,41)" d="m0 0h30l1 1v116l-4 8-9 10-10 6-8 2z" fill="#D4BF40"/>
<path transform="translate(236,41)" d="m0 0h31v142h-6l-12-7-7-7-4-8-1-3-1-80z" fill="#D4BF3F"/>
<path transform="translate(1124,56)" d="m0 0 8 1 10 5 10 9 5 10 1 70-6 3-7 6-6 10-2 9 1 14 3 8 2 3-1 4-8 5-10 2z" fill="#53A2D3"/>
<path transform="translate(1168,147)" d="m0 0h8l13 5 9 8 6 12 1 4v16l-4 10-7 8-6 5-8 4-3 1h-10l-11-4-6-4-7-6-5-9-2-11 1-13 5-10 7-8 6-4z" fill="#E53E29"/>
<path transform="translate(558,273)" d="m0 0h14l10 4 10 9 5 7 3 11-1 13-6 12-8 8-10 5-9 2h-8l-12-6-8-8-6-11-1-4v-12l3-9 6-10 7-6z" fill="#53A2D3"/>
<path transform="translate(897,795)" d="m0 0h13l10 4 10 9 6 11 1 4v16l-3 8-7 9-8 6-7 3-10 1-9-2-9-5-9-9-4-8-1-4v-16l5-12 9-9 9-5z" fill="#9EBF5D"/>
<path transform="translate(1056,242)" d="m0 0 7 6 6 10 2 8v219l-7-6-6-8-2-5-1-54v-132z" fill="#F8C0D8"/>
<path transform="translate(405,41)" d="m0 0h35l1 1 1 18v44l-6 4-4 8-5 25-5 10-5 2-2-1h-8l-3-2v-32z" fill="#C9EAF5"/>
<path transform="translate(304,41)" d="m0 0h30l1 1v55l-1 55-24 3-5 1-1-13-1-61z" fill="#C9EAF5"/>
<path transform="translate(512,41)" d="m0 0h48l1 28 1 76 1 5-3 1-11 1h-17l-1-13 1-51 1-46h-21z" fill="#C9EBF6"/>
<path transform="translate(677,141)" d="m0 0h1v491l-5 1-1-1-1-280v-194l1-16h1l1 12h2z" fill="#E4EFF3"/>
<path transform="translate(208,41)" d="m0 0h27l1 5v109l-26-1-2-1z" fill="#C9EBF6"/>
<path transform="translate(671,381)" d="m0 0h1v113l-2 1-11-4-10-8-6-8-3-10v-65l14-4 10-6 5-6z" fill="#271956"/>
<path transform="translate(1355,106)" d="m0 0h1l1 231 2 2 5 2 2 4-1 4 1 2-1 13v10l1 6-1 4 2 9 2 10-2 9v15l-1 12-1 6v16l1 1v7h-2l-1 3h2l1 3-3 2-1 7-1 2 1 6h-2l1 3-1 2h2l1 4v12l1 1v-5h1v6l1 1 1 7 1 3 1 13-4 6-6 2-2-2v-3l-5-1-3-5-1-5 1-3-2-1h2l1-5 5-10 1-7 3-11h-2v-6h2l-2-6-1-10-1-9-2-9v-17l-3-13-2-2v-5l-1-1-2-11-1-4 1-2h4l-1-2v-25l8-1v-7l-5-5v-2h2l1-13z" fill="#5BAFDA"/>
<path transform="translate(414,156)" d="m0 0 2 1-12 6-2 56-5 10-7 7-11 6-14 2v39h-2l-1-23v-14l2-38 1-3-4-2 1-11 4-1v-9l4-9 6-5 22-7 6-2z" fill="#EEE5CF"/>
<path transform="translate(679,41)" d="m0 0h75v1h-47v41l4 5-1 5-3 9-2 15-6 12-4 5-7 4-8 3v-4l-2-6v-89z" fill="#C8EAF5"/>
<path transform="translate(648,909)" d="m0 0 6 2 10 7 6 7 3 8 1 12v77l-5 1-9-6-7-7-4-6-1-6-1-85z" fill="#FBD348"/>
<path transform="translate(733,74)" d="m0 0h13l10 4 6 4 8 8 3 7v13l-2 4-7 5-3-1 1-4-2-1v-2l-3 1v3l-1 4-8-1-1 2h-7v2h-2v2l-7-2-2 3-6-2-8-6-6-8-1-10 2-8 7-8 3-1v-2l9-5z" fill="#12366C"/>
<path transform="translate(934,675)" d="m0 0h4v52l-6 12-6 7-10 6-6 2h-6l-1-1v-46l3-12 6-8 9-7z" fill="#498D5D"/>
<path transform="translate(1e3 102)" d="m0 0h1l1 159-2 18-9 14-11 8-8 1v5h-1l1-20 1 4 5 1 3-3h1l4-2-1-4 2-6v-12l-1-4-1-11h-3l-2-1v-29l2-9 2-13 2-10 3-2 1-5-1-7 3-4v12h2v-8l1 4h4z" fill="#9EBF5D"/>
<path transform="translate(1035,41)" d="m0 0h16l2 1v84l-1 25-2 1-13-3-1 50h-1z" fill="#BFE6F3"/>
<path transform="translate(966,44)" d="m0 0h1v258h-6l-11-6v-2l-4-2-6-9-2-5v-8h2v6h4l1-2 2 1-2-4h3v-8l3-4h2l-2-4 1-9 1-7 1-18 1-10 1-8 2-5 1-6 2-7 1-9 2-3 1-8z" fill="#9EBF5D"/>
<path transform="translate(1355,42)" d="m0 0h1v64l-1 238-4 1-3-2v-300h1l1 39 1 8 3 1v-28z" fill="#D7EFF8"/>
<path transform="translate(903,795)" d="m0 0h7l10 4 10 9 6 11 1 4v16l-3 8-7 9-8 6-7 3h-6l-2-8-1-20z" fill="#498D5D"/>
<path transform="translate(1164,148)" d="m0 0 5 2 1 18v30l1 9v12l4 1h-8l-11-4-6-4-7-6-5-9-2-11 1-13 5-10 7-8 6-4z" fill="#CE4483"/>
<path transform="translate(967,41)" d="m0 0h1l1 39 3-1 2 13v209l-1 64h-5l-1-1z" fill="#F4F7F8"/>
<path transform="translate(522,693)" d="m0 0h9v39l-6 12-7 6-6 5-10 4-4-1-1-2v-29l2-12 4-8 2-3h2v-2l10-7z" fill="#53A2D1"/>
<path transform="translate(362,285)" d="m0 0h1v28l-1 20v31l-5-2-3-1-3-6-5-1-2-1-1-4-7-3v-32l2-9 8-11 10-7z" fill="#53A2D3"/>
<path transform="translate(776,41)" d="m0 0h27l1 54 1 8-3 3-15-16-6-5-4-4v-30l1-9z" fill="#C8EAF5"/>
<path transform="translate(1030,41)" d="m0 0h5l1 193 1 3-1 53-5 1-1-1-1-54v-67z" fill="#12356A"/>
<path transform="translate(1024,138)" d="m0 0 3 4v19l1 16v60l-12 6-7 7-2 4h-2l-1-5v-109h1v38h2l2 15 3 21v7l-1 2v7l3 4 2-5 2-20v-11l2-31 2-22z" fill="#E3F3F8"/>
<path transform="translate(1110,636)" d="m0 0 6 1 2 1 11 1-3 2-6 2-3 4-2 7-7 8-14 14h-2l-1 3-5-1-20-20-2-3v-4l5 2 6 6 4 1v-6l9 1 4-1z" fill="#F3F8FA"/>
<path transform="translate(158,166)" d="m0 0h8l6 4 5 6 1 2v10l-5 8-6 4-3 1h-7l-8-4-5-8v-12l5-7 5-3z" fill="#2B1D56"/>
<path transform="translate(532,302)" d="m0 0 6 1 11 4 8 6 6 9 3 8v14h-8l-12-6-8-8-6-11-1-4v-12z" fill="#649145"/>
<path transform="translate(936,554)" d="m0 0 8 1 7 5 4 8v7l-3 6-5 5-6 3-10-1-6-4-4-6v-13l4-6 5-3h5z" fill="#D14586"/>
<path transform="translate(265,614)" d="m0 0 9 1 5 3 4 6 1 9-2 6-6 7-5 2h-8l-7-4-5-6-1-4v-9l5-7 6-3z" fill="#9EBE5D"/>
<path transform="translate(1155,151)" d="m0 0 2 1v38l-3 9-6 6v3l-5-2-5-9-2-11 1-13 5-10 7-8z" fill="#271C59"/>
<path transform="translate(260,608)" d="m0 0h13l8 4 5 5 4 7v13l-4 8-8 7-8 3h-8l-10-5-6-7-3-7v-9l5-10 9-8zm5 6-8 3-5 5-2 3v9l3 7 7 6 3 1h8l6-3 6-7 1-9-2-7-5-5-6-3z" fill="#EDF5F7"/>
<path transform="translate(967,41)" d="m0 0h1l1 39 3-1 2 13v37l-1 127h-1l-1-99-1-4-1 16-1 132h-1z" fill="#E9F2EF"/>
<path transform="translate(931,549)" d="m0 0h11l8 3 6 5 4 7 1 9-2 8-4 6-7 6-5 2-8 1-9-3-7-6-5-10v-10l5-10 7-6zm5 5-1 2-7 1-5 4-2 4v13l6 8 9 3 8-1 6-4 4-6 1-3v-7l-4-8-7-5z" fill="#F4F5F2"/>
<path transform="translate(735,406)" d="m0 0h8l8 5 5 7v5l-9 3-4 1-1 12-1 2-8-1-7-4-4-7v-12l7-8z" fill="#271C59"/>
<path transform="translate(158,160)" d="m0 0 10 1 10 6 5 7 1 3v11l-3 8-5 6-7 4-2 1h-12l-9-5-6-8-3-7v-7l3-8 6-7 7-4zm0 6-7 3-5 5-2 3v12l6 9 7 3h7l8-4 4-5 2-4v-10l-4-6-6-5-2-1z" fill="#EEF4F4"/>
<path transform="translate(163,434)" d="m0 0h3v6l-2 6v10l-10 9-11 11-2 3-4-1-8-8-2-4h3l5 4h5l-1-5-7-9-15-14-3-3v-4l5 1 17 17 1 2 5-1 18-18z" fill="#ECF8FA"/>
<path transform="translate(824,496)" d="m0 0h5v197h-5z" fill="#1C1E4B"/>
<path transform="translate(449,42)" d="m0 0 2 4 2-1 5 2 3 5 1 2 1 16v10l3 6 1 4-1 4h4v2l-14 1-7 3-1 6h-1z" fill="#B6E4F6"/>
<path transform="translate(522,693)" d="m0 0h9v39l-6 12-7 6-7 4-5 1-3-3 1-6 4-1 1-4v2h6v-2h2v-2h2l2-4 3-5 3-12 1-2-1-9-3-3-4 1-5 5-5 6-1 3-5 1v-3l-2-1 1-7 14-14z" fill="#478D5F"/>
<path transform="translate(1359,485)" d="m0 0 3 3v4h-2l1 3-1 2h2l1 4v12l1 1v-5h1v6l1 1 1 7 1 3 1 13-4 6-6 2-2-2v-3l-5-1-3-5-1-5 1-3-2-1h2l1-5 5-10 1-7 3-11h-2v-6h2z" fill="#5CB0DB"/>
<path transform="translate(830,647)" d="m0 0h11l14 5 10 9 4 8 1 3 1 12v43l-3-4-4-18-3-28-3-7-5-7-6-5-3-6-5-2v-2h-9z" fill="#EDF8F9"/>
<path transform="translate(1064,610)" d="m0 0 7 6 17 17 4-2 4-4 4 1 4 3 3 2-18 18-10-9-2-4h-2l-5-6-4-4 2-2-4-9z" fill="#EAF7FA"/>
<path transform="translate(361,41)" d="m0 0h6v96l-6 1z" fill="#2A5AA0"/>
<path transform="translate(1371,42)" d="m0 0h1v508l-3 1-5-1v-1l6-1z" fill="#BDE7F5"/>
<path transform="translate(775,88)" d="m0 0 2 2 2 5 6-1 18 18 1 2 1 13-3 1-20-20-5-2-1 24h-1l-1-25-1-4v-11z" fill="#C5E9F5"/>
<path transform="translate(887,311)" d="m0 0 5 2 9 9 4 1 11-11 3-1 2 3-9 11-3 3-1 3h2l7 8 3 3 1 4-4 1-6-5v-2l-4-2-3-3-4 2-7 8-6 2-1-2 4-6 8-9-3-5-8-9-1-4z" fill="#F5F7F6"/>
<path transform="translate(158,166)" d="m0 0h8l6 4 5 6 1 2v10l-5 8-6 4-6 1v-34z" fill="#D14586"/>
<path transform="translate(386,588)" d="m0 0 4 1 4 5 10 7 13-13h3l-1 5-7 8-3 3h-2l3 5 7 7 3 4v3l-5-1-11-11-2-1-2 5-2 4-2 1-2 4h-6l-2-1 1-4 7-8h2l1-9-4-2-3-4v-2l-3-1z" fill="#233F6F"/>
<path transform="translate(1260,391)" d="m0 0 5 2 11 11 4-2 7-8 3-2h4l-2 5-7 8-3 3 1 4 8 8 2 3v3l-5-1-10-10-4 1-10 10-3 1-1-5 11-11-1-5-8-8-2-3z" fill="#22255E"/>
<path transform="translate(481,128)" d="m0 0 4 1 12 12 4-2 5-5 7-6h2l-2 6h-2l-2 4-7 7 2 4 8 8 3 6-6-1-8-8v-2h-2v-2l-8 7-7 7-4-1 1-4 10-11 2-1-2-4-6-5-4-6z" fill="#211F42"/>
<path transform="translate(930,556)" d="m0 0h7l-1 32-7-1-5-4-3-5v-13l4-6z" fill="#9EBF5D"/>
<path transform="translate(161,479)" d="m0 0h5l-1 5-7 8-6 5-5 5-5 6-5-1-21-21-2-3v-3l5 1 20 20 3-6 5-2z" fill="#211B48"/>
<path transform="translate(498,186)" d="m0 0 7 1v3h2l2 6 1 10-2 8 4 6-11 4-3-1z" fill="#B6E4F6"/>
<path transform="translate(1238,582)" d="m0 0 1 3-1 22v91l2 42 2 8 6 8-1 2-6-7-3-9-3-47v-32l-1-22-1-5v-13h2v-16l-1-1v-19l2-4z" fill="#ECF8FA"/>
<path transform="translate(521,336)" d="m0 0h2l-1 7-22 22-1 2h-3l-7-8-14-14-3-2v-6l7 4 18 18 7-6z" fill="#241D3D"/>
<path transform="translate(1168,220)" d="m0 0h3v69l1 124 3 9-4-4-2-8-1-94z" fill="#EEE5CF"/>
<path transform="translate(521,382)" d="m0 0h3v4h-2l-2 4-19 19-1 2h-5l-1-3-4-2-14-14v-2l-4-2v-5l5 2 14 14 6 5h2l7-8 13-13z" fill="#271C3D"/>
<path transform="translate(472,360)" d="m0 0 5 2 12 12v2l4 1 3 5h2l7-8 12-12 3-2h3l-1 6-12 11-10 10-1 2-4-1-21-21-2-1z" fill="#2A1F3C"/>
<path transform="translate(1064,651)" d="m0 0 5 2 18 18 5-1 18-18 6-1-2 5-20 20h-2l-1 3-5-1-20-20-2-3z" fill="#1F245E"/>
<path transform="translate(269,615)" d="m0 0 7 1 5 5 2 3 1 9-2 6-6 7-5 1-1-3z" fill="#4A8F62"/>
<path transform="translate(827,104)" d="m0 0 2 2-4 7-20 20-1 2-4-2-22-22-1-5 5 1 20 20h3l2-4 17-17z" fill="#1C1B45"/>
<path transform="translate(521,425)" d="m0 0h2v5l-4 5-8 7-8 8-2 3h-2v2l-4-1-20-20v-2l-3-1v-5l4 2 8 7 7 8 7 6 1-3h2l2-4 14-14z" fill="#281B3D"/>
<path transform="translate(163,456)" d="m0 0 2 1-1 6-4 2-1 3-6 5-3 4h-2l-2 4-6 5-7-6-18-18-1-5 4 1 7 6v2l4 2 7 8 2 2h3l7-8 13-13z" fill="#291C45"/>
<path transform="translate(163,434)" d="m0 0h3l-1 4-7 8-17 17-4-1-9-10-8-7-6-6v-4l5 1 17 17 1 2 5-1 18-18z" fill="#252260"/>
<path transform="translate(522,314)" d="m0 0 2 1-1 4-24 24-4-1-9-9-4-3v-2l-4-2v-2l-4-2v-2h-2v-5l5 2 20 20 21-21z" fill="#21193E"/>
<path transform="translate(520,403)" d="m0 0h4l-1 4-6 7-8 7-10 11-4-1-22-22-1-5 4 1 19 19 3 1 6-7 4-4h2v-2h2v-2z" fill="#261C3D"/>
<path transform="translate(1029,236)" d="m0 0h8l-1 54-5 1-1-1z" fill="#281944"/>
<path transform="translate(1274,267)" d="m0 0 4 1 5 3 4 7v10l-3 6-6 5-3 1-1-1z" fill="#53A2D2"/>
<path transform="translate(496,501)" d="m0 0h1l1 124 4 13 6 8 10 6 7 2h10l11-3 4-1-3 3-11 4h-11l-13-5-9-8-5-8-2-7-1-9v-93z" fill="#EEE5CF"/>
<path transform="translate(521,448)" d="m0 0h2l-1 6-24 24-3-1-7-8-10-10-3-2v-2h-2l-1-6 4 1v2l4 2 16 16 4-2 18-18z" fill="#20183F"/>
<path transform="translate(1064,628)" d="m0 0 4 2 3 2v2l4 2v2h2l7 8 6 4 7-8 5-5h2l2-4 6-5h3l-1 5-23 23-5-1-5-5-1-3-4-2-11-11z" fill="#1F2960"/>
<path transform="translate(472,471)" d="m0 0 5 3 7 6 7 8 5 5h2l7-8 11-11 4-3 3 1-2 5-23 23-4-2-21-21z" fill="#1E163F"/>
<path transform="translate(778,83)" d="m0 0 6 3 13 13 5 6 7-6 16-16h4l-1 4-22 22-4 3-23-23-2-5z" fill="#1D1D43"/>
<path transform="translate(973,129)" d="m0 0h1l1 70h1l1 23v28l-1 21-1 7h-1l-1-17z" fill="#9FC05E"/>
<path transform="translate(1114,604)" d="m0 0 1 4-6 7h-2l-2 4-15 15-4-2-22-22v-5l5 3 20 20 5-5 3-4 2 1 2-4 10-10z" fill="#1B2152"/>
<path transform="translate(1114,582)" d="m0 0 1 3-11 12-11 11-2 3-4-1-23-23-1-4 4 1 10 9 12 12 19-19z" fill="#1B2354"/>
<path transform="translate(708,634)" d="m0 0h1l1 108 1 49-1 46h-1l-1-16z" fill="#EEE5CF"/>
<path transform="translate(776,109)" d="m0 0h2l7 8 18 18-1 2-9-2-10-5-7-3z" fill="#F0FAFB"/>
<path transform="translate(677,63)" d="m0 0h1l1 68 3 8h-2v2h-3v14h-4l-1-13-1-2 1-36h1l1 18 2-4z" fill="#F0FAFB"/>
<path transform="translate(1114,585)" d="m0 0 2 1-4 3zm-3 4v3l-5 5 3 5-1 8-8 8-1 2-5 2-4-9-1-2 5-5z" fill="#52A1D2"/>
<path transform="translate(260,608)" d="m0 0h13l8 4 5 5 2 3 1 5v8l-4 1-1-10h-2l-3-4v-2l-5-2-3-1v-2l-14 1-1-4z" fill="#F0F7F8"/>
<path transform="translate(361,41)" d="m0 0h6l-1 6-2 3v78h1l1 9-5 1z" fill="#1E4884"/>
<path transform="translate(583,41)" d="m0 0h45v2h-2l-1 4-17 2-14-1-3-2h-4l-1-3h17l3 2v-2l-23-1z" fill="#649144"/>
<path transform="translate(1266,267)" d="m0 0h8v12l-15 3h-5l1-7 5-5z" fill="#FBD349"/>
<path transform="translate(1110,636)" d="m0 0 6 1 2 1 11 1-3 2-6 2-3 4-1 4-7 3-5 4v-3l2-4-1-3-1-2h-2l-1 2v-3z" fill="#EDF9FA"/>
<path transform="translate(735,406)" d="m0 0h8l8 5 5 7v5l-9 3-5-1-1-18h-6z" fill="#2B5CA2"/>
<path transform="translate(332,552)" d="m0 0h9l3 3v10l-4 2h-7l-4-3v-10z" fill="#EEF7F9"/>
<path transform="translate(334,475)" d="m0 0 9 1 1 2v10l-3 2h-9l-3-3v-9z" fill="#EDF7F9"/>
<path transform="translate(332,501)" d="m0 0h9l3 3v9l-4 3h-7l-4-4v-8z" fill="#EDF7F9"/>
<path transform="translate(72,138)" d="m0 0 7 1 3 4v7l-3 3-8 1-4-4v-8l3-3z" fill="#F1F6F6"/>
<path transform="translate(73,112)" d="m0 0 7 2 2 3v8l-5 3h-7l-3-3v-9l3-3z" fill="#EDF5F8"/>
<path transform="translate(332,578)" d="m0 0h9l3 2v11l-9 2-5-2-1-2v-8z" fill="#F1F8FA"/>
<path transform="translate(71,87)" d="m0 0h6l5 5v6l-4 4-6 1-4-2-1-2v-9z" fill="#EFF6F8"/>
<path transform="translate(332,450)" d="m0 0h10l2 2v10l-3 2h-9l-3-3v-8z" fill="#EEF6F9"/>
<path transform="translate(332,527)" d="m0 0h9l2 1 1 3v7l-1 2-3 1h-8l-3-3v-9z" fill="#EEF7F9"/>
<path transform="translate(71,62)" d="m0 0h6l5 5v6l-3 3-9 1-3-3-1-5 3-6z" fill="#F0F6F8"/>
<path transform="translate(560,150)" d="m0 0 3 1h-2v2l-8 4-4 4-9-1-7-3-1 4v-9z" fill="#F2FBFB"/>
<path transform="translate(1351,371)" d="m0 0 4 1v26l-3 1-4-2v-25z" fill="#E8F5F9"/>
<path transform="translate(741,426)" d="m0 0 2 1-1 12-1 2-8-1-7-4-3-6 16-3z" fill="#D14787"/>
<path transform="translate(1200,312)" d="m0 0h9l1 1v12l-4 2h-6l-3-4v-8z" fill="#F7F5EF"/>
<path transform="translate(1199,287)" d="m0 0h10l2 3v7l-3 3-7 1-4-3-1-8z" fill="#F7F5F0"/>
<path transform="translate(714,934)" d="m0 0 7 1 1 2v9l-4 4-6-1-3-3v-9z" fill="#F8F1EF"/>
<path transform="translate(713,960)" d="m0 0h8l1 1v10l-3 4h-6l-4-3-1-6 3-5z" fill="#F8F1EF"/>
<path transform="translate(1200,389)" d="m0 0h9l2 4v6l-4 4h-8l-2-3v-8z" fill="#F7F5F0"/>
<path transform="translate(1142,57)" d="m0 0 8 4 9 9 1 3v11l-2 2-4-10-6-8-9-7v-2z" fill="#E0F2F8"/>
<path transform="translate(710,884)" d="m0 0h10l2 3v9l-2 2h-9l-2-2v-11z" fill="#F8F1F0"/>
<path transform="translate(1112,651)" d="m0 0h4l-2 5-20 20h-2l-1 2-3-4v-2l5-3 17-17z" fill="#1A336D"/>
<path transform="translate(938,166)" d="m0 0h1l1 23v63l-1 16h-1l-1-40v-30z" fill="#9CBD5D"/>
<path transform="translate(712,909)" d="m0 0h8l2 3v9l-2 2-5 1-5-2-1-1v-10z" fill="#F8F0F0"/>
<path transform="translate(1200,338)" d="m0 0h8l2 2v11l-2 1h-9l-2-3v-8z" fill="#F7F5EF"/>
<path transform="translate(1202,363)" d="m0 0h6l2 2v11l-2 1h-9l-2-2v-9z" fill="#F7F4EE"/>
<path transform="translate(1201,415)" d="m0 0h7l3 2v7l-2 4-7 1-5-4v-7z" fill="#F7F5EF"/>
<path transform="translate(270,616)" d="m0 0 5 2 1 9v8l1 3-2 5 4-1-5 5h-3l-1-3z" fill="#649144"/>
<path transform="translate(161,479)" d="m0 0h5l-1 5-7 8-5 4-4 2-9 3 2-6 5-2z" fill="#2D1A40"/>
<path transform="translate(1034,296)" d="m0 0 2 2v25l-5 1-1-1-1-22 1-4z" fill="#341C43"/>
<path transform="translate(1078,601)" d="m0 0 7 6 7 7 3 9-5 6-7-6-7-7 2-2 4 2 4 6 3-1-1-4-4-5v-2l-4-2-2-5z" fill="#E1F4F9"/>
<path transform="translate(268,491)" d="m0 0 4 1 1 1v23l-2 2-4-1v-25z" fill="#ECF4F5"/>
<path transform="translate(968,387)" d="m0 0 5 1v25h-5l-1-1v-24z" fill="#F3F2EE"/>
<path transform="translate(1115,58)" d="m0 0h7v4l-11 5-9 3v2h-2v2h-2l-2 4-3 1 1-5 6-7 10-7z" fill="#B2E9F5"/>
<path transform="translate(1064,628)" d="m0 0 4 2 3 2v2l4 2v2h2l7 8 4 3v3h2l-1 3-4-1-5-5v-2l-4-2-11-11z" fill="#232251"/>
<path transform="translate(967,436)" d="m0 0h6v25h-5l-1-1z" fill="#ECF5F6"/>
<path transform="translate(672,664)" d="m0 0h5l1 1v23l-5 1-1-1z" fill="#FBFBFB"/>
<path transform="translate(361,146)" d="m0 0h6v25h-5l-1-8z" fill="#254B75"/>
<path transform="translate(1029,336)" d="m0 0h6l1 1v18l-1 1h-5l-1-1z" fill="#42213F"/>
<path transform="translate(1090,490)" d="m0 0h5l-4 2-1 110 2 1-4 3v-2l-4-2 2-1 3 1v-111z" fill="#B2E3F4"/>
<path transform="translate(1371,427)" d="m0 0h1v123l-3 1-5-1v-1l6-1z" fill="#B7E4F6"/>
<path transform="translate(628,148)" d="m0 0 5 2 11-1 5-1 1 4-4 3-3-2-8 2-3 2-10 1 2-5 2-4z" fill="#EEF9FB"/>
<path transform="translate(442,295)" d="m0 0 5 1v25h-5z" fill="#F5F1E8"/>
<path transform="translate(1260,357)" d="m0 0 2 3 2 11 2 3v4l-4 2h-5v-16z" fill="#F4FCFC"/>
<path transform="translate(824,724)" d="m0 0h5v25l-5-1z" fill="#2D3E51"/>
<path transform="translate(417,588)" d="m0 0h3l-1 5-7 8-3 3h-2l3 5 4 5-5-1-2-1-2-4v-7z" fill="#19356D"/>
<path transform="translate(114,435)" d="m0 0 5 1 17 17-2 1-6-2-8-7-6-6z" fill="#22285A"/>
<path transform="translate(1290,392)" d="m0 0h4l-2 5-7 8-3 3-1 5-4-3v-3h2l1-5 7-8z" fill="#163B72"/>
<path transform="translate(903,707)" d="m0 0h1l1 11 2 9-1 7-1 6 1 9 4 5h-6l-1-1z" fill="#649144"/>
<path transform="translate(1028,191)" d="m0 0 2 2v43l-3-1v-27z" fill="#9ED3EB"/>
<path transform="translate(398,609)" d="m0 0 4 1-2 5-2 4-2 1-2 4h-6l-2-1 1-4z" fill="#13386F"/>
<path transform="translate(1114,604)" d="m0 0 1 4-6 7h-2l-2 4-8 8-2-2v-3l2-3 2 1 2-4 10-10z" fill="#21356F"/>
<path transform="translate(1238,582)" d="m0 0 1 3-2 35-2-1v-12l-1-1v-19l2-4z" fill="#F0FAFB"/>
<path transform="translate(403,515)" d="m0 0h1l1 80 6-1-4 6-4-1z" fill="#BDE7F5"/>
<path transform="translate(398,602)" d="m0 0h4v2l4-2v6l1 4 9 3 4 5v3l-5-1-11-11-5-1 1-5z" fill="#1E1C50"/>
<path transform="translate(649,1014)" d="m0 0 7 6 4 2 6 2v2h2l1 7-4 1-7-7-9-11z" fill="#F4FCFC"/>
<path transform="translate(1063,627)" d="m0 0 3 1h-2l3 7 14 14-2 2-2-1v2l-4-2-8-11-2-6z" fill="#E5F5F9"/>
<path transform="translate(472,449)" d="m0 0 4 1v2l4 2 9 9v4l-4-1-7-7-3-2v-2h-2z" fill="#1C2258"/>
<path transform="translate(928,687)" d="m0 0h3l2 4-1 9-4 3h-2l-1-4v-7z" fill="#649144"/>
<path transform="translate(401,584)" d="m0 0h2v15l3 1-2 2-11-8-3-3v-2l4 1 3 1 3-2z" fill="#529FCB"/>
<path transform="translate(653,1010)" d="m0 0 7 6 9 6 4 1 1 2 1 32-2-4-1-6-1-21-11-7-7-7z" fill="#F1DAD1"/>
<path transform="translate(114,457)" d="m0 0 4 1 7 6v2l4 2 7 8-3 1-8-7v-2l-4-2-6-4z" fill="#26205C"/>
<path transform="translate(1096,627)" d="m0 0 4 1 4 3 3 2-5 5-3 2-3-6v-2l-5 1z" fill="#D4EEF7"/>
<path transform="translate(1064,610)" d="m0 0 7 6 14 14-4 1-8-6v-2h-2l-1-4h-2l-1-4h-2z" fill="#D5EEF6"/>
<path transform="translate(114,480)" d="m0 0 5 1 11 11-1 2-4 1-9-9-2-3z" fill="#201D54"/>
<path transform="translate(163,456)" d="m0 0 2 1-1 6-4 2-1 3-6 5-3 4h-2l1-5 9-9 1-4z" fill="#41284C"/>
<path transform="translate(285,219)" d="m0 0 4 1 7 6 4 6-1 2-2-4-5 1v-2l-4-1v-2l-4-2v-3z" fill="#94B059"/>
<path transform="translate(449,42)" d="m0 0h1v48l1 6 2 2-4 2-1 6h-1z" fill="#C9EBF6"/>
<path transform="translate(1064,605)" d="m0 0 5 3 12 12-4 1-4-2-9-9z" fill="#1D1948"/>
<path transform="translate(1236,216)" d="m0 0 4 1v13l-5 1-1-1v-12z" fill="#F5F2EA"/>
<path transform="translate(1125,323)" d="m0 0 9 2 8 4 8 7-1 2-5-2-8-7v-2l-7 1-4-1z" fill="#54A4D4"/>
<path transform="translate(378,509)" d="m0 0 9 3 5 2 9 1 2 1v6l-2 1-1-2-10-4-5-3-7-3z" fill="#55A6D5"/>
<path transform="translate(1274,267)" d="m0 0 4 1 5 3 3 5-1 2-5-1h-3l-2 2-1-1z" fill="#4C8F6A"/>
<path transform="translate(403,142)" d="m0 0h1l1 8 2 1h9 4v3l-2 2h-9l-4 1-2-1z" fill="#E5F2F3"/>
<path transform="translate(825,103)" d="m0 0h2l-1 3-8 7-8 9-5 3-1-2v-9h2l4 4z" fill="#98BA5C"/>
<path transform="translate(1133,188)" d="m0 0 3 1 4 10v3h-6l-3-6 1-6z" fill="#5BAFDA"/>
<path transform="translate(1253,386)" d="m0 0h5l4 5h-2l-1 4h-6l-5-5 4-2z" fill="#F0FAFB"/>
<path transform="translate(1069,654)" d="m0 0 7 6 11 11v2l-6-2-5-5-3-5-5-3z" fill="#12366C"/>
<path transform="translate(1063,583)" d="m0 0 4 1 10 9 4 5-4-2h-1l-1 2-11-11z" fill="#1D1F47"/>
<path transform="translate(156,447)" d="m0 0 2 2-2 5-4 4-9 5-2-2 12-11z" fill="#E4F4F9"/>
<path transform="translate(1175,422)" d="m0 0 7 6 5 4 10 4 18 1-4 2h-12l-10-3-10-7v-2h-2z" fill="#EEE5CF"/>
<path transform="translate(1260,391)" d="m0 0 5 2 10 10v2l-4-1-2-1v-2l-3 1-6-7z" fill="#19346B"/>
<path transform="translate(672,664)" d="m0 0h5l1 1v23l-5 1-1-1zm1 1 1 22h3v-22z" fill="#EFE1CF"/>
<path transform="translate(444,352)" d="m0 0 3 2v13l-4 1-1-1v-13z" fill="#F5F1E8"/>
<path transform="translate(1122,165)" d="m0 0h1v40l-2-2-1-8 1-11v-15z" fill="#C9EBF6"/>
<path transform="translate(779,112)" d="m0 0 7 6 10 10-3 1v-2l-5-1-7-6-2-4z" fill="#C7EAF6"/>
<path transform="translate(1085,637)" d="m0 0 5 1 1 1v5l-3 4-4-1-1-1 1-7z" fill="#F8FAFA"/>
<path transform="translate(1105,620)" d="m0 0 3 2-2 9-5-1-4-4 6-5 2 1z" fill="#53A3D2"/>
<path transform="translate(254,611)" d="m0 0 3 1v2l14-1v1l-13 3-5 3-1-2-5 2 2-4z" fill="#D8F0F7"/>
<path transform="translate(484,481)" d="m0 0 4 1 3 3 3 1 2 4 1-9h1v7h2l-1 5h-4l-11-11z" fill="#DAF0F7"/>
<path transform="translate(1272,260)" d="m0 0 6 1-4 1v4l3 1-11 1-6 3-2-1 8-5-1-4z" fill="#ECF0E9"/>
<path transform="translate(1349,331)" d="m0 0 4 1 1 1v12l-5-1z" fill="#F0FAFB"/>
<path transform="translate(776,109)" d="m0 0h2l4 11 6 5-4 1-8-6z" fill="#E2F3F8"/>
<path transform="translate(362,192)" d="m0 0h5v11l-5 1-1-4z" fill="#3E4549"/>
<path transform="translate(1064,628)" d="m0 0 4 2 3 2v2l3 1-1 3 3 4-1 2-10-10z" fill="#1E2559"/>
<path transform="translate(338,362)" d="m0 0h6l-2 10h-5l-1-1 1-8z" fill="#54A3D3"/>
<path transform="translate(345,308)" d="m0 0 5 2-1 9h-2l-1 2-2-1-1-9z" fill="#5CB0DB"/>
<path transform="translate(115,462)" d="m0 0 7 6 9 9-2 3-6-5-8-11z" fill="#E8F7FA"/>
<path transform="translate(828,648)" d="m0 0h1v38l-2-2-1-7 1-6v-21z" fill="#113469"/>
<path transform="translate(1236,717)" d="m0 0h1l1 7v19l-2 2-1-3z" fill="#F6FBFB"/>
<path transform="translate(338,388)" d="m0 0 5 1-1 9-6-2v-6z" fill="#53A3D3"/>
<path transform="translate(1079,654)" d="m0 0 6 1 1 3-3 1v5 3l-7-6 3-1z" fill="#EDF9FB"/>
<path transform="translate(392,598)" d="m0 0 5 4 1 6-6 7-1-4 2-8z" fill="#52A1D1"/>
<path transform="translate(577,317)" d="m0 0 2 1 1 6-5 5h-4l2-6z" fill="#5CB0DB"/>
<path transform="translate(813,92)" d="m0 0h2l-2 4-7 7-2-1-1-7 2-2 4 2z" fill="#9BBC5C"/>
<path transform="translate(472,453)" d="m0 0 1 2h2l3 4-8 2h-6v-4l8-2z" fill="#E7F5F9"/>
<path transform="translate(250,617)" d="m0 0 3 1-1 5-4 5-1-3-3 1 2-6z" fill="#EBF7F9"/>
<path transform="translate(719,107)" d="m0 0 3 1 6 9 2 2-4 1-2-1v-2h-3l-1-3h3-4l-1-4z" fill="#29599F"/>
<path transform="translate(114,435)" d="m0 0 5 1 2 7 4 2-1 4-10-10z" fill="#232F52"/>
<path transform="translate(163,434)" d="m0 0h3l-1 4-7 8-4 3 1-5 7-7z" fill="#232C67"/>
<path transform="translate(257,609)" d="m0 0h10v4l-3 1h-7l-1-4z" fill="#F0FAFB"/>
<path transform="translate(1284,417)" d="m0 0 6 2 3 4v3l-5-1-5-5z" fill="#222353"/>
<path transform="translate(903,795)" d="m0 0 3 3-1 2-1 37h-1z" fill="#649144"/>
<path transform="translate(1110,636)" d="m0 0 6 1 2 1 11 1v1l-23 1z" fill="#C1E9F5"/>
<path transform="translate(130,453)" d="m0 0 6 1 6 2-2 5h-4z" fill="#1C1A44"/>
<path transform="translate(472,449)" d="m0 0 4 1v2l4 2 7 7h-3l-4-3v-2l-7-1z" fill="#1F1A48"/>
<path transform="translate(704,113)" d="m0 0 1 4-6 12-4 2 1-5h2l2-5z" fill="#DCF1F8"/>
<path transform="translate(1104,610)" d="m0 0h2l-2 4-5 6-5 2-1-6h4l2-2z" fill="#58AAD7"/>
<path transform="translate(157,461)" d="m0 0h2l-2 4-8 8-7 5 2-4z" fill="#222054"/>
<path transform="translate(1093,646)" d="m0 0 2 3v-2l3 1-6 7-4 1 2-4h-2l1-2z" fill="#193771"/>
<path transform="translate(1081,645)" d="m0 0 4 2 3 2v3h2l-1 3-4-1-4-4z" fill="#1D1D4E"/>
<path transform="translate(1104,639)" d="m0 0 2 2-7 7-4-1v2l-2-1 8-8z" fill="#1E1D55"/>
<path transform="translate(465,447)" d="m0 0h6l-3 3-13 3-3-1v-2z" fill="#E8EEEA"/>
<path transform="translate(1269,413)" d="m0 0 1 4-4 3-2 3v3l-3 1-1-5z" fill="#193971"/>
<path transform="translate(1267,401)" d="m0 0h2v2l9 1 1 3h-2v3l-6-2-4-5z" fill="#1E1947"/>
<path transform="translate(1074,594)" d="m0 0 4 2 6 4 1 3-3 2-6-6z" fill="#221D56"/>
<path transform="translate(1274,269)" d="m0 0 5 1 1 5-5 4-1-1z" fill="#709244"/>
<path transform="translate(903,740)" d="m0 0h2l1 9 4 5h-6l-1-1z" fill="#649348"/>
<path transform="translate(1077,620)" d="m0 0 6 2 4 5-5 1-6-7z" fill="#1D235C"/>
<path transform="translate(1100,658)" d="m0 0 4 1-9 9-2-3h2v-4z" fill="#E5F5F9"/>
<path transform="translate(856,656)" d="m0 0 5 1 3 5v2l-4-1-4-4z" fill="#F6F9F9"/>
<path transform="translate(1102,617)" d="m0 0 1 4-7 6-1-2v-3l2-3z" fill="#232C62"/>
<path transform="translate(1278,412)" d="m0 0h5l5 6-6 1-4-4z" fill="#20245F"/>
<path transform="translate(1114,604)" d="m0 0 1 4-6 7-5 1 6-7z" fill="#1B2051"/>
<path transform="translate(114,480)" d="m0 0 5 1 4 5-5 1-4-4z" fill="#1F2862"/>
<path transform="translate(362,41)" d="m0 0h5l-1 6-2 3h-2z" fill="#153168"/>
<path transform="translate(156,447)" d="m0 0 2 2-8 7-6 7-3-2 12-11z" fill="#CBE9F5"/>
<path transform="translate(494,504)" d="m0 0h1v15l-2-3-2-7z" fill="#F4FCFC"/>
<path transform="translate(150,490)" d="m0 0v3l-3 3-1 3-6 2 2-6 5-2z" fill="#3C2250"/>
<path transform="translate(160,436)" d="m0 0 3 1-12 11-5 4 2-4z" fill="#1C1645"/>
<path transform="translate(455,91)" d="m0 0 4 1 3 2 6 1v1l-14 1v-5z" fill="#D7E8E7"/>
<path transform="translate(1069,592)" d="m0 0 7 6 2 3-3 1-5-5-2-3z" fill="#CAE7F2"/>
<path transform="translate(386,588)" d="m0 0 4 1 5 6-1 2-4-1v-2l-3-1z" fill="#1B2556"/>
<path transform="translate(126,486)" d="m0 0 6 4 3 4-1 4-7-8-2-3z" fill="#DFF3F9"/>
<path transform="translate(498,135)" d="m0 0 3 1 1 3-3 3-4-2-2-3h5z" fill="#D7E8E6"/>
<path transform="translate(673,665)" d="m0 0h4v10l-4-2z" fill="#E2F3F8"/>
<path transform="translate(1092,670)" d="m0 0 3 1-1 5h-2l-1 2-3-4v-2z" fill="#1B437C"/>
<path transform="translate(1064,651)" d="m0 0 5 2v5l3 3h-3l-5-6z" fill="#222862"/>
<path transform="translate(368,633)" d="m0 0 3 1-9 3-7 1 1-2 5-2z" fill="#55A5D5"/>
<path transform="translate(497,481)" d="m0 0h1v7h2l-1 5h-4l2-1-1-2z" fill="#DADFD1"/>
<path transform="translate(448,90)" d="m0 0h2l1 6 2 2-4 2-1 6h-1z" fill="#D9E8E5"/>
<path transform="translate(826,735)" d="m0 0 2 3 1 11-4-1h2l-1-4z" fill="#2B2957"/>
<path transform="translate(396,617)" d="m0 0h2v2l-2 1-2 4h-6l-2-1 1-3v2l4-1z" fill="#3268A4"/>
<path transform="translate(1275,573)" d="m0 0 8 10 5 5-4-2-6-5-3-5z" fill="#9A4D4B"/>
<path transform="translate(144,454)" d="m0 0h2l-1 5-4 4-4-1 3-2 3-5z" fill="#1F336E"/>
<path transform="translate(1125,323)" d="m0 0 9 2v2l-5 1-4-1z" fill="#53A3D3"/>
<path transform="translate(828,724)" d="m0 0h1v19h-1l-2-9z" fill="#173E77"/>
<path transform="translate(937,628)" d="m0 0 3 3 3 7-3 1-1-3-2 1z" fill="#F2E9DD"/>
<path transform="translate(114,457)" d="m0 0 4 1 4 4-6 1-2-3z" fill="#1F3370"/>
<path transform="translate(1349,373)" d="m0 0h4l-2 4 1 7-3 1z" fill="#F4FCFC"/>
<path transform="translate(1262,280)" d="m0 0h8v1h-5l-1 6-2 1v-6l-3-1z" fill="#F1F2EA"/>
<path transform="translate(281,719)" d="m0 0 3 1-9 2-2 5-2-3v-3z" fill="#53A3D3"/>
<path transform="translate(1087,672)" d="m0 0 4 5v2l-5-1-2-4z" fill="#1C2050"/>
<path transform="translate(353,640)" d="m0 0 2 1-11 11v-3l5-6z" fill="#DDF1F8"/>
<path transform="translate(646,148)" d="m0 0 4 1-1 4-2 1-1-2-7-1v-1z" fill="#E0F2F8"/>
<path transform="translate(416,617)" d="m0 0 4 3v3l-5-1-2-4z" fill="#1D1B4B"/>
<path transform="translate(131,471)" d="m0 0 4 1 4 4 3 2-4 1-7-7z" fill="#B3DFF0"/>
<path transform="translate(480,464)" d="m0 0 5 1 4 5-4 1z" fill="#CCE7F3"/>
<path transform="translate(120,438)" d="m0 0 7 6 1 2-7-2-1-1z" fill="#20205C"/>
</svg>